<svg width="335" height="200" viewBox="0 0 335 200" fill="none" xmlns="http://www.w3.org/2000/svg">
<rect width="335" height="200" fill="#FFF7F2"/>
<path d="M275.983 51.2422H261.873V55.0456H275.983V51.2422Z" fill="#FFDFCC"/>
<path d="M267.053 46V60.2788H270.811V46H267.053Z" fill="#FFDFCC"/>
<path d="M289.817 85.2422H275.707V89.0456H289.817V85.2422Z" fill="#FFBE99"/>
<path d="M280.887 80V94.2788H284.645V80H280.887Z" fill="#FFBE99"/>
<path d="M248.313 167.242H234.203V171.046H248.313V167.242Z" fill="#FFDFCC"/>
<path d="M239.383 162V176.279H243.141V162H239.383Z" fill="#FFDFCC"/>
<path d="M58.5791 114.242H44.4688V118.046H58.5791V114.242Z" fill="#FFDFCC"/>
<path d="M49.6484 109V123.279H53.407V109H49.6484Z" fill="#FFDFCC"/>
<path d="M87.3922 157.83L83.8874 160.416C81.7005 162.029 78.7384 161.99 76.5935 160.313L73.4182 157.837C71.367 156.234 70.1621 153.744 70.1621 151.102V140.04C70.1621 138.913 71.0537 138 72.1552 138H88.8394C89.9409 138 90.8324 138.913 90.8324 140.04V150.957C90.8324 153.681 89.5533 156.237 87.3954 157.827L87.3922 157.83Z" fill="#FFF7F2" stroke="#FFBE99" stroke-width="4.17815" stroke-miterlimit="10"/>
<path d="M85.1434 147.036H75.6465V149.598H85.1434V147.036Z" fill="#FF9E66"/>
<path d="M79.1289 143.512V153.122H81.6614V143.512H79.1289Z" fill="#FF9E66"/>
<path d="M236.18 141.348C236.18 149.437 233.069 157.042 227.421 162.762C221.772 168.482 214.261 171.632 206.273 171.632H178.104C175.298 171.632 173.016 173.943 173.016 176.784V181.434C173.016 188.374 167.46 194 160.606 194C159.535 194 158.495 193.863 157.504 193.604C152.152 192.209 148.197 187.29 148.197 181.434V176.784C148.197 168.696 151.308 161.091 156.957 155.37C162.606 149.65 170.116 146.5 178.104 146.5H206.273C209.079 146.5 211.361 144.189 211.361 141.348C211.361 138.507 209.079 136.196 206.273 136.196H131.692C123.704 136.196 116.194 133.045 110.545 127.325C104.896 121.605 101.785 114 101.785 105.911V105.157C101.785 97.0686 104.896 89.4636 110.545 83.7435C116.194 78.0233 123.704 74.873 131.692 74.873H186.17C188.976 74.873 191.258 72.5621 191.258 69.7209C191.258 66.8797 188.976 64.5688 186.17 64.5688H154.526C146.538 64.5688 139.027 61.4185 133.379 55.6983C127.73 49.9782 124.619 42.3732 124.619 34.2844V16.5661C124.619 10.7103 128.574 5.79067 133.926 4.39583C134.917 4.13697 135.957 4 137.028 4C143.882 4 149.438 9.62586 149.438 16.5661V34.2844C149.438 37.1256 151.72 39.4365 154.526 39.4365H186.17C194.158 39.4365 201.668 42.5868 207.317 48.3069C212.966 54.0271 216.077 61.6321 216.077 69.7209C216.077 77.8097 212.966 85.4147 207.317 91.1348C201.668 96.855 194.158 100.005 186.17 100.005H131.692C128.886 100.005 126.604 102.316 126.604 105.157V105.911C126.604 108.753 128.886 111.063 131.692 111.063H206.273C214.261 111.063 221.772 114.214 227.421 119.934C233.069 125.654 236.18 133.259 236.18 141.348Z" fill="#FF5D00"/>
<path d="M230.251 141.525C230.251 149.648 227.133 157.285 221.473 163.029C215.812 168.773 208.285 171.936 200.28 171.936H172.05C169.238 171.936 166.951 174.257 166.951 177.11V181.779C166.951 187.659 162.987 192.599 157.624 194C152.26 192.599 148.297 187.659 148.297 181.779V177.11C148.297 168.987 151.414 161.35 157.075 155.606C162.736 149.862 170.263 146.699 178.268 146.699H206.498C209.31 146.699 211.597 144.378 211.597 141.525C211.597 138.672 209.31 136.351 206.498 136.351H131.756C123.751 136.351 116.225 133.188 110.564 127.444C104.903 121.7 101.785 114.063 101.785 105.94V105.183C101.785 97.0605 104.903 89.4237 110.564 83.6796C116.225 77.9356 123.751 74.7721 131.756 74.7721H186.351C189.163 74.7721 191.45 72.4515 191.45 69.5984C191.45 66.7453 189.163 64.4247 186.351 64.4247H154.639C146.634 64.4247 139.107 61.2612 133.447 55.5172C127.786 49.7731 124.668 42.1363 124.668 34.0136V16.2212C124.668 10.3409 128.631 5.40068 133.995 4C139.359 5.40068 143.322 10.3409 143.322 16.2212V34.0136C143.322 36.8667 145.609 39.1873 148.421 39.1873H180.133C188.138 39.1873 195.665 42.3508 201.326 48.0948C206.987 53.8389 210.105 61.4757 210.105 69.5984C210.105 77.7211 206.987 85.3579 201.326 91.1019C195.665 96.846 188.138 100.009 180.133 100.009H125.538C122.726 100.009 120.439 102.33 120.439 105.183V105.94C120.439 108.793 122.726 111.114 125.538 111.114H200.28C208.285 111.114 215.812 114.277 221.473 120.022C227.133 125.766 230.251 133.402 230.251 141.525Z" fill="#FF9E66"/>
<path d="M146.555 48.7453C146.555 48.6248 146.589 48.5069 146.652 48.4067C146.716 48.3065 146.806 48.2283 146.912 48.1822C147.017 48.1361 147.133 48.124 147.245 48.1475C147.357 48.171 147.46 48.2291 147.541 48.3143C147.622 48.3996 147.677 48.5082 147.699 48.6264C147.722 48.7447 147.71 48.8672 147.666 48.9786C147.623 49.09 147.549 49.1852 147.454 49.2521C147.359 49.3191 147.247 49.3549 147.133 49.3549C146.979 49.3549 146.832 49.2906 146.724 49.1763C146.616 49.062 146.555 48.907 146.555 48.7453ZM151.562 45.9009C151.562 46.1719 151.489 46.4371 151.35 46.6655C151.212 46.8939 151.015 47.0759 150.782 47.19C150.716 48.2175 150.282 49.1801 149.569 49.8836C148.856 50.587 147.916 50.9789 146.94 50.9802H145.399C145.246 50.9802 145.099 51.0444 144.991 51.1588C144.883 51.2731 144.822 51.4281 144.822 51.5898C144.822 51.7514 144.883 51.9064 144.991 52.0207C145.099 52.1351 145.246 52.1993 145.399 52.1993H148.096C148.198 52.1993 148.296 52.2421 148.368 52.3183C148.44 52.3945 148.481 52.4978 148.481 52.6056C148.481 52.7134 148.44 52.8167 148.368 52.8929C148.296 52.9691 148.198 53.012 148.096 53.012H145.785V53.8246H147.325C147.427 53.8246 147.525 53.8675 147.598 53.9437C147.67 54.0199 147.71 54.1232 147.71 54.231C147.71 54.3388 147.67 54.4421 147.598 54.5183C147.525 54.5945 147.427 54.6373 147.325 54.6373H144.629C143.608 54.6373 142.628 54.2092 141.905 53.4472C141.183 52.6851 140.777 51.6516 140.777 50.5739C140.777 49.4962 141.183 48.4626 141.905 47.7006C142.628 46.9385 143.608 46.5104 144.629 46.5104H150.214C150.367 46.5104 150.514 46.4462 150.623 46.3319C150.731 46.2176 150.792 46.0626 150.792 45.9009C150.792 45.7393 150.731 45.5842 150.623 45.4699C150.514 45.3556 150.367 45.2914 150.214 45.2914H146.17C145.863 45.2914 145.569 45.163 145.353 44.9343C145.136 44.7057 145.014 44.3957 145.014 44.0724C145.014 43.9646 145.055 43.8612 145.127 43.785C145.199 43.7088 145.297 43.666 145.399 43.666C145.502 43.666 145.6 43.7088 145.672 43.785C145.744 43.8612 145.785 43.9646 145.785 44.0724C145.785 44.1801 145.825 44.2835 145.897 44.3597C145.97 44.4359 146.068 44.4787 146.17 44.4787H150.214C150.572 44.4787 150.914 44.6285 151.167 44.8953C151.42 45.162 151.562 45.5237 151.562 45.9009ZM144.134 52.1078C144.105 52.0644 144.067 52.0275 144.025 51.9993C143.982 51.971 143.934 51.952 143.884 51.9432C143.834 51.9344 143.783 51.9361 143.734 51.9481C143.685 51.9602 143.638 51.9823 143.597 52.0134L142.857 52.5721C142.779 52.6367 142.728 52.7306 142.714 52.8341C142.7 52.9377 142.724 53.043 142.782 53.1281C142.84 53.2132 142.926 53.2715 143.024 53.291C143.121 53.3104 143.222 53.2894 143.305 53.2324L144.045 52.6737C144.127 52.6111 144.183 52.5163 144.2 52.4103C144.217 52.3042 144.193 52.1955 144.134 52.1078ZM144.062 50.2986L142.2 49.4056C142.154 49.3819 142.104 49.3681 142.052 49.3652C142.001 49.3623 141.949 49.3702 141.901 49.3886C141.853 49.407 141.808 49.4354 141.77 49.4722C141.732 49.5089 141.702 49.5533 141.681 49.6027C141.659 49.6522 141.648 49.7056 141.646 49.7598C141.645 49.8141 141.654 49.8681 141.673 49.9186C141.691 49.9692 141.719 50.0153 141.755 50.0542C141.791 50.0931 141.834 50.1241 141.881 50.1452L143.743 51.0386C143.789 51.0607 143.839 51.0729 143.89 51.0746C143.94 51.0763 143.991 51.0674 144.038 51.0486C144.085 51.0297 144.129 51.0012 144.166 50.9646C144.203 50.928 144.232 50.8842 144.253 50.8355C144.295 50.7375 144.298 50.626 144.263 50.5254C144.227 50.4248 144.155 50.3432 144.062 50.2986ZM149.997 47.3231H145.785V50.1675H146.94C147.69 50.1666 148.415 49.8773 148.977 49.3537C149.54 48.8302 149.903 48.1083 149.997 47.3231Z" fill="white"/>
<path d="M186.152 50.4473C186.071 50.0402 185.848 49.6733 185.52 49.4093C185.193 49.1452 184.781 49.0006 184.356 49C184.259 49 184.166 49.0376 184.098 49.1046C184.029 49.1716 183.99 49.2624 183.99 49.3571C183.99 49.4519 184.029 49.5427 184.098 49.6097C184.166 49.6767 184.259 49.7143 184.356 49.7143C184.589 49.7143 184.815 49.7863 185.003 49.92C185.191 50.0536 185.33 50.242 185.401 50.458C184.705 50.557 184.069 50.8971 183.608 51.4162C183.147 51.9354 182.893 52.5989 182.893 53.2857C182.893 55.3728 181.715 56.7678 179.392 57.4375C179.233 57.4827 179.095 57.5791 178.999 57.711C178.904 57.8429 178.857 58.0025 178.866 58.1638C178.876 58.325 178.941 58.4784 179.051 58.5989C179.161 58.7194 179.31 58.7999 179.473 58.8272C180.161 58.9432 180.857 59.001 181.555 59C183.42 59 185.496 58.5915 186.93 57.417C188.136 56.4303 188.747 55.0402 188.747 53.2857C188.746 52.5844 188.482 51.9078 188.003 51.3845C187.525 50.8612 186.866 50.5277 186.152 50.4473ZM187.284 52.8839L185.984 52.2513C185.933 52.2265 185.877 52.2136 185.82 52.2136C185.763 52.2136 185.707 52.2265 185.656 52.2513L184.356 52.8839L183.745 52.5857C183.894 52.1643 184.174 51.7989 184.546 51.5402C184.918 51.2815 185.363 51.1424 185.82 51.1424C186.277 51.1424 186.722 51.2815 187.094 51.5402C187.466 51.7989 187.746 52.1643 187.895 52.5857L187.284 52.8839Z" fill="white"/>
<path d="M158.33 119.352C158.28 119.344 158.229 119.338 158.178 119.331C157.414 119.237 156.642 119.358 155.948 119.681L156.449 118.797C156.499 118.71 156.512 118.605 156.485 118.507C156.458 118.409 156.394 118.325 156.307 118.274C156.22 118.222 156.116 118.208 156.019 118.234C155.922 118.259 155.84 118.323 155.79 118.41L153.355 122.701C152.838 123.615 152.683 124.695 152.921 125.729C153.158 126.762 153.77 127.673 154.636 128.28C154.545 128.606 154.565 128.956 154.693 129.273C154.82 129.589 155.049 129.856 155.341 130.029C155.429 130.08 155.532 130.095 155.629 130.069C155.726 130.044 155.808 129.98 155.858 129.893C155.908 129.805 155.921 129.701 155.894 129.602C155.867 129.504 155.803 129.42 155.716 129.369C155.596 129.298 155.497 129.196 155.429 129.073C155.362 128.951 155.329 128.812 155.333 128.673C156.119 129.025 156.99 129.125 157.827 128.959L159.569 129.291C159.723 129.32 159.882 129.301 160.024 129.236C160.165 129.17 160.283 129.062 160.36 128.926L160.658 128.401C160.735 128.265 160.768 128.107 160.753 127.95C160.738 127.793 160.675 127.643 160.573 127.522L160.397 127.313L161.738 124.949L162.005 125C162.159 125.029 162.317 125.01 162.459 124.944C162.6 124.879 162.718 124.771 162.795 124.635L163.093 124.11C163.17 123.974 163.204 123.816 163.188 123.659C163.173 123.502 163.111 123.352 163.008 123.231L161.519 121.465L161.575 121.367C161.724 121.105 161.763 120.792 161.683 120.497C161.603 120.203 161.41 119.951 161.148 119.797L159.831 119.023C159.583 118.877 159.291 118.83 159.013 118.891C158.735 118.952 158.492 119.117 158.33 119.352ZM158.897 122.215C158.842 122.313 158.758 122.392 158.658 122.442C158.557 122.491 158.444 122.509 158.333 122.494C158.221 122.478 158.116 122.43 158.031 122.354C157.946 122.279 157.885 122.18 157.855 122.07C157.825 121.96 157.828 121.844 157.864 121.737C157.899 121.63 157.965 121.536 158.054 121.468C158.143 121.399 158.25 121.359 158.362 121.352C158.474 121.346 158.586 121.373 158.684 121.43C158.815 121.507 158.911 121.633 158.951 121.78C158.991 121.928 158.972 122.084 158.897 122.215Z" fill="white"/>
<path d="M160.665 60.6087C160.352 60.6087 160.061 60.4055 159.96 60.0863C159.789 59.5499 159.833 58.9787 160.085 58.4771C160.338 57.9756 160.766 57.6029 161.293 57.4288C161.602 57.3266 161.772 56.9876 161.672 56.673C161.501 56.1366 161.545 55.5654 161.797 55.0638C162.05 54.5623 162.478 54.1896 163.005 54.0155L163.081 53.9899C163.391 53.8878 163.561 53.5488 163.46 53.2341L163.435 53.1563C163.083 52.0499 163.68 50.8587 164.767 50.4988L164.844 50.4733C164.993 50.4234 165.115 50.3177 165.187 50.1749C165.259 50.0321 165.272 49.8696 165.223 49.7175C165.096 49.3216 165.309 48.8955 165.7 48.7666C166.09 48.6378 166.508 48.8549 166.635 49.2519C166.806 49.7883 166.761 50.3595 166.509 50.8611C166.257 51.3626 165.829 51.7353 165.301 51.9094L165.225 51.935C164.916 52.0371 164.746 52.3762 164.846 52.6908L164.871 52.7686C165.224 53.875 164.627 55.0662 163.539 55.4261L163.463 55.4516C163.313 55.5015 163.191 55.6072 163.119 55.75C163.047 55.8928 163.035 56.0553 163.084 56.2074C163.255 56.7438 163.21 57.315 162.958 57.8165C162.706 58.3181 162.278 58.6908 161.751 58.8649C161.601 58.9148 161.479 59.0205 161.407 59.1633C161.335 59.3061 161.323 59.4686 161.372 59.6207C161.498 60.0166 161.285 60.4427 160.895 60.5716C160.818 60.5971 160.742 60.6087 160.665 60.6087Z" fill="#FFBE99"/>
<path d="M156.292 92.7675C155.731 92.7675 155.137 92.6456 154.526 92.3472C153.628 91.9118 153.321 91.2466 153.221 90.7648C152.893 89.1951 154.305 87.4571 154.467 87.2644C154.733 86.9475 155.201 86.9103 155.513 87.1808C155.824 87.4513 155.861 87.9273 155.595 88.2443C155.233 88.6785 154.531 89.7884 154.672 90.4525C154.701 90.593 154.785 90.8008 155.165 90.9854C157.429 92.086 159.574 89.3031 159.596 89.2752C159.846 88.9455 160.311 88.8828 160.635 89.1371C160.959 89.3902 161.022 89.8627 160.773 90.1936C160.678 90.3201 158.805 92.7687 156.292 92.7687V92.7675Z" fill="#FFBE99"/>
<path d="M185.627 162.751C185.273 162.751 184.914 162.64 184.608 162.409C183.849 161.837 183.69 160.745 184.252 159.973L189.16 153.24C189.723 152.467 190.796 152.305 191.555 152.877C192.314 153.45 192.474 154.541 191.911 155.313L187.003 162.047C186.668 162.508 186.15 162.751 185.627 162.751Z" fill="#FFBE99"/>
<path d="M133.416 39.6612C135.307 39.6612 136.84 38.1019 136.84 36.1783C136.84 34.2547 135.307 32.6953 133.416 32.6953C131.525 32.6953 129.992 34.2547 129.992 36.1783C129.992 38.1019 131.525 39.6612 133.416 39.6612Z" fill="#FFBE99"/>
<path d="M174.501 46.4524C175.257 46.4524 175.87 45.8286 175.87 45.0592C175.87 44.2898 175.257 43.666 174.501 43.666C173.744 43.666 173.131 44.2898 173.131 45.0592C173.131 45.8286 173.744 46.4524 174.501 46.4524Z" fill="#FFBE99"/>
<path d="M161.227 82.7414C161.984 82.7414 162.597 82.1177 162.597 81.3483C162.597 80.5788 161.984 79.9551 161.227 79.9551C160.471 79.9551 159.857 80.5788 159.857 81.3483C159.857 82.1177 160.471 82.7414 161.227 82.7414Z" fill="#FFBE99"/>
<path d="M204.366 119.876C205.122 119.876 205.735 119.252 205.735 118.483C205.735 117.714 205.122 117.09 204.366 117.09C203.609 117.09 202.996 117.714 202.996 118.483C202.996 119.252 203.609 119.876 204.366 119.876Z" fill="#FFBE99"/>
<path d="M216.811 157.854C217.567 157.854 218.181 157.23 218.181 156.461C218.181 155.691 217.567 155.067 216.811 155.067C216.055 155.067 215.441 155.691 215.441 156.461C215.441 157.23 216.055 157.854 216.811 157.854Z" fill="#FFBE99"/>
<path d="M215.608 131.816C215.012 131.816 214.541 131.734 214.435 131.713C214.032 131.636 213.767 131.241 213.842 130.831C213.918 130.423 214.305 130.153 214.708 130.229C215.258 130.332 216.554 130.397 217.051 129.943C217.156 129.847 217.292 129.67 217.26 129.243C217.069 126.698 213.629 126.193 213.594 126.187C213.188 126.132 212.903 125.752 212.958 125.34C213.013 124.928 213.384 124.638 213.789 124.692C213.979 124.718 218.457 125.36 218.739 129.129C218.814 130.137 218.4 130.741 218.04 131.069C217.375 131.675 216.387 131.817 215.609 131.817L215.608 131.816Z" fill="#FFBE99"/>
<path d="M122.363 92.6506C121.962 92.6506 121.559 92.5078 121.234 92.2176L115.641 87.2254C114.93 86.5915 114.861 85.4908 115.484 84.7675C116.107 84.0442 117.189 83.9734 117.9 84.6073L123.493 89.5996C124.204 90.2335 124.274 91.3341 123.65 92.0574C123.312 92.4498 122.839 92.6506 122.363 92.6506Z" fill="#FFBE99"/>
<path d="M197.197 70.7918C197.133 70.3894 197.208 69.9621 197.439 69.5895L201.401 63.1826C201.904 62.3682 202.961 62.1243 203.761 62.636C204.562 63.1477 204.802 64.2235 204.299 65.0379L200.337 71.4447C199.834 72.2592 198.777 72.503 197.976 71.9913C197.542 71.714 197.272 71.2699 197.197 70.7918Z" fill="#FFBE99"/>
<path d="M126.32 118.241C126.769 118.584 127.17 119.045 127.482 119.658C127.941 120.555 127.792 121.275 127.587 121.721C126.92 123.175 124.764 123.698 124.521 123.752C124.121 123.842 123.725 123.585 123.636 123.179C123.548 122.772 123.8 122.369 124.2 122.279C124.746 122.154 125.963 121.698 126.244 121.082C126.304 120.951 126.36 120.734 126.166 120.354C125.009 118.088 121.65 118.997 121.616 119.006C121.221 119.116 120.812 118.881 120.704 118.479C120.595 118.079 120.825 117.663 121.219 117.551C121.371 117.509 124.315 116.701 126.321 118.24L126.32 118.241Z" fill="#FFBE99"/>
<path d="M176.435 93.1083C177.822 93.1083 178.946 91.9648 178.946 90.5542C178.946 89.1435 177.822 88 176.435 88C175.048 88 173.924 89.1435 173.924 90.5542C173.924 91.9648 175.048 93.1083 176.435 93.1083Z" fill="#FFBE99"/>
<path d="M141.628 125.574C143.015 125.574 144.139 124.431 144.139 123.02C144.139 121.609 143.015 120.466 141.628 120.466C140.241 120.466 139.117 121.609 139.117 123.02C139.117 124.431 140.241 125.574 141.628 125.574Z" fill="#FFBE99"/>
<path d="M134.384 22.9114C134.125 22.9114 133.854 22.8859 133.573 22.8313C132.598 22.642 132.133 22.0778 131.915 21.639C131.205 20.2051 132.136 18.1595 132.245 17.9308C132.423 17.5558 132.867 17.3979 133.236 17.579C133.604 17.7601 133.759 18.2106 133.581 18.5856C133.341 19.0987 132.94 20.3549 133.241 20.9609C133.305 21.0886 133.438 21.2686 133.851 21.3487C136.315 21.8259 137.694 18.5798 137.707 18.5472C137.866 18.1641 138.301 17.983 138.679 18.1444C139.057 18.3058 139.235 18.7458 139.077 19.1301C139.009 19.2961 137.488 22.9114 134.385 22.9114H134.384Z" fill="#FFBE99"/>
<path d="M182.331 125.703C181.528 125.703 180.764 125.227 180.425 124.432C180.362 124.284 180.246 124.171 180.1 124.112C179.954 124.053 179.793 124.055 179.65 124.119C179.142 124.343 178.578 124.353 178.063 124.145C177.548 123.937 177.143 123.539 176.923 123.021L176.891 122.945C176.828 122.798 176.713 122.684 176.567 122.626C176.421 122.567 176.26 122.569 176.116 122.633L176.042 122.666C175.534 122.89 174.97 122.898 174.455 122.691C173.94 122.483 173.535 122.085 173.315 121.567L173.283 121.492C173.154 121.189 172.806 121.05 172.508 121.181C172.132 121.347 171.695 121.17 171.532 120.788C171.369 120.406 171.542 119.962 171.918 119.796C172.967 119.334 174.19 119.826 174.645 120.893L174.677 120.968C174.739 121.115 174.855 121.228 175.001 121.288C175.147 121.347 175.308 121.344 175.452 121.281L175.526 121.248C176.034 121.024 176.598 121.016 177.112 121.223C177.627 121.43 178.032 121.829 178.253 122.346L178.284 122.422C178.347 122.569 178.463 122.683 178.609 122.741C178.755 122.8 178.916 122.798 179.059 122.734C179.567 122.51 180.131 122.501 180.646 122.709C181.161 122.916 181.566 123.315 181.786 123.832C181.915 124.137 182.264 124.276 182.562 124.145C182.938 123.979 183.375 124.155 183.538 124.537C183.701 124.919 183.528 125.364 183.152 125.53C182.885 125.647 182.606 125.703 182.332 125.703H182.331Z" fill="#FFBE99"/>
<path d="M199.863 165.25C199.951 165.322 200.053 165.376 200.163 165.408C200.273 165.44 200.389 165.45 200.505 165.436C202.516 165.198 204.442 164.412 206.074 163.163C207.706 161.914 208.982 160.249 209.763 158.348C209.807 158.239 209.83 158.123 209.831 158.007C209.831 157.891 209.809 157.776 209.765 157.67C209.721 157.564 209.656 157.468 209.575 157.388C209.493 157.308 209.397 157.246 209.29 157.204L199.945 153.595C199.806 153.541 199.654 153.524 199.504 153.546C199.354 153.569 199.211 153.63 199.089 153.723C198.967 153.817 198.87 153.939 198.807 154.08C198.745 154.22 198.718 154.373 198.731 154.525L199.553 164.659C199.563 164.774 199.595 164.886 199.648 164.987C199.701 165.089 199.774 165.178 199.863 165.25ZM200.093 160.383C200.619 160.257 201.086 159.943 201.407 159.501C201.729 159.058 201.882 158.518 201.839 157.98C201.795 157.443 201.558 156.947 201.171 156.585C200.785 156.223 200.275 156.021 199.74 156.016L199.61 154.425L202.675 155.608C202.52 155.885 202.426 156.191 202.396 156.504C202.367 156.818 202.404 157.132 202.505 157.425C202.606 157.719 202.768 157.986 202.981 158.208C203.194 158.43 203.453 158.602 203.741 158.713C204.029 158.825 204.338 158.872 204.65 158.853C204.961 158.833 205.267 158.747 205.547 158.601C205.826 158.454 206.074 158.25 206.273 158.002C206.472 157.754 206.618 157.468 206.7 157.163L207.319 157.402C206.731 158.849 205.763 160.117 204.523 161.066C203.283 162.016 201.818 162.61 200.288 162.785L200.093 160.383Z" fill="white"/>
<path d="M198.154 79.8076L194.54 80.7873L194.422 80.329C194.743 80.1447 194.995 79.8578 195.139 79.513C195.282 79.1683 195.31 78.7853 195.216 78.424C194.847 76.9982 193.283 76.446 193.217 76.4231C193.14 76.3963 193.056 76.3935 192.977 76.415C192.897 76.4365 192.826 76.4814 192.772 76.5439C192.725 76.5973 191.635 77.8691 192.005 79.2948C192.099 79.6559 192.308 79.9747 192.6 80.2013C192.892 80.4278 193.251 80.5493 193.619 80.5467L193.738 81.005L190.125 81.9846C189.805 82.0712 189.532 82.283 189.366 82.5735C189.199 82.8639 189.153 83.2091 189.237 83.5332L189.545 84.7212C189.661 85.1654 189.914 85.5598 190.267 85.8466L190.801 87.9052C190.885 88.2293 191.093 88.5057 191.378 88.6737C191.663 88.8416 192.003 88.8873 192.322 88.8007L199.548 86.8414C199.868 86.7548 200.141 86.543 200.307 86.2525C200.474 85.9621 200.52 85.6169 200.436 85.2928L199.902 83.2341C200.069 82.8062 200.098 82.3355 199.983 81.891L199.675 80.7031C199.591 80.379 199.383 80.1026 199.098 79.9346C198.813 79.7667 198.473 79.721 198.154 79.8076ZM192.808 79.0771C192.629 78.3861 192.987 77.6955 193.217 77.3425C193.589 77.5323 194.234 77.9507 194.414 78.6417C194.47 78.8577 194.439 79.0879 194.328 79.2815C194.217 79.4751 194.035 79.6163 193.822 79.6741C193.609 79.7318 193.383 79.7013 193.192 79.5894C193.002 79.4774 192.864 79.2931 192.808 79.0771ZM199.18 82.1087C199.355 82.7834 198.976 83.4889 198.336 83.6817C198.176 83.7299 198.008 83.7452 197.843 83.7266C197.677 83.708 197.517 83.6558 197.372 83.5733C197.227 83.4907 197.1 83.3793 196.999 83.2458C196.897 83.1123 196.823 82.9593 196.78 82.7959C196.752 82.6879 196.683 82.5958 196.588 82.5398C196.493 82.4838 196.38 82.4686 196.273 82.4974C196.167 82.5263 196.076 82.5969 196.02 82.6937C195.965 82.7905 195.949 82.9056 195.977 83.0136C196.061 83.3378 196.015 83.683 195.849 83.9734C195.682 84.2638 195.409 84.4756 195.09 84.5622C194.771 84.6489 194.431 84.6032 194.146 84.4352C193.86 84.2673 193.653 83.9909 193.569 83.6668C193.541 83.5587 193.472 83.4666 193.376 83.4106C193.281 83.3546 193.168 83.3394 193.062 83.3683C192.955 83.3971 192.864 83.4677 192.809 83.5645C192.753 83.6613 192.738 83.7764 192.766 83.8845C192.808 84.0479 192.818 84.2184 192.794 84.386C192.771 84.5535 192.714 84.7147 192.628 84.8599C192.543 85.0052 192.429 85.1316 192.294 85.2316C192.16 85.3316 192.007 85.4033 191.844 85.4423C191.194 85.599 190.523 85.1781 190.348 84.5035L190.04 83.3155C190.012 83.2075 190.028 83.0924 190.083 82.9956C190.138 82.8988 190.229 82.8282 190.336 82.7993L198.365 80.6223C198.471 80.5934 198.585 80.6087 198.68 80.6646C198.775 80.7206 198.844 80.8128 198.872 80.9208L199.18 82.1087Z" fill="white"/>
<path d="M115.295 106.134C115.295 106.25 115.261 106.364 115.197 106.46C115.134 106.557 115.044 106.632 114.938 106.677C114.832 106.721 114.716 106.733 114.604 106.71C114.492 106.688 114.389 106.632 114.308 106.549C114.227 106.467 114.172 106.362 114.15 106.248C114.128 106.134 114.139 106.016 114.183 105.909C114.227 105.801 114.301 105.71 114.396 105.645C114.491 105.58 114.603 105.546 114.717 105.546C114.87 105.546 115.017 105.608 115.125 105.718C115.234 105.828 115.295 105.978 115.295 106.134ZM116.813 110.58C115.51 111.902 113.471 112.458 110.731 112.242C110.807 112.825 110.915 113.438 111.053 114.083C111.075 114.184 111.056 114.29 111.001 114.378C110.946 114.465 110.859 114.527 110.759 114.549C110.732 114.555 110.704 114.558 110.676 114.558C110.588 114.558 110.503 114.527 110.435 114.471C110.367 114.415 110.319 114.337 110.301 114.25C110.143 113.518 110.024 112.822 109.945 112.162C109.296 112.08 108.612 111.96 107.893 111.8C107.793 111.777 107.707 111.715 107.652 111.628C107.597 111.541 107.579 111.435 107.601 111.334C107.622 111.232 107.683 111.144 107.768 111.088C107.854 111.032 107.958 111.013 108.057 111.034C108.69 111.175 109.293 111.284 109.865 111.362C109.654 108.576 110.202 106.502 111.502 105.177C113.609 103.027 116.953 103.631 117.601 103.774C117.746 103.806 117.879 103.88 117.984 103.986C118.089 104.093 118.161 104.228 118.193 104.375C118.333 105.035 118.927 108.436 116.813 110.58ZM117.439 104.541C116.66 104.377 115.861 104.332 115.068 104.405C114.093 104.503 113.267 104.789 112.6 105.26C112.626 106.367 113.07 107.42 113.839 108.203C114.608 108.985 115.644 109.437 116.731 109.464C117.194 108.786 117.477 107.946 117.572 106.954C117.644 106.148 117.599 105.335 117.439 104.541Z" fill="white"/>
<path d="M196.372 121.204C196.487 120.751 196.747 120.35 197.111 120.063C197.475 119.777 197.922 119.622 198.382 119.622H198.434C198.544 119.622 198.65 119.667 198.728 119.746C198.805 119.825 198.849 119.932 198.849 120.044C198.849 120.156 198.805 120.263 198.728 120.342C198.65 120.422 198.544 120.466 198.434 120.466H198.382C198.107 120.466 197.839 120.559 197.62 120.731C197.402 120.903 197.247 121.144 197.178 121.415C197.15 121.524 197.081 121.617 196.987 121.674C196.892 121.73 196.779 121.747 196.672 121.719C196.566 121.691 196.474 121.621 196.418 121.524C196.362 121.428 196.347 121.313 196.374 121.204H196.372ZM201.301 128.567C201.27 128.495 201.22 128.433 201.156 128.388C200.276 127.773 200.093 126.724 200.093 125.952C200.093 125.02 200.792 124.208 201.208 123.806C201.249 123.767 201.281 123.72 201.304 123.667C201.326 123.614 201.338 123.557 201.338 123.5C201.338 123.443 201.326 123.386 201.304 123.333C201.281 123.28 201.249 123.233 201.208 123.194C200.551 122.562 199.462 122.154 198.434 122.154C197.696 122.155 196.975 122.377 196.361 122.794C195.644 122.305 194.783 122.085 193.924 122.173C193.066 122.26 192.265 122.65 191.658 123.273C191.295 123.65 191.01 124.097 190.821 124.588C190.631 125.079 190.54 125.604 190.554 126.131C190.574 127.021 190.769 127.898 191.126 128.711C191.484 129.523 191.996 130.255 192.635 130.864C193.02 131.234 193.529 131.439 194.058 131.437H198.604C198.887 131.438 199.167 131.379 199.426 131.265C199.686 131.151 199.92 130.984 200.113 130.774C200.472 130.382 200.782 129.946 201.037 129.477C201.401 128.8 201.355 128.695 201.301 128.567Z" fill="white"/>
<path d="M140.362 85.0188C139.812 85.0188 139.285 84.7965 138.896 84.4008C138.507 84.0051 138.288 83.4685 138.288 82.9089C138.288 82.797 138.244 82.6897 138.167 82.6105C138.089 82.5314 137.983 82.4869 137.873 82.4869C137.323 82.4869 136.796 82.2646 136.407 81.869C136.018 81.4733 135.799 80.9366 135.799 80.3771C135.799 80.2651 135.756 80.1578 135.678 80.0787C135.6 79.9995 135.495 79.9551 135.385 79.9551C134.318 79.9551 133.276 80.2768 132.389 80.8796C131.502 81.4824 130.811 82.3391 130.403 83.3415C129.995 84.3438 129.888 85.4468 130.096 86.5109C130.304 87.5751 130.817 88.5525 131.572 89.3197C132.326 90.0869 133.287 90.6093 134.333 90.821C135.379 91.0327 136.463 90.924 137.448 90.5088C138.434 90.0936 139.276 89.3905 139.868 88.4884C140.461 87.5863 140.777 86.5257 140.777 85.4407C140.777 85.3288 140.733 85.2215 140.656 85.1424C140.578 85.0632 140.472 85.0188 140.362 85.0188ZM132.663 83.938C132.75 83.8497 132.861 83.7896 132.982 83.7654C133.102 83.7411 133.227 83.7538 133.341 83.8018C133.454 83.8497 133.551 83.9309 133.62 84.0349C133.688 84.1389 133.724 84.2612 133.724 84.3863C133.724 84.5114 133.688 84.6337 133.62 84.7378C133.551 84.8418 133.454 84.9229 133.341 84.9709C133.227 85.0189 133.102 85.0315 132.982 85.0073C132.861 84.983 132.75 84.923 132.663 84.8347C132.605 84.7759 132.559 84.706 132.528 84.6291C132.496 84.5521 132.48 84.4696 132.48 84.3863C132.48 84.303 132.496 84.2205 132.528 84.1436C132.559 84.0667 132.605 83.9968 132.663 83.938ZM133.959 87.7885C133.872 87.8768 133.761 87.9369 133.641 87.9611C133.52 87.9854 133.395 87.9727 133.281 87.9247C133.168 87.8767 133.071 87.7956 133.003 87.6916C132.934 87.5875 132.898 87.4652 132.898 87.3401C132.898 87.2151 132.934 87.0928 133.003 86.9887C133.071 86.8847 133.168 86.8036 133.281 86.7556C133.395 86.7076 133.52 86.6949 133.641 86.7192C133.761 86.7434 133.872 86.8035 133.959 86.8918C134.017 86.9507 134.063 87.0205 134.094 87.0974C134.125 87.1743 134.141 87.2567 134.141 87.3398C134.141 87.423 134.125 87.5054 134.093 87.5822C134.062 87.659 134.016 87.7287 133.958 87.7874L133.959 87.7885ZM135.152 85.6786C135.065 85.59 135.006 85.4772 134.982 85.3545C134.958 85.2318 134.971 85.1046 135.018 84.9891C135.065 84.8736 135.145 84.7748 135.247 84.7054C135.349 84.6359 135.47 84.5989 135.593 84.5989C135.715 84.5989 135.836 84.6359 135.938 84.7054C136.04 84.7748 136.12 84.8736 136.167 84.9891C136.214 85.1046 136.227 85.2318 136.203 85.3545C136.179 85.4772 136.12 85.59 136.033 85.6786C135.975 85.7376 135.907 85.7843 135.831 85.8162C135.755 85.848 135.674 85.8644 135.592 85.8643C135.51 85.8642 135.429 85.8476 135.354 85.8156C135.278 85.7836 135.21 85.7367 135.152 85.6776V85.6786ZM137.278 88.2105C137.191 88.2988 137.08 88.3588 136.959 88.3831C136.838 88.4073 136.713 88.3947 136.6 88.3467C136.486 88.2987 136.389 88.2176 136.321 88.1135C136.253 88.0095 136.216 87.8872 136.216 87.7621C136.216 87.637 136.253 87.5147 136.321 87.4107C136.389 87.3067 136.486 87.2255 136.6 87.1776C136.713 87.1296 136.838 87.1169 136.959 87.1412C137.08 87.1654 137.191 87.2255 137.278 87.3138C137.335 87.3726 137.381 87.4425 137.412 87.5194C137.444 87.5962 137.46 87.6786 137.46 87.7618C137.46 87.845 137.443 87.9273 137.412 88.0041C137.38 88.0809 137.335 88.1507 137.277 88.2094L137.278 88.2105Z" fill="white"/>
<path d="M224.228 140.94H222.853C223.15 141.464 223.269 142.074 223.191 142.675C223.114 143.275 222.843 143.833 222.422 144.261C222.062 144.634 221.594 144.988 221.076 145.314C221.044 145.334 221.006 145.342 220.968 145.338C220.931 145.333 220.896 145.316 220.869 145.289L219.397 143.791C219.365 143.759 219.327 143.733 219.285 143.716C219.243 143.698 219.198 143.69 219.153 143.691C219.107 143.691 219.063 143.701 219.021 143.72C218.98 143.738 218.943 143.765 218.912 143.799C218.852 143.867 218.82 143.956 218.824 144.047C218.827 144.138 218.865 144.225 218.929 144.288L220.191 145.572C220.21 145.591 220.224 145.615 220.233 145.641C220.241 145.666 220.243 145.694 220.239 145.721C220.235 145.747 220.225 145.773 220.209 145.795C220.193 145.817 220.173 145.835 220.149 145.847C218.471 146.733 216.666 147.324 216.403 147.408C216.277 147.467 216.136 147.486 216 147.461C215.863 147.437 215.737 147.37 215.639 147.27C215.541 147.171 215.476 147.043 215.452 146.904C215.428 146.765 215.446 146.622 215.505 146.494C215.62 146.119 216.73 142.614 218.245 140.762C218.26 140.744 218.279 140.729 218.3 140.719C218.321 140.708 218.344 140.702 218.367 140.701C218.391 140.7 218.414 140.704 218.436 140.713C218.458 140.721 218.478 140.734 218.494 140.751L220.271 142.559C220.304 142.592 220.343 142.619 220.386 142.636C220.429 142.653 220.476 142.661 220.522 142.659C220.569 142.658 220.614 142.646 220.656 142.626C220.698 142.605 220.735 142.576 220.766 142.541C220.821 142.472 220.849 142.385 220.845 142.297C220.84 142.209 220.803 142.125 220.74 142.063L218.993 140.286C218.975 140.268 218.961 140.246 218.953 140.222C218.944 140.198 218.941 140.172 218.944 140.147C218.946 140.121 218.955 140.097 218.968 140.075C218.981 140.053 218.998 140.034 219.019 140.02C219.439 139.739 219.927 139.582 220.429 139.566C220.931 139.551 221.427 139.679 221.862 139.934V138.533C221.862 138.486 221.871 138.439 221.89 138.396C221.908 138.353 221.935 138.314 221.969 138.281C222.003 138.249 222.043 138.224 222.086 138.208C222.13 138.193 222.176 138.186 222.223 138.189C222.31 138.197 222.391 138.238 222.449 138.304C222.508 138.37 222.54 138.456 222.538 138.545V139.766L223.651 138.634C223.683 138.602 223.72 138.576 223.761 138.559C223.802 138.542 223.846 138.533 223.89 138.533C223.935 138.533 223.979 138.542 224.02 138.559C224.061 138.576 224.098 138.602 224.129 138.634C224.161 138.666 224.186 138.704 224.203 138.745C224.22 138.787 224.228 138.832 224.228 138.877C224.228 138.922 224.22 138.967 224.203 139.009C224.186 139.05 224.161 139.088 224.129 139.12L223.016 140.252H224.216C224.304 140.251 224.389 140.283 224.453 140.343C224.518 140.402 224.559 140.485 224.566 140.573C224.569 140.62 224.563 140.668 224.547 140.712C224.532 140.756 224.507 140.797 224.476 140.831C224.444 140.866 224.406 140.893 224.363 140.912C224.32 140.93 224.275 140.94 224.228 140.94Z" fill="white"/>
<path d="M174.149 159.608L174.18 159.543C174.661 158.537 174.729 157.377 174.369 156.32C174.01 155.262 173.252 154.394 172.262 153.904C171.273 153.415 170.133 153.346 169.093 153.712C168.054 154.078 167.2 154.849 166.719 155.855L166.688 155.92C166.396 155.887 166.102 155.959 165.858 156.125C165.614 156.29 165.435 156.538 165.353 156.825C165.271 157.112 165.292 157.419 165.411 157.692C165.53 157.965 165.74 158.186 166.005 158.316L166.161 158.394L166.591 164.939C166.596 165.013 166.62 165.085 166.661 165.147C166.702 165.208 166.758 165.258 166.824 165.291C166.889 165.323 166.962 165.337 167.035 165.332C167.108 165.326 167.179 165.301 167.239 165.259L172.563 161.558L172.72 161.636C172.984 161.766 173.285 161.798 173.569 161.725C173.854 161.651 174.104 161.478 174.275 161.235C174.446 160.993 174.527 160.696 174.504 160.399C174.481 160.101 174.355 159.821 174.149 159.608ZM167.371 164.145L167.021 158.819L167.92 159.263L168.203 163.566L167.371 164.145ZM168.998 163.014L168.779 159.688L169.679 160.133L169.83 162.436L168.998 163.014ZM170.625 161.883L170.538 160.557L171.703 161.134L170.625 161.883Z" fill="white"/>
<path d="M154.547 169.727C154.021 169.007 153.738 168.13 153.739 167.229C153.739 167.168 153.739 167.107 153.743 167.046C153.745 167.002 153.764 166.96 153.795 166.929C153.826 166.899 153.868 166.882 153.911 166.882H156.898C156.932 166.882 156.964 166.892 156.992 166.911C157.02 166.93 157.041 166.957 157.054 166.989C157.067 167.021 157.07 167.056 157.064 167.09C157.057 167.123 157.041 167.154 157.018 167.179L154.547 169.727ZM157.446 171.385V167.721L154.995 170.248C155.662 170.905 156.527 171.306 157.446 171.385ZM161.019 169.727C161.545 169.007 161.828 168.13 161.827 167.229C161.827 167.168 161.827 167.107 161.824 167.046C161.821 167.002 161.803 166.96 161.771 166.929C161.74 166.899 161.698 166.882 161.655 166.882H158.668C158.634 166.882 158.602 166.892 158.574 166.911C158.546 166.93 158.525 166.957 158.512 166.989C158.499 167.021 158.496 167.056 158.502 167.09C158.509 167.123 158.525 167.154 158.548 167.179L161.019 169.727ZM162.838 166.882H162.667C162.644 166.882 162.621 166.887 162.601 166.896C162.58 166.905 162.561 166.918 162.545 166.935C162.53 166.952 162.517 166.972 162.509 166.993C162.501 167.015 162.497 167.038 162.498 167.062C162.498 167.117 162.501 167.173 162.501 167.229C162.489 168.512 161.987 169.737 161.103 170.64C160.22 171.542 159.026 172.048 157.783 172.048C156.539 172.048 155.346 171.542 154.462 170.64C153.579 169.737 153.076 168.512 153.065 167.229C153.065 167.173 153.065 167.117 153.068 167.062C153.068 167.038 153.065 167.015 153.057 166.993C153.048 166.972 153.036 166.952 153.02 166.935C153.005 166.918 152.986 166.905 152.965 166.896C152.944 166.887 152.922 166.882 152.899 166.882H152.728C152.638 166.882 152.553 166.918 152.489 166.984C152.426 167.049 152.391 167.137 152.391 167.229C152.391 168.704 152.959 170.118 153.97 171.161C154.981 172.204 156.353 172.789 157.783 172.789C159.213 172.789 160.585 172.204 161.596 171.161C162.607 170.118 163.175 168.704 163.175 167.229C163.175 167.137 163.14 167.049 163.077 166.984C163.014 166.918 162.928 166.882 162.838 166.882ZM158.12 167.721V171.385C159.039 171.306 159.904 170.905 160.571 170.248L158.12 167.721Z" fill="white"/>
<path d="M113.378 92.0898C113.373 92.0124 113.339 91.9393 113.283 91.8845C113.227 91.8296 113.152 91.7968 113.072 91.7923C109.983 91.6155 107.509 92.5222 106.454 94.2232C106.089 94.8051 105.908 95.4798 105.936 96.1617C105.955 96.5977 106.046 97.0279 106.206 97.4355C106.215 97.4606 106.231 97.4829 106.252 97.5005C106.272 97.518 106.297 97.5302 106.324 97.5358C106.351 97.5415 106.379 97.5404 106.405 97.5328C106.431 97.5251 106.455 97.5111 106.474 97.492L109.923 94.0781C109.953 94.0487 109.989 94.0253 110.028 94.0094C110.068 93.9935 110.11 93.9853 110.153 93.9853C110.195 93.9853 110.238 93.9935 110.277 94.0094C110.316 94.0253 110.352 94.0487 110.382 94.0781C110.412 94.1075 110.436 94.1424 110.453 94.1808C110.469 94.2192 110.477 94.2604 110.477 94.302C110.477 94.3436 110.469 94.3847 110.453 94.4231C110.436 94.4616 110.412 94.4965 110.382 94.5259L106.613 98.2559L106.037 98.8173C105.978 98.8741 105.942 98.9509 105.937 99.0322C105.933 99.1136 105.96 99.1936 106.013 99.2564C106.042 99.2893 106.078 99.316 106.118 99.3349C106.159 99.3537 106.202 99.3642 106.247 99.3658C106.291 99.3674 106.336 99.36 106.377 99.3441C106.419 99.3282 106.457 99.3042 106.488 99.2734L107.17 98.6092C107.743 98.8798 108.322 99.0274 108.896 99.0471C108.942 99.0487 108.987 99.0495 109.032 99.0495C109.685 99.0511 110.327 98.8756 110.884 98.5424C112.629 97.5138 113.559 95.1019 113.378 92.0898Z" fill="#FFBE99"/>
<path d="M235.382 109.172L229.338 116.159L245.567 130.38L251.611 123.393L235.382 109.172Z" fill="#666666"/>
<path d="M231.764 57.8328C214.828 43.0057 189.116 44.8226 174.346 61.8736C159.567 78.9257 161.328 104.763 178.264 119.59C195.198 134.409 220.912 132.6 235.682 115.549C250.452 98.4984 248.699 72.6598 231.764 57.8328ZM231.082 111.518C218.529 126.008 196.682 127.553 182.29 114.95C167.89 102.356 166.4 80.3941 178.962 65.9034C191.515 51.4049 213.363 49.868 227.763 62.4704C242.154 75.0651 243.644 97.027 231.092 111.525L231.082 111.518Z" fill="#CC4A00"/>
<path d="M246.113 118.763L240.294 125.465C238.225 127.848 238.463 131.466 240.826 133.545L285.431 172.784C287.795 174.863 291.389 174.616 293.458 172.233L299.278 165.531C301.347 163.148 301.109 159.53 298.745 157.451L254.14 118.213C251.777 116.133 248.183 116.38 246.113 118.763Z" fill="#CC4A00"/>
<path opacity="0.5" d="M239.538 86.2633C238.22 67.1092 221.703 52.683 202.646 54.0416C183.588 55.4002 169.208 72.029 170.526 91.1832C171.844 110.337 188.361 124.763 207.418 123.405C226.475 122.046 240.856 105.417 239.538 86.2633Z" fill="white"/>
<path d="M41.559 33.4375H23.7168V51.4927H41.559V33.4375Z" stroke="#FFBE99" stroke-width="2.96823" stroke-miterlimit="10"/>
<path d="M44.8752 33L32.2533 45.7658L27.6543 41.105" stroke="#FF7D33" stroke-width="2.96823" stroke-miterlimit="10"/>
<path d="M70.5858 43.5977H50.5137V46.7504H70.5858V43.5977Z" fill="#BFBFBF"/>
<path d="M84.0302 36.5327H50.5137V39.6831H84.0302V36.5327Z" fill="#BFBFBF"/>
<path d="M59.3793 63.9629H41.5371V82.0181H59.3793V63.9629Z" stroke="#FFBE99" stroke-width="2.96823" stroke-miterlimit="10"/>
<path d="M62.6955 63.5254L50.0736 76.2912L45.4746 71.6304" stroke="#FF7D33" stroke-width="2.96823" stroke-miterlimit="10"/>
<path d="M88.4061 74.123H68.334V77.2758H88.4061V74.123Z" fill="#CCCCCC"/>
<path d="M101.851 67.0581H68.334V70.2085H101.851V67.0581Z" fill="#CCCCCC"/>
</svg>
