<svg width="22" height="22" viewBox="0 0 22 22" fill="none" xmlns="http://www.w3.org/2000/svg">
<path d="M15.5266 2.7002H6.07656C5.71852 2.7002 5.37514 2.84243 5.12197 3.0956C4.86879 3.34878 4.72656 3.69215 4.72656 4.0502V18.9002C4.72662 19.0207 4.75892 19.1389 4.8201 19.2427C4.88128 19.3464 4.96911 19.432 5.07449 19.4903C5.17987 19.5487 5.29894 19.5778 5.41936 19.5746C5.53978 19.5714 5.65716 19.5361 5.75931 19.4723L10.8016 16.3209L15.8447 19.4723C15.9468 19.5359 16.0641 19.571 16.1844 19.5741C16.3047 19.5772 16.4236 19.548 16.5288 19.4897C16.6341 19.4313 16.7218 19.3459 16.783 19.2423C16.8441 19.1386 16.8764 19.0205 16.8766 18.9002V4.0502C16.8766 3.69215 16.7343 3.34878 16.4812 3.0956C16.228 2.84243 15.8846 2.7002 15.5266 2.7002Z" fill="#A6A6A6"/>
</svg>
