<svg width="80" height="120" viewBox="0 0 80 120" fill="none" xmlns="http://www.w3.org/2000/svg">
<path d="M27.0332 69.3755C22.7836 69.5229 18.3567 68.4062 16.1758 64.5291C13.6272 59.9984 15.3719 53.7299 19.9596 51.1808C19.6747 50.3809 19.2669 49.638 19.1972 48.7732C19.0175 46.5119 19.4383 43.8374 20.9857 42.0799C23.1938 39.5713 26.0875 40.2562 28.564 41.9568C28.8595 40.6637 29.3548 39.4146 30.0617 38.2863C34.8539 30.6423 49.1016 31.8878 54.577 38.1946C56.0995 39.9475 56.6728 42.3283 57.44 44.4538C58.4412 44.4004 59.3325 44.542 60.2605 44.903C63.6708 46.2275 64.6235 51.0577 63.9261 54.2302C63.4781 56.2687 62.0218 57.9356 60.4484 59.2589C60.2274 59.5909 60.738 59.5375 61.0016 59.6397C61.718 59.916 62.5845 60.4627 62.997 61.1081C65.0952 64.3921 61.0737 67.8189 57.9389 68.123C58.024 67.495 57.6398 66.8832 57.1303 66.535C56.7639 66.2854 55.713 66.405 55.3253 66.6023C55.1208 66.7068 54.4966 67.3452 54.4481 67.5391C52.7389 65.8037 51.3747 63.1616 51.9788 60.6844C49.5508 60.5324 47.2906 60.1516 45.8461 58.0528C45.5423 57.6117 45.3461 57.1114 45.0399 56.6726C42.6261 60.537 38.0053 61.6073 33.673 61.8545C33.9413 63.2882 33.9437 64.6185 33.2935 65.9546C32.0015 68.6094 29.869 69.2803 27.032 69.3778L27.0332 69.3755Z" fill="#00A06A"/>
<path d="M32.3932 76.687C32.4807 76.4339 32.9251 75.6887 32.8069 75.4937C32.7703 75.4321 31.7691 74.8866 31.5681 74.7449C29.9203 73.5771 28.6472 72.2492 27.5916 70.5404C27.3776 70.1945 27.0904 69.7708 27.0312 69.3761C29.8683 69.2775 32.0019 68.6065 33.2928 65.9529C33.9429 64.6167 33.9405 63.2864 33.6722 61.8528C38.0045 61.6067 42.6253 60.5364 45.0391 56.6709C45.3453 57.1085 45.5427 57.61 45.8453 58.0511C47.2886 60.1499 49.5488 60.5306 51.978 60.6827C51.3739 63.1599 52.7381 65.8008 54.4474 67.5374C54.3989 67.7324 54.5195 68.3163 54.5987 68.5171C54.8989 69.2693 55.828 69.534 56.5751 69.3761C57.0621 72.753 53.8185 74.9899 51.0347 76.1182C51.5252 78.8531 51.7759 81.6414 51.7215 84.4239M44.2873 66.755C45.0888 65.9993 44.6928 63.7055 43.6112 63.8727C42.5036 64.0445 42.4102 67.1984 43.9292 66.9454C44.0438 66.9256 44.2034 66.8339 44.2873 66.7538V66.755ZM48.4648 64.041C47.622 64.2894 47.7627 66.6795 48.9495 66.5309C50.1954 66.3754 49.6304 63.6974 48.4648 64.041ZM35.6534 76.752C35.4938 76.9087 35.5352 77.2384 35.6782 77.3974C35.807 77.5414 38.1228 78.3017 38.4916 78.3969C40.5827 78.9355 43.3901 78.9599 45.5415 78.7266C45.9907 78.6778 48.7568 78.3806 48.1114 77.4775C47.9152 77.2024 46.9258 77.6377 46.6196 77.6946C42.9953 78.3772 39.8935 78.0475 36.4607 76.8797C36.216 76.7961 35.9418 76.4699 35.6546 76.7508L35.6534 76.752Z" fill="#E8E8C4"/>
<path d="M57.9382 68.1227C57.9075 68.3479 57.7195 68.6323 57.5588 68.7948C57.424 68.9306 56.729 69.345 56.5765 69.3764C55.8282 69.5331 54.8991 69.2684 54.6 68.5174C54.5196 68.3166 54.4003 67.7327 54.4487 67.5376C54.4972 67.3426 55.1201 66.7053 55.3258 66.6009C55.7136 66.4035 56.7644 66.284 57.1309 66.5335C57.6403 66.8818 58.0245 67.4935 57.9394 68.1215L57.9382 68.1227Z" fill="#414141"/>
<path d="M35.6544 76.7531C35.9416 76.4721 36.2159 76.7983 36.4606 76.8819C39.8933 78.0497 42.9951 78.3794 46.6194 77.6968C46.9267 77.6388 47.915 77.2046 48.1112 77.4797C48.7566 78.3829 45.9905 78.68 45.5413 78.7288C43.3911 78.9621 40.5837 78.9377 38.4914 78.3991C38.1237 78.3039 35.8069 77.5436 35.678 77.3996C35.535 77.2394 35.4936 76.9098 35.6532 76.7542L35.6544 76.7531Z" fill="#B3CE51"/>
<path d="M44.2852 66.7556C44.2001 66.8357 44.0417 66.9274 43.927 66.9471C42.408 67.2002 42.5014 64.045 43.609 63.8744C44.6907 63.7072 45.0866 66.001 44.2852 66.7567V66.7556Z" fill="#414141"/>
<path d="M48.4116 63.8415C49.7674 63.4421 50.4235 66.5578 48.9754 66.7377C47.5274 66.9176 47.4304 64.1293 48.4116 63.8415Z" fill="#414141"/>
<path d="M49.8273 57.2878C54.7465 57.1652 59.7033 56.9996 64.6247 56.7754C65.7898 56.7224 67.3637 56.5512 68.4715 56.6407C70.2207 56.7809 69.7126 57.4181 69.8129 58.7622C70.0521 61.9936 70.0785 66.5524 69.7953 69.7827C69.7445 70.3625 69.7523 71.0462 69.1008 71.1345C68.3161 71.2416 68.1055 70.8043 67.9303 71.6304C66.4875 78.4267 66.8733 86.7382 65.9529 93.7798C65.469 97.4816 64.1706 101.002 63.4475 104.616C63.1609 106.049 63.1224 107.529 62.8622 108.906C62.7895 109.292 62.687 109.836 62.2869 109.998C53.5352 110.88 44.692 110.163 35.9248 110.421C33.0778 110.013 29.9364 110.182 27.1258 109.739C23.5093 109.168 22.6606 105.575 21.7116 102.459C19.7397 95.9918 17.9023 89.1447 16.1751 82.5968C15.4664 79.911 14.859 77.1953 14.2043 74.4973C13.241 74.5227 12.1409 74.568 11.8753 73.4294C11.5314 71.2063 10.9329 69.0185 10.5427 66.8087C10.3818 65.8964 9.91114 63.5563 10.0147 62.7711C10.0434 62.5513 10.6915 61.3751 10.88 61.1973C11.8753 60.2575 17.4283 59.3828 19.042 59.1078C22.4743 58.5214 25.9849 58.0333 29.4614 57.8036C36.2401 57.3552 43.0375 57.4601 49.8295 57.29L49.8273 57.2878ZM59.6625 70.1472C59.528 69.9109 58.8677 69.849 58.5999 69.8556C53.1141 69.9959 47.2139 70.8672 41.6917 71.2737C37.7744 71.5619 33.8229 71.5917 29.9089 71.9175C27.6449 72.1064 25.3864 72.5393 23.1169 72.6851C22.3366 72.7359 19.5678 72.3074 19.5986 73.3963C19.6218 74.2146 20.6623 73.8446 21.0635 73.8358C24.1156 73.774 26.7896 73.4095 29.781 73.2008C39.1213 72.5481 48.52 72.2267 57.8328 71.2737C58.1513 71.2416 59.2899 71.1544 59.4354 71.0826C59.6999 70.9534 59.7936 70.378 59.6614 70.1461L59.6625 70.1472Z" fill="#3F3F3F"/>
<path d="M59.6646 70.1474C59.7957 70.3782 59.7031 70.9547 59.4386 71.0839C59.292 71.1546 58.1534 71.2418 57.836 71.2749C48.5232 72.228 39.1245 72.5494 29.7842 73.2021C26.7928 73.4108 24.1199 73.7741 21.0667 73.8371C20.6666 73.8448 19.6261 74.2148 19.6018 73.3976C19.5699 72.3086 22.3398 72.7371 23.1201 72.6863C25.3896 72.5406 27.6481 72.1076 29.9121 71.9188C33.8261 71.593 37.7776 71.5632 41.6949 71.2749C47.2171 70.8685 53.1173 69.9972 58.6031 69.8569C58.8709 69.8503 59.5312 69.911 59.6657 70.1485L59.6646 70.1474Z" fill="#2A2A2A"/>
<path opacity="0.7" d="M41.1639 93.3229C40.736 93.3231 40.3585 93.2771 40.0313 93.1849C39.7124 93.0844 39.4607 92.8915 39.276 92.6063C39.0914 92.3127 38.9989 91.8807 38.9987 91.3102C38.9985 90.8404 39.0865 90.4083 39.2625 90.014C39.4469 89.6112 39.7237 89.2336 40.0927 88.8811C40.4617 88.5286 40.923 88.1929 41.4766 87.8739C41.9379 87.6053 42.3489 87.3492 42.7095 87.1058C43.0786 86.854 43.3679 86.6064 43.5776 86.363C43.7956 86.1197 43.9046 85.8679 43.9045 85.6079C43.9044 85.3394 43.8288 85.1297 43.6778 84.9787C43.5351 84.8194 43.3253 84.7104 43.0484 84.6518C42.78 84.5931 42.4569 84.5639 42.0794 84.564C41.8277 84.5641 41.5299 84.5978 41.186 84.665C40.842 84.7239 40.5065 84.8079 40.1793 84.9171C39.8522 85.0179 39.5922 85.1312 39.3992 85.2571C39.005 85.4502 38.6401 85.6097 38.3046 85.7357C37.9774 85.8617 37.6251 85.9247 37.2476 85.9248C36.9204 85.925 36.6309 85.837 36.3792 85.6609C36.1274 85.4848 36.0015 85.1493 36.0013 84.6543C36.0012 84.3187 36.0934 84.0041 36.2778 83.7104C36.4623 83.4083 36.7097 83.1272 37.02 82.867C37.4561 82.4809 37.9719 82.1493 38.5675 81.8723C39.163 81.5868 39.7838 81.3727 40.4297 81.2298C41.084 81.0786 41.7048 81.0028 42.2921 81.0026C43.1814 81.0023 44.0036 81.0943 44.7587 81.2786C45.5222 81.4629 46.185 81.7437 46.7473 82.121C47.3095 82.49 47.7459 82.9596 48.0565 83.53C48.3671 84.092 48.5226 84.7547 48.5229 85.5181C48.5231 86.1389 48.3932 86.6927 48.1333 87.1794C47.8818 87.6661 47.5254 88.0898 47.0641 88.4508C46.6112 88.8117 46.0912 89.1265 45.504 89.3951C45.1601 89.563 44.8204 89.7435 44.4849 89.9366C44.1578 90.1213 43.8768 90.3395 43.642 90.5913C43.4072 90.8431 43.2479 91.1409 43.1641 91.4849C43.005 92.1058 42.7996 92.5673 42.548 92.8694C42.3048 93.1715 41.8434 93.3227 41.1639 93.3229ZM40.6118 97.9289C40.0078 97.9291 39.5254 97.7951 39.1645 97.5268C38.8037 97.2668 38.6232 96.8684 38.623 96.3315C38.6228 95.7358 38.8281 95.2827 39.2391 94.9721C39.6585 94.6532 40.1198 94.4936 40.6232 94.4935C41.0175 94.4933 41.3909 94.5435 41.7432 94.6441C42.0956 94.7362 42.3851 94.9039 42.6117 95.1471C42.8467 95.3903 42.9643 95.7384 42.9645 96.1915C42.9646 96.6948 42.7802 97.1102 42.4112 97.4375C42.0422 97.7648 41.4424 97.9286 40.6118 97.9289Z" fill="white"/>
</svg>
