<svg width="80" height="80" viewBox="0 0 80 80" fill="none" xmlns="http://www.w3.org/2000/svg">
<g clip-path="url(#clip0_891_5609)">
<rect width="80" height="80" rx="40" fill="#FFDCE6"/>
<path d="M41.0837 56.0538C56.7644 56.0538 69.476 43.3317 69.476 27.6382C69.476 11.9447 56.7644 -0.777344 41.0837 -0.777344C25.4031 -0.777344 12.6914 11.9447 12.6914 27.6382C12.6914 43.3317 25.4031 56.0538 41.0837 56.0538Z" fill="#E87070"/>
<path d="M41.0809 52.8847C55.0189 52.8847 66.318 41.5763 66.318 27.6267C66.318 13.677 55.0189 2.36865 41.0809 2.36865C27.1428 2.36865 15.8438 13.677 15.8438 27.6267C15.8438 41.5763 27.1428 52.8847 41.0809 52.8847Z" fill="#FFADAD"/>
<path d="M51.0769 44.2735C51.4022 44.0783 51.8227 44.1852 52.0155 44.5081L53.3306 46.7061C53.4282 46.8664 53.4491 47.0523 53.4073 47.2219C53.3655 47.3939 53.2586 47.5472 53.0936 47.6471C52.7683 47.8423 52.3478 47.7354 52.155 47.4124L50.8399 45.2145C50.6447 44.8892 50.7516 44.4686 51.0746 44.2758L51.0769 44.2735Z" fill="#D16262"/>
<path d="M29.0222 7.43755C29.3475 7.24238 29.768 7.34925 29.9609 7.67221L31.2759 9.87018C31.3735 10.0305 31.3944 10.2164 31.3526 10.386C31.3108 10.5579 31.2039 10.7113 31.0389 10.8112C30.7137 11.0063 30.2931 10.8995 30.1003 10.5765L28.7852 8.37853C28.59 8.05325 28.6969 7.63271 29.0199 7.43987L29.0222 7.43755Z" fill="#D16262"/>
<path d="M57.7813 17.5304C57.5861 17.2051 57.693 16.7846 58.016 16.5917L60.2116 15.2743C60.3719 15.1768 60.5578 15.1558 60.7274 15.1977C60.8993 15.2395 61.0527 15.3487 61.1503 15.5113C61.3454 15.8366 61.2386 16.2572 60.9156 16.45L58.72 17.7674C58.3947 17.9625 57.9741 17.8557 57.7813 17.5327V17.5304Z" fill="#D16262"/>
<path d="M20.9649 39.6071C20.7697 39.2818 20.8766 38.8612 21.1996 38.6684L23.3952 37.351C23.5555 37.2534 23.7414 37.2325 23.911 37.2743C24.0829 37.3161 24.2363 37.4254 24.3339 37.588C24.529 37.9133 24.4222 38.3338 24.0992 38.5267L21.9036 39.844C21.5783 40.0392 21.1577 39.9323 20.9649 39.6094V39.6071Z" fill="#D16262"/>
<path d="M57.8983 37.4117C58.0888 37.0841 58.5071 36.9749 58.8347 37.1654L61.0466 38.4549C61.2092 38.5502 61.3184 38.7012 61.3625 38.8685C61.409 39.0381 61.3881 39.2263 61.2928 39.3912C61.1023 39.7189 60.6841 39.8281 60.3565 39.6375L58.1446 38.348C57.817 38.1575 57.7078 37.737 57.8983 37.4117Z" fill="#D16262"/>
<path d="M20.8202 15.7774C21.0107 15.4498 21.4289 15.3406 21.7565 15.5311L23.9684 16.8206C24.1311 16.9159 24.2403 17.0669 24.2844 17.2342C24.3309 17.4038 24.31 17.592 24.2147 17.757C24.0242 18.0846 23.606 18.1938 23.2784 18.0033L21.0665 16.7138C20.7389 16.5232 20.6297 16.1027 20.8202 15.7774Z" fill="#D16262"/>
<path d="M50.8712 10.7067C50.5436 10.5162 50.4344 10.0957 50.6249 9.7704L51.9144 7.55849C52.0096 7.39585 52.1607 7.28665 52.3279 7.24251C52.4976 7.19604 52.6858 7.21695 52.8507 7.31221C53.1783 7.50273 53.2875 7.92327 53.097 8.24855L51.8075 10.4605C51.617 10.7881 51.1988 10.8973 50.8712 10.7067Z" fill="#D16262"/>
<path d="M29.2579 47.8249C28.9303 47.6344 28.8211 47.2138 29.0116 46.8886L30.3011 44.6767C30.3964 44.514 30.5474 44.4048 30.7147 44.3607C30.8843 44.3142 31.0725 44.3351 31.2374 44.4304C31.565 44.6209 31.6742 45.0414 31.4837 45.3667L30.1942 47.5809C30.0037 47.9085 29.5855 48.0178 29.2579 47.8272V47.8249Z" fill="#D16262"/>
<path d="M60.5453 27.5804C60.5453 27.2017 60.852 26.895 61.2307 26.895H63.7911C63.9793 26.895 64.1489 26.9717 64.2721 27.0925C64.3975 27.2157 64.4742 27.3899 64.4742 27.5781C64.4742 27.9568 64.1675 28.2635 63.7888 28.2635H61.2284C60.8497 28.2635 60.543 27.9568 60.543 27.5781L60.5453 27.5804Z" fill="#D16262"/>
<path d="M17.6312 27.5804C17.6312 27.2017 17.9379 26.895 18.3166 26.895H20.8771C21.0653 26.895 21.2349 26.9717 21.358 27.0925C21.4835 27.2157 21.5602 27.3899 21.5602 27.5781C21.5602 27.9568 21.2535 28.2635 20.8747 28.2635H18.3143C17.9356 28.2635 17.6289 27.9568 17.6289 27.5781L17.6312 27.5804Z" fill="#D16262"/>
<path d="M41.0526 8.06943C40.6739 8.06943 40.3672 7.76273 40.3672 7.38402V4.8236C40.3672 4.6354 40.4439 4.46579 40.5647 4.34032C40.6878 4.21486 40.8598 4.13818 41.0503 4.13818C41.429 4.13818 41.7357 4.44488 41.7357 4.8236V7.38402C41.7357 7.76273 41.429 8.06943 41.0503 8.06943H41.0526Z" fill="#D16262"/>
<path d="M41.0526 51.0201C40.6739 51.0201 40.3672 50.7134 40.3672 50.3347V47.7743C40.3672 47.5861 40.4439 47.4165 40.5647 47.291C40.6878 47.1655 40.8598 47.0889 41.0503 47.0889C41.429 47.0889 41.7357 47.3956 41.7357 47.7743V50.3347C41.7357 50.7134 41.429 51.0201 41.0503 51.0201H41.0526Z" fill="#D16262"/>
<path d="M40.7785 16.6423C40.7785 16.6423 40.7762 16.626 40.7739 16.6307C40.7739 16.626 40.7715 16.6307 40.7692 16.6423C40.66 16.9211 39.2148 20.8663 39.2148 20.8663L39.8538 27.8296H41.6963L42.3352 20.8663C42.3352 20.8663 40.8877 16.9211 40.7808 16.6423H40.7785Z" fill="#E87070"/>
<path d="M51.2028 12.2109L48.6563 13.9326L40.9844 27.3806L41.5118 27.7059L41.7139 27.8314L42.2414 28.1566L50.7846 15.2453C50.7846 15.2453 51.2098 12.2063 51.2051 12.2133L51.2028 12.2109Z" fill="#FFDCE6"/>
<path d="M41.0828 29.9725C42.3647 29.9725 43.4039 28.9323 43.4039 27.6491C43.4039 26.3659 42.3647 25.3257 41.0828 25.3257C39.8009 25.3257 38.7617 26.3659 38.7617 27.6491C38.7617 28.9323 39.8009 29.9725 41.0828 29.9725Z" fill="#E87070"/>
<g clip-path="url(#clip1_891_5609)">
<path fill-rule="evenodd" clip-rule="evenodd" d="M22.8125 76.4564C20.4306 76.5492 18.2939 75.273 17.4416 73.3123C16.4141 70.934 17.7919 68.6717 17.8736 68.5557C18.8427 67.0359 20.0804 67.0011 21.3063 65.9686C23.5364 64.0891 22.9176 61.1887 23.4897 57.5575C24.8558 48.8331 32.1066 41.8374 32.1066 41.8374L32.527 46.5012L39.9412 55.6664L36.8471 78.8115L22.8009 76.4448L22.8125 76.4564Z" fill="#6E4823"/>
<path fill-rule="evenodd" clip-rule="evenodd" d="M60.7693 76.2269C63.1512 76.3197 65.2879 75.0435 66.1402 73.0828C67.1677 70.7045 65.79 68.4422 65.7082 68.3262C64.7391 66.8064 63.5015 66.7716 62.2755 65.7391C60.0454 63.8596 60.6642 60.9593 60.0921 57.328C58.726 48.6036 51.4752 41.6079 51.4752 41.6079L51.0549 46.2717L43.6406 55.4369L46.7348 78.582L60.781 76.2153L60.7693 76.2269Z" fill="#59301D"/>
<path fill-rule="evenodd" clip-rule="evenodd" d="M25.749 106.216C26.1482 110.667 26.717 115.013 28.2238 118.754C31.8361 124.23 36.3566 127.656 41.825 128.972V41.9797C38.043 41.7233 35.4385 44.1003 33.9117 48.8776C33.333 50.9866 33.1434 53.2237 33.9117 55.7755C32.9638 55.5541 32.2752 56.6028 32.1854 57.966C32.1754 59.6322 32.5746 61.5082 33.9117 62.3471L34.7799 62.6617C35.9774 65.8893 36.6559 67.1011 36.8056 70.1305C36.5162 75.5603 35.1491 76.4458 32.4349 75.502C32.4349 75.502 24.2123 71.6336 21.2885 76.1546C18.195 80.9435 19.3326 87.7365 25.759 106.205L25.749 106.216Z" fill="#F7D2BA"/>
<path fill-rule="evenodd" clip-rule="evenodd" d="M57.8963 106.216C57.4971 110.667 56.9283 115.013 55.4215 118.754C51.8092 124.23 47.2887 127.656 41.8203 128.972V41.9797C45.6023 41.7233 48.2068 44.1003 49.7335 48.8776C50.3123 50.9866 50.5019 53.2237 49.7335 55.7755C50.6815 55.5541 51.3701 56.6028 51.4599 57.966C51.4699 59.6322 51.0707 61.5082 49.7335 62.3471L48.8654 62.6617C47.6679 65.8893 46.9894 67.1011 46.8397 70.1305C47.1291 75.5603 48.4962 76.4458 51.2104 75.502C51.2104 75.502 59.433 71.6336 62.3568 76.1546C65.4503 80.9435 64.3127 87.7365 57.8863 106.205L57.8963 106.216Z" fill="#F4CCB5"/>
<path fill-rule="evenodd" clip-rule="evenodd" d="M53.1798 58.4336C53.5301 53.851 55.0946 49.048 53.9737 44.7902C52.4559 41.2749 47.6804 38.8386 42.7648 37.6089C36.6583 36.0891 30.6568 40.6021 30.6218 46.8553C30.5984 50.5098 31.1706 54.2803 31.5208 57.8999L53.1798 58.4336Z" fill="#6E4823"/>
<path fill-rule="evenodd" clip-rule="evenodd" d="M42.2891 58.1687V37.5063C47.3681 38.6897 52.4121 41.1724 53.9767 44.8037C55.0976 49.0615 53.533 53.8645 53.1828 58.4471L42.2891 58.1803V58.1687Z" fill="#59301D"/>
<path fill-rule="evenodd" clip-rule="evenodd" d="M36.3918 45.961C33.8464 46.4134 32.2702 49.0818 32.2001 49.5342C31.8732 51.3325 31.6513 53.1655 31.5696 55.0102C31.5229 55.0102 31.8031 54.9986 31.4061 54.9986C31.0092 54.9986 29.7248 55.2886 29.7832 56.994C29.8299 58.2702 30.9508 61.9827 32.4219 61.3794C34.547 67.0525 37.4193 70.2546 42.113 71.3799C42.1947 71.2291 42.2298 71.3451 42.2998 71.2987C42.8486 64.8251 43.3974 58.3514 43.9461 51.8777C42.5917 47.7824 39.1823 45.4621 36.4035 45.9494L36.3918 45.961Z" fill="#FFE3D0"/>
<path fill-rule="evenodd" clip-rule="evenodd" d="M48.7802 53.7797C49.5858 53.6404 50.6367 53.0023 51.6291 53.5012C52.2946 53.8261 52.6333 54.5105 52.8201 55.021C52.8668 55.021 52.5865 55.0094 52.9835 55.0094C53.3805 55.0094 54.6649 55.2994 54.6065 57.0049C54.5598 58.281 53.4389 61.9935 51.9677 61.3903C49.8077 67.1446 46.9003 70.3002 42.0898 71.3908C42.23 63.815 42.2066 56.4132 42.335 48.8374C45.3708 53.3388 47.4958 54.0001 48.7802 53.7797Z" fill="#F7D2BA"/>
<path fill-rule="evenodd" clip-rule="evenodd" d="M44.7891 57.2124C44.7891 57.2124 46.3303 58.9526 49.9498 57.2124C49.9498 57.2124 46.4821 60.9133 44.7891 57.2124Z" fill="#6E4823"/>
<path fill-rule="evenodd" clip-rule="evenodd" d="M49.0492 57.8371C49.0492 57.8371 49.236 58.2315 49.9482 58.2083C49.9482 58.2083 49.2944 58.4288 48.839 58.0227C48.3836 57.6166 49.0492 57.8371 49.0492 57.8371Z" fill="#6E4823"/>
<path fill-rule="evenodd" clip-rule="evenodd" d="M48.5843 58.1383C48.5843 58.1383 48.7711 58.5328 49.4834 58.5096C49.4834 58.5096 48.8295 58.73 48.3742 58.324C47.9188 57.9179 48.5843 58.1383 48.5843 58.1383Z" fill="#6E4823"/>
<path fill-rule="evenodd" clip-rule="evenodd" d="M39.6998 57.1577C39.6998 57.1577 38.1586 58.8979 34.5391 57.1577C34.5391 57.1577 38.0068 60.8586 39.6998 57.1577Z" fill="#6E4823"/>
<path fill-rule="evenodd" clip-rule="evenodd" d="M35.4381 57.7824C35.4381 57.7824 35.2513 58.1768 34.5391 58.1536C34.5391 58.1536 35.1929 58.3741 35.6483 57.968C36.1036 57.562 35.4381 57.7824 35.4381 57.7824Z" fill="#6E4823"/>
<path fill-rule="evenodd" clip-rule="evenodd" d="M35.9186 58.1017C35.9186 58.1017 35.7318 58.4962 35.0195 58.473C35.0195 58.473 35.6734 58.6934 36.1288 58.2873C36.5841 57.8813 35.9186 58.1017 35.9186 58.1017Z" fill="#6E4823"/>
</g>
</g>
<defs>
<clipPath id="clip0_891_5609">
<rect width="80" height="80" rx="40" fill="white"/>
</clipPath>
<clipPath id="clip1_891_5609">
<rect width="51.9231" height="91.1416" fill="white" transform="translate(16.1367 37.3335)"/>
</clipPath>
</defs>
</svg>
