<svg width="80" height="80" viewBox="0 0 80 80" fill="none" xmlns="http://www.w3.org/2000/svg">
<rect width="80" height="80" rx="40" fill="#E6D2B6"/>
<g clip-path="url(#clip0_1171_3297)">
<path d="M20.2807 25.4811C20.2807 25.4811 24.5405 18.3828 40.7409 18.3828V32.5432L18.6211 30.147L20.2867 25.4811H20.2807Z" fill="#F2BD67"/>
<path d="M61.1925 25.4811C61.1925 25.4811 56.9327 18.3828 40.7383 18.3828V32.5432L62.8581 30.147L61.1925 25.4811Z" fill="#E09D13"/>
<path d="M40.7383 29.4879C45.8369 29.4879 60.4017 29.8852 61.1925 25.4902C62.4627 25.8695 66.5487 27.1459 66.2612 28.94C66.0575 30.2284 64.7573 30.8546 63.9905 31.7576C62.7263 33.2507 63.7928 34.1418 64.4518 35.665C66.393 40.1684 65.9436 44.8825 65.4044 48.3443C64.8892 51.6435 64.9491 53.0824 68.454 55.9844C69.2928 56.6827 70.0297 57.9471 68.8734 58.8803C65.704 61.433 52.7927 59.3679 48.7666 58.6816C47.826 60.7466 42.991 60.9333 40.7383 60.849V29.4879Z" fill="#4B3927"/>
<path d="M40.7383 29.4879C35.6397 29.4879 21.0749 29.8852 20.2841 25.4902C19.0139 25.8695 14.9279 27.1459 15.2154 28.94C15.4191 30.2284 16.7193 30.8546 17.4861 31.7576C18.7503 33.2507 17.6839 34.1418 17.0248 35.665C15.0717 40.1804 15.533 44.8885 16.0722 48.3443C16.5815 51.6375 16.5395 53.0764 13.0226 55.9844C12.1839 56.6827 11.4409 57.9471 12.6032 58.8803C15.7726 61.433 28.6839 59.3679 32.716 58.6816C33.6566 60.7466 38.4916 60.9333 40.7443 60.849V29.4879H40.7383Z" fill="#8F6438"/>
<path d="M40.76 34.6464C34.2139 34.6464 23.5109 33.3823 24.0006 33.6062C30.7856 36.7304 40.76 37.1919 40.76 37.1919C40.76 37.1919 50.7344 36.7304 57.5193 33.6062C58.0091 33.3823 47.306 34.6464 40.76 34.6464Z" fill="#654B2C"/>
<path d="M33.1859 20.0856C33.1859 21.1753 31.6161 22.0603 29.675 22.0603C27.7338 22.0603 26.1641 21.1753 26.1641 20.0856C26.1641 18.9959 27.7338 18.1108 29.675 18.1108C31.6161 18.1108 33.1859 18.9959 33.1859 20.0856Z" fill="#E09D13"/>
<path d="M40.5542 18.8782C40.5542 19.7331 39.3259 20.4194 37.8161 20.4194C36.3063 20.4194 35.0781 19.7271 35.0781 18.8782C35.0781 18.0293 36.3063 17.3369 37.8161 17.3369C39.3259 17.3369 40.5542 18.0293 40.5542 18.8782Z" fill="#E09D13"/>
<path d="M36.6015 24.6208C36.967 25.4155 36.1162 26.5895 34.7023 27.2397C33.2944 27.8899 31.8564 27.7695 31.491 26.9808C31.1255 26.1861 31.9763 25.0121 33.3902 24.3619C34.8042 23.7117 36.2361 23.8321 36.6015 24.6268V24.6208Z" fill="#E09D13"/>
<path d="M48.403 23.2191C48.0195 24.0018 46.5756 24.08 45.1856 23.3877C43.7957 22.6953 42.9808 21.4972 43.3643 20.7146C43.7477 19.9319 45.1916 19.8596 46.5816 20.546C47.9716 21.2383 48.7864 22.4364 48.403 23.2191Z" fill="#F2BD67"/>
<path d="M65.7887 66.193H41.3502C37.6955 66.193 35.347 62.3098 37.0245 59.0466C39.9603 53.3271 46.2811 49.4077 53.5725 49.4077C60.8638 49.4077 67.2086 53.3753 70.1204 59.0466C71.792 62.3098 69.4494 66.193 65.7947 66.193H65.7887Z" fill="#B66013"/>
<path d="M47.3853 50.3906C43.3352 54.3702 40.3755 62.5762 40.3755 62.5762C39.9201 59.4576 40.2557 56.6159 41.5917 53.5033C43.2813 52.1607 45.2404 51.095 47.3793 50.3906H47.3853Z" fill="#CA9951"/>
<path d="M66.7616 62.5762C66.7616 62.5762 63.8019 54.3702 59.7578 50.3906C61.9027 51.1011 63.8559 52.1667 65.5454 53.5033C66.8874 56.6159 67.217 59.4516 66.7616 62.5762Z" fill="#CA9951"/>
<path d="M53.5748 62.5807C50.3036 56.8551 50.8548 50.666 50.9806 49.5763C51.8254 49.4619 52.6941 49.4077 53.5748 49.4077C54.4555 49.4077 55.3183 49.4619 56.169 49.5763C56.2949 50.666 56.8461 56.8491 53.5748 62.5807Z" fill="#CA9951"/>
<path d="M26.5508 49.894V39.937H33.8567V41.8918H28.7743V44.1519H33.2947V46.0823H28.7743V49.894H26.5508Z" fill="white"/>
<path d="M34.5373 49.894V42.7347H36.712V43.4678C37.1396 42.8936 37.7993 42.5637 38.7156 42.5637C39.1187 42.5637 39.3753 42.5881 39.6563 42.6859L39.6807 44.7262C39.3753 44.5673 38.9966 44.4818 38.569 44.4818C37.4083 44.4818 36.712 45.1415 36.712 46.2289V49.894H34.5373Z" fill="white"/>
<path d="M43.5704 50.0651C41.3835 50.0651 39.8441 48.5013 39.8441 46.3144C39.8441 44.1397 41.3835 42.5637 43.5704 42.5637C45.7573 42.5637 47.2966 44.1275 47.2966 46.3144C47.2966 46.5221 47.2844 46.7542 47.2478 47.0108H42.0066C42.1776 47.8415 42.7518 48.318 43.5704 48.318C44.1935 48.318 44.7066 48.0981 44.8898 47.756H47.0767C46.7102 49.1243 45.3052 50.0651 43.5704 50.0651ZM41.9944 45.6058H45.1708C44.9876 44.7506 44.4256 44.2863 43.5704 44.2863C42.7152 44.2863 42.1776 44.7506 41.9944 45.6058Z" fill="white"/>
<path d="M51.6896 50.0651C49.5027 50.0651 47.9633 48.5013 47.9633 46.3144C47.9633 44.1397 49.5027 42.5637 51.6896 42.5637C53.8764 42.5637 55.4158 44.1275 55.4158 46.3144C55.4158 46.5221 55.4036 46.7542 55.3669 47.0108H50.1258C50.2968 47.8415 50.871 48.318 51.6896 48.318C52.3126 48.318 52.8258 48.0981 53.009 47.756H55.1959C54.8294 49.1243 53.4244 50.0651 51.6896 50.0651ZM50.1135 45.6058H53.29C53.1068 44.7506 52.5448 44.2863 51.6896 44.2863C50.8344 44.2863 50.2968 44.7506 50.1135 45.6058Z" fill="white"/>
</g>
<defs>
<clipPath id="clip0_1171_3297">
<rect width="58.6667" height="54.6667" fill="white" transform="translate(12 17.3335)"/>
</clipPath>
</defs>
</svg>
