<svg width="80" height="80" viewBox="0 0 80 80" fill="none" xmlns="http://www.w3.org/2000/svg">
<rect width="80" height="80" rx="40" fill="#E6D2B6"/>
<g clip-path="url(#clip0_891_5499)">
<path d="M20.2807 25.4811C20.2807 25.4811 24.5405 18.3828 40.7409 18.3828V32.5432L18.6211 30.147L20.2867 25.4811H20.2807Z" fill="#F2BD67"/>
<path d="M61.1925 25.4811C61.1925 25.4811 56.9327 18.3828 40.7383 18.3828V32.5432L62.8581 30.147L61.1925 25.4811Z" fill="#E09D13"/>
<path d="M40.7383 29.4879C45.8369 29.4879 60.4017 29.8852 61.1925 25.4902C62.4627 25.8695 66.5487 27.1459 66.2612 28.94C66.0575 30.2284 64.7573 30.8546 63.9905 31.7576C62.7263 33.2507 63.7928 34.1418 64.4518 35.665C66.393 40.1684 65.9436 44.8825 65.4044 48.3443C64.8892 51.6435 64.9491 53.0824 68.454 55.9844C69.2928 56.6827 70.0297 57.9471 68.8734 58.8802C65.704 61.433 52.7927 59.3679 48.7666 58.6816C47.826 60.7466 42.991 60.9333 40.7383 60.849V29.4879Z" fill="#4B3927"/>
<path d="M40.7383 29.4879C35.6397 29.4879 21.0749 29.8852 20.2841 25.4902C19.0139 25.8695 14.9279 27.1459 15.2154 28.94C15.4191 30.2284 16.7193 30.8546 17.4861 31.7576C18.7503 33.2507 17.6839 34.1418 17.0248 35.665C15.0717 40.1804 15.533 44.8885 16.0722 48.3443C16.5815 51.6375 16.5395 53.0764 13.0226 55.9844C12.1839 56.6827 11.4409 57.9471 12.6032 58.8802C15.7726 61.433 28.6839 59.3679 32.716 58.6816C33.6566 60.7466 38.4916 60.9333 40.7443 60.849V29.4879H40.7383Z" fill="#8F6438"/>
<path d="M40.76 34.6464C34.2139 34.6464 23.5109 33.3823 24.0006 33.6062C30.7856 36.7304 40.76 37.1919 40.76 37.1919C40.76 37.1919 50.7344 36.7304 57.5193 33.6062C58.0091 33.3823 47.306 34.6464 40.76 34.6464Z" fill="#654B2C"/>
<path d="M33.1859 20.0856C33.1859 21.1753 31.6161 22.0603 29.675 22.0603C27.7338 22.0603 26.1641 21.1753 26.1641 20.0856C26.1641 18.9959 27.7338 18.1108 29.675 18.1108C31.6161 18.1108 33.1859 18.9959 33.1859 20.0856Z" fill="#E09D13"/>
<path d="M40.5542 18.8782C40.5542 19.7331 39.3259 20.4194 37.8161 20.4194C36.3063 20.4194 35.0781 19.7271 35.0781 18.8782C35.0781 18.0293 36.3063 17.3369 37.8161 17.3369C39.3259 17.3369 40.5542 18.0293 40.5542 18.8782Z" fill="#E09D13"/>
<path d="M36.6015 24.6208C36.967 25.4155 36.1162 26.5895 34.7023 27.2397C33.2944 27.8899 31.8564 27.7695 31.491 26.9808C31.1255 26.1861 31.9763 25.0121 33.3902 24.3619C34.8042 23.7117 36.2361 23.8321 36.6015 24.6268V24.6208Z" fill="#E09D13"/>
<path d="M48.403 23.2191C48.0195 24.0018 46.5756 24.08 45.1856 23.3877C43.7957 22.6953 42.9808 21.4972 43.3643 20.7146C43.7477 19.9319 45.1916 19.8596 46.5816 20.546C47.9716 21.2383 48.7864 22.4364 48.403 23.2191Z" fill="#F2BD67"/>
<path d="M65.7887 66.193H41.3502C37.6955 66.193 35.347 62.3098 37.0245 59.0466C39.9603 53.3271 46.2811 49.4077 53.5725 49.4077C60.8638 49.4077 67.2086 53.3753 70.1204 59.0466C71.792 62.3098 69.4494 66.193 65.7947 66.193H65.7887Z" fill="#B66013"/>
<path d="M47.3853 50.3906C43.3352 54.3702 40.3755 62.5762 40.3755 62.5762C39.9201 59.4576 40.2557 56.6159 41.5917 53.5033C43.2813 52.1607 45.2404 51.095 47.3793 50.3906H47.3853Z" fill="#CA9951"/>
<path d="M66.7616 62.5762C66.7616 62.5762 63.8019 54.3702 59.7578 50.3906C61.9027 51.1011 63.8559 52.1667 65.5454 53.5033C66.8874 56.6159 67.217 59.4516 66.7616 62.5762Z" fill="#CA9951"/>
<path d="M53.5748 62.5807C50.3036 56.8551 50.8548 50.666 50.9806 49.5763C51.8254 49.4619 52.6941 49.4077 53.5748 49.4077C54.4555 49.4077 55.3183 49.4619 56.169 49.5763C56.2949 50.666 56.8461 56.8491 53.5748 62.5807Z" fill="#CA9951"/>
<path d="M30.1179 51.0092V41.2292H37.2939V43.1492H32.3019V45.3692H36.7419V47.2652H32.3019V51.0092H30.1179ZM37.9624 51.0092V43.9772H40.0984V44.6972C40.5184 44.1332 41.1664 43.8092 42.0664 43.8092C42.4624 43.8092 42.7144 43.8332 42.9904 43.9292L43.0144 45.9332C42.7144 45.7772 42.3424 45.6932 41.9224 45.6932C40.7824 45.6932 40.0984 46.3412 40.0984 47.4092V51.0092H37.9624ZM46.8349 51.1772C44.6869 51.1772 43.1749 49.6412 43.1749 47.4932C43.1749 45.3572 44.6869 43.8092 46.8349 43.8092C48.9829 43.8092 50.4949 45.3452 50.4949 47.4932C50.4949 47.6972 50.4829 47.9252 50.4469 48.1772H45.2989C45.4669 48.9932 46.0309 49.4612 46.8349 49.4612C47.4469 49.4612 47.9509 49.2452 48.1309 48.9092H50.2789C49.9189 50.2532 48.5389 51.1772 46.8349 51.1772ZM45.2869 46.7972H48.4069C48.2269 45.9572 47.6749 45.5012 46.8349 45.5012C45.9949 45.5012 45.4669 45.9572 45.2869 46.7972ZM54.8098 51.1772C52.6618 51.1772 51.1498 49.6412 51.1498 47.4932C51.1498 45.3572 52.6618 43.8092 54.8098 43.8092C56.9578 43.8092 58.4698 45.3452 58.4698 47.4932C58.4698 47.6972 58.4578 47.9252 58.4218 48.1772H53.2738C53.4418 48.9932 54.0058 49.4612 54.8098 49.4612C55.4218 49.4612 55.9258 49.2452 56.1058 48.9092H58.2538C57.8938 50.2532 56.5138 51.1772 54.8098 51.1772ZM53.2618 46.7972H56.3818C56.2018 45.9572 55.6498 45.5012 54.8098 45.5012C53.9698 45.5012 53.4418 45.9572 53.2618 46.7972Z" fill="white"/>
</g>
<defs>
<clipPath id="clip0_891_5499">
<rect width="58.6667" height="54.6667" fill="white" transform="translate(12 17.3335)"/>
</clipPath>
</defs>
</svg>
