<svg width="80" height="80" viewBox="0 0 80 80" fill="none" xmlns="http://www.w3.org/2000/svg">
<rect width="80" height="80" rx="40" fill="#FFAF74"/>
<g clip-path="url(#clip0_889_14103)">
<path d="M43.0931 36.8451C46.326 43.6894 52.1279 45.3071 57.2155 42.9153C62.2993 40.5245 64.8672 35.294 61.6342 28.4497C58.4013 21.6054 49.3962 16.3283 45.5025 18.1245C40.7318 20.3245 39.8591 29.997 43.0921 36.8413L43.0931 36.8451Z" fill="white"/>
<path d="M46.7199 36.0493C48.2041 39.1942 51.9736 40.5336 55.1353 39.0486C58.3009 37.5627 59.6585 33.8086 58.1753 30.6675C56.691 27.5226 52.9215 26.1833 49.7598 27.6682C46.5942 29.1542 45.2367 32.9083 46.7199 36.0493Z" fill="#F8AB1D"/>
</g>
<path d="M33.9543 22.372C33.434 23.0485 32.4647 23.1755 31.7896 22.6537C31.1131 22.1334 30.9861 21.1641 31.5078 20.489C31.7635 20.1553 32.1314 19.9552 32.5189 19.9017L28.7043 16.9694C27.8903 16.3412 26.7219 16.4957 26.0953 17.3082L22.6147 21.834C23.1057 22.3771 23.1548 23.208 22.6922 23.8075C22.2311 24.4086 21.4134 24.5744 20.7643 24.2381L17.9015 27.9605C17.2748 28.776 17.4278 29.9428 18.2433 30.5695L24.092 35.067C24.8414 34.093 26.2371 33.9122 27.2112 34.6615C28.1852 35.4109 28.366 36.8067 27.6167 37.7807L28.8973 38.765C29.7128 39.3917 30.8796 39.2387 31.5063 38.4233L39.7016 27.7694C40.3282 26.954 40.1752 25.7871 39.3598 25.1604L34.2645 21.2408C34.312 21.6283 34.2129 22.0353 33.9557 22.3675L33.9543 22.372ZM24.5348 30.8455C23.8875 31.6881 22.6787 31.8445 21.8361 31.1972C20.9934 30.5498 20.837 29.3411 21.4843 28.4984C22.1317 27.6558 23.3404 27.4994 24.1831 28.1468C25.0257 28.7941 25.1822 30.0029 24.5348 30.8455ZM32.1954 33.5445C31.8274 34.0232 31.1422 34.1113 30.665 33.7447C30.1863 33.3767 30.0982 32.6915 30.4648 32.2144C30.8328 31.7357 31.518 31.6476 31.9952 32.0142C32.4739 32.3822 32.5619 33.0674 32.1954 33.5445ZM29.58 29.1062C29.2119 29.5849 28.5268 29.6729 28.0496 29.3064C27.5709 28.9384 27.4828 28.2532 27.8493 27.776C28.2174 27.2973 28.9025 27.2093 29.3797 27.5758C29.8584 27.9438 29.9465 28.629 29.58 29.1062ZM26.7872 21.8849C27.1552 21.4062 27.8404 21.3182 28.3176 21.6847C28.7963 22.0527 28.8843 22.7379 28.5178 23.2151C28.1498 23.6938 27.4646 23.7818 26.9874 23.4153C26.5087 23.0473 26.4207 22.3621 26.7872 21.8849ZM36.5188 28.249C35.8715 29.0916 34.6627 29.248 33.8201 28.6007C32.9774 27.9533 32.821 26.7445 33.4683 25.9019C34.1157 25.0593 35.3244 24.9029 36.1671 25.5502C37.0097 26.1976 37.1661 27.4063 36.5188 28.249Z" fill="#FFE3A6"/>
<g clip-path="url(#clip1_889_14103)">
<path d="M67.0612 54.7056C68.434 53.9719 69.1433 52.5379 68.6717 51.2883C68.1443 49.8858 66.3281 49.2516 64.6191 49.8668C63.6794 50.2049 62.9653 50.8555 62.6024 51.6035L53.8914 49.1614C52.4713 48.7616 51.0455 49.7496 50.9499 51.198L50.8553 52.6086C50.7744 53.8187 51.6659 54.8871 52.8875 55.0456L61.8365 56.1966C61.8374 57.3169 62.6229 58.4735 63.9062 59.0585C65.5671 59.8153 67.42 59.3335 68.0489 57.9827C68.5561 56.896 68.1131 55.5765 67.0572 54.7082L67.0612 54.7056Z" fill="#FDEBCE"/>
<path d="M25.8066 32.659C25.8066 32.659 32.4446 31.4492 44.7169 39.7322C53.9846 45.9887 53.7723 49.7426 55.3619 53.7795C55.2547 55.0152 54.1931 58.3885 34.6296 57.9206C24.1228 57.668 17.7509 55.6384 17.7509 55.6384L25.8066 32.659Z" fill="#A84413"/>
<path d="M37.4366 50.6102C34.5799 56.5729 29.4749 57.2549 22.8126 56.3985C16.1502 55.5421 11.3346 54.7541 9.23073 48.4625C7.99835 44.7793 13.909 32.1609 25.8085 32.6594C35.0639 33.0471 40.3382 44.55 37.4366 50.6102Z" fill="#F5A793"/>
<path d="M22.9992 54.9339C16.3066 54.0712 12.4321 53.3245 10.6507 48.0068C10.2659 46.8614 11.0987 43.3921 13.6041 40.1203C15.4061 37.7667 19.3785 33.8635 25.7507 34.1286C26.0324 34.1391 26.3147 34.1636 26.5908 34.2005C29.966 34.6362 33.0185 36.8864 34.9666 40.3812C36.8341 43.7248 37.2713 47.4902 36.0832 49.9754C33.8967 54.5408 30.3536 55.883 22.9985 54.9372L22.9992 54.9339Z" fill="#E26B42"/>
<path d="M35.3615 51.2786C34.0416 50.8859 32.7141 50.5296 31.5757 50.0231C29.4786 49.0891 27.4288 47.9788 25.2403 47.2979C25.2669 47.1036 25.2323 46.8999 25.1054 46.7183C24.8314 46.0166 24.0589 45.4693 23.4319 45.1489C22.5232 44.6835 21.3933 44.7234 20.492 45.3142C20.0771 45.5895 19.6281 45.8094 19.3181 46.2031C18.9506 46.671 18.7894 47.2922 19.0498 47.774C18.5108 48.3921 18.5259 49.2432 17.8774 49.8316C17.4113 50.2513 16.7399 50.4455 16.2343 50.8191C15.502 51.3556 14.9449 52.094 14.4467 52.8689C14.7417 53.0339 15.0468 53.1838 15.3689 53.3199C15.8138 52.6993 16.311 52.131 16.9017 51.6684C17.5518 51.1561 18.4171 50.9059 18.9356 50.2352C19.2186 49.8703 19.2732 49.5749 19.4334 49.1603C19.5492 48.8571 19.685 48.6097 19.8407 48.4009C20.8585 48.8305 22.2039 48.7149 23.2392 48.6243C23.8459 48.5717 24.5695 48.4297 24.945 47.9739C27.2081 48.8013 29.3353 49.8932 31.5693 50.8765C32.6192 51.3369 33.6937 51.7301 34.7797 52.1015C34.9841 51.8443 35.1778 51.5711 35.3608 51.2819L35.3615 51.2786Z" fill="#F5A793"/>
</g>
<defs>
<clipPath id="clip0_889_14103">
<rect width="20.658" height="27.2081" fill="white" transform="matrix(-0.965926 0.258819 0.258819 0.965926 58.2227 14.6665)"/>
</clipPath>
<clipPath id="clip1_889_14103">
<rect width="60.1201" height="24.8322" fill="white" transform="translate(12.6758 29.3335) rotate(11.7899)"/>
</clipPath>
</defs>
</svg>
