<svg width="80" height="80" viewBox="0 0 80 80" fill="none" xmlns="http://www.w3.org/2000/svg">
<g clip-path="url(#clip0_891_5660)">
<rect width="80" height="80" rx="40" fill="#BFBFBF"/>
<path d="M0.00273132 60.4921C-0.17189 68.1353 5.36475 73.5305 6.53062 74.6633C8.1382 76.2281 10.8397 78.336 18.9136 80.3679C27.7065 82.5809 35.0099 82.7327 39.3858 82.651C50.3769 82.4524 65.1686 82.178 68.4454 74.4706C69.0463 73.0576 69.5137 70.7979 71.5065 68.3046C74.1002 65.0582 76.2573 65.2041 77.0688 63.0087C78.3785 59.4528 74.434 54.4196 73.2989 52.9774C71.8763 51.1673 68.2913 47.0858 58.2401 43.273C53.8848 41.6206 53.4328 41.9651 39.3909 38.3274C31.1476 36.1903 31.4712 36.1203 30.3001 36.0444C18.9341 35.3262 10.47 43.6408 8.71343 45.3633C4.63543 49.3689 0.161949 53.7656 0.0130081 60.4863L0.00273132 60.4921Z" fill="#F2F2F2"/>
<path d="M45.2473 13.5483L61.8653 -7.26973C63.007 -8.69796 64.8395 -9.43919 66.6951 -9.2093C69.516 -8.85644 73.09 -7.30237 76.2683 -4.78533C81.6142 -0.548601 83.7416 4.04557 82.521 7.39197C81.3004 10.7384 61.9634 26.3295 61.9634 26.3295C61.9634 26.3295 47.9482 12.3107 45.2445 13.548L45.2473 13.5483Z" fill="#D8E6EF"/>
<path d="M54.2253 4.89096C54.2253 4.89096 60.1686 6.58872 62.1602 7.28014C64.1517 7.97156 78.7353 10.5462 79.4738 9.93744L61.1837 25.1963C61.1837 25.1963 50.646 13.2209 46.9784 13.8607C43.3109 14.5004 47.6718 13.8729 47.6718 13.8729L54.2281 4.89125L54.2253 4.89096Z" fill="#E7EEF2"/>
<path d="M50.712 15.4425C50.8101 15.4528 50.9106 15.4139 50.9704 15.3296L67.2811 -7.02165C67.3705 -7.14402 67.3401 -7.31459 67.2132 -7.40197C67.0862 -7.48935 66.9103 -7.46111 66.821 -7.33874L50.5131 15.0128C50.4238 15.1352 50.4541 15.3058 50.5811 15.3932C50.6234 15.4223 50.6671 15.4378 50.7148 15.4428L50.712 15.4425Z" fill="#FEFEFE"/>
<path d="M55.2169 18.9527C55.3038 18.9618 55.3919 18.9326 55.4557 18.8652L75.6579 -2.79891C75.7632 -2.91137 75.7528 -3.0826 75.636 -3.18539C75.5192 -3.28818 75.3424 -3.27923 75.2371 -3.16676L55.0321 18.497C54.9268 18.6095 54.9372 18.7807 55.054 18.8835C55.1008 18.9241 55.1552 18.9462 55.2141 18.9524L55.2169 18.9527Z" fill="#FEFEFE"/>
<path d="M59.6306 21.0335C59.7007 21.0408 59.7764 21.0213 59.8379 20.9756L81.2092 4.34054C81.3296 4.24613 81.3475 4.07512 81.2495 3.95509C81.1512 3.83778 80.9745 3.81929 80.8541 3.9137L59.4828 20.5488C59.3624 20.6432 59.3445 20.8142 59.4425 20.9342C59.4929 20.9944 59.5605 21.0262 59.6334 21.0338L59.6306 21.0335Z" fill="#FEFEFE"/>
<path d="M45.2478 13.5489C46.8848 11.5331 51.9562 12.7582 56.5734 16.2902C61.191 19.8196 63.6038 24.3146 61.9665 26.3331C61.8653 26.4598 58.6473 29.9017 58.5204 30.0037C56.5957 31.5174 53.2831 28.4951 48.9545 25.1853C44.6258 21.8756 40.8221 19.455 41.888 17.2889C41.9597 17.1454 45.1464 13.6782 45.2472 13.5543L45.2478 13.5489Z" fill="#82827E"/>
<path d="M42.0994 16.9351C43.7364 14.9193 48.8077 16.1444 53.425 19.6765C58.0425 23.2058 60.4553 27.7009 58.818 29.7194C57.181 31.7352 52.1097 30.5101 47.4924 26.978C42.8749 23.4487 40.462 18.9536 42.0994 16.9351Z" fill="#989898"/>
<path d="M53.485 28.3547C53.6378 28.1676 54.108 28.28 54.5384 28.6104C54.9691 28.9381 55.1918 29.3566 55.0389 29.5437C54.8861 29.7307 54.4159 29.6184 53.9855 29.288C53.5549 28.9603 53.3322 28.5418 53.485 28.3547Z" fill="#5B5B59"/>
<path d="M51.7975 25.4118C51.9503 25.2248 52.4205 25.3371 52.8509 25.6675C53.2816 25.9953 53.5043 26.4137 53.3514 26.6008C53.1986 26.7879 52.7284 26.6755 52.298 26.3451C51.8674 26.0174 51.6447 25.5989 51.7975 25.4118Z" fill="#5B5B59"/>
<path d="M53.2662 22.217C53.4191 22.0299 53.8893 22.1423 54.3196 22.4727C54.7503 22.8004 54.973 23.2189 54.8202 23.406C54.6673 23.5931 54.1971 23.4807 53.7668 23.1503C53.3361 22.8226 53.1134 22.4041 53.2662 22.217Z" fill="#5B5B59"/>
<path d="M55.7741 25.946C55.9269 25.7589 56.3971 25.8713 56.8275 26.2017C57.2581 26.5294 57.4808 26.9479 57.328 27.135C57.1752 27.3221 56.7049 27.2097 56.2746 26.8793C55.8439 26.5516 55.6212 26.1331 55.7741 25.946Z" fill="#5B5B59"/>
<path d="M43.2389 18.6345C43.3917 18.4474 43.8619 18.5597 44.2923 18.8902C44.723 19.2179 44.9457 19.6364 44.7928 19.8235C44.64 20.0105 44.1698 19.8982 43.7394 19.5678C43.3088 19.24 43.0861 18.8216 43.2389 18.6345Z" fill="#5B5B59"/>
<path d="M47.8131 25.6672C47.9659 25.4801 48.4362 25.5925 48.8665 25.9229C49.2972 26.2506 49.5199 26.6691 49.367 26.8562C49.2142 27.0432 48.744 26.9309 48.3136 26.6005C47.883 26.2728 47.6603 25.8543 47.8131 25.6672Z" fill="#5B5B59"/>
<path d="M45.8014 18.0803C45.9542 17.8932 46.4244 18.0055 46.8548 18.336C47.2855 18.6637 47.5082 19.0822 47.3553 19.2693C47.2025 19.4563 46.7323 19.344 46.3019 19.0136C45.8715 18.6831 45.6486 18.2674 45.8014 18.0803Z" fill="#5B5B59"/>
<path d="M44.6217 22.2756C44.7745 22.0885 45.2447 22.2009 45.6751 22.5313C46.1058 22.859 46.3285 23.2775 46.1756 23.4646C46.0228 23.6516 45.5526 23.5393 45.1222 23.2089C44.6916 22.8811 44.4689 22.4627 44.6217 22.2756Z" fill="#5B5B59"/>
<path d="M47.0475 21.8571C47.2003 21.6701 47.6705 21.7824 48.1009 22.1128C48.5315 22.4406 48.7543 22.859 48.6014 23.0461C48.4486 23.2332 47.9784 23.1209 47.548 22.7904C47.1176 22.46 46.8947 22.0442 47.0475 21.8571Z" fill="#5B5B59"/>
<path d="M49.9772 22.3694C50.13 22.1823 50.6002 22.2946 51.0306 22.625C51.4612 22.9528 51.6839 23.3712 51.5311 23.5583C51.3783 23.7454 50.9081 23.6331 50.4777 23.3026C50.047 22.9749 49.8243 22.5564 49.9772 22.3694Z" fill="#5B5B59"/>
<path d="M49.3522 19.0197C49.505 18.8327 49.9752 18.945 50.4056 19.2754C50.836 19.6059 51.0589 20.0216 50.9061 20.2087C50.7533 20.3958 50.2831 20.2835 49.8527 19.953C49.422 19.6253 49.1993 19.2068 49.3522 19.0197Z" fill="#5B5B59"/>
<path d="M36.2807 29.3535C36.1684 29.3298 35.7472 29.2818 35.6486 29.6364C35.55 29.991 35.846 30.2957 36.1367 30.2984C36.4314 30.3015 36.6316 30.1122 36.6537 29.94C36.7078 29.5013 36.3929 29.3771 36.2811 29.3495L36.2807 29.3535Z" fill="#FEFEFE"/>
<path d="M44.5385 28.413C44.4262 28.3894 44.005 28.3413 43.9064 28.696C43.8078 29.0506 44.1038 29.3553 44.3945 29.358C44.6892 29.3611 44.8894 29.1718 44.9115 28.9995C44.9656 28.5609 44.6507 28.4367 44.5389 28.4091L44.5385 28.413Z" fill="#FEFEFE"/>
<path d="M45.8861 38.7773C45.7738 38.7536 45.3526 38.7056 45.254 39.0602C45.1555 39.4149 45.4514 39.7196 45.7421 39.7222C46.0369 39.7253 46.237 39.536 46.2592 39.3638C46.3133 38.9251 45.9984 38.8009 45.8865 38.7734L45.8861 38.7773Z" fill="#FEFEFE"/>
<path d="M39.6088 32.5898C39.4965 32.5661 39.0753 32.5181 38.9767 32.8727C38.8781 33.2274 39.1741 33.5321 39.4648 33.5347C39.7596 33.5378 39.9597 33.3485 39.9818 33.1763C40.0359 32.7376 39.7211 32.6134 39.6092 32.5859L39.6088 32.5898Z" fill="#FEFEFE"/>
<path d="M35.5932 33.7563C35.4809 33.7326 35.0597 33.6846 34.9611 34.0392C34.8625 34.3939 35.1585 34.6986 35.4492 34.7012C35.7439 34.7043 35.9441 34.515 35.9662 34.3428C36.0203 33.9041 35.7054 33.7799 35.5936 33.7524L35.5932 33.7563Z" fill="#FEFEFE"/>
<path d="M48.015 34.4853C47.9028 34.4616 47.4815 34.4136 47.383 34.7682C47.2844 35.1229 47.5803 35.4276 47.871 35.4302C48.1658 35.4333 48.366 35.244 48.3881 35.0718C48.4422 34.6331 48.1273 34.509 48.0154 34.4814L48.015 34.4853Z" fill="#FEFEFE"/>
<path d="M43.8393 35.5996C43.727 35.5759 43.3058 35.5279 43.2072 35.8825C43.1086 36.2371 43.4046 36.5418 43.6953 36.5445C43.99 36.5476 44.1902 36.3583 44.2123 36.186C44.2664 35.7474 43.9515 35.6232 43.8397 35.5956L43.8393 35.5996Z" fill="#FEFEFE"/>
<path d="M51.2807 36.1323C51.1684 36.1086 50.7472 36.0606 50.6486 36.4152C50.55 36.7699 50.846 37.0746 51.1367 37.0772C51.4314 37.0803 51.6316 36.891 51.6537 36.7188C51.7078 36.2801 51.3929 36.1559 51.2811 36.1283L51.2807 36.1323Z" fill="#FEFEFE"/>
<path d="M51.8666 32.5161C51.7543 32.4924 51.3331 32.4444 51.2345 32.799C51.1359 33.1536 51.4319 33.4583 51.7226 33.461C52.0174 33.4641 52.2175 33.2748 52.2396 33.1026C52.2937 32.6639 51.9789 32.5397 51.867 32.5121L51.8666 32.5161Z" fill="#FEFEFE"/>
<path d="M39.3861 26.3741C39.2459 26.3435 38.7233 26.2849 38.5991 26.7281C38.4748 27.1713 38.8408 27.5508 39.2094 27.5536C39.5739 27.5561 39.8276 27.3248 39.8506 27.105C39.9162 26.5565 39.5268 26.4007 39.3865 26.3702L39.3861 26.3741Z" fill="#FEFEFE"/>
<path d="M40.7773 30.1809C40.6131 30.1439 40.0095 30.0768 39.8657 30.5893C39.7219 31.1019 40.147 31.5431 40.5732 31.5441C40.9948 31.5485 41.2855 31.2774 41.3158 31.0267C41.3945 30.3923 40.9419 30.214 40.7777 30.177L40.7773 30.1809Z" fill="#FEFEFE"/>
<path d="M39.664 36.388C39.4999 36.351 38.8962 36.2838 38.7524 36.7964C38.6086 37.3089 39.0337 37.7501 39.4599 37.7511C39.8815 37.7556 40.1722 37.4845 40.2026 37.2338C40.2812 36.5994 39.8286 36.4211 39.6644 36.3841L39.664 36.388Z" fill="#FEFEFE"/>
<path d="M48.496 30.3069C48.3319 30.2699 47.7283 30.2028 47.5844 30.7153C47.4406 31.2279 47.8658 31.6691 48.2919 31.67C48.7136 31.6745 49.0042 31.4034 49.0346 31.1527C49.1133 30.5183 48.6606 30.34 48.4965 30.303L48.496 30.3069Z" fill="#FEFEFE"/>
<path d="M42.2382 25.3279C42.0741 25.2909 41.4704 25.2238 41.3266 25.7363C41.1828 26.2489 41.608 26.6901 42.0341 26.691C42.4558 26.6955 42.7464 26.4244 42.7768 26.1737C42.8555 25.5393 42.4028 25.361 42.2387 25.324L42.2382 25.3279Z" fill="#FEFEFE"/>
<path d="M44.5546 32.0086C44.3905 31.9716 43.7869 31.9044 43.643 32.417C43.4992 32.9295 43.9244 33.3707 44.3505 33.3717C44.7722 33.3762 45.0628 33.1051 45.0932 32.8544C45.1719 32.22 44.7192 32.0417 44.5551 32.0047L44.5546 32.0086Z" fill="#FEFEFE"/>
<path d="M25.1622 45.9665H27.3462V53.8145H32.2302V55.7465H25.1622V45.9665ZM36.5233 55.9145C34.3753 55.9145 32.8633 54.3785 32.8633 52.2305C32.8633 50.0945 34.3753 48.5465 36.5233 48.5465C38.6713 48.5465 40.1833 50.0825 40.1833 52.2305C40.1833 52.4345 40.1713 52.6625 40.1353 52.9145H34.9873C35.1553 53.7305 35.7193 54.1985 36.5233 54.1985C37.1353 54.1985 37.6393 53.9825 37.8193 53.6465H39.9673C39.6073 54.9905 38.2273 55.9145 36.5233 55.9145ZM34.9753 51.5345H38.0953C37.9153 50.6945 37.3633 50.2385 36.5233 50.2385C35.6833 50.2385 35.1553 50.6945 34.9753 51.5345ZM44.3781 48.5465C46.1301 48.5465 47.5101 49.4345 47.5941 50.8265H45.5301C45.4581 50.3945 44.9661 50.1305 44.3421 50.1305C43.6941 50.1305 43.2261 50.3585 43.2261 50.6705C43.2261 51.0185 43.6941 51.1865 44.8941 51.3785C46.9701 51.6905 47.7141 52.3745 47.7141 53.5865C47.7141 55.0265 46.2021 55.9145 44.4141 55.9145C42.5781 55.9145 41.1861 55.0025 41.1141 53.5265H43.1781C43.2501 53.9825 43.7781 54.2825 44.4501 54.2825C45.1341 54.2825 45.6381 54.0305 45.6381 53.7065C45.6381 53.3705 45.1581 53.1545 43.9461 52.9745C42.2661 52.7225 41.1621 52.2065 41.1621 50.7785C41.1621 49.4105 42.5901 48.5465 44.3781 48.5465ZM51.9133 48.5465C53.6653 48.5465 55.0453 49.4345 55.1293 50.8265H53.0653C52.9933 50.3945 52.5013 50.1305 51.8773 50.1305C51.2293 50.1305 50.7613 50.3585 50.7613 50.6705C50.7613 51.0185 51.2293 51.1865 52.4293 51.3785C54.5053 51.6905 55.2493 52.3745 55.2493 53.5865C55.2493 55.0265 53.7373 55.9145 51.9493 55.9145C50.1133 55.9145 48.7213 55.0025 48.6493 53.5265H50.7133C50.7853 53.9825 51.3133 54.2825 51.9853 54.2825C52.6693 54.2825 53.1733 54.0305 53.1733 53.7065C53.1733 53.3705 52.6933 53.1545 51.4813 52.9745C49.8013 52.7225 48.6973 52.2065 48.6973 50.7785C48.6973 49.4105 50.1253 48.5465 51.9133 48.5465Z" fill="#A6A6A6"/>
</g>
<defs>
<clipPath id="clip0_891_5660">
<rect width="80" height="80" rx="40" fill="white"/>
</clipPath>
</defs>
</svg>
