<svg width="80" height="120" viewBox="0 0 80 120" fill="none" xmlns="http://www.w3.org/2000/svg">
<path d="M42.7589 27.9718C43.9382 25.5688 45.0799 23.1017 46.7538 20.9964C47.0972 20.5638 48.1186 19.2683 48.6839 19.3303C49.5926 19.4298 49.7561 19.993 49.9184 20.763C50.5643 23.8109 50.8094 27.5624 51.0038 30.555C51.0678 31.5496 51.112 32.5442 51.1429 33.5399C48.7822 31.3151 46.4104 29.857 43.4888 28.4442C43.2514 28.3291 42.9466 28.057 42.7578 27.9718H42.7589Z" fill="#01A06A"/>
<path d="M35.0433 27.6332C33.2236 27.9164 28.1478 30.1158 26.5511 31.1413C26.2927 31.3073 26.0918 31.6281 25.7539 31.6757C25.9935 31.0528 26.0752 29.8425 26.2464 29.1134C26.5699 27.7316 27.0038 26.3708 27.4157 25.0156C27.4389 24.9382 27.4952 24.7943 27.5338 24.6715C27.9954 23.1813 28.4337 21.5019 29.0267 20.0659C29.3535 19.2738 29.6042 18.7084 30.5317 19.1609C31.4227 19.5957 33.1806 22.5828 33.5924 23.5597C34.15 24.8851 34.3609 26.3565 35.0433 27.6321V27.6332Z" fill="#01A06A"/>
<path d="M27.4166 25.0164C27.3492 24.8815 27.3989 24.7376 27.5347 24.6724C27.4972 24.7952 27.4409 24.9401 27.4166 25.0164Z" fill="#82D0B6"/>
<path d="M41.8095 47.2004C42.0326 47.0909 44.4286 47.6618 44.8604 47.768C46.3996 48.1463 48.1387 48.5756 49.6481 49.0225C49.9517 49.1121 50.9455 49.4109 51.1442 49.5536C51.343 49.6963 51.3242 50.1123 51.0879 50.2129C50.8881 50.2981 49.9882 49.891 49.69 49.8091C47.9841 49.3445 46.266 48.8865 44.5556 48.4329C43.7684 48.2238 42.6377 48.0976 41.9155 47.841C41.5677 47.7182 41.5037 47.3498 41.8095 47.2004Z" fill="#FF5D00"/>
<path d="M37.4917 40.01C37.6639 39.8916 37.6407 39.7434 37.9896 39.8009C38.6908 39.917 39.0806 40.3032 39.1302 41.0101C39.1457 41.2303 39.0585 42.3067 38.9558 42.4594C38.9238 42.507 38.7868 42.6984 38.7471 42.7736C38.2502 43.7051 37.2366 43.7538 36.9539 42.6508C36.7541 41.8719 37.0964 40.9127 37.421 40.2158C37.4508 40.1505 37.463 40.0753 37.4917 40.0089V40.01Z" fill="#414141"/>
<path d="M34.2069 43.053C34.9853 43.1902 36.0078 43.7323 35.5131 44.6693C35.183 45.2955 33.3986 45.2402 32.8289 45.0244C32.597 44.9359 32.2724 44.7069 32.1244 44.5056C31.3636 43.4701 33.4638 42.9213 34.208 43.053H34.2069Z" fill="#414141"/>
<path d="M32.1432 40.5422C32.2051 39.791 31.8992 39.2378 31.0755 39.2256C30.8492 39.2223 30.8591 39.3606 30.7896 39.4016L30.6504 39.5841C30.5842 39.7888 30.4826 39.9271 30.3931 40.1107C30.4649 40.2789 30.3413 40.6417 30.1812 40.7302C30.1491 40.8951 30.1513 41.0865 30.0851 41.2358L30.1072 41.3974C30.1138 41.4184 30.0045 41.6872 29.9978 41.8233C29.9713 42.4318 30.2452 42.8389 30.8624 42.8821C31.5691 42.9318 32.0958 41.1097 32.1432 40.5422Z" fill="#404141"/>
<path d="M49.0337 41.4443C49.5968 41.5118 49.4433 42.1668 48.9619 42.2387L42.6339 43.6891C42.3468 43.7698 42.0929 43.4059 42.2607 43.1614C42.5345 42.762 48.1802 41.7641 49.0337 41.4443Z" fill="#FF5D00"/>
<path d="M63.6132 64.7641C54.2009 59.7379 54.038 41.1589 53.4031 38.475C53.0851 37.1308 52.13 34.4712 51.1417 33.5397C48.781 31.3148 46.4093 29.8567 43.4876 28.4439C43.2502 28.3289 42.9455 28.0567 42.7566 27.9715C42.4751 27.8454 40.322 27.5887 39.9002 27.5688C39.1107 27.5312 38.3422 27.6883 37.6046 27.6706C36.7709 27.6507 35.902 27.4991 35.0407 27.633C33.2199 27.9162 28.1451 30.1156 26.5485 31.1412C26.2901 31.3071 26.0891 31.6279 25.7513 31.6755C25.6298 31.9919 25.3725 32.0517 25.1528 32.2652C22.6728 34.6648 20.7427 37.3498 19.4773 40.5991C17.4998 39.474 15.5575 38.2216 13.5292 37.1872C13.2178 37.0279 11.5836 36.1904 11.3661 36.3508C11.2899 36.4073 11.2203 36.6175 11.2203 36.7159C11.2203 37.0202 11.8586 37.112 12.0728 37.2138C14.4169 38.3278 16.6418 39.8889 18.9319 41.1246C19.018 41.1711 19.0699 41.2353 19.1108 41.3238C19.2598 41.6468 18.9175 42.523 18.8413 42.9456C18.7386 43.522 18.6658 44.1051 18.6172 44.687C18.0265 44.6826 17.4269 44.697 16.8362 44.7324C15.0132 44.8419 13.0146 44.9426 11.2115 45.1583C10.8328 45.2037 10.019 45.1959 10.0002 45.6772C9.98147 46.1606 11.0845 45.8442 11.4213 45.821C13.792 45.6595 16.1681 45.499 18.5432 45.436C18.6327 46.0024 18.626 46.612 18.7033 47.195C19.1317 50.4299 20.8079 53.0132 23.4601 54.8873C26.7053 57.1818 49.65 57.105 27.5516 65.4024M35.5122 44.6693C35.182 45.2955 33.3977 45.2402 32.8279 45.0244C32.5961 44.9359 32.2714 44.7069 32.1234 44.5056C31.3627 43.47 33.4628 42.9213 34.207 43.053C34.9855 43.1901 36.0079 43.7322 35.5133 44.6693H35.5122ZM38.9583 42.4589C38.9263 42.5064 38.7893 42.6978 38.7496 42.7731C38.2527 43.7046 37.2391 43.7533 36.9564 42.6503C36.7566 41.8714 37.0989 40.9122 37.4235 40.2152C37.4533 40.15 37.4655 40.0747 37.4942 40.0084C37.6664 39.89 37.6432 39.7417 37.9922 39.7993C38.6933 39.9154 39.0831 40.3015 39.1327 41.0085C39.1482 41.2286 39.061 42.3051 38.9594 42.4578L38.9583 42.4589ZM42.262 43.1614C42.5358 42.762 48.1815 41.7641 49.035 41.4444C49.5981 41.5118 49.4446 42.1668 48.9632 42.2387L42.6352 43.6891C42.3481 43.7699 42.0941 43.4059 42.262 43.1614ZM51.0898 50.212C50.89 50.2972 49.9901 49.89 49.692 49.8082C47.986 49.3435 46.2679 48.8855 44.5576 48.4319C43.7703 48.2228 42.6396 48.0967 41.9175 47.84C41.5697 47.7172 41.5056 47.3488 41.8115 47.1995C42.0345 47.0899 44.4306 47.6608 44.8623 47.767C46.4015 48.1454 48.1406 48.5746 49.65 49.0216C49.9536 49.1112 50.9474 49.4099 51.1462 49.5526C51.3383 49.6909 51.3261 50.1113 51.0898 50.212Z" fill="#FF8E55"/>
<path d="M30.5151 39.3835C30.6874 39.2651 30.6642 39.1169 31.0131 39.1744C31.7142 39.2906 32.104 39.6767 32.1537 40.3836C32.1691 40.6038 32.0819 41.6802 31.9792 41.8329C31.9472 41.8805 31.8103 42.0719 31.7705 42.1471C31.2737 43.0786 30.26 43.1273 29.9774 42.0243C29.7775 41.2455 30.1198 40.2863 30.4444 39.5893C30.4742 39.524 30.4864 39.4488 30.5151 39.3824V39.3835Z" fill="#414141"/>
<path d="M49.8273 56.6726C54.7465 56.55 59.7033 56.3844 64.6247 56.1602C65.7898 56.1072 67.3637 55.936 68.4715 56.0254C70.2207 56.1657 69.7126 56.8029 69.8129 58.1469C70.0521 61.3783 70.0785 65.9372 69.7953 69.1675C69.7445 69.7473 69.7523 70.4309 69.1008 70.5193C68.3161 70.6264 68.1055 70.1891 67.9303 71.0151C66.4875 77.8115 66.8733 86.123 65.9529 93.1645C65.469 96.8664 64.1706 100.387 63.4475 104.001C63.1609 105.434 63.1224 106.914 62.8622 108.291C62.7895 108.677 62.687 109.221 62.2869 109.382C53.5352 110.265 44.692 109.548 35.9248 109.805C33.0778 109.398 29.9364 109.567 27.1258 109.124C23.5093 108.553 22.6606 104.959 21.7116 101.844C19.7397 95.3766 17.9023 88.5295 16.1751 81.9816C15.4664 79.2958 14.859 76.5801 14.2043 73.8821C13.241 73.9075 12.1409 73.9528 11.8753 72.8142C11.5314 70.5911 10.9329 68.4033 10.5427 66.1934C10.3818 65.2812 9.91114 62.941 10.0147 62.1558C10.0434 61.9361 10.6915 60.7599 10.88 60.5821C11.8753 59.6423 17.4283 58.7676 19.042 58.4926C22.4743 57.9062 25.9849 57.418 29.4614 57.1883C36.2401 56.74 43.0375 56.8449 49.8295 56.6748L49.8273 56.6726ZM59.6625 69.532C59.528 69.2956 58.8677 69.2338 58.5999 69.2404C53.1141 69.3807 47.2139 70.252 41.6917 70.6584C37.7744 70.9467 33.8229 70.9765 29.9089 71.3023C27.6449 71.4911 25.3864 71.924 23.1169 72.0698C22.3366 72.1206 19.5678 71.6921 19.5986 72.781C19.6218 73.5994 20.6623 73.2294 21.0635 73.2206C24.1156 73.1587 26.7896 72.7943 29.781 72.5856C39.1213 71.9329 48.52 71.6115 57.8328 70.6584C58.1513 70.6264 59.2899 70.5391 59.4354 70.4674C59.6999 70.3382 59.7936 69.7628 59.6614 69.5309L59.6625 69.532Z" fill="#3F3F3F"/>
<path d="M59.6646 69.5321C59.7957 69.763 59.7031 70.3394 59.4386 70.4687C59.292 70.5393 58.1534 70.6266 57.836 70.6597C48.5232 71.6128 39.1245 71.9342 29.7842 72.5868C26.7928 72.7956 24.1199 73.1589 21.0667 73.2219C20.6666 73.2296 19.6261 73.5996 19.6018 72.7823C19.5699 71.6934 22.3398 72.1219 23.1201 72.0711C25.3896 71.9253 27.6481 71.4924 29.9121 71.3036C33.8261 70.9778 37.7776 70.9479 41.6949 70.6597C47.2171 70.2533 53.1173 69.3819 58.6031 69.2417C58.8709 69.2351 59.5312 69.2958 59.6657 69.5332L59.6646 69.5321Z" fill="#2A2A2A"/>
<path d="M37.727 86.0508C37.727 88.4355 36.6636 90.2617 33.978 91.4111L33.4839 90.6699C34.7837 90.1328 35.6377 89.4453 36.1479 88.6074L33.645 88.876L33.4946 88.0381L36.5024 87.8555C36.6045 87.5439 36.6743 87.2217 36.7173 86.8779H33.935V86.0508H37.727ZM41.6372 85.2988V91.7441H40.6704V88.6396H39.5102V90.8418H38.5434V85.4707H39.5102V87.791H40.6704V85.2988H41.6372ZM38.8979 91.5293C38.8979 92.7324 40.3266 93.8066 42.1421 94.0752L41.7554 94.8701C40.2622 94.623 38.9892 93.8926 38.393 92.8613C37.7915 93.8926 36.5239 94.623 35.0415 94.8701L34.644 94.0752C36.4595 93.8066 37.8882 92.7324 37.8882 91.5293V91.2607H38.8979V91.5293ZM50.7964 85.2988V91.9053H49.7759V88.3281H48.0357V87.501H49.7759V85.2988H50.7964ZM47.4663 85.8574V88.6826H44.1792V89.9824C45.7315 89.9771 46.8809 89.918 48.2075 89.6709L48.315 90.4873C46.8863 90.7666 45.6616 90.8096 43.9214 90.8203H43.1695V87.9092H46.478V86.6953H43.1587V85.8574H47.4663ZM48.1323 91.5723C48.1323 92.8291 49.5181 93.8066 51.3657 94.0752L50.979 94.8701C49.4805 94.6338 48.2183 93.9517 47.6275 92.9365C47.0259 93.9517 45.7637 94.6338 44.2652 94.8701L43.8892 94.0752C45.7261 93.8066 47.1118 92.8291 47.1226 91.5723V91.3037H48.1323V91.5723Z" fill="#D9D9D9"/>
</svg>
