<svg width="25" height="48" viewBox="0 0 25 48" fill="none" xmlns="http://www.w3.org/2000/svg">
<path d="M13.0457 26.3884C15.6359 26.3214 18.2392 26.329 20.8331 26.2365C21.4958 26.2129 22.1735 26.0978 22.8361 26.0808C23.1094 26.0733 23.887 25.9997 23.9813 26.3224C23.9596 26.647 24.0341 26.9744 24.0463 27.2867C24.0925 28.4672 24.0887 30.1799 23.986 31.3462C23.9653 31.5783 23.969 31.852 23.707 31.8878C23.3922 31.9312 23.3074 31.7557 23.2376 32.0869C22.6626 34.7932 22.8069 38.1063 22.444 40.9136C22.1951 42.8367 21.525 44.6899 21.2243 46.6366C21.1376 47.1962 21.327 47.4481 20.6201 47.5236C18.275 47.7746 15.5567 47.6538 13.173 47.6359C11.1738 47.6208 8.8928 47.6623 6.91154 47.3698C6.54111 47.3151 6.19331 47.2358 5.903 46.9905C5.37328 46.5441 4.90295 45.124 4.69559 44.4436C3.90572 41.8496 3.1677 39.1065 2.47492 36.4814C2.19026 35.4047 1.94708 34.3158 1.68411 33.2344C1.31745 33.24 0.885758 33.2702 0.762283 32.8456C0.614301 31.9435 0.37395 31.0508 0.2156 30.1525C0.140195 29.7241 -0.0115536 28.9796 0.000699693 28.572C0.0072976 28.3436 0.326822 27.8982 0.539841 27.7831C1.13271 27.4632 2.52298 27.2594 3.2299 27.1329C5.86718 26.6621 8.52991 26.4733 11.1964 26.3884C11.811 26.3686 12.4312 26.4045 13.0467 26.3884H13.0457ZM19.3561 31.3934C17.1675 31.4745 14.9035 31.7822 12.7111 31.9435C11.1399 32.0586 9.55447 32.0718 7.98417 32.2021C7.07554 32.2775 6.16975 32.4512 5.25923 32.5097C4.94442 32.5295 3.83502 32.3578 3.84822 32.7947C3.85765 33.1221 4.2752 32.9739 4.43544 32.9711C5.66076 32.9456 6.73245 32.8003 7.93233 32.7163C11.679 32.455 15.4502 32.3247 19.1855 31.9435C19.3788 31.9237 19.8708 31.9209 19.9207 31.7538C20.0508 31.3198 19.6276 31.3839 19.3552 31.3943L19.3561 31.3934Z" fill="#3F3F3F"/>
<path d="M16.9529 6.48342C16.7079 7.30625 15.5674 8.37254 14.8567 8.83492C14.4269 11.6733 14.0781 14.5476 13.2015 17.286C13.3005 17.3077 13.3241 17.236 13.3759 17.1784C15.7615 14.5457 18.0953 13.201 21.662 12.7151C22.2982 12.6283 23.0739 12.5282 23.7101 12.5537C23.8647 12.5603 24.8327 12.6585 24.8959 12.7038C25.091 12.8425 24.9477 13.3709 24.9025 13.5926C24.3596 16.2338 22.6516 19.2846 20.2066 20.5688C17.9502 21.754 16.6523 21.8974 14.1771 21.2728C13.5616 21.1171 12.9697 20.8547 12.3796 20.6292C12.3617 22.5457 12.4447 24.5669 13.0479 26.39C12.4334 26.4061 11.8122 26.3702 11.1977 26.39L10.8395 23.5827C10.7254 23.5667 10.6482 23.6186 10.5181 23.6026C9.72634 23.5054 7.66496 22.44 6.9373 21.9871C4.45931 20.4452 2.18963 17.2529 2.00018 14.2749C1.98227 13.9956 1.96436 13.1784 2.30651 13.0878C2.36777 13.0718 2.91446 13.202 3.05396 13.2199C6.811 13.6974 9.01564 16.2065 10.5746 19.478L11.0949 20.8849C11.2589 19.7073 11.5163 18.5476 11.865 17.4124C11.9762 17.051 12.5003 15.8413 12.4343 15.5705C10.5944 14.7505 9.06277 13.0501 8.10513 11.3015C7.4378 10.0833 6.82419 7.6252 7.0391 6.25412C7.12016 5.73607 8.12304 6.04935 8.4633 6.15881C10.2994 6.74952 12.0837 8.73206 12.9546 10.4079L13.4589 11.5223C13.6954 10.4674 14.0687 9.44072 14.1837 8.35933C14.0121 7.79693 12.9584 6.36641 13.047 5.84176C13.0555 5.79363 13.1846 5.61434 13.2025 5.60774C13.4692 5.50866 14.6126 6.63723 15.311 6.45794C15.6183 6.37962 16.5015 5.78231 16.7625 5.82288C17.0877 5.87289 17.0217 6.25223 16.9539 6.48247L16.9529 6.48342ZM13.1761 17.3369V17.3888C13.2091 17.3718 13.2091 17.3549 13.1761 17.3369ZM13.1243 17.4398V17.4917C13.1572 17.4747 13.1572 17.4577 13.1243 17.4398Z" fill="#01C877"/>
<path d="M16.9531 6.48297C17.0219 6.25272 17.0878 5.87339 16.7617 5.82338C16.5006 5.78374 15.6165 6.38011 15.3102 6.45843C14.6117 6.63772 13.4684 5.50915 13.2017 5.60823C12.6597 3.53416 13.3723 1.9083 15.0868 0.730663C15.4629 0.472111 16.3149 -0.0874555 16.7617 0.0116246C16.9794 0.0597492 17.4224 0.823138 17.528 1.04583C18.3622 2.8104 18.1558 4.94959 16.9531 6.48202V6.48297Z" fill="#FEE14A"/>
<path d="M19.3547 31.3939C19.6271 31.3836 20.0513 31.3203 19.9203 31.7534C19.8694 31.9214 19.3783 31.9242 19.1851 31.9431C15.4488 32.3243 11.6785 32.4546 7.93187 32.7159C6.73199 32.7999 5.6603 32.9452 4.43498 32.9707C4.27474 32.9736 3.85718 33.1226 3.84776 32.7943C3.8355 32.3583 4.9449 32.53 5.25877 32.5093C6.16928 32.4508 7.07414 32.2772 7.98371 32.2017C9.55401 32.0714 11.1394 32.0592 12.7106 31.9431C14.903 31.7818 17.1671 31.4751 19.3557 31.393L19.3547 31.3939Z" fill="#2A2A2A"/>
<path d="M13.1719 17.3369C13.2048 17.3539 13.2048 17.3708 13.1719 17.3887V17.3369Z" fill="#FEFEFE"/>
<path d="M13.125 17.4395C13.1579 17.4564 13.1579 17.4734 13.125 17.4913V17.4395Z" fill="#FEFEFE"/>
</svg>
