<svg width="25" height="52" viewBox="0 0 25 52" fill="none" xmlns="http://www.w3.org/2000/svg">
<path d="M13.0314 30.5777C15.6249 30.5088 18.2297 30.5182 20.8261 30.4257C21.5223 30.4011 22.2337 30.2821 22.9309 30.267C23.1922 30.2613 23.8866 30.2018 23.9772 30.5116C23.9555 30.8535 24.0291 31.1983 24.0423 31.5279C24.0885 32.6915 24.0828 34.3897 23.9819 35.5401C23.9611 35.7724 23.9649 36.0463 23.7026 36.0822C23.3875 36.1257 23.3026 35.95 23.2328 36.2815C22.6573 38.9903 22.8016 42.3064 22.4384 45.1163C22.1894 47.0412 21.5186 48.8962 21.2176 50.8446C21.1837 51.0619 21.2374 51.5804 20.9686 51.6758C18.3647 51.9204 15.7268 51.8637 13.1078 51.8439C11.1275 51.8288 8.8548 51.8694 6.89245 51.5785C6.53394 51.5256 6.16693 51.434 5.88202 51.1998C5.36029 50.77 4.87726 49.3146 4.67442 48.6496C3.88382 46.0542 3.1451 43.3076 2.45167 40.68C2.16675 39.6024 1.92335 38.5124 1.66013 37.43C1.27332 37.4404 0.831795 37.4584 0.725186 37.0012C0.563858 35.8896 0.226097 34.7968 0.0779771 33.6842C0.00344546 33.1241 -0.118249 32.6131 0.276109 32.1465C0.611029 31.7499 2.65923 31.4193 3.25076 31.3135C5.97447 30.8299 8.43402 30.7175 11.1823 30.6278C11.7946 30.608 12.4163 30.5929 13.0342 30.5759L13.0314 30.5777ZM19.3477 35.5873C17.1571 35.6686 14.8909 35.9765 12.6965 36.138C11.1238 36.2532 9.53691 36.2664 7.96514 36.3968C7.05566 36.4723 6.14901 36.6461 5.23765 36.7047C4.93481 36.7245 3.82815 36.5498 3.82815 36.988C3.82815 37.3535 4.21213 37.1722 4.41309 37.1665C5.63201 37.1278 6.71602 36.9956 7.91324 36.9115C11.6634 36.6489 15.4372 36.5195 19.177 36.138C19.3704 36.1181 19.8628 36.1153 19.9128 35.9481C20.043 35.5137 19.6194 35.5779 19.3468 35.5883L19.3477 35.5873Z" fill="#3F3F3F"/>
<path d="M10.3031 11.374C9.87665 11.6356 8.78226 12.2373 8.53225 12.6132C8.1794 13.143 8.5898 13.8599 9.16907 13.977C10.0068 14.1461 11.2192 13.4802 11.9494 13.0731C12.5513 13.8797 13.0513 14.7591 13.4155 15.6988L14.2127 12.7643C14.3061 13.1922 14.6165 14.0167 14.624 14.3605C14.6486 15.5326 14.0589 18.1281 13.7863 19.3654C13.6287 20.0784 13.3598 20.7585 13.1843 21.4659C13.2834 21.4876 13.307 21.4158 13.3589 21.3582C15.3127 19.2029 17.4676 17.6927 20.3743 17.1042C21.6781 16.8407 23.4791 16.5838 24.782 16.8332C25.1434 16.9021 24.9349 17.5888 24.8773 17.8542C24.2282 20.8444 22.447 23.7487 19.596 25.0276C18.2176 25.6453 17.1487 26.0457 15.6005 25.7662C14.4891 25.5659 13.3947 25.2646 12.3607 24.8132C12.3428 26.7314 12.4258 28.7545 13.0296 30.5793C12.4117 30.5954 11.7899 30.6105 11.1777 30.6312L10.8191 27.7694C10.4333 27.845 10.0823 27.657 9.72475 27.5286C7.75957 26.8212 5.63118 25.5744 4.31602 23.932C3.24239 22.5908 1.77628 19.5665 1.97535 17.8419C2.07063 17.0183 2.4131 17.3196 3.02445 17.398C6.61989 17.6832 9.12662 20.5752 10.5522 23.6618L11.0729 25.0701C11.2333 23.8914 11.4947 22.7296 11.8437 21.5944C11.9551 21.2326 12.4796 20.0218 12.4136 19.7507C10.7446 19.0168 9.47003 17.6558 8.4898 16.1494C7.5624 14.7251 6.74632 12.1249 7.01331 10.4257C7.08313 9.97899 7.68788 10.1566 7.98789 10.2161C8.84642 10.3861 9.61248 10.863 10.3021 11.3749L10.3031 11.374ZM13.1579 21.5169V21.5689C13.1909 21.5518 13.1909 21.5348 13.1579 21.5169ZM13.107 21.6199V21.6718C13.14 21.6548 13.14 21.6378 13.107 21.6199Z" fill="#019652"/>
<path d="M10.3029 11.374C10.3369 11.3532 10.4303 11.3598 10.4727 11.3145L12.103 10.2935C10.7086 10.4975 9.25853 10.0583 7.9613 9.57286C7.25372 9.3084 6.18574 8.95516 5.83384 8.25246C5.12343 6.83478 6.20934 5.96112 7.55091 5.86479C8.94814 5.76467 10.5265 6.1878 11.8718 6.53254C11.5435 5.83456 11.0218 4.91557 10.9756 4.13164C10.9463 3.64618 11.3596 3.60084 11.7568 3.66318C12.5766 3.79257 13.0125 4.78051 13.5427 5.29809C13.3474 4.01169 13.1313 2.66013 13.4559 1.37467C13.6861 0.462293 14.4644 -0.308413 15.4465 0.12322C16.6353 0.645524 16.2277 3.03037 16.1673 4.06175C17.5655 2.6299 19.475 1.89225 21.493 2.05187C23.9677 2.24833 21.9846 4.74084 20.9468 5.42182L17.8655 7.51103C18.925 7.53937 20.1637 7.74621 21.1402 8.17218C22.1166 8.59814 23.1695 9.70887 23.5677 10.6855C24.1998 12.2363 22.6714 12.6698 21.4393 12.7624C20.2071 12.855 18.742 12.0739 17.7872 11.2711C18.1042 12.0522 18.6099 12.7992 18.6872 13.6653C18.7703 14.5994 18.3287 16.258 17.3108 16.5593C16.0786 16.9229 15.0182 15.3277 14.6248 14.3595C14.6173 14.0158 14.3069 13.1912 14.2135 12.7634C14.1201 12.3355 14.0531 11.9955 14.0059 11.5544C14.0012 11.5091 14.0399 11.3787 13.9314 11.425C13.8965 11.4401 13.5172 11.8982 13.4172 11.9926C12.9606 12.4252 12.4992 12.7662 11.9502 13.0722C11.2199 13.4802 10.0076 14.1461 9.16984 13.9761C8.59057 13.859 8.18111 13.1421 8.53302 12.6122C8.78303 12.2363 9.87742 11.6347 10.3039 11.3731L10.3029 11.374ZM14.304 6.8055C12.8502 6.96512 12.7672 8.97122 14.0587 9.39057C14.4342 9.51241 14.7644 9.4803 15.1229 9.32351C16.5739 8.69165 15.755 6.64588 14.304 6.8055Z" fill="#FEDB47"/>
<path d="M19.3468 35.5883C19.6194 35.5779 20.044 35.5146 19.9128 35.9481C19.8619 36.1162 19.3703 36.1191 19.1769 36.138C15.4371 36.5195 11.6634 36.6489 7.91322 36.9115C6.716 36.9956 5.63199 37.1278 4.41307 37.1665C4.21211 37.1731 3.82718 37.3535 3.82813 36.988C3.82813 36.5488 4.93479 36.7236 5.23763 36.7047C6.14899 36.6461 7.0547 36.4723 7.96512 36.3968C9.53688 36.2664 11.1237 36.2541 12.6965 36.138C14.8909 35.9765 17.157 35.6695 19.3477 35.5873L19.3468 35.5883Z" fill="#2A2A2A"/>
<path d="M13.1562 21.5166C13.1893 21.5336 13.1893 21.5506 13.1562 21.5685V21.5166Z" fill="#FEFEFE"/>
<path d="M13.1094 21.6201C13.1424 21.6371 13.1424 21.6541 13.1094 21.6721V21.6201Z" fill="#FEFEFE"/>
<path d="M14.3043 6.80572C15.7553 6.6461 16.5742 8.69187 15.1232 9.32373C14.7647 9.47958 14.4354 9.51263 14.059 9.39079C12.7674 8.97238 12.8505 6.96534 14.3043 6.80572Z" fill="#FCFAF8"/>
</svg>
