<svg width="61" height="60" viewBox="0 0 61 60" fill="none" xmlns="http://www.w3.org/2000/svg">
<rect x="0.738281" width="60" height="60" rx="30" fill="white"/>
<path d="M44.4512 29.6058C44.4512 33.2161 43.1552 36.3635 40.9643 38.6778L44.3586 42.9669L39.8843 46.3921L36.2432 41.8252C34.6386 42.4732 32.818 42.8126 30.874 42.8126C23.0672 42.8126 17.2969 37.2275 17.2969 29.6058C17.2969 21.9841 23.0672 16.3989 30.874 16.3989C38.6809 16.3989 44.4512 21.9841 44.4512 29.6058ZM30.874 37.7521C31.5529 37.7521 32.2009 37.6904 32.818 37.5361L29.5472 33.4012L34.0523 29.9452L37.5083 34.2961C38.3414 33.0001 38.8352 31.3955 38.8352 29.6058C38.8352 24.8538 35.4409 21.4595 30.874 21.4595C26.3072 21.4595 22.9129 24.8538 22.9129 29.6058C22.9129 34.3269 26.3072 37.7521 30.874 37.7521Z" fill="#FF5D00"/>
</svg>
