<svg width="80" height="120" viewBox="0 0 80 120" fill="none" xmlns="http://www.w3.org/2000/svg">
<path d="M27.5 59.5C27.4967 59.3671 31.3809 54.0234 31.2795 53.9731C30.9361 53.8011 30.2838 53.667 29.8746 53.5073C25.8698 51.9467 22.3053 49.6577 20.556 45.5535C19.0731 42.0737 19.4712 38.0722 20.5437 34.5365C18.3495 34.5801 15.0393 34.4717 14.2488 31.9426C13.1484 28.417 15.8498 23.0046 19.3719 21.8227C21.924 20.967 24.7693 21.9478 26.1898 24.2379C26.4261 24.6188 26.5421 25.021 26.7316 25.4008C26.7718 25.4812 26.7093 25.5382 26.8755 25.5069C29.2012 23.4313 32.0019 22.0562 34.9108 20.9938C35.2821 21.0508 35.7225 21.072 36.1016 21.0798C35.7749 21.5691 34.437 24.325 36.0458 23.6201C36.6769 23.3442 37.4306 22.3734 38.2378 21.9836C39.6984 21.2798 39.8165 22.0383 40.9549 22.732C41.3775 22.9901 42.1635 23.4771 42.6485 23.3777L42.7332 23.2928C42.8235 23.2403 42.8492 23.2102 42.9038 23.123L42.9885 23.0381C42.9986 23.0169 42.9807 22.9811 42.9885 22.9532C43.3342 22.9957 43.0788 22.7689 43.0733 22.6974C43.051 22.3656 43.051 21.9221 43.0733 21.5903C43.1803 21.4016 43.1402 21.2742 43.4133 21.3345C44.0589 21.6808 45.8985 22.3098 46.5809 22.169C47.319 22.016 46.621 21.0251 46.3891 20.6531C48.5331 20.9301 50.3995 22.1087 52.2983 23.0459C52.4833 23.0627 52.4722 22.7946 52.5781 22.6382C53.2794 21.6015 54.2817 21.0932 55.468 20.7637C60.2344 19.4388 66.6453 22.6728 65.7623 28.2651C65.3598 30.8087 63.4108 32.6732 61.0918 33.5669C62.0551 36.3016 62.3907 39.0955 61.7373 41.9463C60.7305 46.3388 57.3857 49.6276 53.5314 51.6965C53.4689 51.7367 53.4433 51.7903 53.4433 51.8651C53.4444 52.0238 54.8648 54.1854 55.0767 54.5786C55.9809 56.2554 56.6699 58.0651 57.2742 59.8715M44.8583 35.8134C43.5627 35.8525 42.5738 35.7363 41.315 36.3094C39.3683 37.1964 36.2108 40.3153 38.7941 42.1865C40.9237 43.7281 46.1828 42.3138 47.7471 40.2829C48.8397 38.8631 47.8352 37.1293 46.446 36.3954C46.0825 36.2033 45.9877 36.1787 45.709 35.9843C46.1159 35.9843 46.4694 35.3073 46.5229 34.9666C46.5474 34.8125 46.4582 34.6896 46.4694 34.589C46.4772 34.5198 46.7135 34.57 46.6455 34.322C46.6366 34.2908 46.4761 34.2874 46.4694 34.2271C46.4582 34.1277 46.5463 34.0048 46.5229 33.8506C46.4638 33.4719 45.981 32.7279 45.5707 32.6877C45.4893 32.6799 44.8237 32.7436 44.749 32.7648C44.6498 32.7927 44.3956 33.0485 44.3666 33.1491C44.3053 33.3591 44.3153 34.6594 44.3543 34.9141C44.4056 35.2425 44.7011 35.5341 44.8594 35.8134H44.8583ZM38.7161 33.3602C38.3337 33.4339 38.0772 33.7903 37.9546 34.1355C37.7026 34.8437 37.6547 35.5185 37.9546 36.2144C38.6938 37.9314 40.4699 36.6378 40.3461 35.1007C40.287 34.369 39.549 33.1994 38.7172 33.3602H38.7161ZM50.9581 51.5836C50.6091 51.644 49.7339 52.1545 49.3002 52.3153C46.0435 53.5185 41.4845 54.3742 38.0115 54.2144C36.5197 54.1452 34.7491 53.5844 33.3343 53.6257C32.9898 53.6358 32.6988 54.0078 32.9942 54.3004C33.2484 54.5518 33.6119 54.4289 33.923 54.4769C35.2007 54.6713 36.562 54.9897 37.8453 55.0612C41.2069 55.2511 45.8316 54.5149 49.0047 53.3822C49.4128 53.237 51.3796 52.4997 51.4732 52.1925C51.5959 51.7925 51.3606 51.5144 50.9581 51.5836ZM47.7649 61.3907C47.5709 60.9975 47.2186 60.3485 46.6979 60.5239ZM41.7811 61.2533C41.7097 61.0109 41.3931 60.9729 41.1768 61.0388Z" fill="#FF8C80"/>
<path d="M50.6584 21.3833C51.0363 21.9899 52.1724 23.6019 50.9705 23.851C49.8601 24.08 46.8665 23.0556 45.8162 22.4926C45.6166 22.3853 45.4315 22.0122 45.2832 22.4479C45.232 22.5976 45.2732 22.7573 45.2632 22.9081C45.2264 23.4477 45.2264 24.1705 45.2632 24.71C45.0614 24.7793 45.1595 25.0005 45.1249 25.1256C45.1127 25.1714 45.1405 25.2295 45.1249 25.2641C45.1071 25.3021 45.0212 25.3468 44.9867 25.4026C44.8986 25.5445 44.8573 25.5937 44.7102 25.6797C44.6544 25.7121 44.5998 25.8126 44.5719 25.8182C43.7837 25.9802 42.5037 25.1882 41.8158 24.7681C39.965 23.6376 39.7732 22.4032 37.3951 23.5494C36.0817 24.1828 34.8541 25.7612 33.8284 26.2114C31.2094 27.3598 33.388 22.8735 33.9187 22.0781C33.3032 22.0658 32.5852 22.0312 31.982 21.9385C30.9195 21.7754 29.4422 21.5475 28.47 21.0917C25.8477 19.864 30.3832 18.4408 31.3231 18.1604C32.4325 17.8286 33.7559 17.4589 34.892 17.584C35.1206 17.4153 35.0704 15.104 35.2265 14.5868C35.4205 13.9467 36.2355 13.8674 36.7629 14.1701C37.4441 14.5622 38.5122 16.1061 39.3518 16.7037C39.7732 17.0042 40.9818 17.6845 41.459 17.6555C43.0623 16.8489 44.5641 15.9027 46.2332 15.2191C47.1095 14.8594 48.6537 14.2204 49.5468 14.0986C52.8838 13.6428 48.5188 18.1705 48.5768 18.8139C49.2424 19.6987 50.0507 20.408 50.6584 21.3844V21.3833Z" fill="#02A06B"/>
<path d="M44.8583 35.8136C44.9029 35.8125 45.6722 35.9588 45.709 35.9834C45.9877 36.1778 46.0836 36.2024 46.4459 36.3945C47.8352 37.1285 48.8397 38.8622 47.7471 40.2821C46.1839 42.313 40.9237 43.7272 38.7941 42.1856C36.2108 40.3145 39.3683 37.1966 41.315 36.3085C42.5726 35.7354 43.5627 35.8516 44.8583 35.8125V35.8136ZM42.3708 36.3454C41.7431 36.4515 41.1177 37.1128 41.5068 37.7663C41.975 38.5528 43.8125 37.8568 43.9083 37.1106C44.0221 36.2292 42.974 36.2437 42.3708 36.3454Z" fill="#F4493B"/>
<path d="M41.1758 61.0385C41.391 60.9726 41.7076 61.0106 41.7801 61.253Z" fill="#F4493B"/>
<path d="M46.6992 60.5226C47.2199 60.3472 47.5722 60.9963 47.7662 61.3895Z" fill="#F4493B"/>
<path d="M50.9571 51.5831C51.3595 51.5128 51.5948 51.792 51.4722 52.192C51.3774 52.4992 49.4106 53.2353 49.0037 53.3817C45.8306 54.5144 41.2069 55.2506 37.8443 55.0607C36.5621 54.9881 35.1996 54.6708 33.9219 54.4764C33.6108 54.4295 33.2474 54.5513 32.9932 54.2999C32.6977 54.0073 32.9887 53.6353 33.3332 53.6252C34.747 53.5828 36.5175 54.1447 38.0104 54.2139C41.4834 54.3748 46.0424 53.5191 49.2991 52.3148C49.734 52.154 50.6081 51.6446 50.9571 51.5831Z" fill="#F4493B"/>
<path d="M38.7161 33.3586C39.5489 33.1988 40.287 34.3684 40.345 35.099C40.4687 36.6362 38.6926 37.9298 37.9534 36.2128C37.6535 35.5168 37.7015 34.8421 37.9534 34.1338C38.0761 33.7886 38.3325 33.4323 38.7149 33.3586H38.7161Z" fill="#414241"/>
<path d="M44.8573 35.8129C44.7001 35.5336 44.4035 35.242 44.3522 34.9136C44.3121 34.6578 44.3032 33.3575 44.3645 33.1486C44.3935 33.048 44.6477 32.7933 44.7469 32.7643C44.8227 32.743 45.4884 32.6794 45.5686 32.6872C45.98 32.7263 46.4617 33.4703 46.5208 33.8501C46.5453 34.0043 46.6345 34.2914 46.6434 34.3226C46.7114 34.5706 46.5453 34.813 46.5208 34.9661C46.4673 35.3057 46.1138 35.9827 45.7069 35.9838C45.6701 35.9581 44.9008 35.8117 44.8562 35.814L44.8573 35.8129Z" fill="#414241"/>
<path d="M42.3711 36.3433C42.9743 36.2417 44.0224 36.2271 43.9086 37.1085C43.8128 37.8536 41.9753 38.5496 41.5071 37.7643C41.1179 37.1108 41.7434 36.4494 42.3711 36.3433Z" fill="#414241"/>
<path d="M49.8273 57.2878C54.7465 57.1652 59.7033 56.9996 64.6247 56.7754C65.7898 56.7224 67.3637 56.5512 68.4715 56.6407C70.2207 56.7809 69.7126 57.4181 69.8129 58.7622C70.0521 61.9936 70.0785 66.5524 69.7953 69.7827C69.7445 70.3625 69.7523 71.0462 69.1008 71.1345C68.3161 71.2416 68.1055 70.8043 67.9303 71.6304C66.4875 78.4267 66.8733 86.7382 65.9529 93.7798C65.469 97.4816 64.1706 101.002 63.4475 104.616C63.1609 106.049 63.1224 107.529 62.8622 108.906C62.7895 109.292 62.687 109.836 62.2869 109.998C53.5352 110.88 44.692 110.163 35.9248 110.421C33.0778 110.013 29.9364 110.182 27.1258 109.739C23.5093 109.168 22.6606 105.575 21.7116 102.459C19.7397 95.9918 17.9023 89.1447 16.1751 82.5968C15.4664 79.911 14.859 77.1953 14.2043 74.4973C13.241 74.5227 12.1409 74.568 11.8753 73.4294C11.5314 71.2063 10.9329 69.0185 10.5427 66.8087C10.3818 65.8964 9.91114 63.5563 10.0147 62.7711C10.0434 62.5513 10.6915 61.3751 10.88 61.1973C11.8753 60.2575 17.4283 59.3828 19.042 59.1078C22.4743 58.5214 25.9849 58.0333 29.4614 57.8036C36.2401 57.3552 43.0375 57.4601 49.8295 57.29L49.8273 57.2878ZM59.6625 70.1472C59.528 69.9109 58.8677 69.849 58.5999 69.8556C53.1141 69.9959 47.2139 70.8672 41.6917 71.2737C37.7744 71.5619 33.8229 71.5917 29.9089 71.9175C27.6449 72.1064 25.3864 72.5393 23.1169 72.6851C22.3366 72.7359 19.5678 72.3074 19.5986 73.3963C19.6218 74.2146 20.6623 73.8446 21.0635 73.8358C24.1156 73.774 26.7896 73.4095 29.781 73.2008C39.1213 72.5481 48.52 72.2267 57.8328 71.2737C58.1513 71.2416 59.2899 71.1544 59.4354 71.0826C59.6999 70.9534 59.7936 70.378 59.6614 70.1461L59.6625 70.1472Z" fill="#3F3F3F"/>
<path d="M59.6646 70.1474C59.7957 70.3782 59.7031 70.9547 59.4386 71.0839C59.292 71.1546 58.1534 71.2418 57.836 71.2749C48.5232 72.228 39.1245 72.5494 29.7842 73.2021C26.7928 73.4108 24.1199 73.7741 21.0667 73.8371C20.6666 73.8448 19.6261 74.2148 19.6018 73.3976C19.5699 72.3086 22.3398 72.7371 23.1201 72.6863C25.3896 72.5406 27.6481 72.1076 29.9121 71.9188C33.8261 71.593 37.7776 71.5632 41.6949 71.2749C47.2171 70.8685 53.1173 69.9972 58.6031 69.8569C58.8709 69.8503 59.5312 69.911 59.6657 70.1485L59.6646 70.1474Z" fill="#2A2A2A"/>
<path d="M36.5473 86.2119V87.1572C36.5473 88.3496 36.5473 89.6816 36.1821 91.6475L35.1508 91.54C35.5268 89.6816 35.5268 88.3174 35.5268 87.1572V87.0391H29.6831V86.2119H36.5473ZM37.5356 92.7646V93.6133H28.7592V92.7646H32.1001V89.3701H33.1098V92.7646H37.5356ZM42.9673 86.2441V92.4961H38.4663V86.2441H42.9673ZM39.4653 87.0498V91.6689H41.9575V87.0498H39.4653ZM45.5991 85.2881V89.0586H47.146V89.918H45.5991V94.9131H44.5786V85.2881H45.5991ZM55.2525 90.2188V91.0352H52.3413V92.915H56.2515V93.7529H47.4429V92.915H51.3208V91.0352H48.5494V86.0293H55.1558V86.8672H49.5806V88.1025H54.9517V88.9082H49.5806V90.2188H55.2525Z" fill="#D9D9D9"/>
</svg>
