<svg width="80" height="120" viewBox="0 0 80 120" fill="none" xmlns="http://www.w3.org/2000/svg">
<path d="M31.4255 84.1608C31.4222 84.0279 31.3809 84.0234 31.2795 83.9731C30.9361 83.8011 30.2838 83.667 29.8746 83.5073C25.8698 81.9467 22.3053 79.6577 20.556 75.5535C19.0731 72.0737 19.4712 68.0722 20.5437 64.5365C18.3495 64.5801 15.0393 64.4717 14.2488 61.9426C13.1484 58.417 15.8498 53.0046 19.3719 51.8227C21.924 50.967 24.7693 51.9478 26.1898 54.2379C26.4261 54.6188 26.5421 55.021 26.7316 55.4008C26.7718 55.4812 26.7093 55.5382 26.8755 55.5069C29.2012 53.4313 32.0019 52.0562 34.9108 50.9938C35.2821 51.0508 35.7225 51.072 36.1016 51.0798C35.7749 51.5691 34.437 54.325 36.0458 53.6201C36.6769 53.3442 37.4306 52.3734 38.2378 51.9836C39.6984 51.2798 39.8165 52.0383 40.9549 52.732C41.3775 52.9901 42.1635 53.4771 42.6485 53.3777L42.7332 53.2928C42.8235 53.2403 42.8492 53.2102 42.9038 53.123L42.9885 53.0381C42.9986 53.0169 42.9807 52.9811 42.9885 52.9532C43.3342 52.9957 43.0788 52.7689 43.0733 52.6974C43.051 52.3656 43.051 51.9221 43.0733 51.5903C43.1803 51.4016 43.1402 51.2742 43.4133 51.3345C44.0589 51.6808 45.8985 52.3098 46.5809 52.169C47.319 52.016 46.621 51.0251 46.3891 50.6531C48.5331 50.9301 50.3995 52.1087 52.2983 53.0459C52.4833 53.0627 52.4722 52.7946 52.5781 52.6382C53.2794 51.6015 54.2817 51.0932 55.468 50.7637C60.2344 49.4388 66.6453 52.6728 65.7623 58.2651C65.3598 60.8087 63.4108 62.6732 61.0918 63.5669C62.0551 66.3016 62.3907 69.0955 61.7373 71.9463C60.7305 76.3388 57.3857 79.6276 53.5314 81.6965C53.4689 81.7367 53.4433 81.7903 53.4433 81.8651C53.4444 82.0238 54.8648 84.1854 55.0767 84.5786C55.9809 86.2554 56.6699 88.0651 57.2742 89.8715M44.8583 65.8134C43.5627 65.8525 42.5738 65.7363 41.315 66.3094C39.3683 67.1964 36.2108 70.3153 38.7941 72.1865C40.9237 73.7281 46.1828 72.3139 47.7471 70.2829C48.8397 68.8631 47.8352 67.1293 46.446 66.3954C46.0825 66.2033 45.9877 66.1787 45.709 65.9843C46.1159 65.9843 46.4694 65.3073 46.5229 64.9666C46.5474 64.8125 46.4582 64.6896 46.4694 64.589C46.4772 64.5198 46.7135 64.57 46.6455 64.322C46.6366 64.2908 46.4761 64.2874 46.4694 64.2271C46.4582 64.1277 46.5463 64.0048 46.5229 63.8506C46.4638 63.4719 45.981 62.7279 45.5707 62.6877C45.4893 62.6799 44.8237 62.7436 44.749 62.7648C44.6498 62.7927 44.3956 63.0485 44.3666 63.1491C44.3053 63.3591 44.3153 64.6594 44.3543 64.9141C44.4056 65.2425 44.7011 65.5341 44.8594 65.8134H44.8583ZM38.7161 63.3602C38.3337 63.4339 38.0772 63.7903 37.9546 64.1355C37.7026 64.8437 37.6547 65.5185 37.9546 66.2144C38.6938 67.9314 40.4699 66.6378 40.3461 65.1007C40.287 64.369 39.549 63.1994 38.7172 63.3602H38.7161ZM50.9581 81.5836C50.6091 81.644 49.7339 82.1545 49.3002 82.3153C46.0435 83.5185 41.4845 84.3742 38.0115 84.2144C36.5197 84.1452 34.7491 83.5844 33.3343 83.6257C32.9898 83.6358 32.6988 84.0078 32.9942 84.3004C33.2484 84.5518 33.6119 84.4289 33.923 84.4769C35.2007 84.6713 36.562 84.9897 37.8453 85.0612C41.2069 85.2511 45.8316 84.5149 49.0047 83.3822C49.4128 83.237 51.3796 82.4997 51.4732 82.1925C51.5959 81.7925 51.3606 81.5144 50.9581 81.5836ZM47.7649 91.3907C47.5709 90.9975 47.2186 90.3485 46.6979 90.5239ZM41.7811 91.2533C41.7097 91.0109 41.3931 90.9729 41.1768 91.0388Z" fill="#FF8C80"/>
<path d="M50.6584 51.3833C51.0363 51.9899 52.1724 53.6019 50.9705 53.851C49.8601 54.08 46.8665 53.0556 45.8162 52.4926C45.6166 52.3853 45.4315 52.0122 45.2832 52.4479C45.232 52.5976 45.2732 52.7573 45.2632 52.9081C45.2264 53.4477 45.2264 54.1705 45.2632 54.71C45.0614 54.7793 45.1595 55.0005 45.1249 55.1256C45.1127 55.1714 45.1405 55.2295 45.1249 55.2641C45.1071 55.3021 45.0212 55.3468 44.9867 55.4026C44.8986 55.5445 44.8573 55.5937 44.7102 55.6797C44.6544 55.7121 44.5998 55.8126 44.5719 55.8182C43.7837 55.9802 42.5037 55.1882 41.8158 54.7681C39.965 53.6376 39.7732 52.4032 37.3951 53.5494C36.0817 54.1828 34.8541 55.7612 33.8284 56.2114C31.2094 57.3598 33.388 52.8735 33.9187 52.0781C33.3032 52.0658 32.5852 52.0312 31.982 51.9385C30.9195 51.7754 29.4422 51.5475 28.47 51.0917C25.8477 49.864 30.3832 48.4408 31.3231 48.1604C32.4325 47.8286 33.7559 47.4589 34.892 47.584C35.1206 47.4153 35.0704 45.104 35.2265 44.5868C35.4205 43.9467 36.2355 43.8674 36.7629 44.1701C37.4441 44.5622 38.5122 46.1061 39.3518 46.7037C39.7732 47.0042 40.9818 47.6845 41.459 47.6555C43.0623 46.8489 44.5641 45.9027 46.2332 45.2191C47.1095 44.8594 48.6537 44.2204 49.5468 44.0986C52.8838 43.6428 48.5188 48.1705 48.5768 48.8139C49.2424 49.6987 50.0507 50.408 50.6584 51.3844V51.3833Z" fill="#02A06B"/>
<path d="M44.8583 65.8136C44.9029 65.8125 45.6722 65.9588 45.709 65.9834C45.9877 66.1778 46.0836 66.2024 46.4459 66.3945C47.8352 67.1285 48.8397 68.8622 47.7471 70.2821C46.1839 72.313 40.9237 73.7272 38.7941 72.1856C36.2108 70.3145 39.3683 67.1966 41.315 66.3085C42.5726 65.7354 43.5627 65.8516 44.8583 65.8125V65.8136ZM42.3708 66.3454C41.7431 66.4515 41.1177 67.1128 41.5068 67.7663C41.975 68.5528 43.8125 67.8568 43.9083 67.1106C44.0221 66.2292 42.974 66.2437 42.3708 66.3454Z" fill="#F4493B"/>
<path d="M41.1758 91.0385C41.391 90.9726 41.7076 91.0106 41.7801 91.253Z" fill="#F4493B"/>
<path d="M46.6992 90.5226C47.2199 90.3472 47.5722 90.9963 47.7662 91.3895Z" fill="#F4493B"/>
<path d="M50.9571 81.5831C51.3595 81.5128 51.5948 81.792 51.4722 82.192C51.3774 82.4992 49.4106 83.2353 49.0037 83.3817C45.8306 84.5144 41.2069 85.2506 37.8443 85.0607C36.5621 84.9881 35.1996 84.6708 33.9219 84.4764C33.6108 84.4295 33.2474 84.5513 32.9932 84.2999C32.6977 84.0073 32.9887 83.6353 33.3332 83.6252C34.747 83.5828 36.5175 84.1447 38.0104 84.2139C41.4834 84.3748 46.0424 83.5191 49.2991 82.3148C49.734 82.154 50.6081 81.6446 50.9571 81.5831Z" fill="#F4493B"/>
<path d="M38.7161 63.3586C39.5489 63.1988 40.287 64.3684 40.345 65.099C40.4687 66.6362 38.6926 67.9298 37.9534 66.2128C37.6535 65.5168 37.7015 64.8421 37.9534 64.1338C38.0761 63.7886 38.3325 63.4323 38.7149 63.3586H38.7161Z" fill="#414241"/>
<path d="M44.8573 65.8129C44.7001 65.5336 44.4035 65.242 44.3522 64.9136C44.3121 64.6578 44.3032 63.3575 44.3645 63.1486C44.3935 63.048 44.6477 62.7933 44.7469 62.7643C44.8227 62.743 45.4884 62.6794 45.5686 62.6872C45.98 62.7263 46.4617 63.4703 46.5208 63.8501C46.5453 64.0043 46.6345 64.2914 46.6434 64.3226C46.7114 64.5706 46.5453 64.813 46.5208 64.9661C46.4673 65.3057 46.1138 65.9827 45.7069 65.9838C45.6701 65.9581 44.9008 65.8117 44.8562 65.814L44.8573 65.8129Z" fill="#414241"/>
<path d="M42.3711 66.3433C42.9743 66.2417 44.0224 66.2271 43.9086 67.1085C43.8128 67.8536 41.9753 68.5496 41.5071 67.7643C41.1179 67.1108 41.7434 66.4494 42.3711 66.3433Z" fill="#414241"/>
<path d="M49.8273 57.2878C54.7465 57.1652 59.7033 56.9996 64.6247 56.7754C65.7898 56.7224 67.3637 56.5512 68.4715 56.6407C70.2207 56.7809 69.7126 57.4181 69.8129 58.7622C70.0521 61.9936 70.0785 66.5524 69.7953 69.7827C69.7445 70.3625 69.7523 71.0462 69.1008 71.1345C68.3161 71.2416 68.1055 70.8043 67.9303 71.6304C66.4875 78.4267 66.8733 86.7382 65.9529 93.7798C65.469 97.4816 64.1706 101.002 63.4475 104.616C63.1609 106.049 63.1224 107.529 62.8622 108.906C62.7895 109.292 62.687 109.836 62.2869 109.998C53.5352 110.88 44.692 110.163 35.9248 110.421C33.0778 110.013 29.9364 110.182 27.1258 109.739C23.5093 109.168 22.6606 105.575 21.7116 102.459C19.7397 95.9918 17.9023 89.1447 16.1751 82.5968C15.4664 79.911 14.859 77.1953 14.2043 74.4973C13.241 74.5227 12.1409 74.568 11.8753 73.4294C11.5314 71.2063 10.9329 69.0185 10.5427 66.8087C10.3818 65.8964 9.91114 63.5563 10.0147 62.7711C10.0434 62.5513 10.6915 61.3751 10.88 61.1973C11.8753 60.2575 17.4283 59.3828 19.042 59.1078C22.4743 58.5214 25.9849 58.0333 29.4614 57.8036C36.2401 57.3552 43.0375 57.4601 49.8295 57.29L49.8273 57.2878ZM59.6625 70.1472C59.528 69.9109 58.8677 69.849 58.5999 69.8556C53.1141 69.9959 47.2139 70.8672 41.6917 71.2737C37.7744 71.5619 33.8229 71.5917 29.9089 71.9175C27.6449 72.1064 25.3864 72.5393 23.1169 72.6851C22.3366 72.7359 19.5678 72.3074 19.5986 73.3963C19.6218 74.2146 20.6623 73.8446 21.0635 73.8358C24.1156 73.774 26.7896 73.4095 29.781 73.2008C39.1213 72.5481 48.52 72.2267 57.8328 71.2737C58.1513 71.2416 59.2899 71.1544 59.4354 71.0826C59.6999 70.9534 59.7936 70.378 59.6614 70.1461L59.6625 70.1472Z" fill="#3F3F3F"/>
<path d="M59.6646 70.1474C59.7957 70.3782 59.7031 70.9547 59.4386 71.0839C59.292 71.1546 58.1534 71.2418 57.836 71.2749C48.5232 72.228 39.1245 72.5494 29.7842 73.2021C26.7928 73.4108 24.1199 73.7741 21.0667 73.8371C20.6666 73.8448 19.6261 74.2148 19.6018 73.3976C19.5699 72.3086 22.3398 72.7371 23.1201 72.6863C25.3896 72.5406 27.6481 72.1076 29.9121 71.9188C33.8261 71.593 37.7776 71.5632 41.6949 71.2749C47.2171 70.8685 53.1173 69.9972 58.6031 69.8569C58.8709 69.8503 59.5312 69.911 59.6657 70.1485L59.6646 70.1474Z" fill="#2A2A2A"/>
<path opacity="0.7" d="M41.1639 93.3229C40.736 93.3231 40.3585 93.2771 40.0313 93.1849C39.7124 93.0844 39.4607 92.8915 39.276 92.6063C39.0914 92.3127 38.9989 91.8807 38.9987 91.3102C38.9985 90.8404 39.0865 90.4083 39.2625 90.014C39.4469 89.6112 39.7237 89.2336 40.0927 88.8811C40.4617 88.5286 40.923 88.1929 41.4766 87.8739C41.9379 87.6053 42.3489 87.3492 42.7095 87.1058C43.0786 86.854 43.3679 86.6064 43.5776 86.363C43.7956 86.1197 43.9046 85.8679 43.9045 85.6079C43.9044 85.3394 43.8288 85.1297 43.6778 84.9787C43.5351 84.8194 43.3253 84.7104 43.0484 84.6518C42.78 84.5931 42.4569 84.5639 42.0794 84.564C41.8277 84.5641 41.5299 84.5978 41.186 84.665C40.842 84.7239 40.5065 84.8079 40.1793 84.9171C39.8522 85.0179 39.5922 85.1312 39.3992 85.2571C39.005 85.4502 38.6401 85.6097 38.3046 85.7357C37.9774 85.8617 37.6251 85.9247 37.2476 85.9248C36.9204 85.925 36.6309 85.837 36.3792 85.6609C36.1274 85.4848 36.0015 85.1493 36.0013 84.6543C36.0012 84.3187 36.0934 84.0041 36.2778 83.7104C36.4623 83.4083 36.7097 83.1272 37.02 82.867C37.4561 82.4809 37.9719 82.1493 38.5675 81.8723C39.163 81.5868 39.7838 81.3727 40.4297 81.2298C41.084 81.0786 41.7048 81.0028 42.2921 81.0026C43.1814 81.0023 44.0036 81.0943 44.7587 81.2786C45.5222 81.4629 46.185 81.7437 46.7473 82.121C47.3095 82.49 47.7459 82.9596 48.0565 83.53C48.3671 84.092 48.5226 84.7547 48.5229 85.5181C48.5231 86.1389 48.3932 86.6927 48.1333 87.1794C47.8818 87.6661 47.5254 88.0898 47.0641 88.4508C46.6112 88.8117 46.0912 89.1265 45.504 89.3951C45.1601 89.563 44.8204 89.7435 44.4849 89.9366C44.1578 90.1213 43.8768 90.3395 43.642 90.5913C43.4072 90.8431 43.2479 91.1409 43.1641 91.4849C43.005 92.1058 42.7996 92.5673 42.548 92.8694C42.3048 93.1715 41.8434 93.3227 41.1639 93.3229ZM40.6118 97.9289C40.0078 97.9291 39.5254 97.7951 39.1645 97.5268C38.8037 97.2668 38.6232 96.8684 38.623 96.3315C38.6228 95.7358 38.8281 95.2827 39.2391 94.9721C39.6585 94.6532 40.1198 94.4936 40.6232 94.4935C41.0175 94.4933 41.3909 94.5435 41.7432 94.6441C42.0956 94.7362 42.3851 94.9039 42.6117 95.1471C42.8467 95.3903 42.9643 95.7384 42.9645 96.1915C42.9646 96.6948 42.7802 97.1102 42.4112 97.4375C42.0422 97.7648 41.4424 97.9286 40.6118 97.9289Z" fill="white"/>
</svg>
