<svg width="336" height="200" viewBox="0 0 336 200" fill="none" xmlns="http://www.w3.org/2000/svg">
<g clip-path="url(#clip0_889_13625)">
<rect width="335" height="200" transform="translate(0.873047)" fill="#FFF7F2"/>
<g opacity="0.7">
<path d="M64.684 56.5635L60.0105 55H23.3627L15.0469 68.4017V71.9214L64.684 56.5635Z" fill="#FFBE99"/>
<path d="M32.6028 177.965H36.2617L36.2617 66.7507H32.6028L32.6028 177.965Z" fill="#FFBE99"/>
<path d="M14.707 72.1372H55.1801L64.4688 56.7861H23.9958L14.707 72.1372Z" fill="#FFF7F2"/>
<path d="M52.2027 60.9423C51.2464 62.5193 52.1362 63.7986 54.1902 63.7986C56.2442 63.7986 58.6807 62.5193 59.6287 60.9423C60.585 59.3652 59.6952 58.0859 57.6412 58.0859C55.5872 58.0859 53.1507 59.3652 52.2027 60.9423Z" fill="white"/>
<path d="M42.7398 60.9423C41.7835 62.5193 42.6733 63.7986 44.7273 63.7986C46.7813 63.7986 49.2178 62.5193 50.1658 60.9423C51.1221 59.3652 50.2323 58.0859 48.1783 58.0859C46.1243 58.0859 43.6878 59.3652 42.7398 60.9423Z" fill="white"/>
<path d="M33.275 60.9423C32.3186 62.5193 33.2084 63.7986 35.2624 63.7986C37.3164 63.7986 39.753 62.5193 40.701 60.9423C41.6573 59.3652 40.7675 58.0859 38.7135 58.0859C36.6595 58.0859 34.223 59.3652 33.275 60.9423Z" fill="white"/>
<path d="M23.8121 60.9423C22.8557 62.5193 23.7455 63.7986 25.7995 63.7986C27.8536 63.7986 30.2901 62.5193 31.2381 60.9423C32.1861 59.3652 31.3046 58.0859 29.2506 58.0859C27.1966 58.0859 24.7601 59.3652 23.8121 60.9423Z" fill="white"/>
<path d="M47.9371 67.9823C46.9807 69.5594 47.8705 70.8386 49.9245 70.8386C51.9786 70.8386 54.4151 69.5594 55.3631 67.9823C56.3194 66.4052 55.4296 65.126 53.3756 65.126C51.3216 65.126 48.8851 66.4052 47.9371 67.9823Z" fill="white"/>
<path d="M38.4742 67.9823C37.5179 69.5594 38.4076 70.8386 40.4617 70.8386C42.5157 70.8386 44.9522 69.5594 45.9002 67.9823C46.8565 66.4052 45.9667 65.126 43.9127 65.126C41.8587 65.126 39.4222 66.4052 38.4742 67.9823Z" fill="white"/>
<path d="M29.0093 67.9823C28.053 69.5594 28.9428 70.8386 30.9968 70.8386C33.0508 70.8386 35.4873 69.5594 36.4354 67.9823C37.3917 66.4052 36.5019 65.126 34.4479 65.126C32.3939 65.126 29.9573 66.4052 29.0093 67.9823Z" fill="white"/>
<path d="M19.5464 67.9823C18.5901 69.5594 19.4799 70.8386 21.5339 70.8386C23.5879 70.8386 26.0245 69.5594 26.9725 67.9823C27.9288 66.4052 27.039 65.126 24.985 65.126C22.931 65.126 20.4944 66.4052 19.5464 67.9823Z" fill="white"/>
<path d="M19.4629 111.18H188.831V126.747H210.327V142.992H231.183V158.56H252.863V210.001H19.4629V111.18Z" fill="#FFBE99"/>
<path d="M43.5798 126.747L188.832 126.747V112.689L43.5798 112.689V126.747Z" fill="#FFDFCC"/>
<path d="M64.9511 142.992L210.328 142.992V128.474H64.9511V142.992Z" fill="#FFDFCC"/>
<path d="M85.8814 158.56L231.184 158.56V144.264H85.8814V158.56Z" fill="#FFDFCC"/>
<path d="M107.611 174.317L252.863 174.317V160.259H107.611V174.317Z" fill="#FFDFCC"/>
</g>
<path d="M192.014 10H188.533V201.94H192.014V10Z" fill="#FF7D33"/>
<path opacity="0.4" d="M192.014 10H188.533V201.94H192.014V10Z" fill="white"/>
<path opacity="0.3" d="M188.533 10V117.731L192.014 116.2V10H188.533Z" fill="#CC4A00"/>
<path d="M316.609 10H313.129V223.893H316.609V10Z" fill="#FF7D33"/>
<path opacity="0.4" d="M316.609 10H313.129V223.893H316.609V10Z" fill="white"/>
<path opacity="0.3" d="M316.609 10H313.129V61.3093L316.609 59.7788V10Z" fill="#CC4A00"/>
<path d="M186.655 45.1318L318.086 45.1318V11.2915L186.655 11.2915V45.1318Z" fill="#FF7D33"/>
<path opacity="0.7" d="M186.655 45.1318L318.086 45.1318V11.2915L186.655 11.2915V45.1318Z" fill="white"/>
<path d="M308.694 45.1323H318.084V36.6707H308.694V45.1323Z" fill="#FF7D33"/>
<path d="M308.694 28.2085H318.084V19.7468H308.694V28.2085Z" fill="#FF7D33"/>
<path d="M299.303 36.6694H308.693V28.2078H299.303V36.6694Z" fill="#FF7D33"/>
<path d="M289.921 45.1323H299.311V36.6707H289.921V45.1323Z" fill="#FF7D33"/>
<path d="M299.303 19.7534H308.693V11.2918L299.303 11.2918V19.7534Z" fill="#FF7D33"/>
<path d="M289.921 28.2085H299.311V19.7468H289.921V28.2085Z" fill="#FF7D33"/>
<path d="M280.53 36.6694H289.92V28.2078H280.53V36.6694Z" fill="#FF7D33"/>
<path d="M271.141 45.1313H280.531V36.6697H271.141V45.1313Z" fill="#FF7D33"/>
<path d="M280.532 19.7534H289.922V11.2918L280.532 11.2918V19.7534Z" fill="#FF7D33"/>
<path d="M271.141 28.2085H280.531V19.7468H271.141V28.2085Z" fill="#FF7D33"/>
<path d="M261.753 36.6694H271.143V28.2078H261.753V36.6694Z" fill="#FF7D33"/>
<path d="M252.37 45.1313H261.76V36.6697H252.37V45.1313Z" fill="#FF7D33"/>
<path d="M261.751 19.7534H271.141V11.2918L261.751 11.2918V19.7534Z" fill="#FF7D33"/>
<path d="M252.368 28.2085H261.758V19.7468H252.368V28.2085Z" fill="#FF7D33"/>
<path d="M242.977 36.6694H252.367V28.2078H242.977V36.6694Z" fill="#FF7D33"/>
<path d="M233.589 45.1313H242.979V36.6697H233.589V45.1313Z" fill="#FF7D33"/>
<path d="M242.977 19.7534H252.367V11.2918L242.977 11.2918V19.7534Z" fill="#FF7D33"/>
<path d="M233.589 28.2085H242.979V19.7468H233.589V28.2085Z" fill="#FF7D33"/>
<path d="M224.206 36.6694H233.596V28.2078H224.206V36.6694Z" fill="#FF7D33"/>
<path d="M214.823 45.1313H224.213V36.6697H214.823V45.1313Z" fill="#FF7D33"/>
<path d="M224.206 19.7534H233.596V11.2918L224.206 11.2918V19.7534Z" fill="#FF7D33"/>
<path d="M214.823 28.2085H224.213V19.7468H214.823V28.2085Z" fill="#FF7D33"/>
<path d="M205.427 36.6694H214.816V28.2078H205.427V36.6694Z" fill="#FF7D33"/>
<path d="M196.044 45.1313H205.434V36.6697H196.044V45.1313Z" fill="#FF7D33"/>
<path d="M205.427 19.7544H214.816V11.2927L205.427 11.2927V19.7544Z" fill="#FF7D33"/>
<path d="M196.044 28.2085H205.434V19.7468H196.044V28.2085Z" fill="#FF7D33"/>
<path d="M186.661 36.6694H196.051V28.2078H186.661V36.6694Z" fill="#FF7D33"/>
<path d="M186.661 19.7544H196.051V11.2927L186.661 11.2927V19.7544Z" fill="#FF7D33"/>
<g opacity="0.1">
<path d="M308.694 45.1323H318.084V36.6707H308.694V45.1323Z" fill="white"/>
<path d="M308.694 28.2085H318.084V19.7468H308.694V28.2085Z" fill="white"/>
<path d="M299.303 36.6694H308.693V28.2078H299.303V36.6694Z" fill="white"/>
<path d="M289.921 45.1323H299.311V36.6707H289.921V45.1323Z" fill="white"/>
<path d="M299.303 19.7534H308.693V11.2918L299.303 11.2918V19.7534Z" fill="white"/>
<path d="M289.921 28.2085H299.311V19.7468H289.921V28.2085Z" fill="white"/>
<path d="M280.53 36.6694H289.92V28.2078H280.53V36.6694Z" fill="white"/>
<path d="M271.141 45.1313H280.531V36.6697H271.141V45.1313Z" fill="white"/>
<path d="M280.532 19.7534H289.922V11.2918L280.532 11.2918V19.7534Z" fill="white"/>
<path d="M271.141 28.2085H280.531V19.7468H271.141V28.2085Z" fill="white"/>
<path d="M261.753 36.6694H271.143V28.2078H261.753V36.6694Z" fill="white"/>
<path d="M252.37 45.1313H261.76V36.6697H252.37V45.1313Z" fill="white"/>
<path d="M261.751 19.7534H271.141V11.2918L261.751 11.2918V19.7534Z" fill="white"/>
<path d="M252.368 28.2085H261.758V19.7468H252.368V28.2085Z" fill="white"/>
<path d="M242.977 36.6694H252.367V28.2078H242.977V36.6694Z" fill="white"/>
<path d="M233.589 45.1313H242.979V36.6697H233.589V45.1313Z" fill="white"/>
<path d="M242.977 19.7534H252.367V11.2918L242.977 11.2918V19.7534Z" fill="white"/>
<path d="M233.589 28.2085H242.979V19.7468H233.589V28.2085Z" fill="white"/>
<path d="M224.206 36.6694H233.596V28.2078H224.206V36.6694Z" fill="white"/>
<path d="M214.823 45.1313H224.213V36.6697H214.823V45.1313Z" fill="white"/>
<path d="M224.206 19.7534H233.596V11.2918L224.206 11.2918V19.7534Z" fill="white"/>
<path d="M214.823 28.2085H224.213V19.7468H214.823V28.2085Z" fill="white"/>
<path d="M205.427 36.6694H214.816V28.2078H205.427V36.6694Z" fill="white"/>
<path d="M196.044 45.1313H205.434V36.6697H196.044V45.1313Z" fill="white"/>
<path d="M205.427 19.7544H214.816V11.2927L205.427 11.2927V19.7544Z" fill="white"/>
<path d="M196.044 28.2085H205.434V19.7468H196.044V28.2085Z" fill="white"/>
<path d="M186.661 36.6694H196.051V28.2078H186.661V36.6694Z" fill="white"/>
<path d="M186.661 19.7544H196.051V11.2927L186.661 11.2927V19.7544Z" fill="white"/>
</g>
<path d="M129.836 62.9309C129.836 62.9309 127.557 57.3055 120.879 57.9349C113.881 58.5879 107.14 67.5099 100.796 65.6689C94.444 63.8357 95.2215 59.7917 95.2215 59.7917C95.2215 59.7917 92.8891 65.6138 100.796 70.4918C108.703 75.3698 119.44 63.0489 128.389 66.7153L129.836 62.9309Z" fill="#2E353A"/>
<path d="M129.835 62.9297C129.835 62.9297 127.588 56.1241 120.101 55.534C112.613 54.944 108.244 64.519 102.514 62.9297" stroke="#263238" stroke-width="0.48" stroke-linecap="round" stroke-linejoin="round"/>
<path d="M147.018 73.6547C147.018 73.6547 149.677 62.5454 140.463 60.3031C131.25 58.0608 127.098 63.5289 125.543 69.5792C123.988 75.6295 127.907 84.048 136.249 82.6633C144.592 81.2707 146.683 76.2904 147.018 73.6547Z" fill="#2E353A"/>
<path d="M150.43 90.9164C158.003 87.3523 167.954 79.5475 167.768 76.6994C167.581 73.8512 159.946 54.7483 159.946 54.7483C159.946 54.7483 158.943 54.473 158.189 53.9065C157.435 53.34 156.502 46.3062 157.629 45.9286C158.757 45.5509 162.512 44.9766 163.453 44.9766C164.394 44.9766 164.013 51.2472 163.639 52.7656C163.639 52.7656 175.753 69.8544 174.952 78.029C174.151 86.2036 155.375 100.429 148.805 102.443C142.235 104.449 150.43 90.9164 150.43 90.9164Z" fill="#E4897B"/>
<path d="M68.2422 183.999L70.3958 179.373L77.1056 181.639L83.2633 183.732L81.5995 189.64L74.5243 186.659L68.2422 183.999Z" fill="#E4897B"/>
<path d="M71.1417 178.524C71.6393 178.776 68.335 184.85 68.335 184.85C68.335 184.85 62.6748 186.864 60.0625 190.192C57.4501 193.52 56.2061 190.373 58.1498 186.187C60.0936 182.002 61.5786 178.815 62.9547 175.841C64.3387 172.867 65.9714 175.92 71.1417 178.524Z" fill="#2E353A"/>
<path d="M65.8397 188.492C65.7931 188.492 65.7464 188.492 65.6998 188.477C65.2877 188.398 65.1555 188.178 65.1089 188.012C64.8912 187.139 66.8194 185.487 67.2081 185.164C67.2314 185.149 67.2548 185.133 67.2859 185.125C67.2859 185.125 67.3092 185.125 67.3247 185.125C67.3247 185.125 67.4025 185.133 67.4336 185.156C67.4336 185.156 67.4414 185.156 67.4491 185.164C67.5036 185.219 68.7009 186.431 68.6542 187.446C68.6387 187.769 68.5065 188.036 68.2577 188.248C67.9934 188.469 67.7524 188.524 67.5502 188.414C67.2314 188.241 67.1148 187.635 67.0837 187.005C66.8893 187.556 66.625 188.091 66.2829 188.335C66.1429 188.437 65.9952 188.485 65.8475 188.485L65.8397 188.492ZM67.0526 185.794C66.2362 186.533 65.3654 187.517 65.4665 187.926C65.4743 187.965 65.5054 188.068 65.7775 188.123C65.8786 188.138 65.9797 188.123 66.073 188.044C66.5395 187.713 66.8816 186.565 67.0526 185.786V185.794ZM67.4725 185.739C67.3869 186.832 67.4569 187.957 67.729 188.107C67.8146 188.154 67.9623 188.044 68.04 187.981C68.2111 187.839 68.2966 187.666 68.3044 187.446C68.3277 186.895 67.8379 186.179 67.4725 185.739Z" fill="#FF5D00"/>
<path opacity="0.2" d="M74.3848 186.587L76.9816 181.583L83.2015 183.7L81.5688 189.624L74.3848 186.587Z" fill="black"/>
<path d="M147.018 153.253C144.204 165.59 131.616 207.69 112.062 206.116C92.5083 204.543 78.1169 193.646 77.7282 188.666C77.3394 183.685 78.8478 180.955 83.7304 180.947C88.6131 180.94 102.942 185.385 109.186 184.929C115.437 184.472 121.26 157.651 121.26 157.651L147.018 153.253Z" fill="#FF5D00"/>
<path d="M123.374 128.783C123.374 128.783 112.52 145.132 114.744 157.312C117.364 171.686 151.597 187.87 160.927 195.022C170.257 202.174 174.626 229.184 186.242 234.369L192.563 232.079C192.563 232.079 195.782 227.579 193.371 219.923C183.272 187.823 174.914 172.481 147.017 153.26C147.017 153.26 148.852 137.697 148.083 129.814L123.374 128.791V128.783Z" fill="#FF5D00"/>
<path d="M189.203 233.283L187.648 233.85C184.118 229.302 181.234 221.104 178.21 212.497C174.998 203.378 171.679 193.952 167.768 190.207C165.047 187.603 159.013 183.504 152.024 178.752C137.757 169.051 121.577 158.06 120.496 151.356C119.353 144.228 122.953 134.079 125.107 128.854L126.771 128.925C124.726 133.827 120.916 144.197 122.036 151.105C123.008 157.131 140.276 168.878 152.887 177.446C159.938 182.237 166.018 186.368 168.841 189.066C173.016 193.071 176.25 202.245 179.671 211.97C182.626 220.364 185.673 229.027 189.203 233.283Z" fill="#FFBE99"/>
<path opacity="0.1" d="M147.018 153.253C147.018 153.253 141.288 149.461 134.096 144.74L144.6 148.997C144.6 148.997 148.044 141.625 148.262 133.67C148.355 141.892 147.018 153.253 147.018 153.253Z" fill="black"/>
<path d="M123.375 128.785L148.27 131.366C148.27 131.366 154.202 108.235 154.358 88.8169C154.358 88.8169 144.826 91.9561 136.258 90.9097C127.69 89.8633 120.109 85.3394 120.109 85.3394C120.109 85.3394 124.129 110.674 123.383 128.785H123.375Z" fill="#FFBE99"/>
<path d="M138.73 95.9592C132.805 94.4014 131.32 91.5612 131.32 91.5612C135.604 88.4062 133.225 81.6714 133.225 81.6714L140.3 83.9766C139.958 85.1647 139.748 86.1717 139.624 87.0293C139.01 91.4746 140.992 91.7736 140.992 91.7736C141.964 94.3463 138.722 95.9514 138.722 95.9514L138.73 95.9592Z" fill="#E4897B"/>
<path opacity="0.2" d="M140.3 83.984C139.958 85.172 139.748 86.1791 139.623 87.0367C134.725 86.4072 133.217 81.6787 133.217 81.6787L140.292 83.984H140.3Z" fill="black"/>
<path d="M138.886 62.9543C145.231 63.4185 147.027 67.0062 147.019 73.6624C147.011 81.9786 144.78 87.722 136.966 85.3696C126.361 82.1831 128.343 62.1833 138.878 62.9543H138.886Z" fill="#E4897B"/>
<path d="M142.945 73C142.945 73 143.707 74.7388 144.601 75.8009C144.601 75.8009 143.995 76.6349 142.875 76.4067L142.945 73.0079V73Z" fill="#DE5753"/>
<path d="M139.095 72.1885C139.072 72.7157 138.768 73.1327 138.419 73.1169C138.069 73.1012 137.812 72.6606 137.835 72.1256C137.859 71.5985 138.162 71.1815 138.512 71.1972C138.862 71.2129 139.118 71.6535 139.095 72.1885Z" fill="#2E353A"/>
<path d="M138.365 71.2132L139.524 70.8198C139.524 70.8198 138.909 71.7561 138.365 71.2132Z" fill="#2E353A"/>
<path d="M145.587 72.3946C145.564 72.9217 145.261 73.3387 144.911 73.323C144.561 73.3073 144.304 72.8667 144.328 72.3317C144.351 71.8045 144.654 71.3875 145.004 71.4033C145.354 71.419 145.611 71.8596 145.587 72.3946Z" fill="#2E353A"/>
<path d="M144.855 71.4266L146.014 71.0332C146.014 71.0332 145.4 71.9695 144.855 71.4266Z" fill="#2E353A"/>
<path d="M139.344 67.7459C139.344 67.7459 137.579 67.384 136.521 68.517" stroke="#263238" stroke-width="0.7" stroke-linecap="round" stroke-linejoin="round"/>
<path d="M143.979 67.8159C143.979 67.8159 145.129 67.4775 146.466 68.5318" stroke="#263238" stroke-width="0.7" stroke-linecap="round" stroke-linejoin="round"/>
<path d="M141.763 78.8627C141.343 79.6101 140.861 81.042 140.861 81.042C140.729 81.0184 140.589 81.0027 140.457 80.9712C138.622 80.6486 137.875 79.8855 137.611 79.138C137.463 78.7289 137.463 78.3198 137.51 77.9893C137.557 77.6117 137.673 77.3521 137.673 77.3521C138.544 78.1152 140.231 78.548 141.141 78.7446C141.522 78.8312 141.763 78.8627 141.763 78.8627Z" fill="#2E353A"/>
<path d="M141.141 78.7368L140.861 79.3741C139.135 79.0672 137.961 78.6109 137.51 77.9893C137.556 77.6117 137.673 77.3521 137.673 77.3521C138.544 78.1152 140.231 78.548 141.141 78.7446V78.7368Z" fill="white"/>
<path d="M140.465 80.964C138.63 80.6415 137.883 79.8783 137.619 79.1309C138.241 79.2646 138.972 79.5006 139.586 79.9019C140.053 80.2087 140.317 80.5943 140.473 80.9719L140.465 80.964Z" fill="#DE5753"/>
<path d="M131.173 73.2684C131.173 73.2684 134.516 68.2094 134.361 64.1024C134.361 64.1024 147.306 59.8224 147.003 72.7885C147.003 72.7885 149.056 61.4117 138.163 60.3574C127.286 59.3031 126.166 75.4556 131.453 80.6798C131.453 80.6798 129.105 76.4391 131.173 73.2684Z" fill="#2E353A"/>
<path d="M132.114 74.7003C132.145 73.6618 131.22 71.8365 129.299 71.9073C127.317 71.9781 126.088 75.9985 130.909 77.336C131.601 77.5249 132.044 76.864 132.114 74.7003Z" fill="#E4897B"/>
<path d="M120.101 85.3378C120.101 85.3378 124.563 92.9302 122.145 101.176C122.145 101.176 104.939 81.7973 103.384 77.3757C101.829 72.954 113.033 47.7772 113.033 47.7772C113.033 47.7772 111.159 42.4664 111.548 41.2863C111.937 40.1061 116.796 37.3524 117.962 38.1392C119.129 38.9259 118.74 47.5805 118.157 48.7606L117.574 49.9408C117.574 49.9408 111.587 72.7416 112.341 74.4174C113.103 76.1011 120.101 85.3378 120.101 85.3378Z" fill="#E4897B"/>
<path d="M142.353 62.9314C142.353 62.9314 135.542 73.2539 126.507 71.6017C126.507 71.6017 126.064 63.7811 132.113 62.0738C138.162 60.3665 142.353 62.9393 142.353 62.9393V62.9314Z" fill="#2E353A"/>
<path d="M141.14 62.9297C141.14 62.9297 143.978 67.2412 136.25 70.0894" stroke="#263238" stroke-width="0.48" stroke-linecap="round" stroke-linejoin="round"/>
<path d="M144.102 62.6078C144.102 62.6078 147.359 65.6369 148.704 61.3018" stroke="#263238" stroke-width="0.48" stroke-linecap="round" stroke-linejoin="round"/>
<path d="M150.104 123.23L150.811 122.018C150.811 122.018 149.94 121.751 148.432 121.404C149.062 117.006 151.021 100.366 146.247 89.5636L145.361 90.256C145.361 90.256 147.569 93.6784 147.787 100.39L131.312 100.295C131.312 100.295 129.422 90.9483 127.082 88.0845L126.491 88.3677C126.491 88.3677 132.128 102.6 129.959 119.768C127.432 119.917 124.82 120.256 122.23 120.854L122.86 122.034C122.86 122.034 129.15 121.208 136.824 121.467L145.477 122.27C147.04 122.522 148.595 122.844 150.096 123.245L150.104 123.23Z" fill="#FF5D00"/>
<path d="M150.104 123.23L150.811 122.018C150.811 122.018 149.94 121.751 148.432 121.404C149.062 117.006 151.021 100.366 146.247 89.5636L145.361 90.256C145.361 90.256 147.569 93.6784 147.787 100.39L131.312 100.295C131.312 100.295 129.422 90.9483 127.082 88.0845L126.491 88.3677C126.491 88.3677 132.128 102.6 129.959 119.768C127.432 119.917 124.82 120.256 122.23 120.854L122.86 122.034C122.86 122.034 129.15 121.208 136.824 121.467L145.477 122.27C147.04 122.522 148.595 122.844 150.096 123.245L150.104 123.23Z" fill="white"/>
</g>
<defs>
<clipPath id="clip0_889_13625">
<rect width="335" height="200" fill="white" transform="translate(0.873047)"/>
</clipPath>
</defs>
</svg>
