<svg width="22" height="22" viewBox="0 0 22 22" fill="none" xmlns="http://www.w3.org/2000/svg">
<path d="M20.2516 7.93145C20.2516 13.8377 11.4943 18.6184 11.1213 18.8158C11.023 18.8687 10.9132 18.8964 10.8016 18.8964C10.6899 18.8964 10.5801 18.8687 10.4818 18.8158C10.1088 18.6184 1.35156 13.8377 1.35156 7.93145C1.35313 6.54451 1.90478 5.21483 2.88549 4.23412C3.8662 3.25341 5.19588 2.70176 6.58281 2.7002C8.32516 2.7002 9.85066 3.44945 10.8016 4.71591C11.7525 3.44945 13.278 2.7002 15.0203 2.7002C16.4072 2.70176 17.7369 3.25341 18.7176 4.23412C19.6983 5.21483 20.25 6.54451 20.2516 7.93145Z" fill="#A6A6A6"/>
</svg>
