<svg width="48" height="48" viewBox="0 0 48 48" fill="none" xmlns="http://www.w3.org/2000/svg">
<rect width="48" height="48" rx="24" fill="#FFF3EC"/>
<path d="M35.462 31.6667C36.1232 30.3226 36.4527 28.8398 36.423 27.3422C36.3932 25.8447 36.0051 24.376 35.2911 23.0593C34.5771 21.7426 33.558 20.6162 32.3191 19.7743C31.0802 18.9324 29.6577 18.3996 28.1706 18.2206C27.6774 17.0709 26.9591 16.0315 26.058 15.1637C25.1569 14.2959 24.0912 13.6173 22.9238 13.1677C21.7563 12.7182 20.5107 12.5068 19.2603 12.5461C18.0099 12.5854 16.78 12.8746 15.6431 13.3966C14.5062 13.9186 13.4852 14.6629 12.6404 15.5855C11.7956 16.5082 11.144 17.5907 10.724 18.7691C10.304 19.9475 10.1241 21.198 10.1949 22.447C10.2657 23.696 10.5857 24.9183 11.1362 26.0417L10.2386 29.1846C10.1585 29.4658 10.1549 29.7633 10.2284 30.0463C10.3018 30.3293 10.4496 30.5875 10.6563 30.7942C10.863 31.001 11.1213 31.1487 11.4043 31.2221C11.6872 31.2956 11.9847 31.2921 12.2659 31.212L15.4089 30.3143C16.3573 30.78 17.3775 31.0823 18.4264 31.2085C18.9265 32.38 19.66 33.4373 20.5822 34.3159C21.5045 35.1945 22.5961 35.876 23.7905 36.3187C24.9848 36.7614 26.2569 36.9561 27.529 36.8909C28.8011 36.8257 30.0465 36.5019 31.1893 35.9393L34.3323 36.837C34.6135 36.9171 34.911 36.9206 35.194 36.8471C35.4769 36.7737 35.7352 36.626 35.9419 36.4192C36.1486 36.2125 36.2964 35.9543 36.3698 35.6713C36.4433 35.3883 36.4398 35.0908 36.3597 34.8096L35.462 31.6667ZM33.5565 31.8237L34.4413 34.9186L31.3464 34.0338C31.1106 33.9675 30.8582 33.9961 30.6432 34.1135C28.9151 35.0537 26.8869 35.278 24.9951 34.7379C23.1033 34.1979 21.4991 32.9368 20.5276 31.226C21.8114 31.0923 23.0536 30.6948 24.1764 30.0583C25.2993 29.4218 26.2784 28.5602 27.0525 27.5274C27.8266 26.4946 28.3789 25.313 28.6748 24.0567C28.9706 22.8004 29.0036 21.4965 28.7718 20.2268C29.8951 20.4916 30.9423 21.012 31.8316 21.7476C32.721 22.4833 33.4285 23.4142 33.8993 24.468C34.37 25.5218 34.5911 26.67 34.5455 27.8233C34.4999 28.9766 34.1887 30.1037 33.6362 31.117C33.5179 31.333 33.4893 31.5868 33.5565 31.8237Z" fill="#FF5D00"/>
</svg>
