<svg width="36" height="36" viewBox="0 0 36 36" fill="none" xmlns="http://www.w3.org/2000/svg">
<path d="M14.5118 19.0595H23.5629L11.1203 26.982L14.5118 19.0595ZM14.5118 16.935H23.5629L11.1203 9.01799L14.5118 16.935ZM36 10.722V25.2725C36 31.1923 31.1867 36 25.2725 36H10.722C4.80221 36 0 31.1923 0 25.2725V10.722C0 4.80775 4.80775 0 10.722 0H25.2725C31.1923 0 36 4.80775 36 10.722ZM28.2711 17.9972C28.2711 17.6321 28.0885 17.3001 27.7787 17.101L9.35546 5.37759C9.18396 5.26694 8.98479 5.21163 8.78562 5.21163C8.53112 5.21163 8.29322 5.30014 8.09959 5.46612C7.74551 5.7704 7.62932 6.2628 7.8119 6.69433L12.6584 17.9972L7.8119 29.3001C7.62932 29.7317 7.74551 30.2296 8.09959 30.5284C8.29322 30.6888 8.53665 30.7829 8.78562 30.7829C8.99032 30.7829 9.18396 30.7275 9.35546 30.6169L27.7787 18.8935C28.083 18.6999 28.2711 18.3624 28.2711 17.9972Z" fill="#F2F2F2"/>
</svg>
