<svg width="48" height="48" viewBox="0 0 48 48" fill="none" xmlns="http://www.w3.org/2000/svg">
<rect width="48" height="48" rx="24" fill="#FFF3EC"/>
<path d="M34.3923 21.4999V22.3927C34.3904 23.9034 33.842 25.3625 32.8483 26.5004C31.8546 27.6383 30.4827 28.3782 28.986 28.5836C29.597 29.3653 29.9286 30.3291 29.928 31.3213V35.7856C29.928 36.0224 29.8339 36.2495 29.6665 36.4169C29.4991 36.5844 29.272 36.6784 29.0352 36.6784H21.8923C21.6555 36.6784 21.4284 36.5844 21.261 36.4169C21.0935 36.2495 20.9994 36.0224 20.9994 35.7856V33.9999H18.3209C17.1369 33.9999 16.0014 33.5295 15.1641 32.6923C14.3269 31.8551 13.8566 30.7196 13.8566 29.5356C13.8566 28.8252 13.5744 28.1439 13.072 27.6416C12.5697 27.1392 11.8884 26.857 11.178 26.857C10.9412 26.857 10.7141 26.7629 10.5467 26.5955C10.3792 26.4281 10.2852 26.201 10.2852 25.9642C10.2852 25.7274 10.3792 25.5003 10.5467 25.3328C10.7141 25.1654 10.9412 25.0713 11.178 25.0713C11.7643 25.0713 12.3448 25.1868 12.8864 25.4111C13.4281 25.6355 13.9202 25.9643 14.3347 26.3789C14.7493 26.7934 15.0781 27.2855 15.3025 27.8272C15.5268 28.3688 15.6423 28.9493 15.6423 29.5356C15.6423 30.246 15.9245 30.9273 16.4268 31.4296C16.9292 31.932 17.6105 32.2142 18.3209 32.2142H20.9994V31.3213C20.9989 30.3291 21.3305 29.3653 21.9414 28.5836C20.4447 28.3782 19.0729 27.6383 18.0792 26.5004C17.0855 25.3625 16.537 23.9034 16.5352 22.3927V21.4999C16.5463 20.3902 16.8418 19.302 17.3934 18.3392C17.1205 17.4588 17.033 16.5314 17.1363 15.6156C17.2396 14.6997 17.5316 13.8151 17.9939 13.0177C18.0722 12.882 18.185 12.7692 18.3208 12.6909C18.4565 12.6125 18.6105 12.5713 18.7673 12.5713C19.8073 12.5691 20.8333 12.8102 21.7635 13.2753C22.6937 13.7404 23.5022 14.4166 24.1244 15.2499H26.803C27.4253 14.4166 28.2338 13.7404 29.1639 13.2753C30.0941 12.8102 31.1202 12.5691 32.1602 12.5713C32.3169 12.5713 32.4709 12.6125 32.6067 12.6909C32.7425 12.7692 32.8552 12.882 32.9336 13.0177C33.3959 13.8151 33.6878 14.6997 33.791 15.6156C33.8941 16.5316 33.8063 17.4589 33.5329 18.3392C34.0856 19.3016 34.3815 20.3901 34.3923 21.4999Z" fill="#FF5D00"/>
</svg>
