<svg width="48" height="48" viewBox="0 0 48 48" fill="none" xmlns="http://www.w3.org/2000/svg">
<rect width="48" height="48" rx="24" fill="#FFF3EC"/>
<path d="M36.7852 20.2048C36.7852 28.0173 25.2015 34.341 24.7081 34.6021C24.5781 34.6721 24.4328 34.7087 24.2852 34.7087C24.1375 34.7087 23.9922 34.6721 23.8622 34.6021C23.3689 34.341 11.7852 28.0173 11.7852 20.2048C11.7872 18.3702 12.5169 16.6114 13.8142 15.3142C15.1114 14.0169 16.8702 13.2872 18.7048 13.2852C21.0095 13.2852 23.0273 14.2762 24.2852 15.9515C25.543 14.2762 27.5608 13.2852 29.8655 13.2852C31.7001 13.2872 33.4589 14.0169 34.7562 15.3142C36.0534 16.6114 36.7831 18.3702 36.7852 20.2048Z" fill="#FF5D00"/>
</svg>
