<svg width="48" height="48" viewBox="0 0 48 48" fill="none" xmlns="http://www.w3.org/2000/svg">
<rect width="48" height="48" rx="24" fill="#FFF3EC"/>
<path d="M34.7745 34.0822L29.1874 28.4952C30.81 26.5492 31.6198 24.0526 31.4484 21.5248C31.2771 18.9969 30.1378 16.6325 28.2675 14.9233C26.3972 13.2141 23.94 12.2917 21.4069 12.3481C18.8739 12.4046 16.4602 13.4354 14.6678 15.2261C12.8755 17.0169 11.8425 19.4297 11.7839 21.9627C11.7252 24.4957 12.6454 26.9537 14.353 28.8255C16.0605 30.6973 18.424 31.8387 20.9517 32.0123C23.4793 32.1859 25.9766 31.3783 27.924 29.7575L33.5111 35.3456C33.594 35.4286 33.6925 35.4944 33.8009 35.5393C33.9093 35.5842 34.0255 35.6073 34.1428 35.6073C34.2601 35.6073 34.3763 35.5842 34.4847 35.5393C34.593 35.4944 34.6915 35.4286 34.7745 35.3456C34.8574 35.2627 34.9232 35.1642 34.9681 35.0558C35.013 34.9474 35.0361 34.8312 35.0361 34.7139C35.0361 34.5966 35.013 34.4804 34.9681 34.3721C34.9232 34.2637 34.8574 34.1652 34.7745 34.0822ZM25.2142 23.1068H18.0714C17.8346 23.1068 17.6075 23.0127 17.44 22.8453C17.2726 22.6778 17.1785 22.4507 17.1785 22.2139C17.1785 21.9771 17.2726 21.75 17.44 21.5826C17.6075 21.4151 17.8346 21.3211 18.0714 21.3211H25.2142C25.451 21.3211 25.6781 21.4151 25.8456 21.5826C26.013 21.75 26.1071 21.9771 26.1071 22.2139C26.1071 22.4507 26.013 22.6778 25.8456 22.8453C25.6781 23.0127 25.451 23.1068 25.2142 23.1068Z" fill="#FF5D00"/>
</svg>
