<svg width="48" height="48" viewBox="0 0 48 48" fill="none" xmlns="http://www.w3.org/2000/svg">
<rect width="48" height="48" rx="24" fill="#FFF3EC"/>
<path d="M34.1914 14.262C34.0355 14.1913 33.8626 14.1668 33.6932 14.1915C33.5239 14.2163 33.3652 14.2892 33.236 14.4016C30.111 17.1047 27.4637 15.7944 24.3956 14.2754C21.2171 12.7007 17.6133 10.9183 13.5932 14.4016C13.4971 14.4848 13.42 14.5876 13.3668 14.7031C13.3137 14.8186 13.2859 14.9441 13.2852 15.0712V33.8212C13.2852 34.058 13.3792 34.2851 13.5467 34.4525C13.7141 34.62 13.9412 34.7141 14.178 34.7141C14.4148 34.7141 14.6419 34.62 14.8094 34.4525C14.9768 34.2851 15.0709 34.058 15.0709 33.8212V28.8848C18.0608 26.5232 20.6367 27.7966 23.6032 29.2654C25.4336 30.1705 27.4046 31.146 29.5184 31.146C31.0731 31.146 32.7037 30.6158 34.409 29.137C34.5051 29.0538 34.5823 28.951 34.6354 28.8355C34.6885 28.72 34.7164 28.5945 34.7171 28.4674V15.0712C34.7162 14.9001 34.6662 14.7329 34.573 14.5895C34.4798 14.4461 34.3473 14.3324 34.1914 14.262ZM15.0709 26.7275V21.531C16.9515 20.2721 18.7137 20.2375 20.428 20.7118V26.04C18.7394 25.6147 16.9537 25.6415 15.0709 26.7275ZM32.928 28.0455C31.0452 29.5321 29.3265 29.5768 27.5709 29.04V23.7196C25.1579 23.05 22.841 21.3759 20.428 20.7118V14.4987C21.4604 14.8145 22.505 15.3301 23.6032 15.8737C24.8599 16.4953 26.1825 17.1493 27.5709 17.4987V23.7196C29.284 24.194 31.0463 24.1594 32.928 22.8993V28.0455Z" fill="#FF5D00"/>
</svg>
