<svg width="36" height="36" viewBox="0 0 36 36" fill="none" xmlns="http://www.w3.org/2000/svg">
<path d="M23.4583 7.21387H12.5426C9.59936 7.21387 7.21484 9.59838 7.21484 12.5417V23.4573C7.21484 26.4006 9.59936 28.7851 12.5426 28.7851H23.4583C26.4016 28.7851 28.7861 26.4006 28.7861 23.4573V12.5417C28.7861 9.59838 26.4016 7.21387 23.4583 7.21387ZM18.0032 24.9787C14.1526 24.9787 11.0212 21.8473 11.0212 17.9967C11.0212 14.1461 14.1526 11.0147 18.0032 11.0147C21.8539 11.0147 24.9853 14.1461 24.9853 17.9967C24.9853 21.8473 21.8539 24.9787 18.0032 24.9787ZM24.9963 12.7408C24.0724 12.7408 23.3255 11.994 23.3255 11.07C23.3255 10.1461 24.0724 9.39921 24.9963 9.39921C25.9202 9.39921 26.6671 10.1461 26.6671 11.07C26.6671 11.994 25.9202 12.7408 24.9963 12.7408Z" fill="#F2F2F2"/>
<path d="M18.0038 13.7314C15.647 13.7314 13.7383 15.6402 13.7383 17.997C13.7383 20.3538 15.647 22.2626 18.0038 22.2626C20.3607 22.2626 22.2694 20.3538 22.2694 17.997C22.2694 15.6402 20.3607 13.7314 18.0038 13.7314Z" fill="#F2F2F2"/>
<path d="M25.2725 0H10.722C4.80774 0 0 4.81328 0 10.722V25.2725C0 31.1867 4.80774 36 10.722 36H25.2725C31.1867 36 36 31.1867 36 25.2725V10.722C36 4.81328 31.1867 0 25.2725 0ZM31.5021 23.4578C31.5021 27.8949 27.8949 31.5021 23.4578 31.5021H12.5422C8.10512 31.5021 4.49792 27.8949 4.49792 23.4578V12.5422C4.49792 8.10513 8.10512 4.49793 12.5422 4.49793H23.4578C27.8949 4.49793 31.5021 8.10513 31.5021 12.5422V23.4578Z" fill="#F2F2F2"/>
</svg>
