<svg width="270" height="207" viewBox="0 0 270 207" fill="none" xmlns="http://www.w3.org/2000/svg">
<path d="M65.6402 58.1862C62.0847 63.5668 54.6359 76.4102 53.9987 94.373C53.8075 99.76 53.4507 116.016 63.563 132.082C76.2432 152.241 99.7111 163.015 121.714 162.334C139.383 161.786 162.112 153.076 168.203 137.711C171.122 130.35 171.67 122.823 166.241 117.105C159.933 109.846 150.139 112.215 144.283 118.754C140.504 123.154 139.651 128.338 140.32 134.584C141.83 146.479 148.769 155.788 160.054 160.22C165.355 162.41 171.205 163.423 176.939 163.321C191.537 163.353 204.74 154.222 212.036 141.926C216.828 133.935 218.969 124.415 218.395 115.112C217.771 104.771 213.514 94.927 206.684 87.2095C206.664 87.1841 206.639 87.1586 206.62 87.1331C202.943 82.956 203.045 76.684 206.951 72.7297L208.232 71.4307C215.604 63.968 228.208 65.84 232.923 75.2067C232.955 75.2704 232.987 75.334 233.019 75.3913C238.448 86.0761 241.653 97.9898 241.972 109.993C242.309 122.613 239.646 135.367 233.917 146.657C223.601 167.141 203.141 183.06 179.705 183.882C154.758 184.99 130.099 172.216 122.274 147.44C117.846 134.412 118.19 118.786 126.798 107.369C134.483 97.0665 147.163 90.4315 160.245 91.6286C173.129 92.7493 184.337 101.982 189.345 113.59C195.533 128.159 191.321 144.97 182.84 157.641C180.985 160.411 174.856 168.695 160.608 176.024C135.681 188.848 94.8302 194.044 62.8684 171.293C56.369 166.664 40.5984 154.018 32.6653 132.018C26.8987 116.01 27.3957 100.963 29.2946 93.0104C31.8306 82.3957 37.4762 73.9268 37.4762 73.9268C39.9676 70.2209 42.5037 67.4192 44.4598 65.4771C46.7346 63.6114 50.7299 60.8479 56.3627 59.3005C60.0138 58.3008 63.2444 58.1162 65.6339 58.1799L65.6402 58.1862Z" fill="#FF5D00"/>
<path d="M180.61 58.1862C189.281 58.1862 196.31 51.1617 196.31 42.4966C196.31 33.8314 189.281 26.8069 180.61 26.8069C171.938 26.8069 164.909 33.8314 164.909 42.4966C164.909 51.1617 171.938 58.1862 180.61 58.1862Z" fill="#FF5D00"/>
<path d="M128.43 51.3793C137.101 51.3793 144.13 44.3548 144.13 35.6897C144.13 27.0245 137.101 20 128.43 20C119.758 20 112.729 27.0245 112.729 35.6897C112.729 44.3548 119.758 51.3793 128.43 51.3793Z" fill="#FF5D00"/>
</svg>
