<svg width="397" height="345" viewBox="0 0 397 345" fill="none" xmlns="http://www.w3.org/2000/svg">
<g filter="url(#filter0_d_915_16005)">
<rect x="103.793" y="271.312" width="280" height="48" rx="12" transform="rotate(3.99979 103.793 271.312)" fill="white" shape-rendering="crispEdges"/>
<path d="M191.59 295.365L190.957 304.408L189.444 304.302L189.733 300.156L187.36 299.99L187.448 298.735L189.821 298.901L190.076 295.259L191.59 295.365ZM187.72 296.026C187.493 299.272 185.167 301.563 181.528 302.446L180.972 301.188C183.691 300.528 185.553 299.082 185.983 297.152L181.918 296.868L182.005 295.627L187.72 296.026ZM191.145 306.23L191.059 307.457L182.713 306.874L182.988 302.932L184.529 303.04L184.34 305.754L191.145 306.23ZM203.061 296.154L202.851 299.154L204.569 299.274L204.483 300.515L202.764 300.395L202.555 303.382L201.041 303.276L201.547 296.048L203.061 296.154ZM199.592 296.761C199.365 300.007 197.091 302.15 193.377 302.932L192.862 301.663C195.712 301.094 197.474 299.703 197.869 297.874L193.71 297.583L193.795 296.355L199.592 296.761ZM198.562 303.254C201.058 303.428 202.614 304.496 202.509 306.01C202.401 307.551 200.713 308.365 198.217 308.191C195.735 308.017 194.149 306.974 194.271 305.434C194.363 303.919 196.08 303.08 198.562 303.254ZM198.479 304.44C196.856 304.327 195.815 304.72 195.771 305.539C195.701 306.343 196.677 306.891 198.3 307.004C199.923 307.118 200.966 306.711 201.022 305.906C201.079 305.088 200.102 304.554 198.479 304.44ZM209.88 298.398C209.766 300.021 210.669 301.619 212.59 302.37L211.756 303.518C210.364 302.941 209.413 301.936 208.952 300.691C208.295 301.947 207.194 302.905 205.699 303.3L205.019 302.06C207.058 301.518 208.194 299.966 208.311 298.289L208.393 297.116L209.962 297.225L209.88 298.398ZM215.121 304.973L214.814 309.365L213.287 309.258L213.509 306.08L206.621 305.599L206.706 304.385L215.121 304.973ZM215.676 297.036L215.16 304.414L213.633 304.307L214.149 296.929L215.676 297.036ZM225.921 299.095L225.697 302.3L227.129 302.4L227.431 298.077L228.877 298.178L228.072 309.689L226.626 309.588L227.043 303.628L225.611 303.528L225.374 306.91L220.533 306.571L221.079 298.757L225.921 299.095ZM222.414 300.056L222.035 305.47L224.04 305.611L224.419 300.196L222.414 300.056ZM231.429 298.137L230.567 310.466L229.107 310.364L229.97 298.035L231.429 298.137ZM242.539 302.916L242.453 304.143L233.888 303.544L234.211 298.921L235.725 299.027L235.487 302.423L242.539 302.916ZM243.629 305.747L243.543 306.974L240.843 306.786L240.537 311.163L239.009 311.057L239.315 306.679L236.533 306.484L236.227 310.862L234.713 310.756L235.019 306.378L232.305 306.189L232.391 304.961L243.629 305.747ZM258.57 300.035L258.058 307.359L256.544 307.253L256.754 304.239L254.654 304.092L254.741 302.851L256.841 302.998L257.056 299.929L258.57 300.035ZM253.862 307.381C256.481 307.564 258.016 308.535 257.912 310.021C257.809 311.508 256.153 312.255 253.534 312.072C250.929 311.89 249.394 310.919 249.511 309.434C249.601 307.946 251.257 307.199 253.862 307.381ZM253.781 308.54C252.063 308.42 251.066 308.761 251.011 309.539C250.958 310.302 251.898 310.779 253.616 310.899C255.335 311.02 256.345 310.679 256.399 309.915C256.453 309.138 255.5 308.66 253.781 308.54ZM252.625 301.744C252.521 303.244 253.41 304.827 255.275 305.602L254.427 306.749C253.089 306.189 252.18 305.18 251.729 303.983C251.091 305.261 249.988 306.239 248.485 306.662L247.778 305.407C249.803 304.863 250.97 303.272 251.083 301.649L251.09 301.554L248.526 301.375L248.612 300.147L255.267 300.613L255.182 301.84L252.631 301.662L252.625 301.744ZM270.909 310.546L270.823 311.787L259.557 311L259.644 309.759L264.499 310.098L264.667 307.698L261.053 307.445L261.499 301.062L263.013 301.168L262.872 303.186L268.587 303.586L268.728 301.567L270.242 301.673L269.795 308.056L266.167 307.803L266 310.203L270.909 310.546ZM262.653 306.323L268.367 306.723L268.502 304.8L262.787 304.4L262.653 306.323ZM282.138 302.848L281.567 311.017L275.702 310.607L276.273 302.438L282.138 302.848ZM277.691 303.729L277.287 309.498L280.179 309.7L280.582 303.931L277.691 303.729ZM285.956 301.95L285.093 314.293L283.565 314.186L284.428 301.843L285.956 301.95ZM298.026 302.794L297.163 315.137L295.635 315.03L296.499 302.687L298.026 302.794ZM289.868 303.238L289.652 306.32L292.639 306.529L292.855 303.446L294.355 303.551L293.766 311.98L287.765 311.56L288.354 303.132L289.868 303.238ZM289.365 310.425L292.352 310.634L292.556 307.715L289.569 307.506L289.365 310.425ZM302.29 304.339L301.653 311.298L300.111 311.19L300.435 304.209L302.29 304.339ZM300.678 314.259C300.092 314.218 299.648 313.707 299.689 313.12C299.729 312.548 300.239 312.104 300.826 312.145C301.385 312.184 301.843 312.695 301.803 313.268C301.762 313.855 301.237 314.298 300.678 314.259Z" fill="#404040"/>
</g>
<g filter="url(#filter1_d_915_16005)">
<rect x="3" y="229.557" width="280" height="48" rx="12" transform="rotate(-2.10584 3 229.557)" fill="white" shape-rendering="crispEdges"/>
<path d="M73.1888 246.61C73.2485 248.236 74.3158 249.729 76.3059 250.272L75.5986 251.502C74.1533 251.076 73.101 250.177 72.5101 248.988C71.9908 250.307 70.9972 251.377 69.5536 251.929L68.7448 250.769C70.7144 250.012 71.6794 248.349 71.6176 246.668L71.5744 245.493L73.1456 245.435L73.1888 246.61ZM79.1 252.59L79.2618 256.99L77.7316 257.046L77.6145 253.863L70.7149 254.116L70.6701 252.9L79.1 252.59ZM78.8076 244.639L79.0794 252.03L77.5492 252.087L77.2774 244.695L78.8076 244.639ZM90.3662 244.214L90.4777 247.247L92.1856 247.184L92.2313 248.427L90.5235 248.49L90.6315 251.428L89.1013 251.484L88.836 244.27L90.3662 244.214ZM86.6095 251.808C89.1371 251.715 90.7688 252.558 90.8387 254.088C90.8823 255.646 89.317 256.606 86.7894 256.699C84.2345 256.793 82.5755 255.951 82.5182 254.394C82.4619 252.864 84.0546 251.902 86.6095 251.808ZM86.6542 253.024C84.9601 253.086 83.9783 253.547 84.0211 254.339C84.0371 255.145 85.0505 255.546 86.7447 255.483C88.4115 255.422 89.3928 254.948 89.3632 254.142C89.334 253.35 88.3211 252.963 86.6542 253.024ZM86.6548 245.226L86.7 246.455L82.6695 246.604L82.7836 249.705C85.147 249.611 86.4629 249.495 87.9067 249.134L88.1017 250.344C86.5157 250.744 85.0558 250.853 82.3233 250.953L81.3259 250.99L81.1214 245.429L86.6548 245.226ZM103.359 243.736L103.814 256.087L102.352 256.141L101.897 243.79L103.359 243.736ZM100.826 244.048L101.25 255.579L99.8019 255.633L99.5859 249.758L98.4109 249.801C98.3559 252.211 97.3791 253.738 95.8484 253.781C94.2367 253.853 93.1219 252.184 93.0219 249.465C92.9219 246.747 93.9122 245.027 95.5244 244.968C97.0204 244.913 98.0895 246.269 98.3521 248.572L99.5407 248.528L99.3779 244.101L100.826 244.048ZM95.5771 246.403C94.7978 246.418 94.3447 247.488 94.4292 249.414C94.4863 251.341 95.0169 252.375 95.7951 252.332C96.6154 252.316 97.0686 251.246 96.9977 249.319C96.9269 247.393 96.3964 246.359 95.5771 246.403ZM109.466 246.48C109.551 248.776 110.727 250.99 112.726 251.778L111.855 253.028C110.429 252.396 109.398 251.121 108.812 249.528C108.335 251.249 107.383 252.7 105.989 253.476L104.987 252.282C106.961 251.265 107.994 248.847 107.922 246.537L107.85 244.57L109.394 244.513L109.466 246.48ZM115.15 243.302L115.605 255.667L114.102 255.722L113.839 248.577L111.243 248.672L111.198 247.443L113.794 247.347L113.647 243.358L115.15 243.302ZM130.549 242.75L130.882 251.808L129.365 251.864L129.212 247.711L126.835 247.798L126.789 246.541L129.166 246.454L129.032 242.806L130.549 242.75ZM126.771 243.819C126.89 247.071 124.822 249.596 121.297 250.861L120.611 249.669C123.244 248.724 124.941 247.088 125.163 245.123L121.092 245.273L121.046 244.03L126.771 243.819ZM131.262 253.6L131.307 254.83L122.946 255.137L122.801 251.189L124.345 251.132L124.445 253.851L131.262 253.6ZM142.038 242.314L142.149 245.32L143.87 245.256L143.916 246.5L142.195 246.563L142.305 249.555L140.788 249.611L140.522 242.37L142.038 242.314ZM138.654 243.286C138.773 246.538 136.74 248.911 133.13 250.084L132.484 248.876C135.257 248.008 136.861 246.437 137.06 244.576L132.892 244.73L132.847 243.5L138.654 243.286ZM138.321 249.852C140.821 249.76 142.482 250.657 142.538 252.173C142.594 253.717 141.003 254.706 138.502 254.798C136.016 254.889 134.329 254.021 134.285 252.477C134.216 250.961 135.834 249.943 138.321 249.852ZM138.364 251.041C136.738 251.1 135.745 251.602 135.788 252.421C135.804 253.228 136.833 253.669 138.459 253.609C140.085 253.549 141.078 253.034 141.048 252.228C141.018 251.408 139.99 250.981 138.364 251.041ZM149.057 243.821C149.117 245.446 150.184 246.939 152.175 247.482L151.467 248.712C150.022 248.286 148.97 247.388 148.379 246.199C147.859 247.517 146.866 248.587 145.422 249.139L144.613 247.979C146.583 247.222 147.548 245.559 147.486 243.878L147.443 242.703L149.014 242.646L149.057 243.821ZM154.969 249.801L155.13 254.2L153.6 254.256L153.483 251.073L146.584 251.327L146.539 250.111L154.969 249.801ZM154.676 241.849L154.948 249.241L153.418 249.297L153.146 241.905L154.676 241.849ZM170.429 241.27L170.883 253.621L169.435 253.674L168.981 241.323L170.429 241.27ZM167.924 241.595L168.347 253.112L166.913 253.165L166.684 246.948L164.908 247.014L164.863 245.784L166.639 245.719L166.489 241.647L167.924 241.595ZM163.736 244.895C163.813 246.986 164.641 249.048 166.441 249.995L165.58 251.148C164.414 250.507 163.613 249.36 163.137 247.968C162.756 249.508 162.018 250.834 160.877 251.608L159.906 250.508C161.656 249.363 162.353 247.094 162.274 244.949L162.244 244.129L160.099 244.208L160.053 242.978L165.655 242.772L165.7 244.002L163.706 244.075L163.736 244.895ZM177.736 248.731C180.414 248.646 182.139 249.431 182.207 250.892C182.246 252.327 180.583 253.251 177.906 253.349C175.241 253.447 173.502 252.649 173.449 251.214C173.395 249.753 175.072 248.843 177.736 248.731ZM177.778 249.879C176.002 249.944 174.938 250.407 174.979 251.158C174.992 251.883 176.086 252.239 177.862 252.174C179.652 252.108 180.717 251.672 180.704 250.948C180.663 250.197 179.568 249.813 177.778 249.879ZM181.777 241.441L181.815 242.466C181.851 243.436 181.889 244.474 181.594 245.757L180.086 245.676C180.349 244.462 180.338 243.594 180.305 242.699L173.269 242.958L173.224 241.755L181.777 241.441ZM183.328 246.405L183.373 247.634L172.17 248.046L172.124 246.817L176.469 246.657L176.387 244.416L177.89 244.361L177.972 246.602L183.328 246.405ZM198.839 247.421L198.883 248.624L193.964 248.805L194.11 252.767L192.607 252.822L192.461 248.86L187.597 249.039L187.553 247.836L198.839 247.421ZM190.176 241.036L190.232 242.553L195.752 242.35L195.696 240.833L197.226 240.777L197.425 246.187L188.872 246.502L188.673 241.092L190.176 241.036ZM190.33 245.217L195.85 245.014L195.796 243.552L190.276 243.755L190.33 245.217ZM209.659 240.306L209.703 241.509L206.137 241.64C206.36 242.685 207.912 243.592 210.264 243.745L209.747 244.955C207.519 244.797 205.826 243.963 205.11 242.731C204.487 244.012 202.88 244.968 200.662 245.289L200.085 244.12C202.392 243.795 203.853 242.77 204.019 241.718L200.481 241.848L200.436 240.645L209.659 240.306ZM210.876 245.871L210.92 247.087L199.662 247.501L199.618 246.285L204.482 246.106L204.419 244.398L205.922 244.343L205.984 246.051L210.876 245.871ZM209.577 248.135L209.726 252.193L208.21 252.248L208.105 249.407L200.987 249.668L200.942 248.452L209.577 248.135ZM213.874 247.785C213.824 246.05 214.296 245.499 215.137 244.934C215.711 244.544 216.131 244.063 216.106 243.38C216.078 242.615 215.472 242.145 214.721 242.172C214.038 242.197 213.398 242.659 213.391 243.576L211.683 243.638C211.657 241.806 213.002 240.813 214.682 240.751C216.527 240.683 217.835 241.661 217.895 243.287C217.936 244.393 217.402 245.138 216.534 245.704C215.759 246.211 215.448 246.701 215.472 247.726L215.477 247.849L213.878 247.908L213.874 247.785ZM214.836 250.897C214.249 250.918 213.753 250.458 213.732 249.87C213.71 249.296 214.171 248.8 214.759 248.779C215.319 248.758 215.828 249.218 215.849 249.792C215.871 250.38 215.397 250.876 214.836 250.897Z" fill="#404040"/>
</g>
<g filter="url(#filter2_d_915_16005)">
<rect x="79.168" y="159" width="280" height="48" rx="12" transform="rotate(6.46416 79.168 159)" fill="white" shape-rendering="crispEdges"/>
<path d="M147.755 184.743L146.363 197.023L144.923 196.86L146.315 184.579L147.755 184.743ZM145.229 184.69L143.931 196.142L142.505 195.981L143.205 189.8L141.439 189.6L141.578 188.377L143.344 188.577L143.802 184.529L145.229 184.69ZM140.596 187.33C140.36 189.408 140.872 191.572 142.51 192.775L141.488 193.788C140.43 192.98 139.809 191.726 139.546 190.279C138.94 191.745 138.012 192.947 136.768 193.542L135.972 192.31C137.874 191.438 138.9 189.298 139.142 187.165L139.234 186.35L137.102 186.109L137.24 184.886L142.81 185.517L142.671 186.74L140.688 186.515L140.596 187.33ZM158.893 186.018L158.456 189.876L160.167 190.07L160.026 191.32L158.314 191.126L157.854 195.188L156.346 195.017L157.385 185.847L158.893 186.018ZM156.348 187.106L156.211 188.315L148.929 187.49L149.066 186.281L151.96 186.609L152.115 185.237L153.623 185.408L153.468 186.78L156.348 187.106ZM152.513 188.405C154.279 188.605 155.396 189.681 155.249 191.095C155.077 192.493 153.75 193.278 151.984 193.078C150.204 192.877 149.073 191.813 149.231 190.414C149.391 189.001 150.734 188.203 152.513 188.405ZM152.381 189.573C151.444 189.467 150.783 189.833 150.698 190.58C150.615 191.313 151.177 191.817 152.116 191.91C153.052 192.03 153.726 191.666 153.809 190.932C153.894 190.185 153.318 189.68 152.381 189.573ZM158.158 196.874L158.02 198.096L149.665 197.15L150.07 193.577L151.578 193.748L151.311 196.098L158.158 196.874ZM165.503 188.886C165.333 190.38 166.154 192.001 167.984 192.855L167.091 193.937C165.769 193.333 164.903 192.292 164.497 191.084C163.815 192.307 162.672 193.223 161.164 193.541L160.525 192.257C162.554 191.84 163.784 190.329 163.966 188.726L163.984 188.563L161.43 188.273L161.567 187.064L168.197 187.815L168.06 189.025L165.52 188.737L165.503 188.886ZM170.619 195.341L170.123 199.715L168.615 199.545L168.974 196.379L162.114 195.602L162.251 194.393L170.619 195.341ZM171.515 187.435L170.685 194.757L169.177 194.586L169.522 191.543L167.43 191.306L167.57 190.07L169.662 190.307L170.007 187.264L171.515 187.435ZM183.482 188.804L182.477 197.675L180.955 197.503L181.96 188.632L183.482 188.804ZM182.598 199.643L182.459 200.865L173.996 199.906L174.454 195.858L175.976 196.031L175.656 198.856L182.598 199.643ZM176.693 188.847C178.555 189.058 179.848 190.512 179.647 192.291C179.44 194.112 177.857 195.212 175.996 195.001C174.121 194.789 172.825 193.362 173.031 191.542C173.232 189.762 174.819 188.635 176.693 188.847ZM176.544 190.165C175.498 190.046 174.618 190.648 174.512 191.709C174.375 192.795 175.099 193.565 176.145 193.683C177.164 193.799 178.043 193.21 178.166 192.123C178.286 191.064 177.563 190.28 176.544 190.165ZM192.472 190.58C194.414 190.8 195.702 192.184 195.519 193.924C195.334 195.438 194.142 196.424 192.569 196.521L192.366 198.314C193.466 198.384 194.584 198.414 195.647 198.383L195.646 199.484C192.829 199.688 189.878 199.381 187.718 199.136L187.668 197.878C188.606 197.984 189.699 198.108 190.852 198.198L191.061 196.35C189.549 195.91 188.595 194.674 188.767 193.159C188.964 191.421 190.543 190.361 192.472 190.58ZM192.324 191.884C191.251 191.762 190.378 192.296 190.261 193.329C190.146 194.348 190.874 195.09 191.947 195.212C193.034 195.335 193.923 194.775 194.038 193.757C194.155 192.724 193.411 192.007 192.324 191.884ZM198.807 190.527L197.414 202.821L195.906 202.65L197.299 190.356L198.807 190.527ZM204.98 193.001C204.797 194.618 205.629 196.253 207.516 197.086L206.634 198.197C205.268 197.561 204.361 196.515 203.954 195.252C203.244 196.478 202.102 197.388 200.593 197.719L199.966 196.451C202.026 195.996 203.228 194.495 203.417 192.824L203.55 191.656L205.112 191.833L204.98 193.001ZM209.934 199.796L209.438 204.17L207.917 203.997L208.275 200.832L201.415 200.055L201.552 198.846L209.934 199.796ZM210.83 191.889L209.997 199.239L208.475 199.066L209.308 191.717L210.83 191.889ZM225.651 193.568L225.184 197.685L226.842 197.872L226.7 199.122L225.043 198.934L224.564 203.159L223.056 202.988L224.143 193.398L225.651 193.568ZM224.86 204.431L224.722 205.654L216.218 204.69L216.567 201.607L218.075 201.777L217.864 203.639L224.86 204.431ZM215.007 199.586C215.924 199.69 216.991 199.804 218.111 199.883L218.199 199.108C216.852 198.791 216.065 198.02 216.177 197.036C216.314 195.826 217.576 195.254 219.354 195.469C221.149 195.659 222.237 196.498 222.1 197.707C221.989 198.685 221.071 199.255 219.706 199.279L219.626 199.986C220.679 200.05 221.742 200.074 222.744 200.036L222.746 201.11C220.096 201.305 217.159 200.999 215.036 200.786L215.007 199.586ZM223.057 194.361L222.932 195.462L215.882 194.663L216.006 193.563L218.791 193.878L218.917 192.764L220.425 192.935L220.299 194.049L223.057 194.361ZM219.238 196.488C218.287 196.38 217.681 196.628 217.63 197.2C217.557 197.728 218.092 198.106 219.043 198.213C219.994 198.321 220.6 198.073 220.66 197.543C220.725 196.973 220.189 196.596 219.238 196.488ZM238.229 195.007L237.416 202.18L235.908 202.009L236.062 200.651L233.142 200.32L233.28 199.097L236.201 199.428L236.35 198.11L233.552 197.793C232.549 199.661 230.608 200.824 227.848 201.261L227.372 199.996C230.333 199.541 232.026 198.26 232.478 196.461L228.484 196.008L228.623 194.786L234.26 195.424C234.212 195.852 234.132 196.256 234.013 196.635L236.486 196.915L236.721 194.836L238.229 195.007ZM233.339 201.856C235.825 202.137 237.376 203.263 237.205 204.77C237.034 206.278 235.271 207.028 232.785 206.746C230.272 206.462 228.72 205.336 228.891 203.828C229.062 202.321 230.826 201.571 233.339 201.856ZM233.205 203.038C231.548 202.85 230.492 203.184 230.399 203.999C230.308 204.801 231.263 205.363 232.92 205.551C234.537 205.734 235.607 205.401 235.697 204.6C235.79 203.785 234.822 203.221 233.205 203.038ZM250.566 196.391L249.174 208.672L247.721 208.507L249.112 196.227L250.566 196.391ZM248.014 196.322L246.715 207.788L245.275 207.625L245.937 201.783L244.769 201.651C244.355 204.026 243.162 205.39 241.642 205.204C240.037 205.036 239.184 203.22 239.49 200.516C239.796 197.813 241.031 196.26 242.635 196.442C244.122 196.611 244.977 198.111 244.894 200.427L246.076 200.561L246.574 196.159L248.014 196.322ZM242.473 197.868C241.7 197.767 241.093 198.758 240.889 200.675C240.658 202.589 241.029 203.69 241.805 203.764C242.618 203.87 243.226 202.88 243.443 200.964C243.66 199.049 243.29 197.947 242.473 197.868ZM258.22 197.451L258.11 198.416L263.408 199.016L263.518 198.051L265.012 198.221L264.549 202.31L256.262 201.371L256.725 197.282L258.22 197.451ZM257.884 200.413L263.182 201.013L263.284 200.116L257.986 199.516L257.884 200.413ZM265.916 203.235L265.776 204.471L260.913 203.92L260.81 204.831L264.274 205.223L263.937 208.198L256.954 207.407L256.857 208.263L264.179 209.093L264.048 210.247L255.245 209.25L255.593 206.18L262.576 206.971L262.667 206.169L255.671 205.377L255.797 204.263L259.302 204.66L259.405 203.75L254.582 203.203L254.722 201.967L265.916 203.235ZM277.6 199.454L276.572 208.529L275.064 208.358L275.427 205.152L273.688 204.955L273.83 203.705L275.568 203.902L275.701 202.734L273.962 202.537L274.1 201.314L275.839 201.511L276.092 199.283L277.6 199.454ZM274.072 199.99L273.935 201.199L272.848 201.076L272.405 204.989C272.87 205.014 273.322 205.031 273.762 205.032L273.705 206.14C271.339 206.258 268.604 205.989 266.647 205.767L266.626 204.499L268.013 204.642L268.474 200.58L267.4 200.459L267.537 199.25L274.072 199.99ZM276.687 210.303L276.548 211.526L268.167 210.576L268.582 206.908L270.104 207.081L269.827 209.526L276.687 210.303ZM269.482 204.795L270.942 204.905L271.394 200.911L269.941 200.747L269.482 204.795ZM289.025 200.749L288.672 203.86L290.384 204.054L290.241 205.317L288.529 205.123L288.186 208.153L286.678 207.982L287.517 200.578L289.025 200.749ZM288.12 208.737L287.65 212.88L279.717 211.981L280.186 207.838L288.12 208.737ZM281.545 209.203L281.349 210.928L286.294 211.488L286.49 209.763L281.545 209.203ZM286.5 201.66L286.363 202.869L279.081 202.044L279.218 200.835L282.112 201.163L282.255 199.899L283.763 200.07L283.62 201.333L286.5 201.66ZM282.671 202.905C284.451 203.106 285.558 204.14 285.424 205.446C285.261 206.762 283.952 207.508 282.173 207.306C280.379 207.103 279.257 206.081 279.406 204.764C279.554 203.459 280.878 202.701 282.671 202.905ZM282.542 204.046C281.605 203.94 280.949 204.264 280.873 204.93C280.796 205.609 281.363 206.072 282.3 206.179C283.238 206.285 283.907 205.962 283.984 205.282C284.06 204.617 283.479 204.152 282.542 204.046ZM293.748 202.536L292.812 209.461L291.277 209.287L291.9 202.327L293.748 202.536ZM291.711 212.377C291.127 212.311 290.705 211.782 290.772 211.197C290.836 210.627 291.366 210.205 291.95 210.271C292.507 210.334 292.942 210.865 292.877 211.436C292.811 212.02 292.268 212.44 291.711 212.377Z" fill="#404040"/>
</g>
<g filter="url(#filter3_d_915_16005)">
<rect x="46.6562" y="123.64" width="280" height="48" rx="12" transform="rotate(-2.16547 46.6562 123.64)" fill="white" shape-rendering="crispEdges"/>
<path d="M95.3801 141.433C95.4416 143.059 96.5104 144.551 98.501 145.091L97.7951 146.322C96.3493 145.898 95.2961 145 94.7039 143.812C94.186 145.131 93.1935 146.202 91.7505 146.755L90.9405 145.596C92.9093 144.837 93.8725 143.173 93.8089 141.492L93.7645 140.317L95.3357 140.258L95.3801 141.433ZM101.298 147.407L101.464 151.806L99.9337 151.864L99.8134 148.681L92.914 148.942L92.868 147.726L101.298 147.407ZM100.997 139.456L101.276 146.847L99.7462 146.905L99.4667 139.513L100.997 139.456ZM112.555 139.019L112.67 142.052L114.377 141.987L114.424 143.23L112.717 143.295L112.828 146.232L111.298 146.29L111.025 139.076L112.555 139.019ZM108.806 146.617C111.334 146.521 112.966 147.362 113.038 148.892C113.083 150.45 111.519 151.412 108.991 151.508C106.436 151.604 104.776 150.764 104.718 149.207C104.66 147.677 106.251 146.713 108.806 146.617ZM108.852 147.833C107.158 147.897 106.177 148.358 106.22 149.15C106.237 149.956 107.251 150.356 108.945 150.292C110.612 150.229 111.593 149.754 111.562 148.948C111.532 148.155 110.519 147.77 108.852 147.833ZM108.845 140.034L108.891 141.264L104.861 141.416L104.978 144.518C107.341 144.422 108.657 144.303 110.101 143.941L110.297 145.151C108.711 145.553 107.252 145.663 104.519 145.766L103.522 145.804L103.312 140.244L108.845 140.034ZM124.633 139.314C124.74 142.498 122.734 144.804 119.179 145.951L118.519 144.786C121.257 143.923 122.842 142.419 123.054 140.605L119.037 140.757L118.991 139.528L124.633 139.314ZM128.554 138.427L128.817 145.381L127.3 145.439L127.199 142.747L124.821 142.837L124.774 141.594L127.152 141.504L127.037 138.485L128.554 138.427ZM128.835 145.873L129.014 150.6L120.885 150.908L120.706 146.18L128.835 145.873ZM122.241 147.326L122.329 149.649L127.466 149.455L127.378 147.132L122.241 147.326ZM134.24 140.442C134.292 141.822 135.108 143.16 136.759 143.74L135.983 144.932C134.88 144.536 134.091 143.759 133.616 142.778C133.194 143.916 132.424 144.889 131.268 145.439L130.418 144.295C132.083 143.479 132.817 141.892 132.778 140.498L132.721 138.995L134.183 138.94L134.24 140.442ZM140.863 137.962L141.146 145.435L139.698 145.49L139.579 142.347L138.349 142.394L138.466 145.468L137.045 145.522L136.773 138.322L138.193 138.268L138.302 141.137L139.531 141.091L139.415 138.017L140.863 137.962ZM141.168 146.022L141.33 150.299L139.813 150.356L139.698 147.296L132.757 147.558L132.711 146.342L141.168 146.022ZM150.498 140.553C150.57 142.821 151.844 145.044 153.885 145.829L153.029 147.079C151.583 146.477 150.489 145.205 149.861 143.614C149.36 145.378 148.355 146.838 146.878 147.599L145.901 146.363C147.931 145.397 149.044 142.988 148.954 140.611L148.879 138.644L150.423 138.585L150.498 140.553ZM155.987 137.376L156.454 149.74L154.924 149.798L154.457 137.434L155.987 137.376ZM167.864 138.145C167.992 141.875 166.994 145.169 162.489 147.583L161.638 146.439C163.723 145.32 165.002 144.034 165.704 142.523L161.783 143.027L161.542 141.736L166.136 141.275C166.285 140.695 166.364 140.076 166.394 139.432L162.091 139.594L162.044 138.365L167.864 138.145ZM171.439 136.792L171.906 149.143L170.376 149.2L169.909 136.85L171.439 136.792ZM183.64 136.344L184.105 148.668L182.562 148.726L182.455 145.898L179.832 145.997L179.788 144.849L182.411 144.75L182.096 136.403L183.64 136.344ZM173.4 143.08C175.723 142.992 178.81 142.862 181.474 142.391L181.612 143.508C180.485 143.749 179.322 143.909 178.183 144.021L178.353 148.516L176.823 148.574L176.656 144.161C175.578 144.236 174.554 144.281 173.639 144.316L173.4 143.08ZM177.238 137.12C179.056 137.051 180.419 138.026 180.475 139.501C180.532 141.004 179.244 142.038 177.427 142.107C175.569 142.177 174.22 141.243 174.163 139.74C174.108 138.264 175.38 137.19 177.238 137.12ZM177.282 138.281C176.244 138.32 175.567 138.88 175.598 139.686C175.629 140.519 176.345 140.985 177.383 140.945C178.367 140.908 179.059 140.389 179.027 139.556C178.997 138.75 178.266 138.244 177.282 138.281ZM195.553 141.681L195.599 142.897L186.937 143.225L186.713 137.295L195.279 136.971L195.325 138.201L188.262 138.468L188.394 141.952L195.553 141.681ZM196.951 145.363L196.998 146.62L185.713 147.047L185.666 145.79L196.951 145.363ZM205.294 137.701C205.356 139.34 206.4 140.902 208.338 141.485L207.549 142.705C206.198 142.25 205.205 141.323 204.647 140.133C204.159 141.506 203.195 142.617 201.767 143.211L200.916 142.039C202.872 141.295 203.818 139.549 203.763 137.745L203.71 136.338L205.24 136.28L205.294 137.701ZM211.059 135.308L211.406 144.475L209.89 144.532L209.693 139.327L207.234 139.42L207.187 138.177L209.646 138.084L209.543 135.365L211.059 135.308ZM211.743 146.159L211.79 147.388L203.374 147.706L203.226 143.785L204.769 143.727L204.871 146.418L211.743 146.159ZM218.155 135.887L218.201 137.103L214.812 137.232L214.858 138.434L218.123 138.31L218.167 139.472L214.902 139.595L214.951 140.893C216.46 140.822 217.503 140.721 218.697 140.45L218.907 141.674C217.469 142.002 216.269 142.088 214.356 142.161L213.536 142.192L213.305 136.071L218.155 135.887ZM223.369 134.842L223.653 142.356L222.205 142.411L222.083 139.2L220.799 139.249L220.917 142.364L219.496 142.418L219.224 135.231L220.645 135.178L220.753 138.033L222.038 137.984L221.921 134.897L223.369 134.842ZM223.674 142.903L223.835 147.179L222.319 147.236L222.204 144.19L215.263 144.452L215.217 143.222L223.674 142.903ZM228.934 135.48C230.887 135.392 232.369 136.581 232.449 138.33C232.502 140.093 231.114 141.376 229.16 141.45C227.22 141.524 225.725 140.349 225.659 138.586C225.592 136.838 226.994 135.54 228.934 135.48ZM228.984 136.791C227.904 136.832 227.123 137.505 227.161 138.53C227.201 139.568 228.03 140.166 229.11 140.125C230.203 140.084 230.999 139.424 230.959 138.386C230.921 137.361 230.077 136.75 228.984 136.791ZM235.186 134.382L235.654 146.746L234.137 146.803L233.67 134.439L235.186 134.382ZM225.276 143.307C227.503 143.223 230.59 143.079 233.239 142.596L233.404 143.698C230.651 144.335 227.687 144.461 225.514 144.543L225.276 143.307ZM243.718 134.962C245.392 134.899 246.681 136.245 246.985 138.491L249.335 138.403L249.162 133.853L250.665 133.796L251.133 146.16L249.63 146.217L249.381 139.632L247.045 139.72C246.971 142.111 245.77 143.627 244.048 143.692C242.19 143.762 240.815 142.131 240.713 139.44C240.613 136.776 241.86 135.032 243.718 134.962ZM243.77 136.328C242.745 136.367 242.09 137.5 242.175 139.385C242.233 141.284 242.972 142.365 243.997 142.326C245.021 142.287 245.662 141.155 245.604 139.255C245.519 137.37 244.794 136.289 243.77 136.328ZM262.743 133.34L263.21 145.704L261.694 145.761L261.502 140.692L259.248 140.778L259.201 139.534L261.455 139.449L261.375 137.332L259.162 137.415L259.115 136.172L261.328 136.088L261.226 133.397L262.743 133.34ZM258.356 134.573L258.531 139.19L254.569 139.34L254.668 141.963C256.3 141.888 257.719 141.766 259.369 141.457L259.539 142.696C257.652 143.068 256.082 143.169 254.169 143.241L253.213 143.277L253.021 138.208L256.997 138.058L256.913 135.845L252.897 135.997L252.851 134.781L258.356 134.573ZM270.114 133.252C272.846 133.149 274.587 133.973 274.657 135.461C274.699 136.924 273.024 137.862 270.291 137.952C267.587 138.068 265.805 137.26 265.75 135.798C265.693 134.309 267.409 133.355 270.114 133.252ZM270.158 134.427C268.355 134.496 267.291 134.96 267.335 135.738C267.349 136.49 268.444 136.859 270.248 136.791C272.051 136.723 273.115 136.272 273.086 135.521C273.057 134.742 271.962 134.359 270.158 134.427ZM274.687 140.946L274.844 145.1L266.278 145.424L266.121 141.27L269.659 141.137L269.614 139.948L264.751 140.132L264.705 138.916L275.962 138.49L276.008 139.706L271.117 139.891L271.162 141.08L274.687 140.946ZM267.669 142.416L267.734 144.137L273.322 143.926L273.257 142.204L267.669 142.416ZM278.979 140.839C278.927 139.103 279.399 138.552 280.239 137.986C280.813 137.595 281.232 137.114 281.207 136.431C281.178 135.666 280.572 135.197 279.82 135.225C279.137 135.251 278.498 135.713 278.491 136.63L276.784 136.694C276.755 134.862 278.1 133.867 279.78 133.804C281.625 133.734 282.934 134.71 282.995 136.336C283.037 137.443 282.504 138.188 281.637 138.755C280.862 139.263 280.552 139.753 280.577 140.778L280.582 140.901L278.984 140.962L278.979 140.839ZM279.945 143.949C279.357 143.971 278.861 143.511 278.839 142.924C278.817 142.35 279.277 141.854 279.865 141.831C280.425 141.81 280.935 142.27 280.957 142.844C280.979 143.431 280.505 143.928 279.945 143.949Z" fill="#404040"/>
</g>
<g filter="url(#filter4_d_915_16005)">
<rect x="30.9102" y="45.5571" width="280" height="48" rx="12" transform="rotate(8.96842 30.9102 45.5571)" fill="white" shape-rendering="crispEdges"/>
<path d="M85.0698 73.0961C86.7242 73.3572 87.729 74.9276 87.5934 77.1899L89.9162 77.5565L90.6259 73.0595L92.1114 73.2939L90.1826 85.5157L88.6971 85.2812L89.7244 78.772L87.4151 78.4075C86.8811 80.7385 85.4095 81.9942 83.7079 81.7256C81.8713 81.4358 80.837 79.5701 81.2569 76.9097C81.6725 74.2762 83.2332 72.8063 85.0698 73.0961ZM84.8567 74.4466C83.8439 74.2867 82.9825 75.2719 82.7019 77.1377C82.3921 79.0127 82.9082 80.2153 83.9211 80.3752C84.9339 80.535 85.7818 79.5477 86.0915 77.6727C86.3722 75.8069 85.8696 74.6064 84.8567 74.4466ZM103.228 82.398L103.047 83.5459L94.1207 82.1371L94.3019 80.9892L98.0292 81.5775L98.1933 80.5376L99.6923 80.7742L99.5282 81.814L103.228 82.398ZM98.4956 83.2705C100.724 83.6221 101.949 84.4522 101.777 85.5461C101.598 86.6805 100.178 87.0793 97.9499 86.7277C95.7217 86.376 94.4806 85.5573 94.6731 84.425C94.8323 83.329 96.2673 82.9188 98.4956 83.2705ZM98.3314 84.3103C97.0734 84.1256 96.337 84.2309 96.2667 84.6765C96.1921 85.1492 96.8581 85.4896 98.114 85.6878C99.3565 85.8839 100.081 85.763 100.17 85.2925C100.226 84.8447 99.5717 84.5199 98.3314 84.3103ZM97.1445 74.6419L96.959 75.8168L95.2709 75.5504L94.8276 78.3593C95.4126 78.424 96.0096 78.4559 96.687 78.4175L96.6096 79.6094C95.5086 79.6571 94.6962 79.5428 93.7374 79.3914L93.1702 79.3019L93.9844 74.1431L97.1445 74.6419ZM101.169 75.277L100.983 76.4519L99.0523 76.1471L98.609 78.9561C99.5497 79.0907 100.18 79.128 100.93 79.0732L100.864 80.2808C99.8842 80.3477 99.0988 80.2376 97.5727 79.9967L96.938 79.8966L97.7522 74.7378L101.169 75.277ZM104.158 75.195L103.13 81.7043L101.658 81.472L102.121 78.5415L100.271 78.2495L100.452 77.1016L102.302 77.3936L102.686 74.9627L104.158 75.195ZM116.312 77.1132L114.385 89.3215L112.954 89.0956L114.88 76.8873L116.312 77.1132ZM113.672 77.0011L111.884 88.3316L110.466 88.1078L111.353 82.4898L109.178 82.1467C108.241 83.4382 106.901 84.4725 105.015 85.199L104.332 83.9979C107.1 82.9052 108.556 81.1765 109.174 78.7549L105.879 78.2348L106.07 77.0194L110.851 77.7739C110.665 78.9556 110.348 80.0406 109.854 81.0215L111.542 81.2879L112.254 76.7773L113.672 77.0011ZM127.215 79.5951C126.704 82.7396 124.291 84.6148 120.581 85.0536L120.159 83.7828C123.012 83.4648 124.857 82.2958 125.416 80.5569L121.445 79.9303L121.637 78.7149L127.215 79.5951ZM131.232 79.4818L130.148 86.3557L128.649 86.1191L129.068 83.4587L126.719 83.0879L126.913 81.8589L129.262 82.2298L129.733 79.2452L131.232 79.4818ZM130.071 86.8419L129.333 91.5145L121.298 90.2464L122.036 85.5738L130.071 86.8419ZM123.32 86.9945L122.958 89.2903L128.036 90.0917L128.398 87.7959L123.32 86.9945ZM136.422 82.5569C136.207 83.9209 136.75 85.3907 138.257 86.2791L137.265 87.2991C136.26 86.6975 135.636 85.7824 135.36 84.7284C134.726 85.7633 133.782 86.5694 132.542 86.8858L131.928 85.5986C133.72 85.1201 134.746 83.7042 134.977 82.3289L135.211 80.8433L136.656 81.0714L136.422 82.5569ZM143.4 81.4021L142.234 88.7892L140.803 88.5633L141.293 85.4572L140.078 85.2654L139.598 88.3039L138.194 88.0823L139.317 80.9653L140.721 81.187L140.274 84.0229L141.489 84.2148L141.969 81.1762L143.4 81.4021ZM142.143 89.3699L141.476 93.5969L139.977 93.3603L140.454 90.3353L133.594 89.2525L133.783 88.0506L142.143 89.3699ZM154.476 83.1363L153.709 87.998L155.586 88.2942L155.39 89.5367L153.513 89.2404L152.55 95.3446L151.064 95.1101L152.991 82.9018L154.476 83.1363ZM151.749 84.6298L151.559 85.8317L144.361 84.6957L144.551 83.4938L147.441 83.9499L147.71 82.2483L149.209 82.4849L148.94 84.1865L151.749 84.6298ZM147.882 86.068C149.638 86.345 150.76 87.7402 150.494 89.4283C150.227 91.1164 148.732 92.0846 146.976 91.8075C145.194 91.5262 144.069 90.1445 144.349 88.4585C144.602 86.7683 146.099 85.7866 147.882 86.068ZM147.688 87.2969C146.729 87.1456 145.938 87.6851 145.78 88.6845C145.623 89.6838 146.211 90.4272 147.172 90.565C148.102 90.7256 148.891 90.1996 149.062 89.2024C149.206 88.2009 148.62 87.444 147.688 87.2969ZM166.206 88.5309L166.019 89.7193L157.565 88.3851L158.228 84.1851L159.713 84.4195L159.238 87.4311L166.206 88.5309ZM167.051 91.3355L166.863 92.5239L155.709 90.7634L155.896 89.575L167.051 91.3355ZM165.143 95.7957L164.951 97.0111L156.308 95.6471L156.875 92.0548L158.374 92.2914L157.999 94.6682L165.143 95.7957ZM172.876 89.5972C172.56 91.5959 173.403 93.8881 175.244 95.0231L174.233 96.0815C172.886 95.2322 172.035 93.783 171.727 92.1426C170.895 93.7276 169.607 94.9638 168.068 95.4131L167.39 94.1018C169.461 93.5152 171.021 91.4361 171.35 89.3564L171.512 88.33L168.824 87.9059L169.02 86.6635L175.908 87.7504L175.712 88.9929L173.038 88.5709L172.876 89.5972ZM178.974 87.0025L177.047 99.2108L175.535 98.9721L177.461 86.7638L178.974 87.0025ZM193.708 99.0581L193.514 100.287L182.359 98.5266L182.553 97.2977L187.361 98.0564L187.781 95.396L184.202 94.8312L185.131 88.9431L193.774 90.3072L192.845 96.1952L189.266 95.6304L188.847 98.2909L193.708 99.0581ZM186.414 90.3774L185.86 93.8886L191.545 94.7859L192.099 91.2747L186.414 90.3774ZM205.654 100.985L205.46 102.214L194.305 100.453L194.499 99.2244L205.654 100.985ZM205.698 92.106L205.078 96.0358L198.069 94.9297L197.818 96.5232L205.11 97.6742L204.923 98.8626L196.131 97.4751L196.76 93.4912L203.782 94.5995L204.021 93.0869L196.972 91.9744L197.163 90.759L205.698 92.106ZM217.295 96.5936L217.107 97.782L208.653 96.4478L209.316 92.2478L210.802 92.4823L210.326 95.4938L217.295 96.5936ZM218.139 99.3982L217.952 100.587L206.797 98.8262L206.985 97.6378L218.139 99.3982ZM216.231 103.858L216.04 105.074L207.397 103.71L207.963 100.118L209.462 100.354L209.087 102.731L216.231 103.858ZM233.409 95.6073L232.284 102.738L230.785 102.501L230.998 101.151L228.095 100.693L228.286 99.4771L231.19 99.9353L231.397 98.6254L228.615 98.1863C227.531 100.008 225.541 101.085 222.765 101.402L222.344 100.117C225.323 99.7915 227.071 98.5862 227.6 96.8082L223.63 96.1816L223.822 94.9662L229.426 95.8507C229.359 96.2761 229.261 96.6759 229.126 97.049L231.584 97.4369L231.91 95.3707L233.409 95.6073ZM228.225 102.236C230.696 102.626 232.197 103.817 231.96 105.316C231.723 106.816 229.929 107.487 227.457 107.097C224.959 106.703 223.459 105.511 223.695 104.012C223.932 102.513 225.726 101.841 228.225 102.236ZM228.039 103.41C226.392 103.15 225.322 103.438 225.194 104.249C225.068 105.045 225.997 105.649 227.645 105.909C229.252 106.162 230.335 105.877 230.461 105.08C230.589 104.27 229.646 103.664 228.039 103.41ZM245.197 104.499L245 105.741L240.139 104.974L239.493 109.066L238.007 108.831L238.653 104.74L233.846 103.981L234.042 102.738L245.197 104.499ZM240.609 97.1726C243.2 97.5953 244.843 98.9343 244.579 100.609C244.316 102.27 242.343 103.024 239.75 102.615C237.143 102.204 235.525 100.882 235.801 99.2235C236.051 97.5468 238 96.7748 240.609 97.1726ZM240.417 98.388C238.688 98.1152 237.478 98.5055 237.34 99.4665C237.177 100.41 238.209 101.154 239.937 101.427C241.666 101.699 242.876 101.309 243.026 100.364C243.177 99.4049 242.146 98.6608 240.417 98.388ZM249.41 99.3782L248.172 106.256L246.646 106.015L247.573 99.0883L249.41 99.3782ZM246.945 109.121C246.364 109.029 245.966 108.482 246.058 107.901C246.147 107.334 246.694 106.936 247.275 107.028C247.829 107.115 248.24 107.664 248.151 108.232C248.059 108.812 247.498 109.208 246.945 109.121Z" fill="#404040"/>
</g>
<g filter="url(#filter5_d_915_16005)">
<rect x="111.766" y="15.1123" width="280" height="48" rx="12" transform="rotate(-3.09389 111.766 15.1123)" fill="white" shape-rendering="crispEdges"/>
<path d="M163.913 30.1905L164.402 39.2417L162.886 39.3236L162.662 35.1735L160.287 35.3018L160.219 34.0459L162.594 33.9175L162.397 30.2724L163.913 30.1905ZM160.154 31.3247C160.329 34.5739 158.305 37.1342 154.803 38.4599L154.095 37.2795C156.712 36.2892 158.381 34.6244 158.569 32.6563L154.501 32.8762L154.434 31.6339L160.154 31.3247ZM164.813 41.0268L164.88 42.2555L156.525 42.7071L156.311 38.7617L157.854 38.6783L158.001 41.395L164.813 41.0268ZM175.393 29.5563L175.555 32.5597L177.276 32.4667L177.343 33.7091L175.623 33.802L175.784 36.7918L174.269 36.8737L173.878 29.6382L175.393 29.5563ZM172.026 30.5872C172.201 33.8363 170.209 36.2442 166.62 37.4788L165.953 36.2826C168.711 35.3668 170.288 33.7686 170.454 31.9044L166.29 32.1295L166.224 30.9008L172.026 30.5872ZM171.806 37.1574C174.304 37.0224 175.98 37.8902 176.062 39.4056C176.146 40.9483 174.571 41.9644 172.073 42.0994C169.588 42.2337 167.886 41.3947 167.817 39.8513C167.721 38.3367 169.321 37.2917 171.806 37.1574ZM171.87 38.3452C170.246 38.433 169.26 38.9517 169.318 39.7701C169.348 40.5763 170.384 40.9995 172.009 40.9117C173.633 40.8239 174.618 40.2915 174.574 39.486C174.53 38.6669 173.495 38.2574 171.87 38.3452ZM182.437 30.9418C182.525 32.5664 183.618 34.0408 185.617 34.5489L184.931 35.7908C183.479 35.3901 182.411 34.5099 181.8 33.3312C181.303 34.6588 180.328 35.7452 178.894 36.3225L178.066 35.1761C180.022 34.3858 180.958 32.7058 180.867 31.0266L180.804 29.8526L182.374 29.7677L182.437 30.9418ZM188.451 36.8191L188.688 41.2151L187.159 41.2977L186.987 38.1168L180.093 38.4895L180.027 37.2744L188.451 36.8191ZM188.021 28.8737L188.42 36.2594L186.891 36.3421L186.492 28.9564L188.021 28.8737ZM193.87 29.4202C195.821 29.301 197.322 30.4659 197.43 32.2126C197.511 33.9744 196.144 35.2806 194.192 35.3861C192.254 35.4909 190.74 34.3404 190.645 32.5793C190.55 30.8319 191.93 29.5113 193.87 29.4202ZM193.941 30.7308C192.862 30.7891 192.091 31.4742 192.147 32.4981C192.203 33.5357 193.042 34.1201 194.121 34.0618C195.213 34.0028 195.998 33.3305 195.942 32.293C195.886 31.2691 195.033 30.6717 193.941 30.7308ZM200.103 28.2207L200.771 40.5757L199.256 40.6576L198.588 28.3026L200.103 28.2207ZM190.339 37.3058C192.564 37.1855 195.648 36.9915 198.29 36.4653L198.472 37.5645C195.73 38.2467 192.768 38.4205 190.597 38.5378L190.339 37.3058ZM210.524 28.9992L210.697 32.2074L212.13 32.13L211.897 27.8023L213.344 27.7241L213.966 39.2463L212.519 39.3245L212.197 33.3586L210.763 33.4361L210.946 36.8218L206.1 37.0838L205.677 29.2612L210.524 28.9992ZM207.162 30.3858L207.455 35.8056L209.462 35.6972L209.169 30.2773L207.162 30.3858ZM215.871 27.3684L216.538 39.7098L215.077 39.7887L214.41 27.4473L215.871 27.3684ZM227.486 30.7386L227.552 31.9673L218.979 32.4307L218.729 27.8027L220.244 27.7208L220.428 31.1201L227.486 30.7386ZM228.918 33.4133L228.984 34.642L226.281 34.7881L226.518 39.1703L224.989 39.253L224.752 34.8707L221.967 35.0212L222.204 39.4035L220.688 39.4854L220.451 35.1032L217.735 35.25L217.668 34.0213L228.918 33.4133ZM239.052 26.1154L239.313 30.9346L241.142 30.8357L241.211 32.1053L239.381 32.2042L239.718 38.4295L238.202 38.5114L237.537 26.1973L239.052 26.1154ZM235.859 27.5751C236.055 31.2065 234.725 34.4686 230.725 36.7112L229.802 35.5836C232.724 33.9264 234.235 31.7361 234.398 28.9137L230.124 29.1447L230.057 27.8887L235.859 27.5751ZM254.52 25.293L254.73 29.1702L256.45 29.0772L256.518 30.3332L254.798 30.4262L255.019 34.5081L253.503 34.59L253.005 25.375L254.52 25.293ZM252.192 26.7881L252.257 28.0031L244.94 28.3986L244.874 27.1836L247.782 27.0265L247.707 25.6476L249.223 25.5657L249.297 26.9445L252.192 26.7881ZM248.626 28.706C250.401 28.6101 251.68 29.4857 251.771 30.9047C251.833 32.3116 250.654 33.3064 248.88 33.4023C247.091 33.4989 245.799 32.6378 245.723 31.2316C245.646 29.8118 246.837 28.8027 248.626 28.706ZM248.689 29.8801C247.747 29.931 247.157 30.4011 247.197 31.1519C247.237 31.8891 247.875 32.2928 248.816 32.2282C249.759 32.191 250.363 31.7201 250.323 30.9829C250.283 30.2321 249.631 29.8292 248.689 29.8801ZM255.599 36.1198L255.665 37.3485L247.269 37.8023L247.075 34.2118L248.59 34.1299L248.718 36.4917L255.599 36.1198ZM267.202 24.5939L267.599 31.925L266.083 32.0069L265.92 28.9898L263.818 29.1034L263.751 27.8611L265.853 27.7475L265.687 24.6758L267.202 24.5939ZM263.438 32.4648C266.059 32.3231 267.703 33.0968 267.784 34.5849C267.864 36.073 266.313 37.0194 263.692 37.161C261.084 37.302 259.441 36.5282 259.374 35.0394C259.28 33.5521 260.831 32.6057 263.438 32.4648ZM263.501 33.6252C261.781 33.7182 260.834 34.1801 260.876 34.9583C260.917 35.7228 261.908 36.0799 263.629 35.987C265.349 35.894 266.309 35.4313 266.268 34.6668C266.226 33.8886 265.221 33.5322 263.501 33.6252ZM261.515 27.0235C261.596 28.5253 262.674 29.9868 264.62 30.5251L263.921 31.7678C262.524 31.3778 261.497 30.4886 260.901 29.3569C260.427 30.7038 259.453 31.8108 258.014 32.4157L257.157 31.2571C259.099 30.4675 260.061 28.7452 259.973 27.1206L259.968 27.025L257.401 27.1637L257.335 25.9351L263.997 25.575L264.063 26.8036L261.51 26.9416L261.515 27.0235ZM273.597 26.3705C273.678 27.8722 274.756 29.3337 276.702 29.872L276.001 31.0874C274.598 30.7115 273.571 29.8291 272.97 28.7046C272.5 30.0239 271.526 31.1171 270.091 31.6807L269.248 30.5214C271.179 29.7735 272.142 28.0785 272.055 26.4675L272.046 26.3037L269.479 26.4424L269.414 25.2274L276.076 24.8673L276.141 26.0823L273.589 26.2203L273.597 26.3705ZM279.714 31.8863L279.951 36.2822L278.436 36.3641L278.264 33.1832L271.37 33.5558L271.304 32.3408L279.714 31.8863ZM279.284 23.9408L279.682 31.2992L278.167 31.3811L278.001 28.3231L275.899 28.4367L275.832 27.1944L277.934 27.0808L277.769 24.0227L279.284 23.9408ZM291.298 23.2915L291.966 35.6465L290.437 35.7291L289.769 23.3741L291.298 23.2915ZM284.698 24.5519C286.555 24.4515 287.998 26.0713 288.156 28.7327C288.287 31.4229 287.026 33.1751 285.17 33.2755C283.3 33.3766 281.857 31.7704 281.712 29.081C281.568 26.4189 282.828 24.653 284.698 24.5519ZM284.772 25.9171C283.721 25.9739 283.071 27.1181 283.173 29.002C283.275 30.8997 284.045 31.9671 285.096 31.9103C286.134 31.8542 286.784 30.71 286.681 28.8124C286.579 26.9284 285.81 25.861 284.772 25.9171ZM302.779 22.6709L303.035 27.4081L304.933 27.3056L305.002 28.5752L303.104 28.6778L303.447 35.0259L301.945 35.1071L301.278 22.7521L302.779 22.6709ZM299.343 23.9383L299.594 28.5936L295.444 28.818L295.577 31.2753C297.529 31.1561 299.046 30.9919 300.757 30.5983L300.96 31.8196C299.081 32.2634 297.392 32.4368 295.153 32.5578L294.143 32.6125L293.877 27.6841L298.013 27.4605L297.894 25.2489L293.73 25.474L293.664 24.2453L299.343 23.9383ZM315.378 25.4951L315.443 26.6964L306.897 27.1584L306.667 22.9126L308.169 22.8314L308.334 25.8758L315.378 25.4951ZM316.79 28.0613L316.855 29.2626L305.578 29.8721L305.513 28.6708L316.79 28.0613ZM315.856 32.8217L315.922 34.0504L307.185 34.5227L306.989 30.8912L308.504 30.8093L308.634 33.2121L315.856 32.8217ZM324.569 23.7934C324.641 25.1313 325.492 26.4271 327.15 26.9536L326.407 28.1576C325.285 27.7938 324.478 27.0501 323.982 26.1116C323.592 27.2418 322.837 28.2273 321.69 28.7822L320.808 27.6661C322.46 26.8237 323.168 25.2383 323.108 23.8723L323.026 22.3433L324.486 22.2644L324.569 23.7934ZM331.149 21.1512L331.558 28.7144L330.111 28.7926L329.937 25.5844L328.708 25.6508L328.861 28.4768L327.441 28.5535L327.066 21.6047L328.486 21.5279L328.641 24.4085L329.87 24.3421L329.702 21.2294L331.149 21.1512ZM327.405 29.1442C329.985 29.0048 331.669 29.7626 331.759 31.1817C331.823 32.6022 330.231 33.5509 327.651 33.6903C325.043 33.8313 323.372 33.059 323.295 31.6392C323.219 30.2194 324.797 29.2852 327.405 29.1442ZM327.467 30.291C325.76 30.3832 324.772 30.8337 324.811 31.5573C324.85 32.2945 325.881 32.6221 327.588 32.5299C329.281 32.4384 330.27 32.0015 330.23 31.2643C330.191 30.5408 329.16 30.1995 327.467 30.291ZM342.411 20.5288L342.572 23.5049L344.292 23.4119L344.361 24.6816L342.64 24.7745L342.8 27.7234L341.285 27.8053L340.896 20.6107L342.411 20.5288ZM339.01 21.4383C339.185 24.6738 337.203 27.0127 333.567 28.1539L332.877 27.0274C335.724 26.1273 337.282 24.5644 337.452 22.7548L333.274 22.9806L333.208 21.7519L339.01 21.4383ZM342.828 28.2421L343.078 32.8701L341.563 32.952L341.378 29.5391L334.675 29.9014L334.609 28.6863L342.828 28.2421ZM347.285 28.3846C347.205 26.65 347.668 26.091 348.499 25.5121C349.066 25.1118 349.478 24.624 349.441 23.9414C349.4 23.1769 348.786 22.7172 348.036 22.7578C347.353 22.7946 346.721 23.2669 346.73 24.1838L345.023 24.2761C344.965 22.4445 346.293 21.428 347.972 21.3372C349.816 21.2376 351.14 22.1929 351.228 23.8174C351.288 24.9233 350.767 25.6771 349.909 26.2575C349.143 26.7781 348.841 27.2736 348.883 28.2982L348.889 28.4211L347.292 28.5074L347.285 28.3846ZM348.302 31.4788C347.715 31.5105 347.211 31.0585 347.179 30.4715C347.148 29.8981 347.6 29.3944 348.187 29.3627C348.747 29.3325 349.264 29.7837 349.295 30.3571C349.327 30.9441 348.861 31.4485 348.302 31.4788Z" fill="#404040"/>
</g>
<defs>
<filter id="filter0_d_915_16005" x="97.4453" y="271.312" width="288.664" height="74.4141" filterUnits="userSpaceOnUse" color-interpolation-filters="sRGB">
<feFlood flood-opacity="0" result="BackgroundImageFix"/>
<feColorMatrix in="SourceAlpha" type="matrix" values="0 0 0 0 0 0 0 0 0 0 0 0 0 0 0 0 0 0 127 0" result="hardAlpha"/>
<feOffset dy="4"/>
<feGaussianBlur stdDeviation="1.5"/>
<feComposite in2="hardAlpha" operator="out"/>
<feColorMatrix type="matrix" values="0 0 0 0 0 0 0 0 0 0 0 0 0 0 0 0 0 0 0.2 0"/>
<feBlend mode="normal" in2="BackgroundImageFix" result="effect1_dropShadow_915_16005"/>
<feBlend mode="normal" in="SourceGraphic" in2="effect1_dropShadow_915_16005" result="shape"/>
</filter>
<filter id="filter1_d_915_16005" x="0" y="219.269" width="287.574" height="65.2563" filterUnits="userSpaceOnUse" color-interpolation-filters="sRGB">
<feFlood flood-opacity="0" result="BackgroundImageFix"/>
<feColorMatrix in="SourceAlpha" type="matrix" values="0 0 0 0 0 0 0 0 0 0 0 0 0 0 0 0 0 0 127 0" result="hardAlpha"/>
<feOffset dy="4"/>
<feGaussianBlur stdDeviation="1.5"/>
<feComposite in2="hardAlpha" operator="out"/>
<feColorMatrix type="matrix" values="0 0 0 0 0 0 0 0 0 0 0 0 0 0 0 0 0 0 0.2 0"/>
<feBlend mode="normal" in2="BackgroundImageFix" result="effect1_dropShadow_915_16005"/>
<feBlend mode="normal" in="SourceGraphic" in2="effect1_dropShadow_915_16005" result="shape"/>
</filter>
<filter id="filter2_d_915_16005" x="70.7656" y="159" width="289.621" height="86.2178" filterUnits="userSpaceOnUse" color-interpolation-filters="sRGB">
<feFlood flood-opacity="0" result="BackgroundImageFix"/>
<feColorMatrix in="SourceAlpha" type="matrix" values="0 0 0 0 0 0 0 0 0 0 0 0 0 0 0 0 0 0 127 0" result="hardAlpha"/>
<feOffset dy="4"/>
<feGaussianBlur stdDeviation="1.5"/>
<feComposite in2="hardAlpha" operator="out"/>
<feColorMatrix type="matrix" values="0 0 0 0 0 0 0 0 0 0 0 0 0 0 0 0 0 0 0.2 0"/>
<feBlend mode="normal" in2="BackgroundImageFix" result="effect1_dropShadow_915_16005"/>
<feBlend mode="normal" in="SourceGraphic" in2="effect1_dropShadow_915_16005" result="shape"/>
</filter>
<filter id="filter3_d_915_16005" x="43.6562" y="113.06" width="287.613" height="65.5459" filterUnits="userSpaceOnUse" color-interpolation-filters="sRGB">
<feFlood flood-opacity="0" result="BackgroundImageFix"/>
<feColorMatrix in="SourceAlpha" type="matrix" values="0 0 0 0 0 0 0 0 0 0 0 0 0 0 0 0 0 0 127 0" result="hardAlpha"/>
<feOffset dy="4"/>
<feGaussianBlur stdDeviation="1.5"/>
<feComposite in2="hardAlpha" operator="out"/>
<feColorMatrix type="matrix" values="0 0 0 0 0 0 0 0 0 0 0 0 0 0 0 0 0 0 0.2 0"/>
<feBlend mode="normal" in2="BackgroundImageFix" result="effect1_dropShadow_915_16005"/>
<feBlend mode="normal" in="SourceGraphic" in2="effect1_dropShadow_915_16005" result="shape"/>
</filter>
<filter id="filter4_d_915_16005" x="20.4258" y="45.5571" width="290.062" height="98.0625" filterUnits="userSpaceOnUse" color-interpolation-filters="sRGB">
<feFlood flood-opacity="0" result="BackgroundImageFix"/>
<feColorMatrix in="SourceAlpha" type="matrix" values="0 0 0 0 0 0 0 0 0 0 0 0 0 0 0 0 0 0 127 0" result="hardAlpha"/>
<feOffset dy="4"/>
<feGaussianBlur stdDeviation="1.5"/>
<feComposite in2="hardAlpha" operator="out"/>
<feColorMatrix type="matrix" values="0 0 0 0 0 0 0 0 0 0 0 0 0 0 0 0 0 0 0.15 0"/>
<feBlend mode="normal" in2="BackgroundImageFix" result="effect1_dropShadow_915_16005"/>
<feBlend mode="normal" in="SourceGraphic" in2="effect1_dropShadow_915_16005" result="shape"/>
</filter>
<filter id="filter5_d_915_16005" x="108.766" y="0" width="288.184" height="70.0425" filterUnits="userSpaceOnUse" color-interpolation-filters="sRGB">
<feFlood flood-opacity="0" result="BackgroundImageFix"/>
<feColorMatrix in="SourceAlpha" type="matrix" values="0 0 0 0 0 0 0 0 0 0 0 0 0 0 0 0 0 0 127 0" result="hardAlpha"/>
<feOffset dy="4"/>
<feGaussianBlur stdDeviation="1.5"/>
<feComposite in2="hardAlpha" operator="out"/>
<feColorMatrix type="matrix" values="0 0 0 0 0 0 0 0 0 0 0 0 0 0 0 0 0 0 0.15 0"/>
<feBlend mode="normal" in2="BackgroundImageFix" result="effect1_dropShadow_915_16005"/>
<feBlend mode="normal" in="SourceGraphic" in2="effect1_dropShadow_915_16005" result="shape"/>
</filter>
</defs>
</svg>
