<svg width="135" height="162" viewBox="0 0 135 162" fill="none" xmlns="http://www.w3.org/2000/svg">
<g filter="url(#filter0_d_894_30820)">
<rect x="3.10938" y="18.4976" width="109.904" height="141.448" rx="9.29705" transform="rotate(-8 3.10938 18.4976)" fill="white"/>
<path d="M71.495 85.2707C71.9629 85.2462 72.3832 84.977 72.6012 84.5623L81.9696 66.738C82.0221 66.638 82.1235 66.5731 82.2363 66.5672C82.3487 66.5613 82.456 66.6149 82.5188 66.7084L93.7712 83.4562C94.0317 83.8439 94.4767 84.0663 94.9431 84.0418L104.179 83.5578C105.214 83.5035 105.791 82.3366 105.205 81.481L89.5707 58.6512C89.2867 58.2365 89.2612 57.697 89.5047 57.2573L102.989 32.9085C103.494 31.9961 102.799 30.8841 101.757 30.9387L92.2565 31.4366C91.7914 31.461 91.3731 31.7271 91.154 32.1381L81.6426 49.9774C81.5895 50.077 81.4881 50.1415 81.3754 50.1474C81.2627 50.1533 81.1551 50.0997 81.0919 50.0062L69.7679 33.2589C69.5071 32.8731 69.0632 32.6521 68.5982 32.6765L59.1757 33.1703C58.133 33.2249 57.5582 34.4058 58.1584 35.2601L74.1747 58.0569C74.4653 58.4705 74.4959 59.0132 74.2537 59.4569L60.9654 83.795C60.4673 84.7072 61.1627 85.8122 62.2006 85.7578L71.495 85.2707Z" fill="#FF9E66"/>
<path d="M71.513 57.6687C67.7032 41.1666 55.2288 34.03 41.8734 37.1134C28.378 40.229 20.3807 52.1655 24.1744 68.5976C27.9842 85.0997 40.3886 92.2525 53.8839 89.1368C67.2394 86.0535 75.3228 74.1707 71.513 57.6687ZM60.8146 60.1386C63.3168 70.9768 59.5684 78.0289 51.7369 79.8369C43.9054 81.645 37.375 76.966 34.8728 66.1277C32.3706 55.2895 36.1889 48.2213 44.0204 46.4133C51.8519 44.6052 58.3124 49.3004 60.8146 60.1386Z" fill="#FF5D00"/>
<path d="M56.2482 114.919C56.6691 114.86 57.0807 114.888 57.4832 115.003C57.8841 115.108 58.2466 115.282 58.5706 115.526C58.8946 115.77 59.1629 116.076 59.3755 116.443C59.597 116.798 59.7381 117.192 59.7988 117.623L60.4287 122.105C60.4894 122.537 60.4621 122.954 60.347 123.356C60.2424 123.757 60.068 124.119 59.8239 124.443C59.5797 124.768 59.2801 125.04 58.9249 125.262C58.5683 125.473 58.1796 125.608 57.7587 125.667L56.5277 125.84C56.0963 125.901 55.6801 125.879 55.2791 125.774C54.8767 125.659 54.5135 125.48 54.1894 125.235C53.8759 124.99 53.6084 124.689 53.3868 124.334C53.1652 123.979 53.0241 123.586 52.9635 123.154L52.3336 118.672C52.2729 118.241 52.3002 117.824 52.4153 117.421C52.5289 117.008 52.7026 116.641 52.9362 116.318C53.1804 115.994 53.4807 115.727 53.8374 115.516C54.1925 115.294 54.5857 115.153 55.0171 115.092L56.2482 114.919ZM57.8866 117.988C57.8334 117.609 57.6778 117.304 57.4199 117.072C57.1725 116.839 56.8646 116.748 56.4964 116.8L55.2969 116.968C54.9286 117.02 54.6525 117.193 54.4685 117.487C54.295 117.78 54.2349 118.115 54.2881 118.494L54.8892 122.771C54.9425 123.15 55.0935 123.461 55.3424 123.705C55.6004 123.937 55.9134 124.027 56.2817 123.976L57.4812 123.807C57.8495 123.755 58.1203 123.583 58.2938 123.29C58.4763 122.986 58.5409 122.644 58.4877 122.265L57.8866 117.988ZM66.1407 118.937L69.4469 124.025L67.4109 124.311L65.2286 120.578L65.1339 120.591L64.0177 124.788L61.9817 125.074L63.6943 119.28C63.1718 118.463 62.6319 117.638 62.0749 116.804C61.5283 115.969 60.9937 115.143 60.4712 114.326L62.5071 114.04L64.6614 117.229L64.7561 117.216C64.8439 116.925 64.9363 116.627 65.0331 116.324C65.13 116.021 65.2261 115.712 65.3215 115.398L65.9004 113.563L67.9364 113.277L66.1407 118.937ZM78.4909 119.599L74.7504 120.125L75.2362 123.581L73.2791 123.856L72.7934 120.4L69.9367 120.801L69.7016 119.128L78.2558 117.926L77.2976 111.108L79.1599 110.846L80.839 122.794L78.9767 123.055L78.4909 119.599ZM75.8105 117.819L73.885 118.09L73.8802 116.223L70.0766 116.758L69.8703 115.29L73.8791 114.727L73.8755 113.327L69.4879 113.944L69.2573 112.302L75.5861 111.413L75.8146 113.038L75.8105 117.819ZM87.911 111.322L81.7242 112.192L81.4891 110.519L91.085 109.17L91.3201 110.843L88.4702 113.239L91.8791 114.82L92.163 116.841L86.9436 114.516L82.5671 118.189L82.2832 116.169L87.911 111.322ZM93.1381 119.198L93.3954 121.029L82.5369 122.555L82.2796 120.724L93.1381 119.198Z" fill="#FF5D00"/>
</g>
<defs>
<filter id="filter0_d_894_30820" x="-0.890625" y="-0.79834" width="136.521" height="163.367" filterUnits="userSpaceOnUse" color-interpolation-filters="sRGB">
<feFlood flood-opacity="0" result="BackgroundImageFix"/>
<feColorMatrix in="SourceAlpha" type="matrix" values="0 0 0 0 0 0 0 0 0 0 0 0 0 0 0 0 0 0 127 0" result="hardAlpha"/>
<feOffset/>
<feGaussianBlur stdDeviation="2"/>
<feComposite in2="hardAlpha" operator="out"/>
<feColorMatrix type="matrix" values="0 0 0 0 0.5375 0 0 0 0 0.196029 0 0 0 0 0 0 0 0 0.35 0"/>
<feBlend mode="normal" in2="BackgroundImageFix" result="effect1_dropShadow_894_30820"/>
<feBlend mode="normal" in="SourceGraphic" in2="effect1_dropShadow_894_30820" result="shape"/>
</filter>
</defs>
</svg>
