<svg width="138" height="164" viewBox="0 0 138 164" fill="none" xmlns="http://www.w3.org/2000/svg">
<g filter="url(#filter0_d_894_30836)">
<rect x="27.1328" y="2.69385" width="109.904" height="141.448" rx="9.29705" transform="rotate(10 27.1328 2.69385)" fill="white"/>
<g clip-path="url(#clip0_894_30836)">
<rect x="48.119" y="30.687" width="58.8461" height="58.8461" rx="29.4231" transform="rotate(10 48.119 30.687)" stroke="#FF5D00" stroke-width="1.81998"/>
<path d="M70.0561 46.3339L69.1546 46.8781L69.2096 47.9346C69.2126 47.9898 69.1993 48.0448 69.1713 48.0925C69.1433 48.1402 69.1018 48.1786 69.0521 48.2029C69.0023 48.2272 68.9466 48.2363 68.8917 48.229C68.8368 48.2218 68.7853 48.1985 68.7436 48.1622L67.9528 47.469L66.9746 47.8502C66.9229 47.8701 66.8666 47.8744 66.8125 47.8624C66.7585 47.8505 66.7092 47.8228 66.6708 47.783C66.6323 47.7432 66.6065 47.6929 66.5965 47.6385C66.5865 47.5841 66.5928 47.5279 66.6145 47.477L67.027 46.504L66.3659 45.6833C66.3309 45.6403 66.3093 45.588 66.3039 45.5328C66.2984 45.4777 66.3094 45.4221 66.3354 45.3732C66.3614 45.3242 66.4013 45.2841 66.4501 45.2577C66.4988 45.2313 66.5543 45.2199 66.6095 45.225L67.6554 45.3174L68.2266 44.4292C68.2565 44.3825 68.2995 44.3458 68.3502 44.3236C68.4009 44.3013 68.457 44.2946 68.5116 44.3042C68.5661 44.3138 68.6166 44.3394 68.6566 44.3776C68.6967 44.4158 68.7245 44.4651 68.7366 44.5191L68.9708 45.5493L69.9849 45.8201C70.0385 45.8343 70.0867 45.864 70.1235 45.9054C70.1603 45.9469 70.184 45.9983 70.1917 46.0532C70.1994 46.108 70.1908 46.164 70.1668 46.214C70.1428 46.2639 70.1046 46.3057 70.057 46.3341L70.0561 46.3339Z" fill="#FF5D00"/>
<path d="M84.0972 48.8105L83.1956 49.3546L83.2506 50.4112C83.2536 50.4664 83.2403 50.5213 83.2123 50.5691C83.1843 50.6168 83.1428 50.6552 83.0931 50.6795C83.0434 50.7038 82.9876 50.7128 82.9327 50.7056C82.8778 50.6984 82.8263 50.6751 82.7846 50.6387L81.9938 49.9455L81.0156 50.3268C80.9639 50.3467 80.9076 50.3509 80.8535 50.339C80.7995 50.327 80.7502 50.2994 80.7118 50.2596C80.6734 50.2198 80.6475 50.1695 80.6375 50.1151C80.6275 50.0606 80.6338 50.0045 80.6555 49.9536L81.0681 48.9806L80.407 48.1598C80.3719 48.1169 80.3503 48.0646 80.3449 48.0094C80.3395 47.9542 80.3504 47.8987 80.3765 47.8497C80.4025 47.8008 80.4423 47.7606 80.4911 47.7343C80.5399 47.7079 80.5953 47.6965 80.6505 47.7015L81.6964 47.7939L82.2676 46.9057C82.2975 46.8591 82.3405 46.8224 82.3912 46.8001C82.4419 46.7779 82.4981 46.7712 82.5526 46.7808C82.6071 46.7904 82.6576 46.8159 82.6976 46.8542C82.7377 46.8924 82.7655 46.9416 82.7776 46.9957L83.0119 48.0259L84.0259 48.2967C84.0795 48.3109 84.1277 48.3405 84.1645 48.382C84.2013 48.4234 84.225 48.4748 84.2327 48.5297C84.2404 48.5846 84.2318 48.6405 84.2078 48.6905C84.1838 48.7405 84.1457 48.7823 84.098 48.8107L84.0972 48.8105Z" fill="#FF5D00"/>
<path d="M78.6387 44.4119L77.1813 45.2915L77.2702 46.9993C77.2751 47.0887 77.2536 47.1775 77.2083 47.2546C77.163 47.3317 77.096 47.3938 77.0156 47.4331C76.9352 47.4723 76.845 47.487 76.7564 47.4753C76.6677 47.4636 76.5844 47.426 76.517 47.3672L75.2387 46.2467L73.6574 46.863C73.5739 46.8952 73.4828 46.902 73.3954 46.8827C73.3081 46.8634 73.2284 46.8187 73.1663 46.7543C73.1042 46.69 73.0624 46.6087 73.0462 46.5207C73.0301 46.4327 73.0402 46.3419 73.0753 46.2597L73.7422 44.6869L72.6735 43.3601C72.6169 43.2907 72.582 43.2061 72.5732 43.117C72.5644 43.0278 72.5822 42.938 72.6242 42.8589C72.6663 42.7798 72.7307 42.7148 72.8096 42.6722C72.8884 42.6296 72.978 42.6112 73.0672 42.6193L74.7579 42.7687L75.6812 41.3329C75.7295 41.2576 75.799 41.1982 75.881 41.1622C75.963 41.1263 76.0537 41.1154 76.1419 41.1309C76.23 41.1465 76.3116 41.1878 76.3764 41.2496C76.4411 41.3114 76.4861 41.391 76.5057 41.4783L76.8843 43.1436L78.5235 43.5814C78.6101 43.6043 78.688 43.6522 78.7475 43.7192C78.807 43.7863 78.8454 43.8693 78.8578 43.9581C78.8703 44.0468 78.8562 44.1372 78.8175 44.218C78.7788 44.2988 78.717 44.3664 78.6401 44.4122L78.6387 44.4119Z" fill="#FF5D00"/>
<path d="M88.59 71.1894L89.7479 64.6223L86.4214 64.0357L86.9725 60.9099L90.2991 61.4965L91.0323 57.3383L94.3015 57.9147L91.3586 74.6049L89.6134 79.4717L86.1721 78.865L87.9747 74.0082L73.9801 71.5406L74.4807 68.7016L88.59 71.1894ZM86.007 68.398L82.3937 67.7609L81.21 59.2137L76.8302 66.7799L73.2169 66.1428L79.5125 55.4253L84.1008 56.2343L86.007 68.398Z" fill="#FF5D00"/>
<path d="M68.5766 72.0661L54.4674 69.5782L54.2803 70.6393L68.3895 73.1271L67.9445 75.6507L50.8528 72.637L51.9147 66.6148L66.024 69.1026L66.2111 68.0416L52.1018 65.5537L52.5316 63.1161L59.4715 64.3398L59.689 63.1067L51.4299 61.6504L51.8648 59.1842L71.5948 62.6631L71.1599 65.1293L62.9008 63.6731L62.6834 64.9062L69.6233 66.1299L68.5766 72.0661ZM64.8629 53.5516L71.7168 54.7601L71.2516 57.3985L67.0682 57.814L70.8622 59.6066L70.4173 62.1302L62.4109 58.2347L53.1535 59.0861L53.6288 56.3905L61.9315 55.7551L53.9879 54.3544L54.4531 51.7161L61.3069 52.9246L61.5851 51.3473L65.141 51.9744L64.8629 53.5516Z" fill="#FF5D00"/>
<path d="M63.8525 81.515L63.1914 80.6953L63.6045 79.7214C63.6262 79.6705 63.6325 79.6143 63.6225 79.5599C63.6125 79.5054 63.5866 79.4552 63.5482 79.4153C63.5098 79.3755 63.4605 79.3479 63.4065 79.3359C63.3524 79.324 63.2961 79.3282 63.2444 79.3481L62.2642 79.7291L61.4754 79.0362C61.4337 78.9998 61.3821 78.9766 61.3273 78.9693C61.2724 78.9621 61.2166 78.9712 61.1669 78.9954C61.1172 79.0197 61.0757 79.0581 61.0477 79.1059C61.0197 79.1536 61.0064 79.2085 61.0094 79.2638L61.0643 80.3192L60.1623 80.8643C60.1147 80.8927 60.0765 80.9345 60.0525 80.9845C60.0286 81.0344 60.0199 81.0904 60.0276 81.1453C60.0353 81.2002 60.059 81.2516 60.0958 81.293C60.1326 81.3345 60.1808 81.3641 60.2344 81.3783L61.2488 81.6492L61.4818 82.6792C61.494 82.7332 61.5218 82.7824 61.5618 82.8207C61.6019 82.8589 61.6524 82.8844 61.7069 82.8941C61.7614 82.9037 61.8176 82.8969 61.8683 82.8747C61.919 82.8525 61.962 82.8157 61.9919 82.7691L62.5643 81.8811L63.6098 81.9735C63.665 81.9785 63.7205 81.9671 63.7692 81.9407C63.818 81.9144 63.8579 81.8742 63.8839 81.8252C63.9099 81.7763 63.9209 81.7208 63.9155 81.6656C63.91 81.6104 63.8884 81.5581 63.8534 81.5152L63.8525 81.515Z" fill="#FF5D00"/>
<path d="M77.5928 83.9398L76.9316 83.1201L77.3447 82.1462C77.3665 82.0953 77.3727 82.0391 77.3627 81.9847C77.3527 81.9302 77.3269 81.88 77.2885 81.8401C77.25 81.8003 77.2007 81.7727 77.1467 81.7607C77.0927 81.7488 77.0363 81.753 76.9847 81.7729L76.0045 82.1539L75.2156 81.461C75.1739 81.4246 75.1224 81.4014 75.0675 81.3941C75.0127 81.3869 74.9569 81.396 74.9071 81.4203C74.8574 81.4445 74.816 81.4829 74.7879 81.5307C74.7599 81.5784 74.7466 81.6333 74.7496 81.6886L74.8045 82.744L73.9025 83.2891C73.8549 83.3175 73.8167 83.3593 73.7928 83.4093C73.7688 83.4592 73.7601 83.5152 73.7678 83.5701C73.7755 83.625 73.7993 83.6764 73.8361 83.7178C73.8729 83.7593 73.9211 83.7889 73.9747 83.8031L74.9891 84.074L75.2221 85.104C75.2342 85.158 75.262 85.2072 75.3021 85.2455C75.3421 85.2837 75.3926 85.3092 75.4471 85.3189C75.5017 85.3285 75.5578 85.3217 75.6085 85.2995C75.6592 85.2773 75.7022 85.2405 75.7321 85.1939L76.3045 84.3059L77.3501 84.3983C77.4053 84.4033 77.4607 84.3919 77.5095 84.3655C77.5582 84.3392 77.5981 84.299 77.6241 84.25C77.6501 84.2011 77.6611 84.1456 77.6557 84.0904C77.6503 84.0352 77.6287 83.9829 77.5936 83.94L77.5928 83.9398Z" fill="#FF5D00"/>
<path d="M71.1376 86.1542L70.0689 84.8292L70.7366 83.2548C70.7718 83.1726 70.7819 83.0818 70.7657 82.9938C70.7496 82.9058 70.7078 82.8245 70.6457 82.7601C70.5836 82.6958 70.5039 82.6511 70.4165 82.6318C70.3292 82.6125 70.2381 82.6193 70.1546 82.6515L68.5702 83.2673L67.295 82.1473C67.2276 82.0885 67.1443 82.0509 67.0556 82.0392C66.9669 82.0275 66.8768 82.0422 66.7964 82.0814C66.716 82.1207 66.649 82.1827 66.6037 82.2599C66.5584 82.337 66.5368 82.4258 66.5417 82.5151L66.6305 84.2212L65.1725 85.1024C65.0955 85.1482 65.0338 85.2158 64.995 85.2966C64.9563 85.3774 64.9423 85.4678 64.9547 85.5565C64.9672 85.6453 65.0055 85.7283 65.065 85.7953C65.1245 85.8624 65.2024 85.9103 65.289 85.9332L66.9288 86.371L67.3054 88.036C67.325 88.1234 67.37 88.2029 67.4348 88.2648C67.4995 88.3266 67.5811 88.3678 67.6692 88.3834C67.7574 88.3989 67.8482 88.388 67.9301 88.3521C68.0121 88.3162 68.0816 88.2568 68.1299 88.1814L69.0552 86.746L70.7453 86.8953C70.8345 86.9034 70.9242 86.885 71.003 86.8424C71.0818 86.7997 71.1463 86.7348 71.1883 86.6557C71.2303 86.5766 71.2481 86.4868 71.2393 86.3976C71.2306 86.3084 71.1956 86.2239 71.139 86.1544L71.1376 86.1542Z" fill="#FF5D00"/>
</g>
<path d="M46.0859 111.697L49.8842 112.367L49.5909 114.031L46.2932 115.294L48.9377 117.735L48.5835 119.744L44.4209 116L39.0405 118.061L39.3947 116.052L46.075 113.411L40.0479 112.348L40.3413 110.684L44.014 111.332L44.2437 110.029L46.3156 110.394L46.0859 111.697ZM42.5834 120.547L43.1258 117.471L44.9465 117.792L44.4041 120.868L48.893 121.66L48.572 123.48L37.7734 121.576L38.0944 119.755L42.5834 120.547ZM53.3641 121.412C53.2176 121.386 53.0715 121.42 52.9256 121.513C52.7921 121.597 52.7124 121.713 52.6865 121.859C52.6533 122.047 52.6841 122.209 52.7789 122.345C52.8842 122.482 53.0101 122.564 53.1566 122.589L58.3048 123.497C58.4408 123.521 58.566 123.484 58.6805 123.385C58.795 123.287 58.8688 123.143 58.902 122.955C58.9279 122.809 58.9029 122.675 58.8272 122.553C58.7533 122.422 58.6483 122.344 58.5123 122.32L53.3641 121.412ZM58.8029 120.672C59.0959 120.724 59.3621 120.835 59.6016 121.007C59.8515 121.18 60.0583 121.384 60.2221 121.618C60.3963 121.854 60.5179 122.113 60.5869 122.394C60.6663 122.678 60.6802 122.967 60.6285 123.26C60.5732 123.573 60.4578 123.861 60.2824 124.121C60.1194 124.373 59.9147 124.585 59.6686 124.757C59.4347 124.921 59.1716 125.036 58.8792 125.103C58.5955 125.183 58.3071 125.197 58.0142 125.145L52.866 124.237C52.5416 124.18 52.2545 124.065 52.0045 123.891C51.7632 123.73 51.5607 123.533 51.3969 123.299C51.235 123.054 51.1205 122.786 51.0534 122.494C50.9881 122.191 50.9831 121.882 51.0385 121.569C51.0901 121.276 51.1966 121.008 51.3578 120.767C51.519 120.526 51.7166 120.323 51.9505 120.16C52.1843 119.996 52.4431 119.874 52.7269 119.795C53.0211 119.717 53.3304 119.707 53.6547 119.764L58.8029 120.672ZM56.3312 112.662L57.7862 119.279L55.7458 118.919L54.8746 114.865L52.6851 118.379L50.6447 118.02L54.275 112.3L56.3312 112.662ZM62.2752 113.645L61.1322 120.128L59.2958 119.804L59.7967 116.963L57.9603 116.639L58.2482 115.007L60.0846 115.331L60.4388 113.322L62.2752 113.645ZM70.9818 123.887L67.262 123.232L66.6559 126.669L64.7096 126.326L65.3157 122.888L62.4748 122.387L62.7681 120.724L71.2752 122.224L72.4708 115.443L74.3229 115.77L72.2278 127.651L70.3757 127.325L70.9818 123.887ZM68.9826 121.366L67.0678 121.029L67.6399 119.252L63.8573 118.585L64.1147 117.126L68.1014 117.829L68.5305 116.496L64.1671 115.727L64.4549 114.095L70.7489 115.204L70.4638 116.821L68.9826 121.366ZM82.4985 118.927L76.3458 117.842L76.6392 116.178L86.1822 117.861L85.8888 119.525L82.4379 120.923L85.1914 123.48L84.8371 125.489L80.5915 121.665L75.2942 123.806L75.6484 121.797L82.4985 118.927ZM85.036 128.033L84.715 129.853L73.9163 127.949L74.2374 126.128L85.036 128.033Z" fill="#FF5D00"/>
</g>
<defs>
<filter id="filter0_d_894_30836" x="-1.42969" y="-1.30615" width="140.797" height="166.384" filterUnits="userSpaceOnUse" color-interpolation-filters="sRGB">
<feFlood flood-opacity="0" result="BackgroundImageFix"/>
<feColorMatrix in="SourceAlpha" type="matrix" values="0 0 0 0 0 0 0 0 0 0 0 0 0 0 0 0 0 0 127 0" result="hardAlpha"/>
<feOffset/>
<feGaussianBlur stdDeviation="2"/>
<feComposite in2="hardAlpha" operator="out"/>
<feColorMatrix type="matrix" values="0 0 0 0 0.5375 0 0 0 0 0.196029 0 0 0 0 0 0 0 0 0.35 0"/>
<feBlend mode="normal" in2="BackgroundImageFix" result="effect1_dropShadow_894_30836"/>
<feBlend mode="normal" in="SourceGraphic" in2="effect1_dropShadow_894_30836" result="shape"/>
</filter>
<clipPath id="clip0_894_30836">
<rect x="45.4141" y="26.8213" width="65.5194" height="65.5194" rx="32.7597" transform="rotate(10 45.4141 26.8213)" fill="white"/>
</clipPath>
</defs>
</svg>
