<svg width="80" height="120" viewBox="0 0 80 120" fill="none" xmlns="http://www.w3.org/2000/svg">
<g clip-path="url(#clip0_889_14555)">
<path d="M23.5641 63.327C22.0251 57.7614 19.0444 53.8424 15.0337 49.8489C11.2003 46.0328 8.43132 44.859 8.86712 38.6123C9.30068 32.3978 14.5863 29.7691 18.2226 25.7146C23.4918 19.8401 17.9272 15.0096 11.9154 13.8352C11.1028 13.6765 8.38881 13.0813 8.05755 14.0806C7.77066 14.9424 9.06377 14.2843 9.37245 14.2616C11.8175 14.08 16.1354 15.9112 17.8626 17.6778C22.6239 22.5476 15.6387 26.7238 12.5687 29.7916C9.24492 33.1134 7.5204 36.7535 8.02496 41.5723C8.51225 46.219 12.958 48.818 15.8779 51.9424" fill="#DBF2E8"/>
<path d="M34.9451 34.1669C34.6322 34.5735 34.0404 35.1515 33.6533 35.5031C33.315 35.8104 30.7311 37.9559 30.5371 38.004C30.1 38.1105 29.8178 38.2137 29.3807 38.3483C24.9984 39.7026 20.2658 39.1582 17.5581 35.1422C14.6034 30.7607 16.1331 25.9921 19.3899 22.3447C22.6098 18.7384 29.4219 16.0084 33.8282 18.9339C39.3515 22.6004 38.5906 29.4317 34.9451 34.1669Z" fill="#00A06A"/>
<path d="M48.9318 32.5249C49.0501 32.4501 48.9656 32.2885 48.9401 32.188C48.1143 28.9392 48.1228 26.0054 49.5365 22.9227C53.3583 14.5891 63.4734 15.6159 66.1896 24.2063C68.7255 32.2237 62.4193 42.8827 53.483 38.2331C53.373 38.1751 53.3155 38.0577 53.348 38.2848C53.222 37.8039 52.5006 36.4341 52.2288 35.9349C51.4183 34.4504 50.5118 33.249 48.9318 32.5249Z" fill="#00A06A"/>
<path d="M52.1399 53.981C52.296 54.0926 52.5014 54.3553 52.5575 54.5425C53.1547 56.5133 49.987 57.1674 49.9681 55.0978C49.9584 54.0386 51.2729 53.3644 52.14 53.9822L52.1399 53.981Z" fill="#414141"/>
<path d="M45.2155 44.7765C45.3398 44.7282 45.4356 44.7629 45.5557 44.7821C46.6628 44.969 47.1154 46.4983 46.1631 47.1788C45.0219 47.9949 44.2828 46.1241 44.8666 45.1617C44.9139 45.0844 45.1469 44.8031 45.2155 44.7765Z" fill="#414141"/>
<path d="M43.4295 50.2396C43.3964 50.1812 43.325 50.1163 43.0829 49.9264L43.0265 49.881C42.1902 49.208 41.3309 48.5382 40.4991 47.8905C39.3652 47.0066 38.192 46.0929 37.0623 45.1573C37.0373 45.1362 37.0099 45.1018 36.9824 45.065C36.8946 44.9514 36.7303 44.7414 36.4283 44.8708C36.321 44.9165 36.2475 45.0168 36.2264 45.1433C36.1988 45.3095 36.2592 45.5037 36.3796 45.6133C36.9419 46.0649 37.4993 46.5461 38.0371 47.0107C38.559 47.462 39.098 47.9277 39.6447 48.3683C39.7535 48.4557 39.8644 48.5528 39.9724 48.6464C40.0964 48.7545 40.2125 48.856 40.3277 48.9466C40.3525 48.9653 42.8247 50.881 43.1126 50.8604L43.1163 50.8601C43.2485 50.849 43.3676 50.768 43.4341 50.6426C43.5027 50.5146 43.501 50.3631 43.4307 50.2394L43.4295 50.2396Z" fill="#A1E7CA"/>
<path d="M50.8233 44.1084C52.2645 43.7487 52.4009 46.4588 51.0225 46.3156C50.0411 46.2136 49.9878 44.3169 50.8233 44.1084Z" fill="#414141"/>
<path fill-rule="evenodd" clip-rule="evenodd" d="M52.2295 35.9333C51.419 34.4488 50.5125 33.2474 48.9325 32.5233L48.9338 32.5244C45.669 32.7037 42.4489 33.1599 39.2247 33.6167C38.0316 33.7857 36.8378 33.9549 35.641 34.1101C35.573 34.1191 35.5047 34.1409 35.4357 34.1629C35.2782 34.2132 35.117 34.2647 34.9457 34.1686C34.6328 34.5751 34.0423 35.153 33.6539 35.5048C33.3156 35.812 30.7318 37.9588 30.5378 38.0057C31.2345 39.4807 32.349 40.7843 33.415 42.0311C33.4912 42.1202 33.5671 42.209 33.6426 42.2975C34.0724 42.8018 34.53 43.2866 34.9871 43.7665L35.0236 43.9101C34.7731 44.3005 34.5113 44.6831 34.2496 45.0656C33.9143 45.5558 33.5789 46.0459 33.2673 46.5521C28.6085 54.1174 26.7258 63.1143 27.8633 71.9549L27.8454 71.9559C27.6477 71.9665 27.4608 71.9766 27.2689 72.0367C27.2291 72.049 27.1869 72.0641 27.1426 72.0817L27.189 72.6334C27.3292 72.5543 27.4693 72.4746 27.6094 72.3944C27.9752 72.3622 27.9884 72.5752 28.0031 72.8138C28.013 72.9732 28.0236 73.144 28.1406 73.2606C28.4327 73.5514 30.5074 73.8219 31.0076 73.869C35.2191 74.2617 42.279 74.0552 46.1381 72.3659C46.165 72.3543 46.1935 72.3428 46.2228 72.331C46.4101 72.2556 46.6277 72.168 46.6495 71.9378C46.6663 71.7613 46.6534 71.5401 46.6405 71.3177C46.6289 71.1193 46.6172 70.9198 46.6266 70.7501C46.8681 66.2573 46.7772 62.5922 46.2852 58.1098C46.248 57.7722 46.2128 57.4342 46.1776 57.0961C46.0115 55.5007 45.8453 53.9044 45.47 52.3439C45.5519 52.3148 45.5867 52.3471 45.6268 52.3844C45.642 52.3984 45.6578 52.4131 45.6773 52.4255C45.9126 52.5776 46.1487 52.7787 46.3819 52.9772C46.5535 53.1233 46.7234 53.268 46.8902 53.3908C47.806 54.0645 48.8536 54.8224 49.9668 55.0967C49.9571 54.0375 51.2716 53.3632 52.1388 53.9811C53.1753 51.9498 53.6149 49.4773 53.7559 47.2024C53.9134 44.6448 53.8005 41.7053 53.4217 39.1794C53.4038 39.0609 53.3999 38.9238 53.396 38.7863C53.3908 38.6058 53.3856 38.4245 53.3488 38.2832C53.224 37.8022 52.5013 36.4325 52.2295 35.9333ZM36.4919 45.4702C36.3913 45.3784 36.3486 45.1032 36.4995 45.0379L36.4996 45.0391C36.6727 44.9651 36.7538 45.0697 36.8379 45.1784C36.8713 45.2215 36.9052 45.2653 36.9456 45.2987C38.074 46.2336 39.2261 47.1313 40.3774 48.0282C41.2257 48.6892 42.0736 49.3498 42.9112 50.0247C42.9243 50.0352 42.9426 50.0495 42.9641 50.0664C43.0677 50.1477 43.2457 50.2872 43.2706 50.3307C43.3567 50.4824 43.2452 50.6678 43.0971 50.6791C42.9342 50.6903 40.7412 49.0422 40.4376 48.8036C40.3265 48.7162 40.2099 48.6144 40.0907 48.5102C39.981 48.4143 39.869 48.3165 39.7571 48.2263C39.2127 47.7872 38.6829 47.3292 38.153 46.8712C37.6047 46.3972 37.0565 45.9232 36.4919 45.4702ZM50.824 44.1088C49.9885 44.3173 50.043 46.2139 51.0232 46.316C52.4016 46.4592 52.264 43.7492 50.824 44.1088ZM44.8656 45.1616C44.9129 45.0843 45.147 44.803 45.2145 44.7765C45.3184 44.7363 45.4011 44.7525 45.4949 44.7709C45.5142 44.7747 45.5341 44.7786 45.5547 44.7821C46.6618 44.9689 47.1143 46.4983 46.1621 47.1787C45.0209 47.9949 44.2817 46.1241 44.8656 45.1616Z" fill="#DBF2E8"/>
<path d="M48.7609 56.9118C53.6801 56.7893 58.6368 56.6236 63.5583 56.3994C64.7234 56.3464 66.2973 56.1752 67.4051 56.2647C69.1543 56.4049 68.6462 57.0422 68.7465 58.3862C68.9857 61.6176 69.0121 66.1765 68.7288 69.4068C68.6781 69.9866 68.6859 70.6702 68.0344 70.7585C67.2496 70.8657 67.0391 70.4283 66.8639 71.2544C65.4211 78.0507 65.8069 86.3623 64.8865 93.4038C64.4026 97.1056 63.1042 100.626 62.3811 104.24C62.0945 105.673 62.056 107.153 61.7958 108.53C61.7231 108.916 61.6206 109.46 61.2205 109.622C52.4688 110.504 43.6256 109.787 34.8584 110.045C32.0114 109.637 28.87 109.806 26.0594 109.363C22.4429 108.792 21.5942 105.199 20.6452 102.083C18.6733 95.6158 16.8359 88.7687 15.1087 82.2209C14.4 79.535 13.7926 76.8193 13.1379 74.1214C12.1746 74.1468 11.0745 74.192 10.8089 73.0534C10.465 70.8303 9.86648 68.6425 9.47629 66.4327C9.31536 65.5205 8.84473 63.1803 8.94834 62.3951C8.977 62.1753 9.6251 60.9991 9.81358 60.8213C10.8089 59.8815 16.3619 59.0069 17.9756 58.7319C21.4079 58.1454 24.9185 57.6573 28.395 57.4276C35.1737 56.9792 41.9711 57.0841 48.7631 56.9141L48.7609 56.9118ZM58.5961 69.7712C58.4616 69.5349 57.8013 69.473 57.5335 69.4797C52.0477 69.6199 46.1475 70.4913 40.6253 70.8977C36.708 71.1859 32.7565 71.2157 28.8425 71.5415C26.5785 71.7304 24.32 72.1633 22.0505 72.3091C21.2702 72.3599 18.5014 71.9314 18.5322 73.0203C18.5554 73.8386 19.5959 73.4687 19.9971 73.4598C23.0492 73.398 25.7232 73.0335 28.7146 72.8248C38.0549 72.1721 47.4536 71.8508 56.7663 70.8977C57.0849 70.8657 58.2235 70.7784 58.369 70.7066C58.6335 70.5774 58.7272 70.002 58.595 69.7701L58.5961 69.7712Z" fill="#3F3F3F"/>
<path d="M58.5982 69.7714C58.7293 70.0022 58.6367 70.5787 58.3722 70.7079C58.2256 70.7786 57.087 70.8658 56.7696 70.899C47.4568 71.852 38.0581 72.1734 28.7178 72.8261C25.7264 73.0348 23.0535 73.3982 20.0003 73.4611C19.6002 73.4689 18.5597 73.8388 18.5354 73.0216C18.5035 71.9327 21.2734 72.3612 22.0537 72.3104C24.3232 72.1646 26.5817 71.7317 28.8457 71.5428C32.7597 71.217 36.7112 71.1872 40.6285 70.899C46.1507 70.4926 52.0509 69.6212 57.5367 69.4809C57.8045 69.4743 58.4648 69.5351 58.5993 69.7725L58.5982 69.7714Z" fill="#2A2A2A"/>
<path d="M32.4868 86.3193V89.7461H30.0483V91.7227C31.0957 91.7173 32.0947 91.6797 33.2817 91.4648L33.3676 92.3027C32.0356 92.5391 30.9399 92.5713 29.726 92.582H29.06V88.9297H31.5092V87.1465H29.0493V86.3193H32.4868ZM37.02 85.2881V94.9131H36.0424V85.2881H37.02ZM35.0434 85.5029V94.4189H34.0766V89.5205H32.9379V88.6934H34.0766V85.5029H35.0434ZM46.0718 85.2881V94.9346H45.0513V85.2881H46.0718ZM43.3218 86.1797V87.0283H39.7446V91.7012C41.5708 91.6958 42.7363 91.6475 44.0952 91.4004L44.2026 92.249C42.7632 92.5068 41.5063 92.5713 39.5083 92.5713H38.7134V86.1797H43.3218ZM51.1704 86.9209C51.1597 87.834 52.0191 88.5859 53.4585 88.833L53.0503 89.6602C51.8902 89.4292 51.0577 88.8867 50.6333 88.1348C50.2198 88.9404 49.3711 89.5581 48.1734 89.8105L47.7652 88.9941C49.2154 88.6826 50.0747 87.8447 50.0747 86.9209V86.7812H48.0337V85.9541H53.2115V86.7812H51.1704V86.9209ZM55.4458 85.2988V94.9131H54.4361V85.2988H55.4458ZM47.4322 90.4873C49.2583 90.4873 51.6753 90.4766 53.7701 90.1865L53.8453 90.9385C52.9644 91.0889 52.0567 91.1802 51.1704 91.2393V94.6123H50.1499V91.293C49.2261 91.3306 48.3453 91.3359 47.5718 91.3359L47.4322 90.4873Z" fill="#D9D9D9"/>
</g>
<defs>
<clipPath id="clip0_889_14555">
<rect width="80" height="120" fill="white"/>
</clipPath>
</defs>
</svg>
