<svg width="447" height="322" viewBox="0 0 447 322" fill="none" xmlns="http://www.w3.org/2000/svg">
<g filter="url(#filter0_d_889_14756)">
<rect x="104.17" y="243.622" width="280" height="52" rx="12" transform="rotate(3.99979 104.17 243.622)" fill="white" shape-rendering="crispEdges"/>
<path d="M184.422 268.562L183.699 278.896L181.969 278.775L182.301 274.036L179.588 273.847L179.689 272.413L182.401 272.602L182.692 268.441L184.422 268.562ZM179.999 269.318C179.74 273.027 177.082 275.645 172.923 276.654L172.288 275.216C175.395 274.462 177.523 272.81 178.014 270.604L173.369 270.279L173.468 268.861L179.999 269.318ZM183.914 280.978L183.816 282.381L174.277 281.714L174.592 277.21L176.353 277.333L176.136 280.435L183.914 280.978ZM197.532 269.463L197.292 272.892L199.256 273.029L199.157 274.448L197.193 274.31L196.954 277.724L195.224 277.603L195.802 269.342L197.532 269.463ZM193.567 270.157C193.308 273.866 190.709 276.316 186.464 277.21L185.877 275.759C189.133 275.109 191.147 273.519 191.599 271.429L186.845 271.096L186.943 269.693L193.567 270.157ZM192.391 277.577C195.243 277.776 197.022 278.997 196.901 280.727C196.778 282.489 194.849 283.419 191.996 283.219C189.159 283.021 187.347 281.829 187.486 280.069C187.592 278.338 189.554 277.379 192.391 277.577ZM192.296 278.933C190.441 278.803 189.251 279.253 189.201 280.189C189.121 281.107 190.236 281.734 192.091 281.863C193.946 281.993 195.137 281.528 195.202 280.609C195.267 279.673 194.151 279.063 192.296 278.933ZM205.325 272.028C205.195 273.883 206.227 275.709 208.422 276.568L207.469 277.879C205.878 277.22 204.792 276.071 204.265 274.648C203.514 276.084 202.255 277.178 200.547 277.63L199.769 276.213C202.1 275.593 203.398 273.82 203.532 271.903L203.626 270.562L205.419 270.688L205.325 272.028ZM211.315 279.542L210.964 284.561L209.219 284.439L209.473 280.808L201.601 280.257L201.698 278.87L211.315 279.542ZM211.95 270.471L211.36 278.903L209.614 278.781L210.204 270.349L211.95 270.471ZM223.658 272.824L223.402 276.487L225.038 276.602L225.384 271.661L227.036 271.776L226.116 284.932L224.464 284.816L224.94 278.005L223.303 277.89L223.033 281.756L217.5 281.369L218.124 272.438L223.658 272.824ZM219.649 273.923L219.217 280.111L221.508 280.271L221.941 274.083L219.649 273.923ZM229.953 271.73L228.967 285.82L227.299 285.704L228.285 271.613L229.953 271.73ZM242.649 277.191L242.551 278.594L232.763 277.909L233.132 272.625L234.862 272.746L234.591 276.628L242.649 277.191ZM243.895 280.427L243.797 281.829L240.711 281.614L240.361 286.617L238.616 286.495L238.965 281.491L235.786 281.269L235.436 286.273L233.706 286.152L234.056 281.148L230.954 280.931L231.052 279.528L243.895 280.427ZM260.971 273.899L260.385 282.269L258.655 282.148L258.896 278.703L256.496 278.535L256.595 277.117L258.995 277.285L259.24 273.778L260.971 273.899ZM255.591 282.294C258.583 282.503 260.338 283.612 260.22 285.311C260.101 287.01 258.208 287.865 255.216 287.656C252.239 287.447 250.484 286.338 250.618 284.64C250.721 282.94 252.613 282.086 255.591 282.294ZM255.498 283.619C253.534 283.481 252.395 283.872 252.333 284.76C252.271 285.633 253.345 286.178 255.309 286.315C257.273 286.452 258.428 286.063 258.489 285.19C258.551 284.302 257.462 283.756 255.498 283.619ZM254.177 275.851C254.057 277.566 255.074 279.376 257.205 280.261L256.236 281.571C254.707 280.932 253.668 279.778 253.152 278.411C252.424 279.872 251.163 280.99 249.445 281.472L248.637 280.038C250.952 279.416 252.285 277.599 252.415 275.744L252.422 275.635L249.492 275.43L249.59 274.027L257.197 274.559L257.098 275.962L254.184 275.758L254.177 275.851ZM275.073 285.911L274.974 287.33L262.099 286.43L262.198 285.011L267.747 285.399L267.939 282.656L263.809 282.367L264.319 275.072L266.049 275.193L265.888 277.5L272.418 277.957L272.58 275.65L274.31 275.771L273.8 283.066L269.654 282.776L269.462 285.519L275.073 285.911ZM265.637 281.085L272.168 281.542L272.321 279.344L265.791 278.888L265.637 281.085ZM287.906 277.113L287.253 286.45L280.55 285.981L281.203 276.645L287.906 277.113ZM282.823 278.121L282.362 284.714L285.666 284.945L286.127 278.352L282.823 278.121ZM292.269 276.087L291.283 290.193L289.537 290.071L290.523 275.965L292.269 276.087ZM306.064 277.052L305.077 291.158L303.331 291.036L304.318 276.93L306.064 277.052ZM296.74 277.559L296.494 281.081L299.907 281.32L300.153 277.797L301.868 277.917L301.194 287.55L294.336 287.07L295.01 277.438L296.74 277.559ZM296.165 285.773L299.579 286.012L299.812 282.676L296.399 282.437L296.165 285.773ZM310.937 278.818L310.208 286.771L308.447 286.647L308.817 278.669L310.937 278.818ZM309.094 290.154C308.424 290.107 307.917 289.524 307.964 288.853C308.01 288.199 308.593 287.691 309.263 287.738C309.902 287.783 310.425 288.368 310.38 289.022C310.333 289.693 309.734 290.199 309.094 290.154Z" fill="#404040"/>
</g>
<g filter="url(#filter1_d_889_14756)">
<rect x="6.87305" y="211.188" width="280" height="52" rx="12" transform="rotate(-2.10584 6.87305 211.188)" fill="white" shape-rendering="crispEdges"/>
<path d="M67.3477 230.26C67.416 232.119 68.6358 233.825 70.9101 234.445L70.1018 235.851C68.45 235.364 67.2474 234.337 66.572 232.978C65.9786 234.485 64.843 235.708 63.1932 236.339L62.2689 235.013C64.5199 234.148 65.6226 232.247 65.552 230.326L65.5026 228.984L67.2983 228.918L67.3477 230.26ZM74.1034 237.095L74.2882 242.123L72.5394 242.187L72.4056 238.549L64.5204 238.839L64.4693 237.449L74.1034 237.095ZM73.7692 228.007L74.0798 236.455L72.331 236.519L72.0204 228.072L73.7692 228.007ZM86.979 227.522L87.1065 230.988L89.0583 230.916L89.1105 232.337L87.1587 232.409L87.2822 235.766L85.5334 235.83L85.2302 227.586L86.979 227.522ZM82.6857 236.201C85.5744 236.095 87.4391 237.058 87.5191 238.806C87.5689 240.587 85.7799 241.685 82.8912 241.791C79.9713 241.898 78.0753 240.936 78.0099 239.156C77.9456 237.407 79.7658 236.308 82.6857 236.201ZM82.7368 237.591C80.8006 237.662 79.6785 238.188 79.7274 239.093C79.7457 240.015 80.9039 240.472 82.8401 240.401C84.7451 240.331 85.8666 239.79 85.8327 238.868C85.7994 237.963 84.6417 237.52 82.7368 237.591ZM82.7374 228.678L82.7891 230.084L78.1828 230.253L78.3132 233.797C81.0142 233.69 82.5181 233.557 84.1681 233.144L84.391 234.528C82.5784 234.985 80.91 235.109 77.7871 235.224L76.6472 235.266L76.4136 228.911L82.7374 228.678ZM101.828 226.976L102.347 241.091L100.677 241.152L100.158 227.037L101.828 226.976ZM98.9333 227.332L99.4179 240.511L97.7627 240.572L97.5158 233.857L96.173 233.907C96.1101 236.661 94.9938 238.406 93.2444 238.455C91.4025 238.538 90.1284 236.631 90.0141 233.524C89.8999 230.416 91.0316 228.451 92.8741 228.384C94.5839 228.321 95.8057 229.871 96.1057 232.502L97.4642 232.452L97.2781 227.393L98.9333 227.332ZM92.9344 230.023C92.0438 230.04 91.5258 231.263 91.6224 233.464C91.6878 235.667 92.2941 236.848 93.1835 236.8C94.121 236.781 94.6389 235.558 94.5579 233.356C94.477 231.155 93.8706 229.973 92.9344 230.023ZM108.808 230.112C108.904 232.735 110.248 235.266 112.533 236.167L111.538 237.595C109.908 236.873 108.729 235.415 108.06 233.595C107.515 235.561 106.427 237.22 104.833 238.107L103.689 236.742C105.944 235.58 107.125 232.816 107.043 230.177L106.961 227.928L108.725 227.863L108.808 230.112ZM115.304 226.48L115.823 240.611L114.106 240.674L113.805 232.508L110.839 232.617L110.787 231.212L113.754 231.103L113.586 226.543L115.304 226.48ZM132.902 225.849L133.282 236.201L131.549 236.265L131.375 231.518L128.658 231.618L128.605 230.181L131.322 230.081L131.168 225.912L132.902 225.849ZM128.584 227.071C128.721 230.787 126.357 233.673 122.329 235.118L121.544 233.756C124.553 232.676 126.494 230.806 126.747 228.561L122.094 228.732L122.042 227.311L128.584 227.071ZM133.717 238.249L133.769 239.654L124.213 240.006L124.047 235.493L125.811 235.428L125.926 238.535L133.717 238.249ZM146.033 225.35L146.159 228.785L148.127 228.713L148.179 230.134L146.211 230.206L146.337 233.626L144.604 233.69L144.3 225.414L146.033 225.35ZM142.165 226.462C142.302 230.178 139.978 232.89 135.852 234.23L135.114 232.85C138.282 231.858 140.116 230.063 140.343 227.936L135.58 228.111L135.529 226.706L142.165 226.462ZM141.784 233.965C144.642 233.86 146.54 234.885 146.604 236.618C146.668 238.382 144.849 239.513 141.992 239.618C139.15 239.722 137.222 238.73 137.172 236.965C137.093 235.232 138.942 234.07 141.784 233.965ZM141.834 235.324C139.976 235.392 138.84 235.965 138.89 236.902C138.908 237.824 140.084 238.328 141.942 238.259C143.8 238.191 144.935 237.602 144.902 236.681C144.867 235.744 143.692 235.255 141.834 235.324ZM154.055 227.072C154.123 228.93 155.343 230.637 157.617 231.257L156.809 232.662C155.157 232.176 153.954 231.149 153.279 229.79C152.686 231.297 151.55 232.519 149.9 233.151L148.976 231.825C151.227 230.96 152.33 229.059 152.259 227.138L152.21 225.795L154.005 225.729L154.055 227.072ZM160.81 233.907L160.995 238.935L159.246 238.999L159.113 235.361L151.227 235.651L151.176 234.261L160.81 233.907ZM160.476 224.819L160.787 233.266L159.038 233.331L158.727 224.883L160.476 224.819ZM178.48 224.157L178.999 238.273L177.344 238.333L176.825 224.218L178.48 224.157ZM175.616 224.528L176.1 237.691L174.461 237.751L174.2 230.647L172.17 230.722L172.118 229.316L174.148 229.242L173.977 224.588L175.616 224.528ZM170.83 228.3C170.918 230.689 171.864 233.047 173.921 234.128L172.938 235.446C171.605 234.714 170.689 233.403 170.146 231.812C169.71 233.572 168.867 235.088 167.563 235.972L166.453 234.716C168.453 233.407 169.249 230.813 169.159 228.362L169.125 227.425L166.673 227.515L166.622 226.11L173.023 225.874L173.075 227.28L170.795 227.363L170.83 228.3ZM186.83 232.684C189.891 232.587 191.863 233.484 191.94 235.154C191.984 236.794 190.084 237.849 187.024 237.962C183.979 238.074 181.991 237.162 181.931 235.522C181.869 233.852 183.786 232.812 186.83 232.684ZM186.878 233.996C184.848 234.07 183.633 234.6 183.68 235.458C183.695 236.286 184.945 236.694 186.975 236.619C189.02 236.544 190.237 236.046 190.222 235.217C190.175 234.359 188.924 233.921 186.878 233.996ZM191.449 224.353L191.492 225.524C191.533 226.632 191.576 227.819 191.239 229.285L189.516 229.192C189.817 227.805 189.804 226.813 189.766 225.79L181.725 226.086L181.674 224.712L191.449 224.353ZM193.221 230.026L193.273 231.431L180.469 231.902L180.417 230.496L185.382 230.314L185.288 227.753L187.006 227.69L187.1 230.251L193.221 230.026ZM210.947 231.188L210.998 232.562L205.377 232.768L205.543 237.296L203.826 237.36L203.659 232.831L198.1 233.036L198.05 231.662L210.947 231.188ZM201.048 223.89L201.111 225.623L207.42 225.391L207.356 223.658L209.105 223.594L209.332 229.777L199.557 230.137L199.33 223.953L201.048 223.89ZM201.223 228.668L207.532 228.436L207.47 226.765L201.162 226.997L201.223 228.668ZM223.313 223.056L223.364 224.43L219.288 224.58C219.543 225.774 221.317 226.811 224.005 226.986L223.415 228.368C220.867 228.188 218.933 227.235 218.115 225.827C217.402 227.291 215.566 228.383 213.031 228.75L212.372 227.414C215.009 227.043 216.678 225.872 216.868 224.669L212.824 224.817L212.774 223.443L223.313 223.056ZM224.704 229.415L224.755 230.805L211.889 231.278L211.838 229.888L217.397 229.684L217.325 227.732L219.042 227.669L219.114 229.621L224.704 229.415ZM223.22 232.003L223.391 236.64L221.657 236.704L221.538 233.456L213.403 233.755L213.352 232.366L223.22 232.003ZM228.131 231.603C228.073 229.62 228.613 228.99 229.574 228.345C230.23 227.899 230.71 227.349 230.682 226.569C230.65 225.694 229.957 225.157 229.099 225.188C228.318 225.217 227.587 225.744 227.578 226.792L225.627 226.864C225.597 224.77 227.134 223.635 229.055 223.564C231.163 223.486 232.658 224.604 232.726 226.462C232.773 227.727 232.163 228.578 231.17 229.224C230.285 229.804 229.93 230.364 229.957 231.536L229.963 231.677L228.136 231.744L228.131 231.603ZM229.231 235.159C228.559 235.184 227.993 234.657 227.968 233.986C227.944 233.33 228.47 232.763 229.142 232.739C229.782 232.715 230.364 233.241 230.388 233.897C230.413 234.568 229.871 235.135 229.231 235.159Z" fill="#404040"/>
</g>
<g filter="url(#filter2_d_889_14756)">
<rect x="110.023" y="148.662" width="280" height="52" rx="12" transform="rotate(6.46416 110.023 148.662)" fill="white" shape-rendering="crispEdges"/>
<path d="M169.089 174.743L167.498 188.778L165.853 188.592L167.443 174.556L169.089 174.743ZM166.202 174.683L164.719 187.771L163.089 187.587L163.889 180.522L161.871 180.294L162.029 178.896L164.048 179.125L164.572 174.498L166.202 174.683ZM160.907 177.7C160.638 180.075 161.222 182.548 163.095 183.923L161.926 185.08C160.718 184.157 160.007 182.724 159.707 181.071C159.014 182.745 157.954 184.119 156.533 184.799L155.623 183.391C157.796 182.395 158.969 179.949 159.246 177.512L159.351 176.58L156.914 176.304L157.072 174.907L163.437 175.628L163.279 177.025L161.012 176.768L160.907 177.7ZM181.818 176.201L181.318 180.61L183.275 180.832L183.113 182.26L181.157 182.038L180.631 186.681L178.907 186.485L180.095 176.006L181.818 176.201ZM178.91 177.444L178.753 178.826L170.431 177.883L170.588 176.501L173.895 176.876L174.072 175.308L175.796 175.503L175.618 177.071L178.91 177.444ZM174.527 178.929C176.545 179.157 177.821 180.387 177.654 182.003C177.457 183.601 175.94 184.498 173.922 184.269C171.888 184.039 170.595 182.823 170.776 181.224C170.959 179.609 172.493 178.698 174.527 178.929ZM174.376 180.264C173.304 180.142 172.549 180.56 172.453 181.414C172.358 182.252 173 182.828 174.073 182.934C175.143 183.071 175.913 182.655 176.008 181.817C176.105 180.963 175.447 180.385 174.376 180.264ZM180.978 188.607L180.82 190.004L171.272 188.923L171.734 184.839L173.458 185.035L173.153 187.72L180.978 188.607ZM189.372 179.478C189.178 181.186 190.117 183.038 192.207 184.014L191.187 185.251C189.677 184.561 188.687 183.371 188.223 181.99C187.443 183.388 186.137 184.435 184.413 184.798L183.683 183.331C186.002 182.855 187.408 181.127 187.616 179.295L187.637 179.109L184.718 178.778L184.875 177.396L192.451 178.255L192.295 179.637L189.391 179.308L189.372 179.478ZM195.219 186.855L194.653 191.855L192.929 191.659L193.339 188.042L185.499 187.154L185.655 185.772L195.219 186.855ZM196.243 177.819L195.295 186.188L193.572 185.993L193.966 182.515L191.575 182.244L191.735 180.831L194.126 181.102L194.52 177.624L196.243 177.819ZM209.919 179.385L208.771 189.523L207.032 189.326L208.181 179.188L209.919 179.385ZM208.909 191.772L208.751 193.169L199.078 192.073L199.602 187.446L201.341 187.643L200.975 190.873L208.909 191.772ZM202.161 179.434C204.288 179.675 205.767 181.336 205.537 183.37C205.301 185.45 203.492 186.708 201.365 186.467C199.222 186.224 197.74 184.594 197.976 182.513C198.206 180.479 200.019 179.191 202.161 179.434ZM201.991 180.94C200.795 180.804 199.79 181.492 199.668 182.705C199.512 183.945 200.34 184.825 201.535 184.961C202.7 185.093 203.704 184.42 203.844 183.178C203.982 181.967 203.155 181.071 201.991 180.94ZM220.194 181.414C222.414 181.665 223.886 183.247 223.676 185.236C223.465 186.966 222.102 188.093 220.305 188.204L220.073 190.253C221.33 190.333 222.607 190.367 223.822 190.332L223.821 191.59C220.603 191.823 217.23 191.472 214.761 191.192L214.704 189.755C215.775 189.876 217.025 190.018 218.342 190.12L218.582 188.009C216.854 187.506 215.764 186.093 215.96 184.362C216.185 182.375 217.989 181.164 220.194 181.414ZM220.025 182.904C218.798 182.765 217.801 183.376 217.668 184.556C217.536 185.72 218.367 186.569 219.594 186.708C220.836 186.849 221.852 186.209 221.984 185.045C222.118 183.865 221.267 183.045 220.025 182.904ZM227.434 181.354L225.842 195.404L224.119 195.209L225.711 181.158L227.434 181.354ZM234.489 184.181C234.279 186.029 235.231 187.898 237.388 188.85L236.379 190.119C234.818 189.392 233.782 188.198 233.317 186.753C232.505 188.155 231.2 189.195 229.475 189.573L228.758 188.124C231.113 187.604 232.487 185.889 232.703 183.979L232.855 182.644L234.64 182.846L234.489 184.181ZM240.151 191.946L239.584 196.945L237.845 196.748L238.255 193.131L230.415 192.243L230.571 190.861L240.151 191.946ZM241.174 182.91L240.223 191.31L238.484 191.113L239.435 182.713L241.174 182.91ZM258.113 184.829L257.58 189.534L259.474 189.748L259.312 191.177L257.418 190.962L256.871 195.791L255.148 195.595L256.389 184.634L258.113 184.829ZM257.209 197.244L257.051 198.641L247.332 197.54L247.731 194.016L249.455 194.211L249.214 196.338L257.209 197.244ZM245.949 191.707C246.997 191.826 248.216 191.956 249.496 192.046L249.596 191.161C248.057 190.798 247.158 189.918 247.285 188.792C247.442 187.41 248.884 186.756 250.916 187.002C252.967 187.218 254.211 188.177 254.055 189.559C253.928 190.677 252.879 191.328 251.319 191.356L251.228 192.163C252.43 192.237 253.646 192.264 254.791 192.221L254.793 193.448C251.765 193.671 248.407 193.322 245.982 193.079L245.949 191.707ZM255.148 185.736L255.006 186.993L246.948 186.08L247.09 184.823L250.273 185.183L250.417 183.91L252.141 184.106L251.996 185.379L255.148 185.736ZM250.784 188.166C249.698 188.043 249.005 188.326 248.947 188.98C248.862 189.584 249.474 190.015 250.561 190.138C251.648 190.261 252.34 189.978 252.409 189.372C252.483 188.72 251.871 188.289 250.784 188.166ZM272.488 186.474L271.559 194.671L269.836 194.476L270.012 192.924L266.674 192.545L266.832 191.148L270.17 191.526L270.341 190.02L267.142 189.658C265.996 191.793 263.778 193.122 260.623 193.621L260.08 192.176C263.464 191.655 265.399 190.192 265.915 188.135L261.351 187.618L261.509 186.221L267.952 186.951C267.897 187.44 267.805 187.901 267.67 188.334L270.495 188.654L270.764 186.279L272.488 186.474ZM266.899 194.301C269.74 194.623 271.513 195.909 271.318 197.632C271.123 199.355 269.107 200.212 266.266 199.89C263.394 199.565 261.621 198.279 261.816 196.555C262.011 194.832 264.027 193.975 266.899 194.301ZM266.746 195.651C264.852 195.437 263.645 195.819 263.54 196.751C263.436 197.667 264.527 198.309 266.421 198.524C268.268 198.733 269.491 198.353 269.595 197.437C269.7 196.505 268.594 195.861 266.746 195.651ZM286.587 188.056L284.997 202.091L283.335 201.903L284.926 187.867L286.587 188.056ZM283.671 187.977L282.186 201.081L280.541 200.894L281.297 194.218L279.962 194.067C279.489 196.781 278.125 198.34 276.388 198.128C274.554 197.936 273.579 195.86 273.929 192.77C274.279 189.68 275.691 187.906 277.523 188.114C279.223 188.306 280.2 190.021 280.105 192.668L281.455 192.821L282.025 187.79L283.671 187.977ZM277.338 189.744C276.455 189.628 275.76 190.76 275.528 192.951C275.264 195.138 275.688 196.397 276.575 196.482C277.504 196.603 278.199 195.471 278.447 193.282C278.695 191.093 278.271 189.834 277.338 189.744ZM295.334 189.267L295.209 190.369L301.264 191.055L301.389 189.953L303.097 190.146L302.568 194.82L293.097 193.747L293.626 189.073L295.334 189.267ZM294.951 192.651L301.006 193.338L301.122 192.313L295.067 191.627L294.951 192.651ZM304.13 195.877L303.97 197.29L298.412 196.66L298.294 197.701L302.253 198.149L301.868 201.549L293.888 200.645L293.777 201.623L302.145 202.571L301.996 203.891L291.935 202.751L292.333 199.242L300.313 200.147L300.417 199.231L292.421 198.325L292.565 197.051L296.571 197.505L296.689 196.465L291.177 195.841L291.337 194.428L304.13 195.877ZM317.483 191.556L316.308 201.927L314.585 201.732L315 198.068L313.012 197.843L313.174 196.415L315.162 196.64L315.313 195.304L313.325 195.079L313.484 193.682L315.471 193.907L315.76 191.361L317.483 191.556ZM313.451 192.169L313.294 193.55L312.052 193.41L311.546 197.881C312.077 197.91 312.594 197.929 313.097 197.931L313.032 199.197C310.328 199.331 307.202 199.024 304.966 198.771L304.942 197.322L306.527 197.485L307.053 192.843L305.826 192.704L305.983 191.323L313.451 192.169ZM316.44 203.955L316.281 205.352L306.702 204.267L307.177 200.075L308.916 200.272L308.599 203.067L316.44 203.955ZM308.206 197.66L309.874 197.786L310.391 193.222L308.73 193.033L308.206 197.66ZM330.54 193.036L330.137 196.591L332.093 196.813L331.93 198.257L329.974 198.035L329.581 201.497L327.858 201.302L328.817 192.84L330.54 193.036ZM329.506 202.165L328.969 206.9L319.902 205.873L320.439 201.137L329.506 202.165ZM321.992 202.697L321.768 204.669L327.42 205.309L327.643 203.337L321.992 202.697ZM327.654 194.077L327.498 195.459L319.176 194.516L319.333 193.134L322.64 193.509L322.803 192.065L324.527 192.26L324.363 193.704L327.654 194.077ZM323.279 195.499C325.313 195.73 326.579 196.911 326.425 198.403C326.239 199.908 324.743 200.76 322.709 200.53C320.66 200.298 319.377 199.13 319.547 197.624C319.716 196.134 321.23 195.267 323.279 195.499ZM323.131 196.804C322.06 196.682 321.31 197.053 321.224 197.814C321.136 198.59 321.784 199.12 322.855 199.241C323.926 199.362 324.692 198.993 324.779 198.217C324.866 197.456 324.202 196.925 323.131 196.804ZM335.938 195.078L334.868 202.992L333.114 202.794L333.827 194.839L335.938 195.078ZM333.61 206.325C332.943 206.249 332.461 205.645 332.536 204.977C332.61 204.325 333.215 203.843 333.883 203.919C334.519 203.991 335.017 204.597 334.943 205.25C334.867 205.917 334.247 206.397 333.61 206.325Z" fill="#404040"/>
</g>
<g filter="url(#filter3_d_889_14756)">
<rect x="15.8438" y="112.62" width="280" height="52" rx="12" transform="rotate(-2.16547 15.8438 112.62)" fill="white" shape-rendering="crispEdges"/>
<path d="M51.8589 132.555C51.9292 134.413 53.1507 136.118 55.4257 136.736L54.6189 138.142C52.9666 137.657 51.7629 136.632 51.0861 135.274C50.4942 136.781 49.3599 138.005 47.7108 138.638L46.7851 137.313C49.0352 136.446 50.1359 134.543 50.0633 132.623L50.0126 131.28L51.8081 131.212L51.8589 132.555ZM58.6217 139.382L58.8118 144.41L57.0631 144.476L56.9255 140.838L49.0405 141.136L48.988 139.747L58.6217 139.382ZM58.2781 130.295L58.5975 138.742L56.8488 138.808L56.5294 130.361L58.2781 130.295ZM71.4874 129.796L71.6185 133.262L73.5702 133.188L73.624 134.609L71.6722 134.683L71.7992 138.04L70.0504 138.106L69.7387 129.862L71.4874 129.796ZM67.2031 138.479C70.0917 138.37 71.9575 139.332 72.0392 141.08C72.0909 142.86 70.303 143.96 67.4145 144.069C64.4947 144.18 62.5977 143.219 62.5304 141.439C62.4642 139.691 64.2833 138.59 67.2031 138.479ZM67.2557 139.869C65.3195 139.942 64.198 140.469 64.2479 141.374C64.2671 142.296 65.4258 142.753 67.3619 142.68C69.2668 142.608 70.3877 142.065 70.3529 141.144C70.3187 140.238 69.1605 139.797 67.2557 139.869ZM67.247 130.957L67.3002 132.362L62.6941 132.536L62.8281 136.081C65.529 135.971 67.0328 135.836 68.6824 135.421L68.9067 136.804C67.0946 137.264 65.4263 137.39 62.3035 137.508L61.1637 137.551L60.9234 131.196L67.247 130.957ZM85.2913 130.134C85.4133 133.772 83.1206 136.408 79.0578 137.718L78.3038 136.387C81.4329 135.4 83.2442 133.682 83.4864 131.609L78.8959 131.783L78.8428 130.378L85.2913 130.134ZM89.7718 129.12L90.0723 137.067L88.3392 137.133L88.2229 134.057L85.5061 134.16L85.4524 132.739L88.1692 132.636L88.0387 129.185L89.7718 129.12ZM90.0936 137.63L90.2979 143.032L81.0076 143.383L80.8034 137.981L90.0936 137.63ZM82.5572 139.29L82.6576 141.945L88.5284 141.723L88.428 139.068L82.5572 139.29ZM96.2697 131.423C96.3294 133 97.2628 134.528 99.1486 135.192L98.2619 136.554C97.0017 136.102 96.1003 135.213 95.5576 134.092C95.0751 135.393 94.1947 136.505 92.8737 137.133L91.9017 135.826C93.8054 134.894 94.6437 133.079 94.5991 131.486L94.5341 129.769L96.2048 129.705L96.2697 131.423ZM103.84 128.588L104.163 137.129L102.508 137.191L102.372 133.6L100.967 133.653L101.1 137.166L99.4757 137.228L99.1646 128.999L100.788 128.938L100.912 132.217L102.318 132.164L102.185 128.651L103.84 128.588ZM104.188 137.8L104.373 142.687L102.64 142.753L102.508 139.255L94.5758 139.555L94.5233 138.166L104.188 137.8ZM114.85 131.549C114.933 134.142 116.389 136.682 118.722 137.579L117.744 139.008C116.091 138.32 114.84 136.866 114.123 135.048C113.55 137.063 112.401 138.733 110.714 139.602L109.597 138.19C111.917 137.086 113.189 134.333 113.086 131.616L113.001 129.367L114.765 129.301L114.85 131.549ZM121.124 127.919L121.658 142.049L119.909 142.115L119.375 127.985L121.124 127.919ZM134.698 128.797C134.844 133.06 133.704 136.825 128.554 139.584L127.582 138.276C129.965 136.997 131.426 135.527 132.229 133.8L127.748 134.376L127.473 132.901L132.722 132.374C132.893 131.711 132.983 131.004 133.018 130.268L128.1 130.454L128.046 129.049L134.698 128.797ZM138.783 127.251L139.317 141.366L137.568 141.432L137.034 127.317L138.783 127.251ZM152.727 126.739L153.259 140.823L151.495 140.89L151.373 137.658L148.375 137.771L148.325 136.46L151.323 136.346L150.962 126.806L152.727 126.739ZM141.025 134.437C143.679 134.337 147.207 134.188 150.252 133.65L150.41 134.927C149.122 135.202 147.792 135.385 146.491 135.513L146.686 140.65L144.937 140.716L144.746 135.672C143.514 135.758 142.343 135.81 141.297 135.85L141.025 134.437ZM145.411 127.626C147.488 127.547 149.047 128.661 149.111 130.347C149.176 132.065 147.703 133.246 145.627 133.325C143.503 133.405 141.962 132.338 141.897 130.62C141.833 128.934 143.288 127.706 145.411 127.626ZM145.462 128.953C144.275 128.998 143.502 129.637 143.536 130.558C143.572 131.511 144.39 132.043 145.577 131.998C146.701 131.955 147.492 131.362 147.456 130.41C147.421 129.489 146.586 128.911 145.462 128.953ZM166.342 132.839L166.395 134.228L156.495 134.603L156.239 127.826L166.029 127.456L166.082 128.861L158.01 129.167L158.16 133.148L166.342 132.839ZM167.94 137.047L167.994 138.483L155.097 138.971L155.043 137.535L167.94 137.047ZM177.475 128.29C177.546 130.163 178.739 131.948 180.953 132.615L180.052 134.009C178.508 133.489 177.373 132.429 176.736 131.07C176.177 132.639 175.076 133.908 173.444 134.587L172.471 133.248C174.706 132.397 175.788 130.402 175.726 128.34L175.665 126.732L177.414 126.666L177.475 128.29ZM184.064 125.555L184.46 136.031L182.727 136.097L182.502 130.148L179.691 130.254L179.638 128.834L182.448 128.727L182.331 125.62L184.064 125.555ZM184.845 137.956L184.899 139.361L175.28 139.725L175.111 135.243L176.875 135.177L176.992 138.253L184.845 137.956ZM192.173 126.217L192.225 127.607L188.353 127.753L188.405 129.127L192.137 128.986L192.187 130.314L188.455 130.455L188.511 131.938C190.236 131.857 191.428 131.742 192.792 131.432L193.033 132.83C191.389 133.205 190.017 133.304 187.831 133.387L186.894 133.422L186.63 126.427L192.173 126.217ZM198.132 125.023L198.457 133.61L196.802 133.673L196.663 130.004L195.195 130.059L195.33 133.619L193.706 133.68L193.395 125.468L195.019 125.406L195.143 128.669L196.61 128.614L196.477 125.085L198.132 125.023ZM198.48 134.235L198.665 139.122L196.932 139.187L196.8 135.706L188.868 136.005L188.815 134.6L198.48 134.235ZM204.492 125.752C206.724 125.651 208.417 127.01 208.509 129.008C208.569 131.023 206.983 132.49 204.75 132.575C202.533 132.659 200.825 131.316 200.749 129.302C200.673 127.303 202.274 125.82 204.492 125.752ZM204.549 127.25C203.315 127.297 202.422 128.066 202.466 129.237C202.511 130.423 203.459 131.107 204.693 131.06C205.942 131.013 206.852 130.259 206.807 129.073C206.762 127.902 205.798 127.203 204.549 127.25ZM211.637 124.496L212.172 138.627L210.438 138.692L209.904 124.562L211.637 124.496ZM200.312 134.697C202.857 134.601 206.384 134.436 209.412 133.884L209.601 135.143C206.454 135.872 203.066 136.016 200.584 136.11L200.312 134.697ZM221.388 125.16C223.301 125.087 224.774 126.626 225.121 129.193L227.807 129.092L227.61 123.892L229.328 123.827L229.862 137.958L228.145 138.023L227.86 130.497L225.19 130.598C225.106 133.33 223.733 135.062 221.765 135.137C219.642 135.217 218.07 133.353 217.954 130.277C217.839 127.233 219.265 125.24 221.388 125.16ZM221.447 126.721C220.276 126.765 219.528 128.06 219.625 130.214C219.691 132.385 220.535 133.62 221.706 133.575C222.877 133.531 223.61 132.237 223.544 130.066C223.447 127.912 222.618 126.677 221.447 126.721ZM243.13 123.305L243.665 137.436L241.932 137.502L241.713 131.709L239.136 131.806L239.083 130.385L241.659 130.288L241.567 127.868L239.038 127.963L238.984 126.543L241.514 126.447L241.397 123.371L243.13 123.305ZM238.118 124.715L238.317 129.992L233.789 130.163L233.902 133.161C235.768 133.075 237.389 132.936 239.275 132.583L239.469 133.998C237.312 134.424 235.518 134.539 233.332 134.621L232.239 134.663L232.02 128.87L236.564 128.698L236.468 126.169L231.878 126.342L231.825 124.953L238.118 124.715ZM251.555 123.206C254.677 123.088 256.667 124.029 256.747 125.73C256.795 127.401 254.881 128.475 251.758 128.577C248.667 128.709 246.63 127.786 246.567 126.115C246.503 124.413 248.463 123.323 251.555 123.206ZM251.605 124.549C249.544 124.627 248.329 125.157 248.378 126.047C248.395 126.906 249.646 127.328 251.707 127.25C253.768 127.172 254.984 126.657 254.952 125.798C254.918 124.908 253.666 124.471 251.605 124.549ZM256.781 131.999L256.961 136.746L247.171 137.116L246.991 132.369L251.035 132.216L250.984 130.858L245.425 131.068L245.373 129.678L258.239 129.192L258.291 130.582L252.701 130.793L252.753 132.151L256.781 131.999ZM248.761 133.678L248.835 135.646L255.221 135.404L255.147 133.437L248.761 133.678ZM261.686 131.876C261.627 129.893 262.166 129.262 263.127 128.616C263.782 128.169 264.262 127.619 264.232 126.839C264.199 125.964 263.506 125.428 262.648 125.46C261.867 125.49 261.136 126.018 261.129 127.066L259.177 127.139C259.145 125.045 260.681 123.908 262.602 123.836C264.71 123.756 266.206 124.872 266.276 126.73C266.324 127.995 265.715 128.847 264.723 129.494C263.838 130.075 263.484 130.635 263.513 131.807L263.518 131.947L261.692 132.017L261.686 131.876ZM262.79 135.431C262.119 135.456 261.552 134.93 261.526 134.259C261.501 133.603 262.027 133.036 262.699 133.01C263.339 132.986 263.922 133.512 263.946 134.167C263.972 134.839 263.43 135.406 262.79 135.431Z" fill="#404040"/>
</g>
<g filter="url(#filter4_d_889_14756)">
<rect x="10.1055" y="24.7705" width="280" height="52" rx="12" transform="rotate(8.96842 10.1055 24.7705)" fill="white" shape-rendering="crispEdges"/>
<path d="M52.7018 52.0416C54.5925 52.34 55.7408 54.1347 55.5858 56.7202L58.2405 57.1392L59.0516 51.9997L60.7493 52.2676L58.5449 66.2354L56.8472 65.9674L58.0212 58.5283L55.382 58.1117C54.7718 60.7757 53.09 62.2108 51.1453 61.9039C49.0463 61.5726 47.8642 59.4404 48.3441 56.3999C48.8191 53.3903 50.6028 51.7103 52.7018 52.0416ZM52.4582 53.585C51.3007 53.4023 50.3162 54.5282 49.9955 56.6605C49.6415 58.8034 50.2314 60.1778 51.3889 60.3605C52.5465 60.5432 53.5155 59.4148 53.8695 57.2719C54.1902 55.1396 53.6158 53.7677 52.4582 53.585ZM73.4545 62.6723L73.2475 63.9842L63.0456 62.3742L63.2527 61.0623L67.5125 61.7345L67.7 60.5461L69.4132 60.8165L69.2256 62.0049L73.4545 62.6723ZM68.0455 63.6694C70.5921 64.0713 71.9926 65.02 71.7953 66.2701C71.5907 67.5666 69.9685 68.0224 67.4219 67.6205C64.8753 67.2186 63.4569 66.2829 63.677 64.9889C63.8588 63.7363 65.4989 63.2675 68.0455 63.6694ZM67.8579 64.8578C66.4201 64.6467 65.5786 64.767 65.4982 65.2763C65.4129 65.8165 66.1741 66.2056 67.6095 66.4321C69.0294 66.6562 69.8579 66.518 69.9586 65.9803C70.0236 65.4685 69.2754 65.0974 67.8579 64.8578ZM66.5014 53.8081L66.2894 55.1509L64.3602 54.8464L63.8536 58.0567C64.5221 58.1306 65.2044 58.1671 65.9786 58.1231L65.8901 59.4854C64.6319 59.5399 63.7034 59.4092 62.6076 59.2362L61.9593 59.1339L62.8898 53.2382L66.5014 53.8081ZM71.1007 54.534L70.8888 55.8768L68.6817 55.5284L68.1751 58.7387C69.2502 58.8926 69.9711 58.9352 70.8273 58.8725L70.7518 60.2527C69.6325 60.3291 68.7349 60.2033 66.9908 59.928L66.2654 59.8135L67.1959 53.9178L71.1007 54.534ZM74.5164 54.4403L73.3424 61.8795L71.6601 61.614L72.1886 58.2648L70.0742 57.9311L70.2812 56.6193L72.3957 56.953L72.8341 54.1748L74.5164 54.4403ZM88.407 56.6325L86.2051 70.5849L84.5691 70.3267L86.771 56.3743L88.407 56.6325ZM85.3901 56.5044L83.3465 69.4535L81.7259 69.1978L82.7392 62.7772L80.2543 62.3851C79.183 63.8611 77.6519 65.0431 75.4961 65.8735L74.7162 64.5007C77.8792 63.252 79.5435 61.2763 80.2492 58.5088L76.4833 57.9144L76.7025 56.5254L82.1661 57.3876C81.953 58.7381 81.5912 59.9781 81.0267 61.0991L82.956 61.4036L83.7695 56.2487L85.3901 56.5044ZM100.867 59.469C100.284 63.0627 97.5258 65.2058 93.2864 65.7073L92.8038 64.2549C96.0643 63.8916 98.1734 62.5556 98.8113 60.5682L94.2737 59.8521L94.4929 58.463L100.867 59.469ZM105.459 59.3395L104.219 67.1954L102.506 66.925L102.986 63.8845L100.3 63.4607L100.522 62.0562L103.208 62.4801L103.746 59.0691L105.459 59.3395ZM104.132 67.751L103.289 73.0912L94.1056 71.6419L94.9484 66.3017L104.132 67.751ZM96.4163 67.9254L96.0023 70.5492L101.805 71.4651L102.22 68.8413L96.4163 67.9254ZM111.39 62.8539C111.144 64.4128 111.765 66.0926 113.487 67.1078L112.354 68.2736C111.205 67.586 110.492 66.5402 110.176 65.3356C109.451 66.5184 108.373 67.4396 106.955 67.8012L106.254 66.3302C108.302 65.7833 109.475 64.1651 109.739 62.5933L110.007 60.8956L111.658 61.1562L111.39 62.8539ZM119.365 61.5342L118.033 69.9765L116.397 69.7183L116.957 66.1685L115.568 65.9493L115.02 69.422L113.415 69.1686L114.698 61.0349L116.304 61.2883L115.792 64.5294L117.181 64.7486L117.729 61.276L119.365 61.5342ZM117.928 70.6402L117.166 75.471L115.452 75.2007L115.998 71.7435L108.158 70.5061L108.374 69.1325L117.928 70.6402ZM132.023 63.5161L131.147 69.0723L133.292 69.4109L133.068 70.8308L130.922 70.4922L129.821 77.4684L128.124 77.2004L130.326 63.2481L132.023 63.5161ZM128.907 65.2229L128.69 66.5966L120.464 65.2983L120.68 63.9247L123.983 64.4459L124.29 62.5013L126.003 62.7716L125.696 64.7163L128.907 65.2229ZM124.487 66.8666C126.494 67.1832 127.776 68.7777 127.472 70.7069C127.167 72.6362 125.458 73.7427 123.452 73.426C121.415 73.1045 120.129 71.5255 120.449 69.5986C120.738 67.667 122.45 66.545 124.487 66.8666ZM124.265 68.2711C123.17 68.0981 122.266 68.7147 122.085 69.8568C121.905 70.9989 122.578 71.8486 123.676 72.0061C124.738 72.1896 125.64 71.5884 125.836 70.4487C126.001 69.3042 125.33 68.4391 124.265 68.2711ZM145.429 69.6813L145.215 71.0395L135.553 69.5147L136.311 64.7147L138.009 64.9826L137.465 68.4244L145.429 69.6813ZM146.395 72.8866L146.18 74.2448L133.432 72.2328L133.646 70.8746L146.395 72.8866ZM144.214 77.9839L143.995 79.373L134.117 77.8141L134.765 73.7087L136.478 73.979L136.049 76.6954L144.214 77.9839ZM153.051 70.9C152.691 73.1842 153.654 75.8038 155.758 77.1009L154.603 78.3105C153.063 77.34 152.091 75.6837 151.738 73.809C150.788 75.6205 149.315 77.0332 147.557 77.5467L146.781 76.048C149.149 75.3777 150.932 73.0016 151.307 70.6248L151.492 69.4518L148.421 68.9671L148.645 67.5471L156.516 68.7894L156.292 70.2093L153.236 69.727L153.051 70.9ZM160.021 67.9346L157.819 81.8869L156.09 81.6141L158.292 67.6618L160.021 67.9346ZM176.86 81.7125L176.638 83.117L163.89 81.105L164.111 79.7005L169.606 80.5677L170.086 77.5272L165.996 76.8817L167.058 70.1525L176.936 71.7114L175.874 78.4406L171.784 77.7951L171.304 80.8356L176.86 81.7125ZM168.523 71.7916L167.89 75.8044L174.388 76.8299L175.021 72.8171L168.523 71.7916ZM190.512 83.9144L190.29 85.3189L177.542 83.307L177.763 81.9025L190.512 83.9144ZM190.563 73.7671L189.854 78.2584L181.844 76.9942L181.556 78.8154L189.891 80.1308L189.676 81.489L179.629 79.9033L180.348 75.3502L188.373 76.6168L188.646 74.8882L180.589 73.6168L180.809 72.2277L190.563 73.7671ZM203.816 78.8959L203.602 80.254L193.94 78.7292L194.698 73.9293L196.395 74.1972L195.852 77.639L203.816 78.8959ZM204.781 82.1011L204.567 83.4593L191.819 81.4474L192.033 80.0892L204.781 82.1011ZM202.601 87.1985L202.381 88.5876L192.504 87.0287L193.152 82.9232L194.865 83.1936L194.436 85.91L202.601 87.1985ZM222.233 77.7687L220.946 85.9178L219.233 85.6474L219.477 84.104L216.159 83.5803L216.378 82.1913L219.696 82.715L219.932 81.2179L216.753 80.7161C215.515 82.7985 213.24 84.0293 210.067 84.3906L209.587 82.9228C212.991 82.5506 214.988 81.1731 215.594 79.1411L211.056 78.425L211.275 77.0359L217.68 78.0468C217.604 78.533 217.492 78.9899 217.338 79.4164L220.147 79.8597L220.519 77.4983L222.233 77.7687ZM216.307 85.3438C219.132 85.7896 220.847 87.1517 220.576 88.8649C220.306 90.578 218.255 91.3458 215.43 90.9001C212.575 90.4494 210.86 89.0873 211.131 87.3742C211.401 85.661 213.452 84.8932 216.307 85.3438ZM216.095 86.6866C214.212 86.3894 212.99 86.7185 212.844 87.6445C212.7 88.5551 213.762 89.2447 215.645 89.5419C217.481 89.8317 218.719 89.5051 218.863 88.5945C219.009 87.6684 217.932 86.9764 216.095 86.6866ZM235.704 87.9304L235.48 89.3503L229.923 88.4735L229.185 93.1499L227.488 92.882L228.226 88.2055L222.731 87.3384L222.955 85.9185L235.704 87.9304ZM230.461 79.5576C233.421 80.0407 235.3 81.5709 234.998 83.4847C234.698 85.3831 232.442 86.2451 229.479 85.7774C226.5 85.3073 224.65 83.7974 224.965 81.9015C225.252 79.9852 227.479 79.1029 230.461 79.5576ZM230.241 80.9466C228.266 80.6348 226.882 81.0809 226.725 82.1791C226.539 83.2571 227.718 84.1075 229.693 84.4193C231.669 84.731 233.052 84.285 233.223 83.2046C233.396 82.1088 232.217 81.2584 230.241 80.9466ZM240.519 82.0782L239.104 89.9382L237.36 89.6629L238.42 81.7469L240.519 82.0782ZM237.702 93.2127C237.038 93.1079 236.583 92.4825 236.688 91.8188C236.79 91.1706 237.415 90.7157 238.079 90.8204C238.712 90.9203 239.182 91.5482 239.08 92.1964C238.975 92.8601 238.334 93.3126 237.702 93.2127Z" fill="#404040"/>
</g>
<g filter="url(#filter5_d_889_14756)">
<rect x="161.904" y="15.1123" width="280" height="52" rx="12" transform="rotate(-3.09389 161.904 15.1123)" fill="white" shape-rendering="crispEdges"/>
<path d="M201.187 32.2988L201.746 42.6431L200.014 42.7367L199.758 37.9936L197.043 38.1404L196.966 36.705L199.68 36.5582L199.455 32.3924L201.187 32.2988ZM196.891 33.5951C197.092 37.3084 194.778 40.2344 190.776 41.7495L189.967 40.4006C192.957 39.2688 194.865 37.3662 195.08 35.1169L190.431 35.3682L190.354 33.9484L196.891 33.5951ZM202.216 44.6832L202.292 46.0874L192.744 46.6035L192.5 42.0945L194.263 41.9992L194.431 45.104L202.216 44.6832ZM214.308 31.574L214.493 35.0065L216.459 34.9002L216.536 36.32L214.57 36.4263L214.755 39.8432L213.023 39.9368L212.576 31.6676L214.308 31.574ZM210.459 32.7522C210.66 36.4655 208.383 39.2174 204.282 40.6283L203.519 39.2612C206.671 38.2146 208.473 36.3881 208.663 34.2576L203.904 34.5148L203.828 33.1106L210.459 32.7522ZM210.208 40.261C213.063 40.1067 214.979 41.0985 215.073 42.8304C215.168 44.5934 213.369 45.7547 210.513 45.9091C207.674 46.0625 205.729 45.1036 205.649 43.3397C205.54 41.6087 207.368 40.4145 210.208 40.261ZM210.281 41.6184C208.425 41.7188 207.299 42.3117 207.365 43.247C207.399 44.1683 208.583 44.652 210.44 44.5517C212.297 44.4513 213.422 43.8428 213.372 42.9223C213.321 41.9862 212.138 41.5181 210.281 41.6184ZM222.358 33.1574C222.458 35.0141 223.707 36.6991 225.992 37.2798L225.208 38.6992C223.548 38.2412 222.328 37.2353 221.629 35.8882C221.062 37.4055 219.948 38.6471 218.309 39.3068L217.362 37.9966C219.598 37.0934 220.667 35.1735 220.564 33.2544L220.491 31.9126L222.285 31.8156L222.358 33.1574ZM229.231 39.8744L229.502 44.8983L227.755 44.9928L227.558 41.3575L219.679 41.7833L219.604 40.3947L229.231 39.8744ZM228.74 30.7939L229.196 39.2347L227.449 39.3292L226.992 30.8884L228.74 30.7939ZM235.424 31.4185C237.654 31.2823 239.369 32.6135 239.493 34.6098C239.586 36.6233 238.023 38.116 235.792 38.2366C233.577 38.3564 231.847 37.0416 231.738 35.0289C231.63 33.0318 233.207 31.5226 235.424 31.4185ZM235.505 32.9163C234.272 32.9829 233.391 33.766 233.455 34.9361C233.519 36.1219 234.478 36.7898 235.711 36.7232C236.959 36.6558 237.856 35.8874 237.792 34.7017C237.729 33.5315 236.753 32.8488 235.505 32.9163ZM242.548 30.0476L243.311 44.1676L241.579 44.2612L240.816 30.1412L242.548 30.0476ZM231.389 40.4306C233.932 40.2932 237.456 40.0714 240.475 39.4701L240.684 40.7263C237.549 41.5059 234.165 41.7045 231.684 41.8386L231.389 40.4306ZM254.457 30.9374L254.655 34.6039L256.293 34.5154L256.026 29.5694L257.68 29.4801L258.392 42.6483L256.738 42.7377L256.369 35.9196L254.731 36.0081L254.94 39.8775L249.401 40.1768L248.918 31.2368L254.457 30.9374ZM250.615 32.522L250.95 38.7161L253.243 38.5922L252.908 32.3981L250.615 32.522ZM260.568 29.0736L261.331 43.178L259.661 43.2682L258.899 29.1638L260.568 29.0736ZM273.842 32.9252L273.918 34.3294L264.12 34.859L263.834 29.5699L265.566 29.4763L265.776 33.3612L273.842 32.9252ZM275.478 35.982L275.554 37.3862L272.465 37.5532L272.736 42.5615L270.988 42.656L270.718 37.6476L267.535 37.8197L267.806 42.828L266.074 42.9216L265.803 37.9133L262.698 38.0811L262.622 36.6769L275.478 35.982ZM287.061 27.6416L287.359 33.1492L289.449 33.0362L289.528 34.4872L287.437 34.6002L287.822 41.7148L286.09 41.8084L285.329 27.7352L287.061 27.6416ZM283.411 29.3098C283.636 33.46 282.116 37.188 277.544 39.751L276.489 38.4624C279.829 36.5684 281.556 34.0653 281.741 30.8396L276.858 31.1036L276.78 29.6682L283.411 29.3098ZM304.739 26.7017L304.979 31.1328L306.944 31.0265L307.022 32.4619L305.056 32.5682L305.308 37.2332L303.576 37.3268L303.007 26.7953L304.739 26.7017ZM302.077 28.4104L302.152 29.799L293.79 30.251L293.715 28.8624L297.038 28.6828L296.953 27.1069L298.685 27.0133L298.77 28.5892L302.077 28.4104ZM298.002 30.6023C300.031 30.4926 301.493 31.4933 301.596 33.1151C301.667 34.723 300.321 35.8598 298.292 35.9694C296.248 36.0799 294.771 35.0957 294.684 33.4887C294.597 31.866 295.958 30.7127 298.002 30.6023ZM298.075 31.9441C296.998 32.0023 296.323 32.5395 296.369 33.3976C296.415 34.2401 297.144 34.7014 298.22 34.6276C299.297 34.5851 299.988 34.047 299.942 33.2045C299.896 32.3464 299.151 31.8859 298.075 31.9441ZM305.971 39.0751L306.047 40.4793L296.452 40.998L296.23 36.8946L297.962 36.801L298.108 39.5002L305.971 39.0751ZM319.233 25.9027L319.685 34.2811L317.954 34.3747L317.767 30.9266L315.365 31.0565L315.288 29.6367L317.691 29.5068L317.501 25.9963L319.233 25.9027ZM314.931 34.898C317.926 34.7361 319.805 35.6203 319.897 37.321C319.989 39.0216 318.216 40.1032 315.221 40.2652C312.241 40.4262 310.362 39.542 310.286 37.8405C310.178 36.1407 311.951 35.0591 314.931 34.898ZM315.002 36.2242C313.036 36.3304 311.954 36.8584 312.002 37.7477C312.049 38.6214 313.182 39.0296 315.148 38.9234C317.114 38.8171 318.212 38.2883 318.165 37.4146C318.117 36.5253 316.968 36.1179 315.002 36.2242ZM312.732 28.6794C312.825 30.3957 314.058 32.066 316.282 32.6812L315.482 34.1014C313.885 33.6557 312.712 32.6395 312.032 31.3462C311.489 32.8855 310.376 34.1505 308.731 34.8419L307.752 33.5178C309.972 32.6154 311.071 30.647 310.97 28.7903L310.964 28.6811L308.031 28.8397L307.955 27.4355L315.569 27.0239L315.645 28.4281L312.727 28.5858L312.732 28.6794ZM326.54 27.9331C326.633 29.6494 327.866 31.3196 330.09 31.9349L329.288 33.3239C327.685 32.8942 326.511 31.8857 325.824 30.6007C325.287 32.1084 324.173 33.3578 322.534 34.0019L321.57 32.677C323.778 31.8223 324.878 29.8851 324.778 28.044L324.768 27.8568L321.835 28.0153L321.76 26.6267L329.374 26.2152L329.449 27.6038L326.531 27.7615L326.54 27.9331ZM333.531 34.2369L333.803 39.2608L332.071 39.3544L331.875 35.7191L323.995 36.1449L323.92 34.7563L333.531 34.2369ZM333.041 25.1564L333.495 33.566L331.763 33.6596L331.574 30.1647L329.172 30.2945L329.095 28.8747L331.498 28.7449L331.309 25.25L333.041 25.1564ZM346.771 24.4142L347.534 38.5343L345.786 38.6287L345.023 24.5087L346.771 24.4142ZM339.228 25.8547C341.35 25.74 342.999 27.5912 343.179 30.6328C343.33 33.7073 341.889 35.7098 339.767 35.8245C337.629 35.94 335.981 34.1045 335.815 31.0308C335.65 27.9884 337.09 25.9702 339.228 25.8547ZM339.312 27.4149C338.111 27.4798 337.368 28.7875 337.484 30.9406C337.601 33.1093 338.481 34.3292 339.682 34.2643C340.868 34.2002 341.611 32.8926 341.494 30.7238C341.378 28.5707 340.498 27.3508 339.312 27.4149ZM359.892 23.705L360.185 29.119L362.353 29.0018L362.432 30.4528L360.263 30.57L360.655 37.825L358.939 37.9178L358.176 23.7978L359.892 23.705ZM355.964 25.1535L356.252 30.4738L351.509 30.7302L351.661 33.5386C353.891 33.4024 355.626 33.2148 357.581 32.7648L357.813 34.1606C355.665 34.6679 353.735 34.8661 351.177 35.0044L350.022 35.0668L349.718 29.4344L354.445 29.1788L354.309 26.6513L349.55 26.9085L349.474 25.5043L355.964 25.1535ZM374.29 26.9326L374.365 28.3056L364.598 28.8335L364.335 23.9812L366.052 23.8885L366.24 27.3678L374.29 26.9326ZM375.904 29.8654L375.978 31.2384L363.091 31.935L363.017 30.562L375.904 29.8654ZM374.837 35.3059L374.913 36.7101L364.927 37.2499L364.703 33.0997L366.435 33.0061L366.583 35.7521L374.837 35.3059ZM384.794 24.9878C384.877 26.5169 385.849 27.9978 387.744 28.5996L386.895 29.9755C385.613 29.5597 384.69 28.7098 384.124 27.6373C383.677 28.9289 382.815 30.0552 381.504 30.6894L380.496 29.4138C382.384 28.4511 383.194 26.6391 383.125 25.0781L383.031 23.3306L384.7 23.2404L384.794 24.9878ZM392.314 21.9682L392.781 30.6118L391.128 30.7012L390.929 27.0347L389.525 27.1106L389.7 30.3403L388.077 30.428L387.648 22.4864L389.271 22.3987L389.449 25.6908L390.853 25.6149L390.66 22.0576L392.314 21.9682ZM388.035 31.1031C390.984 30.9437 392.909 31.8098 393.012 33.4316C393.084 35.0551 391.265 36.1392 388.316 36.2986C385.336 36.4597 383.426 35.5771 383.339 33.9545C383.251 32.3318 385.055 31.2642 388.035 31.1031ZM388.106 32.4137C386.156 32.5191 385.026 33.0339 385.071 33.8609C385.116 34.7034 386.294 35.0778 388.245 34.9724C390.179 34.8679 391.31 34.3686 391.265 33.5261C391.22 32.6992 390.041 32.3091 388.106 32.4137ZM405.185 21.2569L405.369 24.6581L407.335 24.5519L407.413 26.0029L405.448 26.1092L405.63 29.4792L403.898 29.5728L403.453 21.3505L405.185 21.2569ZM401.298 22.2963C401.498 25.994 399.233 28.6671 395.078 29.9713L394.289 28.6839C397.543 27.6552 399.324 25.869 399.517 23.8009L394.743 24.0589L394.667 22.6547L401.298 22.2963ZM405.662 30.0721L405.948 35.3613L404.216 35.4549L404.005 31.5543L396.344 31.9684L396.269 30.5798L405.662 30.0721ZM410.756 30.2349C410.665 28.2526 411.193 27.6137 412.143 26.9521C412.792 26.4946 413.262 25.9371 413.22 25.157C413.173 24.2833 412.472 23.7579 411.613 23.8043C410.833 23.8464 410.111 24.3862 410.121 25.4341L408.171 25.5395C408.105 23.4462 409.622 22.2845 411.541 22.1808C413.648 22.0669 415.162 23.1587 415.262 25.0153C415.331 26.2791 414.736 27.1406 413.754 27.8039C412.879 28.3989 412.534 28.9652 412.582 30.1362L412.589 30.2767L410.764 30.3753L410.756 30.2349ZM411.917 33.7711C411.247 33.8074 410.671 33.2908 410.635 32.6199C410.599 31.9646 411.116 31.389 411.787 31.3528C412.426 31.3182 413.018 31.8339 413.053 32.4892C413.089 33.1601 412.557 33.7366 411.917 33.7711Z" fill="#404040"/>
</g>
<defs>
<filter id="filter0_d_889_14756" x="97.543" y="243.622" width="288.945" height="78.4043" filterUnits="userSpaceOnUse" color-interpolation-filters="sRGB">
<feFlood flood-opacity="0" result="BackgroundImageFix"/>
<feColorMatrix in="SourceAlpha" type="matrix" values="0 0 0 0 0 0 0 0 0 0 0 0 0 0 0 0 0 0 127 0" result="hardAlpha"/>
<feOffset dy="4"/>
<feGaussianBlur stdDeviation="1.5"/>
<feComposite in2="hardAlpha" operator="out"/>
<feColorMatrix type="matrix" values="0 0 0 0 0 0 0 0 0 0 0 0 0 0 0 0 0 0 0.2 0"/>
<feBlend mode="normal" in2="BackgroundImageFix" result="effect1_dropShadow_889_14756"/>
<feBlend mode="normal" in="SourceGraphic" in2="effect1_dropShadow_889_14756" result="shape"/>
</filter>
<filter id="filter1_d_889_14756" x="3.87305" y="200.9" width="287.723" height="69.2534" filterUnits="userSpaceOnUse" color-interpolation-filters="sRGB">
<feFlood flood-opacity="0" result="BackgroundImageFix"/>
<feColorMatrix in="SourceAlpha" type="matrix" values="0 0 0 0 0 0 0 0 0 0 0 0 0 0 0 0 0 0 127 0" result="hardAlpha"/>
<feOffset dy="4"/>
<feGaussianBlur stdDeviation="1.5"/>
<feComposite in2="hardAlpha" operator="out"/>
<feColorMatrix type="matrix" values="0 0 0 0 0 0 0 0 0 0 0 0 0 0 0 0 0 0 0.2 0"/>
<feBlend mode="normal" in2="BackgroundImageFix" result="effect1_dropShadow_889_14756"/>
<feBlend mode="normal" in="SourceGraphic" in2="effect1_dropShadow_889_14756" result="shape"/>
</filter>
<filter id="filter2_d_889_14756" x="101.17" y="148.662" width="290.074" height="90.1924" filterUnits="userSpaceOnUse" color-interpolation-filters="sRGB">
<feFlood flood-opacity="0" result="BackgroundImageFix"/>
<feColorMatrix in="SourceAlpha" type="matrix" values="0 0 0 0 0 0 0 0 0 0 0 0 0 0 0 0 0 0 127 0" result="hardAlpha"/>
<feOffset dy="4"/>
<feGaussianBlur stdDeviation="1.5"/>
<feComposite in2="hardAlpha" operator="out"/>
<feColorMatrix type="matrix" values="0 0 0 0 0 0 0 0 0 0 0 0 0 0 0 0 0 0 0.2 0"/>
<feBlend mode="normal" in2="BackgroundImageFix" result="effect1_dropShadow_889_14756"/>
<feBlend mode="normal" in="SourceGraphic" in2="effect1_dropShadow_889_14756" result="shape"/>
</filter>
<filter id="filter3_d_889_14756" x="12.8438" y="102.04" width="287.766" height="69.543" filterUnits="userSpaceOnUse" color-interpolation-filters="sRGB">
<feFlood flood-opacity="0" result="BackgroundImageFix"/>
<feColorMatrix in="SourceAlpha" type="matrix" values="0 0 0 0 0 0 0 0 0 0 0 0 0 0 0 0 0 0 127 0" result="hardAlpha"/>
<feOffset dy="4"/>
<feGaussianBlur stdDeviation="1.5"/>
<feComposite in2="hardAlpha" operator="out"/>
<feColorMatrix type="matrix" values="0 0 0 0 0 0 0 0 0 0 0 0 0 0 0 0 0 0 0.2 0"/>
<feBlend mode="normal" in2="BackgroundImageFix" result="effect1_dropShadow_889_14756"/>
<feBlend mode="normal" in="SourceGraphic" in2="effect1_dropShadow_889_14756" result="shape"/>
</filter>
<filter id="filter4_d_889_14756" x="-1" y="24.7705" width="290.682" height="102.014" filterUnits="userSpaceOnUse" color-interpolation-filters="sRGB">
<feFlood flood-opacity="0" result="BackgroundImageFix"/>
<feColorMatrix in="SourceAlpha" type="matrix" values="0 0 0 0 0 0 0 0 0 0 0 0 0 0 0 0 0 0 127 0" result="hardAlpha"/>
<feOffset dy="4"/>
<feGaussianBlur stdDeviation="1.5"/>
<feComposite in2="hardAlpha" operator="out"/>
<feColorMatrix type="matrix" values="0 0 0 0 0 0 0 0 0 0 0 0 0 0 0 0 0 0 0.15 0"/>
<feBlend mode="normal" in2="BackgroundImageFix" result="effect1_dropShadow_889_14756"/>
<feBlend mode="normal" in="SourceGraphic" in2="effect1_dropShadow_889_14756" result="shape"/>
</filter>
<filter id="filter5_d_889_14756" x="158.904" y="0" width="288.398" height="74.0366" filterUnits="userSpaceOnUse" color-interpolation-filters="sRGB">
<feFlood flood-opacity="0" result="BackgroundImageFix"/>
<feColorMatrix in="SourceAlpha" type="matrix" values="0 0 0 0 0 0 0 0 0 0 0 0 0 0 0 0 0 0 127 0" result="hardAlpha"/>
<feOffset dy="4"/>
<feGaussianBlur stdDeviation="1.5"/>
<feComposite in2="hardAlpha" operator="out"/>
<feColorMatrix type="matrix" values="0 0 0 0 0 0 0 0 0 0 0 0 0 0 0 0 0 0 0.15 0"/>
<feBlend mode="normal" in2="BackgroundImageFix" result="effect1_dropShadow_889_14756"/>
<feBlend mode="normal" in="SourceGraphic" in2="effect1_dropShadow_889_14756" result="shape"/>
</filter>
</defs>
</svg>
