<svg width="80" height="120" viewBox="0 0 80 120" fill="none" xmlns="http://www.w3.org/2000/svg">
<path d="M27.0332 49.3755C22.7836 49.5229 18.3567 48.4062 16.1758 44.5291C13.6272 39.9984 15.3719 33.7299 19.9596 31.1808C19.6747 30.3809 19.2669 29.638 19.1972 28.7732C19.0175 26.5119 19.4383 23.8374 20.9857 22.0799C23.1938 19.5713 26.0875 20.2562 28.564 21.9568C28.8595 20.6637 29.3548 19.4146 30.0617 18.2863C34.8539 10.6423 49.1016 11.8878 54.577 18.1946C56.0995 19.9475 56.6728 22.3283 57.44 24.4538C58.4412 24.4004 59.3325 24.542 60.2605 24.903C63.6708 26.2275 64.6235 31.0577 63.9261 34.2302C63.4781 36.2687 62.0218 37.9356 60.4484 39.2589C60.2274 39.5909 60.738 39.5375 61.0016 39.6397C61.718 39.916 62.5845 40.4627 62.997 41.1081C65.0952 44.3921 61.0737 47.8189 57.9389 48.123C58.024 47.495 57.6398 46.8832 57.1303 46.535C56.7639 46.2854 55.713 46.405 55.3253 46.6023C55.1208 46.7068 54.4966 47.3452 54.4481 47.5391C52.7389 45.8037 51.3747 43.1616 51.9788 40.6844C49.5508 40.5324 47.2906 40.1516 45.8461 38.0528C45.5423 37.6117 45.3461 37.1114 45.0399 36.6726C42.6261 40.537 38.0053 41.6073 33.673 41.8545C33.9413 43.2882 33.9437 44.6185 33.2935 45.9546C32.0015 48.6094 29.869 49.2803 27.032 49.3778L27.0332 49.3755Z" fill="#00A06A"/>
<path d="M32.3932 56.687C32.4807 56.4339 32.9251 55.6887 32.8069 55.4937C32.7703 55.4321 31.7691 54.8866 31.5681 54.7449C29.9203 53.5771 28.6472 52.2492 27.5916 50.5404C27.3776 50.1945 27.0904 49.7708 27.0312 49.3761C29.8683 49.2775 32.0019 48.6065 33.2928 45.9529C33.9429 44.6167 33.9405 43.2864 33.6722 41.8528C38.0045 41.6067 42.6253 40.5364 45.0391 36.6709C45.3453 37.1085 45.5427 37.61 45.8453 38.0511C47.2886 40.1499 49.5488 40.5306 51.978 40.6827C51.3739 43.1599 52.7381 45.8008 54.4474 47.5374C54.3989 47.7324 54.5195 48.3163 54.5987 48.5171C54.8989 49.2693 55.828 49.534 56.5751 49.3761C57.0621 52.753 53.8185 54.9899 51.0347 56.1182C51.5252 58.8531 51.7759 61.6414 51.7215 64.4239M44.2873 46.755C45.0888 45.9993 44.6928 43.7055 43.6112 43.8727C42.5036 44.0445 42.4102 47.1984 43.9292 46.9454C44.0438 46.9256 44.2034 46.8339 44.2873 46.7538V46.755ZM48.4648 44.041C47.622 44.2894 47.7627 46.6795 48.9495 46.5309C50.1954 46.3754 49.6304 43.6974 48.4648 44.041ZM35.6534 56.752C35.4938 56.9087 35.5352 57.2384 35.6782 57.3974C35.807 57.5414 38.1228 58.3017 38.4916 58.3969C40.5827 58.9355 43.3901 58.9599 45.5415 58.7266C45.9907 58.6778 48.7568 58.3806 48.1114 57.4775C47.9152 57.2024 46.9258 57.6377 46.6196 57.6946C42.9953 58.3772 39.8935 58.0475 36.4607 56.8797C36.216 56.7961 35.9418 56.4699 35.6546 56.7508L35.6534 56.752Z" fill="#E8E8C4"/>
<path d="M57.9382 48.1227C57.9075 48.3479 57.7195 48.6323 57.5588 48.7948C57.424 48.9306 56.729 49.345 56.5765 49.3764C55.8282 49.5331 54.8991 49.2684 54.6 48.5174C54.5196 48.3166 54.4003 47.7327 54.4487 47.5376C54.4972 47.3426 55.1201 46.7053 55.3258 46.6009C55.7136 46.4035 56.7644 46.284 57.1309 46.5335C57.6403 46.8818 58.0245 47.4935 57.9394 48.1215L57.9382 48.1227Z" fill="#414141"/>
<path d="M35.6544 56.7531C35.9416 56.4721 36.2159 56.7983 36.4606 56.8819C39.8933 58.0497 42.9951 58.3794 46.6194 57.6968C46.9267 57.6388 47.915 57.2046 48.1112 57.4797C48.7566 58.3829 45.9905 58.68 45.5413 58.7288C43.3911 58.9621 40.5837 58.9377 38.4914 58.3991C38.1237 58.3039 35.8069 57.5436 35.678 57.3996C35.535 57.2394 35.4936 56.9098 35.6532 56.7542L35.6544 56.7531Z" fill="#B3CE51"/>
<path d="M44.2852 46.7556C44.2001 46.8357 44.0417 46.9274 43.927 46.9471C42.408 47.2002 42.5014 44.045 43.609 43.8744C44.6907 43.7072 45.0866 46.001 44.2852 46.7567V46.7556Z" fill="#414141"/>
<path d="M48.4116 43.8415C49.7674 43.4421 50.4235 46.5578 48.9754 46.7377C47.5274 46.9176 47.4304 44.1293 48.4116 43.8415Z" fill="#414141"/>
<path d="M49.8273 57.2878C54.7465 57.1652 59.7033 56.9996 64.6247 56.7754C65.7898 56.7224 67.3637 56.5512 68.4715 56.6407C70.2207 56.7809 69.7126 57.4181 69.8129 58.7622C70.0521 61.9936 70.0785 66.5524 69.7953 69.7827C69.7445 70.3625 69.7523 71.0462 69.1008 71.1345C68.3161 71.2416 68.1055 70.8043 67.9303 71.6304C66.4875 78.4267 66.8733 86.7382 65.9529 93.7798C65.469 97.4816 64.1706 101.002 63.4475 104.616C63.1609 106.049 63.1224 107.529 62.8622 108.906C62.7895 109.292 62.687 109.836 62.2869 109.998C53.5352 110.88 44.692 110.163 35.9248 110.421C33.0778 110.013 29.9364 110.182 27.1258 109.739C23.5093 109.168 22.6606 105.575 21.7116 102.459C19.7397 95.9918 17.9023 89.1447 16.1751 82.5968C15.4664 79.911 14.859 77.1953 14.2043 74.4973C13.241 74.5227 12.1409 74.568 11.8753 73.4294C11.5314 71.2063 10.9329 69.0185 10.5427 66.8087C10.3818 65.8964 9.91114 63.5563 10.0147 62.7711C10.0434 62.5513 10.6915 61.3751 10.88 61.1973C11.8753 60.2575 17.4283 59.3828 19.042 59.1078C22.4743 58.5214 25.9849 58.0333 29.4614 57.8036C36.2401 57.3552 43.0375 57.4601 49.8295 57.29L49.8273 57.2878ZM59.6625 70.1472C59.528 69.9109 58.8677 69.849 58.5999 69.8556C53.1141 69.9959 47.2139 70.8672 41.6917 71.2737C37.7744 71.5619 33.8229 71.5917 29.9089 71.9175C27.6449 72.1064 25.3864 72.5393 23.1169 72.6851C22.3366 72.7359 19.5678 72.3074 19.5986 73.3963C19.6218 74.2146 20.6623 73.8446 21.0635 73.8358C24.1156 73.774 26.7896 73.4095 29.781 73.2008C39.1213 72.5481 48.52 72.2267 57.8328 71.2737C58.1513 71.2416 59.2899 71.1544 59.4354 71.0826C59.6999 70.9534 59.7936 70.378 59.6614 70.1461L59.6625 70.1472Z" fill="#3F3F3F"/>
<path d="M59.6646 70.1474C59.7957 70.3782 59.7031 70.9547 59.4386 71.0839C59.292 71.1546 58.1534 71.2418 57.836 71.2749C48.5232 72.228 39.1245 72.5494 29.7842 73.2021C26.7928 73.4108 24.1199 73.7741 21.0667 73.8371C20.6666 73.8448 19.6261 74.2148 19.6018 73.3976C19.5699 72.3086 22.3398 72.7371 23.1201 72.6863C25.3896 72.5406 27.6481 72.1076 29.9121 71.9188C33.8261 71.593 37.7776 71.5632 41.6949 71.2749C47.2171 70.8685 53.1173 69.9972 58.6031 69.8569C58.8709 69.8503 59.5312 69.911 59.6657 70.1485L59.6646 70.1474Z" fill="#2A2A2A"/>
<path d="M32.3969 92.8291V93.667H23.5883V92.8291H32.3969ZM24.5981 91.0029V85.9541H25.6186V87.6836H30.3452V85.9541H31.3549V91.0029H24.5981ZM25.6186 90.1973H30.3452V88.4893H25.6186V90.1973ZM41.7065 90.0361V90.8633H32.9302V90.0361H36.8081V88.9834H34.0259V85.6748H40.6323V86.4912H35.0464V88.1455H40.729V88.9834H37.8286V90.0361H41.7065ZM33.9077 92.5391V91.7119H40.643V94.9668H39.6333V92.5391H33.9077ZM49.9849 85.5459V86.1582C49.9849 86.8403 49.9849 87.7319 49.77 88.8975L48.7603 88.833C48.8355 88.4302 48.8838 88.0703 48.916 87.7427L43.1851 88.0166L43.0562 87.2002L48.9644 87.0391C48.9697 86.7866 48.9751 86.561 48.9751 86.3516H43.3032V85.5459H49.9849ZM42.2827 90.208V89.4023H45.7525V88.3174H46.7837V89.4023H51.0376V90.208H42.2827ZM43.3247 91.7012V90.917H49.9419V93.2051H44.3345V93.9785H50.2105V94.7627H43.3355V92.4639H48.9321V91.7012H43.3247ZM59.606 85.2881V94.9346H58.5855V85.2881H59.606ZM52.1509 86.9854V86.1582H56.6627V89.6709H53.2037V91.7764C54.7667 91.771 56.1255 91.6958 57.7369 91.4326L57.8336 92.2705C56.1309 92.5552 54.6807 92.6196 52.9781 92.625H52.1617V88.8545H55.6207V86.9854H52.1509Z" fill="#D9D9D9"/>
</svg>
