<svg width="28" height="28" viewBox="0 0 28 28" fill="none" xmlns="http://www.w3.org/2000/svg">
<path d="M9.88025 22.1309C9.79895 22.2122 9.73446 22.3087 9.69047 22.415C9.64647 22.5212 9.62382 22.635 9.62382 22.75C9.62382 22.865 9.64647 22.9788 9.69047 23.085C9.73446 23.1913 9.79895 23.2878 9.88025 23.3691C9.96154 23.4504 10.0581 23.5148 10.1643 23.5588C10.2705 23.6028 10.3843 23.6255 10.4993 23.6255C10.6143 23.6255 10.7281 23.6028 10.8343 23.5588C10.9406 23.5148 11.0371 23.4504 11.1184 23.3691L19.8684 14.6191C19.9497 14.5378 20.0143 14.4413 20.0583 14.3351C20.1023 14.2288 20.125 14.115 20.125 14C20.125 13.885 20.1023 13.7711 20.0583 13.6649C20.0143 13.5587 19.9497 13.4622 19.8684 13.3809L11.1184 4.63094C10.9542 4.46675 10.7315 4.37451 10.4993 4.37451C10.2671 4.37451 10.0444 4.46675 9.88025 4.63094C9.71606 4.79512 9.62382 5.0178 9.62382 5.25C9.62382 5.48219 9.71606 5.70488 9.88025 5.86906L18.0123 14L9.88025 22.1309Z" fill="#191F28"/>
</svg>
