<svg width="80" height="80" viewBox="0 0 80 80" fill="none" xmlns="http://www.w3.org/2000/svg">
<rect width="80" height="80" rx="40" fill="#FFF48D"/>
<g clip-path="url(#clip0_891_5555)">
<path d="M57.8388 22.668H24.0817C22.123 22.668 20.5352 24.2617 20.5352 26.2278V60.6102C20.5352 62.5763 22.123 64.17 24.0817 64.17H57.8388C59.7975 64.17 61.3853 62.5763 61.3853 60.6102V26.2278C61.3853 24.2617 59.7975 22.668 57.8388 22.668Z" fill="#ACE0DB"/>
<path d="M20.7947 22.668H61.1294C61.2736 22.668 61.3889 22.7837 61.3889 22.9284V60.2557C61.3889 62.4155 59.6409 64.17 57.4892 64.17H24.4349C22.2832 64.17 20.5352 62.4155 20.5352 60.2557V22.9284C20.5352 22.7837 20.6505 22.668 20.7947 22.668Z" fill="white"/>
<path d="M22.3359 31.1353V59.9646C22.3359 61.2923 23.4064 62.3667 24.7291 62.3667H57.1887C58.5114 62.3667 59.5819 61.2923 59.5819 59.9646V31.1353H22.3359Z" fill="#A5CE58"/>
<path d="M62.0811 31.0361C67.11 30.6185 70.8494 26.188 70.4333 21.1403C70.0172 16.0927 65.6032 12.3393 60.5743 12.757C55.5454 13.1746 51.8061 17.6051 52.2222 22.6528C52.6383 27.7004 57.0523 31.4538 62.0811 31.0361Z" fill="#FFBD2E"/>
<path d="M63.5083 29.8798C59.122 31.0881 54.5771 28.4906 53.3733 24.0878C52.1695 19.6851 54.7573 15.1232 59.1436 13.9149C63.53 12.7066 68.0749 15.3041 69.2787 19.7068C70.4825 24.1096 67.8947 28.6715 63.5083 29.8798Z" fill="#FFFDED"/>
<path d="M59.7782 21.4861L54.5053 18.4725C54.3863 18.4038 54.2277 18.4508 54.1701 18.5775C53.4997 20.0282 53.2618 21.685 53.5718 23.3492C53.597 23.4867 53.7376 23.5699 53.8709 23.5337L59.7242 21.9202C59.9296 21.8623 59.962 21.5874 59.7782 21.4825V21.4861Z" fill="#FFD94F"/>
<path d="M58.6108 14.4675C57.025 15.05 55.7275 16.1027 54.8264 17.4195C54.7471 17.5353 54.7868 17.6909 54.9057 17.7596C55.7707 18.2552 58.946 20.0677 60.1823 20.7731C60.3661 20.878 60.5823 20.708 60.5283 20.5018C60.1534 19.1235 59.1839 15.589 58.9208 14.6231C58.8848 14.4892 58.7406 14.4132 58.6108 14.4603V14.4675Z" fill="#FFD94F"/>
<path d="M59.6962 14.4182C59.9593 15.3805 60.9253 18.9186 61.3037 20.297C61.3614 20.5032 61.6353 20.5357 61.7398 20.3512L64.7421 15.0586C64.8106 14.9392 64.7638 14.78 64.6376 14.7221C63.1923 14.0492 61.5416 13.8105 59.8837 14.1216C59.7467 14.1469 59.6638 14.2844 59.6998 14.4182H59.6962Z" fill="#FFD94F"/>
<path d="M59.9395 22.6921L54.0863 24.3056C53.9529 24.3417 53.8772 24.4864 53.9241 24.6167C54.5044 26.2085 55.5532 27.5108 56.8651 28.4152C56.9805 28.4948 57.1354 28.455 57.2039 28.3357C57.6977 27.4674 59.5034 24.2802 60.2062 23.0394C60.3107 22.8549 60.1413 22.6378 59.9359 22.6921H59.9395Z" fill="#FFD94F"/>
<path d="M62.7126 21.1122L68.5658 19.4988C68.6992 19.4626 68.7749 19.3179 68.728 19.1876C68.1477 17.5958 67.0989 16.2935 65.787 15.3891C65.6716 15.3095 65.5167 15.3493 65.4482 15.4687C64.9544 16.3369 63.1487 19.5241 62.4459 20.7649C62.3414 20.9494 62.5108 21.1665 62.7162 21.1122H62.7126Z" fill="#FFD94F"/>
<path d="M62.8746 22.3178L68.1476 25.3313C68.2665 25.4001 68.4251 25.353 68.4828 25.2264C69.1532 23.7757 69.3911 22.1188 69.0811 20.4547C69.0559 20.3172 68.9153 20.234 68.7819 20.2702L62.9287 21.8837C62.7233 21.9416 62.6908 22.2165 62.8746 22.3214V22.3178Z" fill="#FFD94F"/>
<path d="M62.1256 23.284L63.7331 29.1591C63.7692 29.293 63.9133 29.369 64.0431 29.3219C65.6289 28.7395 66.9264 27.6867 67.8275 26.3699C67.9068 26.2541 67.8671 26.0986 67.7482 26.0298C66.8832 25.5342 63.7079 23.7218 62.4716 23.0163C62.2878 22.9114 62.0716 23.0814 62.1256 23.2876V23.284Z" fill="#FFD94F"/>
<path d="M60.9088 23.44L57.9065 28.7327C57.838 28.8521 57.8849 29.0113 58.011 29.0691C59.4563 29.742 61.1071 29.9808 62.765 29.6697C62.9019 29.6444 62.9848 29.5069 62.9488 29.373C62.6857 28.4107 61.7198 24.8726 61.3413 23.4943C61.2837 23.2881 61.0097 23.2555 60.9052 23.44H60.9088Z" fill="#FFD94F"/>
<g opacity="0.57">
<path d="M45.2258 36.4145L38.9945 30.16C38.7904 29.9551 38.4596 29.9551 38.2555 30.16L32.0242 36.4145C31.8201 36.6194 31.8201 36.9515 32.0242 37.1564L38.2555 43.4109C38.4595 43.6157 38.7904 43.6157 38.9945 43.4109L45.2258 37.1564C45.4299 36.9515 45.4299 36.6194 45.2258 36.4145Z" fill="#F2F9F3"/>
</g>
<g opacity="0.57">
<path d="M48.9013 32.1682L41.2285 36.5184C40.9772 36.6609 40.8885 36.9809 41.0305 37.2331L45.3645 44.9346C45.5064 45.1869 45.8252 45.2759 46.0766 45.1334L53.7494 40.7832C54.0007 40.6407 54.0894 40.3207 53.9474 40.0684L49.6134 32.3669C49.4715 32.1147 49.1526 32.0257 48.9013 32.1682Z" fill="#F2F9F3"/>
</g>
<g opacity="0.57">
<path d="M24.2961 36.7181L31.4515 34.702C31.7291 34.6238 32.0179 34.7866 32.0959 35.0653L34.1044 42.2473C34.1824 42.526 34.0201 42.8159 33.7425 42.8942L26.5872 44.9102C26.3096 44.9885 26.0207 44.8256 25.9428 44.547L23.9342 37.3649C23.8563 37.0863 24.0185 36.7963 24.2961 36.7181Z" fill="#F2F9F3"/>
</g>
<path d="M63.8667 30.7249C63.8415 30.7321 63.809 30.7031 63.7838 30.6959C63.7586 30.6887 63.7297 30.6851 63.7045 30.6851C63.6505 30.6851 63.6685 30.7719 63.7225 30.7466C63.7514 30.7321 63.8379 30.7104 63.8559 30.7466C63.8739 30.7827 63.9136 30.7104 63.8667 30.7212V30.7249Z" fill="#BCD64D"/>
</g>
<path d="M43.7922 67.2811C31.5409 66.7403 20.4896 57.7926 13.962 47.8502C13.7844 47.5816 14.2136 47.303 14.4201 47.5351C18.4183 52.1001 22.2802 56.7118 27.25 60.2684C32.2198 63.8251 37.8277 66.0576 43.8121 66.9959C43.9877 67.0205 43.9758 67.2857 43.7968 67.274L43.7922 67.2811Z" fill="#64A40C"/>
<path d="M14.3428 48.1382C14.4323 46.7814 14.5252 45.4117 14.3423 44.0626C14.1595 42.7135 13.6785 41.3652 12.7584 40.3648C11.901 41.6 12.3309 43.2889 12.8557 44.7014C13.2943 45.8751 13.7772 47.0275 14.3044 48.1584" fill="#64A40C"/>
<path d="M14.2105 48.1709C13.9416 45.5871 14.0343 42.8975 12.3089 40.7751L13.2682 40.7041C11.8521 43.1186 14.3731 45.7296 14.6332 48.0954C14.6697 48.4178 14.2974 48.6478 14.0545 48.3867C12.96 47.2208 12.3571 45.2563 11.9342 43.7187C11.5799 42.4236 11.5887 41.2058 12.2456 40.0305C12.4369 39.6914 12.9629 39.6738 13.2049 39.9596C15.1917 42.3149 15.1533 45.3537 14.4702 48.1903C14.4362 48.3196 14.2152 48.3105 14.1989 48.1734L14.2105 48.1709Z" fill="#64A40C"/>
<path d="M17.3905 51.7875C13.3032 51.9521 8.95772 51.6938 5.56607 49.4042C5.45322 49.3299 5.33211 49.245 5.28078 49.1152C5.17715 48.8801 5.33735 48.5962 5.56324 48.4821C5.78791 48.3621 6.05686 48.3673 6.31536 48.3809C9.90022 48.5528 13.4364 49.633 16.5089 51.5001L17.3975 51.7921L17.3905 51.7875Z" fill="#64A40C"/>
<path d="M17.4117 51.8946C14.5895 52.4931 11.3667 52.2766 8.60075 51.4457C7.63263 51.1519 3.91533 50.0787 4.87436 48.3946C5.77578 46.8142 10.5298 48.4236 11.7594 48.8037C13.1776 49.2423 14.5305 49.8351 15.8444 50.5337C16.3846 50.8187 17.3442 51.0715 17.6854 51.63C17.7767 51.776 17.6991 52.0182 17.5418 52.0815C16.9638 52.3176 16.4198 51.9846 15.9115 51.7358C13.5557 50.5936 11.3731 49.611 8.76355 49.1816C8.33507 49.1117 7.77015 48.9418 7.34388 48.9998C6.57887 49.0977 6.32378 49.0712 7.04609 49.6178C7.91311 50.2748 9.27298 50.5789 10.3145 50.8453C12.6483 51.442 15.0339 51.3498 17.3971 51.6777C17.5165 51.6957 17.5413 51.8738 17.4129 51.9005L17.4117 51.8946Z" fill="#64A40C"/>
<path d="M19.2433 52.3857C17.9533 49.8978 16.6266 47.2037 16.9934 44.4267C17.0276 44.1813 17.0816 43.9134 17.2732 43.7514C17.5204 43.5351 17.9219 43.5922 18.1819 43.7887C18.4477 43.984 18.6034 44.2939 18.7379 44.5898C20.0459 47.4283 21.0623 51.354 20.4196 54.4145C20.4196 54.4145 19.5189 52.9212 19.2433 52.3857Z" fill="#64A40C"/>
<path d="M19.1813 52.4533C18.3327 51.4747 14.1825 42.896 17.8139 43.1744C19.2926 43.2888 19.8108 45.9004 20.1504 46.9786C20.9149 49.3984 21.2968 51.9405 20.852 54.4588C20.7793 54.871 20.2719 55.007 20.0466 54.6261C19.6353 53.9355 19.1457 53.2489 18.9231 52.4703C18.8303 52.1412 19.287 51.9364 19.5018 52.179C20.0351 52.7831 20.3956 53.5514 20.8128 54.2408L20.0074 54.4081C20.5038 51.4636 19.8455 48.4412 18.7301 45.7094C18.4856 45.1185 18.0609 44.3635 17.4203 45.236C17.1497 45.6038 17.6614 47.569 17.8001 48.0901C18.1933 49.5727 18.9863 50.8989 19.3386 52.39C19.3557 52.4721 19.2509 52.5244 19.1954 52.4626L19.1813 52.4533Z" fill="#64A40C"/>
<path d="M20.1678 59.1843C17.546 59.8389 14.6088 60.2352 12.2688 58.8759C11.6873 58.5384 11.1038 57.9569 11.2282 57.2956C11.383 56.4874 12.4052 56.2506 13.2211 56.2216C15.824 56.1209 18.4388 56.3415 20.992 56.8805C21.6221 57.0124 22.2582 57.1735 22.8232 57.49C22.8232 57.49 21.3882 58.8758 20.1665 59.1784L20.1678 59.1843Z" fill="#64A40C"/>
<path d="M20.199 59.2471C18.5638 60.314 15.8632 60.4717 13.9866 60.0244C12.7823 59.7368 10.4006 58.8506 10.8112 57.1643C11.2219 55.4781 13.6092 55.746 14.8182 55.7637C17.4421 55.793 20.5418 55.974 22.9618 57.1028C23.2446 57.2335 23.368 57.5928 23.1127 57.8292C22.2865 58.5996 21.3628 59.3109 20.2399 59.532C19.8664 59.6095 19.6844 59.0852 20.0185 58.9058C20.9218 58.4187 21.7828 57.9038 22.5428 57.196L22.6937 57.9223C21.1928 57.232 19.5122 57.0251 17.8809 56.8506C16.6417 56.717 14.5759 56.2967 13.3937 56.7012C12.4326 56.5587 12.1382 57.1636 12.5176 58.5208L13.6299 59.0108C14.4341 59.2776 15.3023 59.3539 16.1419 59.3811C17.502 59.4224 18.8326 58.9994 20.1737 59.1546C20.2299 59.1613 20.2386 59.2328 20.1956 59.2601L20.199 59.2471Z" fill="#64A40C"/>
<path d="M28.5552 53.938C28.5702 51.7535 27.8994 49.4914 26.3598 47.9414C26.2762 47.861 26.1855 47.776 26.0765 47.7497C25.738 47.6734 25.5382 48.1182 25.4896 48.4705C24.9675 52.4041 26.157 56.3427 27.3336 60.1312C27.3336 60.1312 28.5415 56.1285 28.5564 53.9439L28.5552 53.938Z" fill="#64A40C"/>
<path d="M28.471 53.962C28.0664 52.5123 27.9977 50.6873 26.9128 49.5378C26.2488 48.8325 26.1931 48.8868 25.908 49.771C25.697 50.4259 25.9621 52.1123 26.0208 52.5706C26.3245 55.1167 27.087 57.5858 27.8259 60.0293L26.8398 59.9714C27.4433 57.9823 27.8174 55.9737 28.1281 53.9232C28.2102 53.3807 28.9286 53.4392 28.9668 53.9751C29.0924 56.0449 28.3849 58.3244 27.8094 60.3016C27.6582 60.834 26.9649 60.6909 26.8233 60.2437C25.964 57.5136 25.1115 54.7576 24.8858 51.8837C24.7776 50.513 24.3329 48.0206 25.8235 47.2832C25.9946 47.1988 26.197 47.2056 26.3592 47.3125C28.3072 48.631 29.0917 51.7921 28.6266 53.9785C28.6086 54.0678 28.4868 54.0381 28.4664 53.9691L28.471 53.962Z" fill="#64A40C"/>
<path d="M29.8464 62.7957C28.699 64.8917 26.463 66.1139 24.2702 67.046C23.5152 67.3678 22.7366 67.664 21.9247 67.741C21.3277 67.7978 20.7227 67.7279 20.1291 67.6251C19.5729 67.5268 19.0048 67.4004 18.5265 67.0903C18.0493 66.7862 17.6733 66.2654 17.671 65.6976C17.6662 64.6782 18.746 64.0445 19.6866 63.678C22.9451 62.3962 26.5899 61.5963 29.9466 62.6038" fill="#64A40C"/>
<path d="M30.0396 62.9188C28.7138 65.5039 26.3268 66.9958 23.6263 67.8867C21.8435 68.4771 18.0454 68.6855 17.2746 66.3526C16.5039 64.0196 19.5375 63.1205 21.1176 62.609C23.732 61.7726 27.5721 60.8283 30.0799 62.4093C30.2903 62.5428 30.151 62.8101 29.9465 62.822C28.1118 62.9282 26.3538 62.554 24.496 62.8421C23.6938 62.966 22.8945 63.1626 22.1142 63.3919C21.5917 63.5432 19.6598 63.914 19.3656 64.4028L19.475 66.9221C20.5146 67.2377 21.559 67.2835 22.6199 67.057C23.5396 66.8538 24.499 66.3734 25.3362 65.9489C26.9838 65.1178 28.5463 64.17 29.6658 62.6725C29.8428 62.4402 30.1697 62.6657 30.0396 62.9188Z" fill="#64A40C"/>
<path d="M32.3833 64.0893C31.0918 59.8358 31.8313 55.0138 34.3409 51.3578C34.639 50.917 34.9711 50.4936 35.3657 50.1367C35.4423 50.0658 35.5376 49.9971 35.6441 50.0116C35.7448 50.0274 35.8075 50.1243 35.8574 50.2178C36.5373 51.4393 36.5307 52.9316 36.3186 54.3138C35.8333 57.4577 32.3891 64.0881 32.3891 64.0881L32.3833 64.0893Z" fill="#64A40C"/>
<path d="M32.2352 64.147C31.0425 61.6878 30.9936 58.6977 31.6293 56.0725C32.1134 54.0655 33.3124 50.4007 35.3801 49.4823C35.6306 49.3691 35.873 49.4227 36.0698 49.6079C38.1259 51.5639 36.6586 55.7244 35.8112 57.9169C35.0188 59.9635 34.1762 62.5889 32.8062 64.3461C32.4648 64.7836 31.7387 64.4823 31.9059 63.9098C32.7368 61.1403 34.489 58.6437 35.3442 55.8447C35.5834 55.0617 36.39 52.4683 35.8078 51.8926C34.556 50.6434 33.3889 54.3444 33.2083 54.8524C32.1063 57.9288 32.2855 60.843 32.5476 64.0393C32.5596 64.214 32.3232 64.3364 32.2352 64.147Z" fill="#64A40C"/>
<path d="M25.3939 69.2333C24.8165 69.6771 24.2189 70.229 24.1628 70.9556C24.1458 71.1669 24.1874 71.3966 24.3185 71.5587C24.4496 71.7209 24.6503 71.8076 24.8414 71.8779C27.0449 72.6972 29.6332 72.3795 31.5737 71.0537C33.3759 69.8239 34.5384 67.8593 35.5269 65.9063C35.5269 65.9063 28.229 67.0557 25.3927 69.2275L25.3939 69.2333Z" fill="#64A40C"/>
<path d="M25.5848 69.3649C25.3779 69.6584 25.171 69.9519 24.9782 70.2547C25.4774 71.2509 26.213 71.7153 27.1852 71.6478C28.5696 71.8062 30.0359 71.245 31.1616 70.5101C32.9677 69.3283 34.0257 67.4465 34.9937 65.5712L35.6611 66.5568C34.3184 66.7747 32.9785 67.0652 31.6613 67.406C29.4889 67.9673 27.5899 69.0828 25.499 69.7433C25.0873 69.8715 24.7203 69.3062 24.9736 68.9725C26.1442 67.4278 28.7855 66.8669 30.562 66.3634C32.1496 65.9175 33.7671 65.5571 35.3983 65.2916C35.9809 65.195 36.3224 65.784 36.0657 66.2773C34.2046 69.8902 31.5317 73.1708 27.0889 73.0304C26.0411 72.9976 24.2377 72.7856 23.7424 71.6908C23.2007 70.4896 24.3171 69.4755 25.2864 69.042C25.4821 68.9585 25.7095 69.174 25.5731 69.3673L25.5848 69.3649Z" fill="#64A40C"/>
<defs>
<clipPath id="clip0_891_5555">
<rect width="70.7579" height="52.9412" fill="white" transform="translate(7.20312 12)"/>
</clipPath>
</defs>
</svg>
