<svg width="80" height="80" viewBox="0 0 80 80" fill="none" xmlns="http://www.w3.org/2000/svg">
<g clip-path="url(#clip0_889_14076)">
<rect width="80" height="80" rx="40" fill="#BFEBD8"/>
<path d="M67.3457 41.798C74.544 47.4432 77.5105 56.5982 74.893 65.0984L65.7191 94.8639C64.3605 99.2644 60.1038 102.291 55.2551 102.291H25.0972C20.2547 102.291 15.9918 99.2644 14.6332 94.8639L5.50914 65.2635C2.86665 56.6807 5.91423 47.4432 13.2434 41.8157L16.615 39.2202C19.0581 37.3503 21.0026 34.9907 22.4983 32.3775C25.9385 26.3725 32.6631 22.2905 40.3849 22.2905C48.1067 22.2905 54.8375 26.3725 58.2778 32.3893C59.7797 35.0143 61.718 37.3915 64.1486 39.3028L67.3395 41.8039L67.3457 41.798ZM71.0539 67.6762C75.4913 53.1945 68.5298 46.5583 64.348 43.9982C63.1576 43.2668 61.5684 43.9746 61.4188 45.3196C60.0664 57.1113 49.5526 60.7273 45.5951 61.5237C44.7163 61.6947 44.0931 62.4321 44.0931 63.2815V96.663C44.0931 97.66 44.9469 98.4681 46.0002 98.4681H57.212C60.1537 98.4681 62.7276 96.6041 63.5066 93.9142L71.0602 67.6762H71.0539ZM58.3276 41.5266C58.3276 32.1888 50.3005 24.5911 40.4348 24.5911C30.5691 24.5911 22.5357 32.1888 22.5357 41.5266C22.5357 50.8645 30.5629 58.4681 40.4348 58.4681C50.3067 58.4681 58.3276 50.8704 58.3276 41.5266ZM36.8637 96.6571V63.2756C36.8637 62.4262 36.2405 61.6888 35.3617 61.5178C31.4042 60.7273 20.8904 57.1055 19.538 45.3137C19.3822 43.9746 17.7992 43.2609 16.6088 43.9923C12.4207 46.5524 5.46551 53.1886 9.90289 67.6703L17.4564 93.9083C18.223 96.5982 20.8094 98.4622 23.751 98.4622H34.9628C36.0161 98.4622 36.8699 97.6541 36.8699 96.6571H36.8637Z" fill="#E9EECF"/>
<path d="M64.351 43.9943C68.5328 46.5544 75.4942 53.1906 71.0569 67.6722L63.5034 93.9102C62.7306 96.6001 60.1504 98.4641 57.2088 98.4641H45.9969C44.9437 98.4641 44.0898 97.656 44.0898 96.6591V63.2776C44.0898 62.4281 44.7131 61.6908 45.5918 61.5197C49.5493 60.7293 60.0631 57.1074 61.4155 45.3156C61.5714 43.9766 63.1544 43.2628 64.3447 43.9943H64.351Z" fill="#C2D16E"/>
<path d="M40.4326 25.8794C49.5505 25.8794 56.9606 32.899 56.9606 41.5231C56.9606 50.1472 49.5505 57.1727 40.4326 57.1727C31.3148 57.1727 23.8984 50.1531 23.8984 41.5231C23.8984 32.8931 31.3148 25.8794 40.4326 25.8794ZM43.4678 41.5231C43.4678 40.3138 42.6825 39.2815 41.5669 38.8627V28.4395C41.5669 28.1445 41.4423 27.8732 41.2366 27.6785C41.0309 27.4839 40.7443 27.3659 40.4326 27.3659C39.8032 27.3659 39.2921 27.8496 39.2921 28.4454V38.8686C38.1766 39.2933 37.3913 40.3256 37.3913 41.529C37.3913 42.7324 38.1766 43.7706 39.2921 44.1894V46.8321C39.2921 47.4278 39.8032 47.9115 40.4326 47.9115C41.0621 47.9115 41.5732 47.4278 41.5732 46.8321V44.1894C42.6825 43.7647 43.474 42.7324 43.474 41.529L43.4678 41.5231Z" fill="white"/>
<path d="M41.5701 28.4506V38.8738C41.2211 38.7381 40.8347 38.6615 40.4296 38.6615C40.0245 38.6615 39.6443 38.7322 39.2891 38.8738V28.4506C39.2891 27.8548 39.8001 27.3711 40.4296 27.3711C40.7412 27.3711 41.0279 27.4891 41.2335 27.6837C41.4392 27.8843 41.5638 28.1497 41.5638 28.4447L41.5701 28.4506Z" fill="#E8EBB9"/>
<path d="M40.4359 38.6406C40.8347 38.6406 41.2211 38.7114 41.5764 38.853C42.6857 39.2777 43.4772 40.31 43.4772 41.5134C43.4772 42.7167 42.692 43.7549 41.5764 44.1737C41.2274 44.3094 40.841 44.3861 40.4359 44.3861C40.0308 44.3861 39.6506 44.3153 39.2954 44.1737C38.1798 43.749 37.3945 42.7167 37.3945 41.5134C37.3945 40.31 38.1798 39.2718 39.2954 38.853C39.6444 38.7173 40.0308 38.6406 40.4359 38.6406Z" fill="#314E70"/>
<path d="M39.293 44.1851C39.642 44.3207 40.0284 44.3974 40.4335 44.3974C40.8386 44.3974 41.2187 44.3266 41.574 44.1851V46.8277C41.574 47.4235 41.0629 47.9072 40.4335 47.9072C39.804 47.9072 39.293 47.4235 39.293 46.8277V44.1851Z" fill="#E8EBB9"/>
<path d="M36.8621 63.2785V96.66C36.8621 97.6569 36.0083 98.4651 34.955 98.4651H23.7432C20.8016 98.4651 18.2214 96.6011 17.4486 93.9112L9.89509 67.6732C5.45771 53.1915 12.4129 46.5553 16.601 43.9953C17.7914 43.2638 19.3806 43.9717 19.5302 45.3166C20.8826 57.1084 31.3964 60.7243 35.3539 61.5207C36.2327 61.6918 36.8559 62.4291 36.8559 63.2785H36.8621Z" fill="#C2D16E"/>
<path d="M22.5352 41.5244C22.5352 32.1866 30.5623 24.5889 40.4342 24.5889C50.3061 24.5889 58.3271 32.1866 58.3271 41.5244C58.3271 50.8623 50.2999 58.4659 40.4342 58.4659C30.5685 58.4659 22.5352 50.8682 22.5352 41.5244ZM23.9 41.5244C23.9 50.1544 31.3164 57.174 40.4342 57.174C49.552 57.174 56.9622 50.1544 56.9622 41.5244C56.9622 32.8944 49.552 25.8807 40.4342 25.8807C31.3164 25.8807 23.9 32.9003 23.9 41.5244Z" fill="#C2D16E"/>
<path d="M40.436 44.6357C40.006 44.6357 39.5947 44.559 39.2083 44.4056C37.968 43.9337 37.1641 42.807 37.1641 41.5388C37.1641 40.2705 37.968 39.138 39.2083 38.6661C39.9748 38.3652 40.891 38.3652 41.6638 38.6661C42.904 39.138 43.7079 40.2646 43.7079 41.5329C43.7079 42.8011 42.904 43.9278 41.6638 44.4056C41.2836 44.559 40.866 44.6357 40.436 44.6357ZM40.436 38.8902C40.0683 38.8902 39.7131 38.9551 39.389 39.0849C38.3233 39.486 37.6377 40.4534 37.6377 41.5388C37.6377 42.6242 38.3233 43.5916 39.389 43.9927C40.0496 44.2523 40.8349 44.2523 41.4893 43.9927C42.555 43.5857 43.2405 42.6242 43.2405 41.5388C43.2405 40.4534 42.555 39.486 41.4893 39.0849C41.1589 38.9551 40.8037 38.8902 40.4422 38.8902H40.436Z" fill="#314E70"/>
<path d="M28.8933 41.7506H25.397C25.2661 41.7506 25.1602 41.6503 25.1602 41.5264C25.1602 41.4025 25.2661 41.3022 25.397 41.3022H28.8933C29.0242 41.3022 29.1301 41.4025 29.1301 41.5264C29.1301 41.6503 29.0242 41.7506 28.8933 41.7506Z" fill="#314E70"/>
<path d="M55.0066 41.7506H51.5103C51.3794 41.7506 51.2734 41.6503 51.2734 41.5264C51.2734 41.4025 51.3794 41.3022 51.5103 41.3022H55.0066C55.1374 41.3022 55.2434 41.4025 55.2434 41.5264C55.2434 41.6503 55.1374 41.7506 55.0066 41.7506Z" fill="#314E70"/>
<path d="M40.1978 55.7659C40.0669 55.7659 39.9609 55.6656 39.9609 55.5417V52.2325C39.9609 52.1086 40.0669 52.0083 40.1978 52.0083C40.3286 52.0083 40.4346 52.1086 40.4346 52.2325V55.5417C40.4346 55.6656 40.3286 55.7659 40.1978 55.7659Z" fill="#314E70"/>
<path d="M32.2009 34.1954C32.1386 34.1954 32.0825 34.1718 32.0326 34.1305L29.5584 31.7887C29.4649 31.7002 29.4649 31.5587 29.5584 31.4702C29.6519 31.3817 29.8015 31.3817 29.8949 31.4702L32.3691 33.812C32.4626 33.9005 32.4626 34.0421 32.3691 34.1305C32.3255 34.1718 32.2632 34.1954 32.2009 34.1954Z" fill="#314E70"/>
<path d="M50.6657 51.6549C50.6034 51.6549 50.5473 51.6313 50.4974 51.59L48.0232 49.2482C47.9298 49.1597 47.9298 49.0181 48.0232 48.9296C48.1167 48.8412 48.2663 48.8412 48.3598 48.9296L50.834 51.2715C50.9275 51.36 50.9275 51.5015 50.834 51.59C50.7904 51.6313 50.728 51.6549 50.6657 51.6549Z" fill="#314E70"/>
<path d="M48.1915 34.1954C48.1292 34.1954 48.0731 34.1718 48.0232 34.1305C47.9298 34.0421 47.9298 33.9005 48.0232 33.812L50.4974 31.4702C50.5909 31.3817 50.7405 31.3817 50.834 31.4702C50.9275 31.5587 50.9275 31.7002 50.834 31.7887L48.3598 34.1305C48.3162 34.1718 48.2538 34.1954 48.1915 34.1954Z" fill="#314E70"/>
<path d="M29.7267 51.6549C29.6643 51.6549 29.6083 51.6313 29.5584 51.59C29.4649 51.5015 29.4649 51.36 29.5584 51.2715L32.0326 48.9296C32.1261 48.8412 32.2757 48.8412 32.3691 48.9296C32.4626 49.0181 32.4626 49.1597 32.3691 49.2482L29.8949 51.59C29.8513 51.6313 29.789 51.6549 29.7267 51.6549Z" fill="#314E70"/>
<path fill-rule="evenodd" clip-rule="evenodd" d="M55.9073 25.4627V14.3234H49.176V25.4627H45.1445L48.8454 31.8635L52.5371 38.2734L56.2379 31.8635L59.9388 25.4627H55.9073Z" fill="#E2481E"/>
<path fill-rule="evenodd" clip-rule="evenodd" d="M55.9054 25.4627V14.3234H52.5352V38.2734L56.236 31.8635L59.9369 25.4627H55.9054Z" fill="#D61D10"/>
</g>
<defs>
<clipPath id="clip0_889_14076">
<rect width="80" height="80" rx="40" fill="white"/>
</clipPath>
</defs>
</svg>
