<svg width="80" height="80" viewBox="0 0 80 80" fill="none" xmlns="http://www.w3.org/2000/svg">
<rect width="80" height="80" rx="40" fill="#F9E4A9"/>
<g clip-path="url(#clip0_891_5702)">
<path d="M47.3638 29.6141C47.3638 29.6141 53.3918 21.1661 53.3918 17.7437C53.3918 14.3212 48.4794 20.0276 46.2482 17.7437C44.0169 15.4598 46.2482 10.6665 40.6678 10.6665C35.0874 10.6665 37.3186 19.1145 33.7468 17.7437C30.175 16.3729 28.9425 13.0767 26.1556 15.9265C23.3687 18.7763 31.9609 29.6163 31.9609 29.6163C31.9609 29.6163 19.012 35.5527 17.4488 50.6201C15.8856 65.6875 30.8431 70.4808 44.9098 69.1122C55.7994 68.0526 63.7699 61.8863 62.5462 50.8478C61.2057 38.7655 54.5405 33.9496 47.366 29.6163L47.3638 29.6141Z" fill="#EC6B6B"/>
<path d="M53.0059 52.5011C54.1476 45.1547 49.2492 38.2527 42.0648 37.0852C34.8805 35.9177 28.1309 40.9267 26.9892 48.2732C25.8474 55.6197 30.7459 62.5217 37.9302 63.6892C45.1146 64.8567 51.8642 59.8476 53.0059 52.5011Z" fill="white"/>
<path d="M39.9989 62.8176C33.2963 62.8176 27.8438 57.242 27.8438 50.388C27.8438 43.5341 33.2963 37.9585 39.9989 37.9585C46.7016 37.9585 52.1541 43.5341 52.1541 50.388C52.1541 57.242 46.7016 62.8176 39.9989 62.8176ZM39.9989 38.6529C33.6689 38.6529 28.5206 43.9174 28.5206 50.3903C28.5206 56.8632 33.6689 62.1277 39.9989 62.1277C46.329 62.1277 51.4772 56.8632 51.4772 50.3903C51.4772 43.9174 46.329 38.6529 39.9989 38.6529Z" fill="#FDC21E"/>
<path d="M33.7711 29.4292C33.7711 29.4292 27.4609 19.8991 30.8585 21.3646C34.2561 22.83 37.5325 28.6965 37.5325 26.7057C37.5325 24.7149 38.2314 20.4537 39.1111 21.2113C39.9887 21.9688 39.7792 28.4327 41.1749 27.2288C42.5705 26.0248 45.6661 19.7931 45.6661 21.7839C45.6661 23.7747 44.2704 27.0732 44.696 26.7057C45.1215 26.3382 48.8212 20.8415 48.8212 23.2494C48.8212 25.6573 44.8172 27.2288 46.1511 29.4292C47.4851 31.6275 51.855 34.0376 50.2764 34.0376C48.6977 34.0376 44.2087 30.3716 43.4811 31.0007C42.7535 31.6297 39.4771 35.086 39.4771 34.0376C39.4771 32.9892 39.5389 30.3198 38.6283 31.1044C37.7177 31.889 35.3519 36.3147 35.3519 34.2338C35.3519 32.1528 35.9583 30.162 35.3519 30.6873C34.7456 31.2104 28.9734 35.8187 29.8575 33.5145C30.7416 31.2104 33.7755 29.4292 33.7755 29.4292H33.7711Z" fill="#D65757"/>
<path d="M44.9059 69.11C52.4464 68.375 58.5846 65.1938 61.2437 59.643C52.0892 65.6176 35.7184 69.3963 26.8286 62.8197C17.0326 55.5712 19.9253 43.9262 22.5424 37.5908C20.1149 40.8149 18.0181 45.1054 17.4449 50.6178C15.8817 65.6853 30.8392 70.4785 44.9059 69.11Z" fill="#D65757"/>
<path d="M38.0282 45.1774H32.783C32.3883 45.1774 32.0664 44.8505 32.0664 44.4447C32.0664 44.0388 32.3861 43.7119 32.783 43.7119H38.0282C38.4229 43.7119 38.7448 44.0388 38.7448 44.4447C38.7448 44.8505 38.4251 45.1774 38.0282 45.1774Z" fill="#EC6B6B"/>
<path d="M47.6194 45.1774H40.0525C39.6578 45.1774 39.3359 44.8505 39.3359 44.4447C39.3359 44.0388 39.6556 43.7119 40.0525 43.7119H47.6194C48.0141 43.7119 48.336 44.0388 48.336 44.4447C48.336 44.8505 48.0163 45.1774 47.6194 45.1774Z" fill="#EC6B6B"/>
<path d="M32.6446 47.8243C32.2632 47.8243 31.9457 47.5155 31.9302 47.1232C31.9148 46.7196 32.2213 46.3792 32.6159 46.3611L38.3529 46.1199C38.7409 46.1018 39.0805 46.4175 39.0981 46.8211C39.1136 47.2246 38.8071 47.5651 38.4124 47.5831L32.6755 47.8243C32.6755 47.8243 32.6556 47.8243 32.6446 47.8243Z" fill="#EC6B6B"/>
<path d="M35.7752 58.209C35.3805 58.209 35.0586 57.8821 35.0586 57.4763V47.0916C35.0586 46.6881 35.3783 46.3589 35.7752 46.3589C36.172 46.3589 36.4917 46.6858 36.4917 47.0916V57.4763C36.4917 57.8798 36.172 58.209 35.7752 58.209Z" fill="#EC6B6B"/>
<path d="M32.3766 54.2204C32.2355 54.2204 32.0944 54.1776 31.9687 54.0897C31.6424 53.8597 31.563 53.4043 31.7879 53.0706C32.5948 51.8802 32.9145 50.1734 32.9167 50.1554C32.9895 49.7586 33.3643 49.4948 33.7524 49.5692C34.1404 49.6436 34.3984 50.0246 34.3256 50.4214C34.3102 50.5026 33.9508 52.4483 32.9653 53.9025C32.8264 54.1077 32.6037 54.2182 32.3766 54.2182V54.2204Z" fill="#EC6B6B"/>
<path d="M38.3839 54.0156C38.1017 54.0156 37.8327 53.8442 37.7202 53.5602C37.3234 52.5636 36.8163 50.5593 36.7964 50.4759C36.6972 50.0836 36.9287 49.6845 37.3101 49.5831C37.6938 49.4816 38.084 49.7183 38.1832 50.1084C38.1877 50.1287 38.6881 52.1014 39.0475 53.0078C39.1953 53.382 39.0211 53.8104 38.6551 53.9615C38.5669 53.9975 38.4743 54.0156 38.3861 54.0156H38.3839Z" fill="#EC6B6B"/>
<path d="M43.7724 50.1895C43.327 50.1895 41.0693 50.1759 40.4166 49.9009C40.194 49.8062 39.8037 49.5514 39.6736 48.8953C39.5325 48.1716 39.7706 47.1683 40.1829 46.7445C40.324 46.6002 40.7011 46.2146 43.219 46.1177H45.6663C46.1051 46.1177 46.9209 46.4514 46.9209 47.7094V47.9033C46.9275 48.6992 46.9319 49.7904 45.6509 50.0745C45.2342 50.1669 44.3986 50.1872 43.7724 50.1872V50.1895ZM41.0693 48.5729C41.4331 48.6406 42.4649 48.724 43.7724 48.724C44.672 48.724 45.1835 48.6811 45.3466 48.6451C45.4348 48.6248 45.4635 48.6045 45.4635 48.6045C45.4944 48.5346 45.4921 48.1739 45.4899 47.9123V47.7094C45.4899 47.6576 45.4855 47.6147 45.4833 47.5809H43.2454C42.4076 47.6147 41.4838 47.7229 41.1729 47.8244C41.1046 47.9845 41.0406 48.3678 41.0693 48.5707V48.5729Z" fill="#EC6B6B"/>
<path d="M44.9305 57.4805H41.0632C41.0081 57.4805 40.953 57.4738 40.8979 57.4602C40.4613 57.3543 39.6367 56.847 39.6367 55.6814V52.1912C39.6367 51.1406 40.5672 50.6514 41.1977 50.6514H45.4685C45.5611 50.6514 45.6537 50.6694 45.7397 50.7055C46.1806 50.8904 46.9259 51.4495 46.9259 52.3806V56.006C46.9501 56.2473 46.8994 56.5629 46.6855 56.8425C46.357 57.2708 45.7838 57.4783 44.9305 57.4783V57.4805ZM41.1977 56.0173H44.9283C45.2105 56.0173 45.4001 55.9835 45.4927 55.9609V52.3829C45.4927 52.2792 45.3803 52.18 45.2877 52.1169H41.1955C41.1735 52.1236 41.0831 52.1619 41.061 52.1867L41.0676 55.6814C41.0676 55.8459 41.1117 55.9587 41.1977 56.015V56.0173Z" fill="#EC6B6B"/>
<path d="M43.283 57.4805C42.8883 57.4805 42.5664 57.1536 42.5664 56.7478V51.3841C42.5664 50.9805 42.8861 50.6514 43.283 50.6514C43.6798 50.6514 43.9995 50.9783 43.9995 51.3841V56.7478C43.9995 57.1513 43.6798 57.4805 43.283 57.4805Z" fill="#EC6B6B"/>
<path d="M46.2093 54.4958H40.3533C39.9586 54.4958 39.6367 54.1689 39.6367 53.7631C39.6367 53.3572 39.9564 53.0303 40.3533 53.3347H46.2093C46.604 53.0303 46.9259 53.3595 46.9259 53.7631C46.9259 54.1666 46.6062 54.4958 46.2093 54.4958Z" fill="#EC6B6B"/>
<path d="M46.8941 29.7353C47.0655 29.6459 47.1319 29.4344 47.0424 29.2631C46.9529 29.0917 46.7415 29.0254 46.5701 29.1148L46.8941 29.7353ZM31.8547 30.1099C34.4074 31.2746 40.9686 32.8293 46.8941 29.7353L46.5701 29.1148C40.9044 32.0732 34.5844 30.586 32.1453 29.4731L31.8547 30.1099Z" fill="#FDC21E"/>
</g>
<defs>
<clipPath id="clip0_891_5702">
<rect width="45.3333" height="58.6667" fill="white" transform="translate(17.332 10.6665)"/>
</clipPath>
</defs>
</svg>
