<svg width="80" height="80" viewBox="0 0 80 80" fill="none" xmlns="http://www.w3.org/2000/svg">
<g clip-path="url(#clip0_891_5482)">
<rect width="80" height="80" rx="40" fill="#D5E0EC"/>
<path fill-rule="evenodd" clip-rule="evenodd" d="M67.8252 12.7836C62.8537 12.5181 59.4508 14.9797 57.4357 19.9271C56.6754 22.1112 56.422 24.4281 57.4357 27.0707C56.1807 26.8414 55.2878 27.9274 55.1671 29.3393C55.155 31.0648 55.686 33.0076 57.4357 33.8764L58.5699 34.2022C60.1386 37.5447 61.0316 38.7997 61.2367 41.937C60.8506 47.5602 59.0647 48.4773 55.4929 47.4999C50.3042 42.3111 43.8122 42.9507 37.646 46.5224C32.3849 44.0608 26.9548 44.8572 21.4162 47.8257C25.0483 41.7802 24.9879 31.282 27.5823 28.6756L27.5461 28.6515L29.9233 26.5518C30.7559 26.8897 31.2868 26.8897 32.3366 26.4553L34.9672 25.2003C36.0774 25.8399 37.4409 25.3934 39.0096 24.054L42.6538 24.8021C44.0535 25.0555 44.681 23.0283 43.8243 22.2078L41.785 21.0252C42.5452 20.627 43.1003 19.9513 43.2451 18.7084C42.9675 17.1397 41.5316 16.0778 38.4183 14.6298C37.4288 13.9782 36.1136 13.8696 34.9431 13.9299C30.4542 15.4624 30.6111 15.4262 26.5566 19.4807L20.9093 27.5413C14.2847 33.4541 9.15625 41.3699 6.16367 51.3854C5.33106 52.6403 5.65687 54.2331 7.14109 55.6088C14.6346 61.3043 23.19 64.7072 37.3202 64.9968C42.1349 68.1583 44.8982 72.985 46.7324 79.296C47.2512 83.9055 47.9994 88.4064 49.9783 92.2799C54.3224 97.71 60.2955 101.197 67.8252 102.862V12.7836Z" fill="#EBB688"/>
<path fill-rule="evenodd" clip-rule="evenodd" d="M67.8281 12.7836C72.7997 12.5181 76.2025 14.9797 78.2177 19.9271C78.9779 22.1112 79.2313 24.4281 78.2177 27.0707C79.4726 26.8414 80.3656 27.9274 80.4862 29.3393C80.4983 31.0648 79.9674 33.0076 78.2177 33.8764L77.0834 34.2022C75.5147 37.5447 74.6218 38.7997 74.4166 41.937C74.8028 47.5602 76.5886 48.4773 80.1604 47.4999C85.3492 42.3111 91.8411 42.9507 98.0073 46.5224C103.268 44.0608 108.698 44.8572 114.237 47.8257C110.605 41.7802 110.665 31.282 108.071 28.6756L108.107 28.6515L105.73 26.5518C104.897 26.8897 104.367 26.8897 103.329 26.4553L100.698 25.2003C99.588 25.8399 98.2245 25.3934 96.6558 24.054L93.0116 24.8021C91.6119 25.0555 90.9844 23.0283 91.8411 22.2078L93.8684 21.0252C93.1081 20.627 92.5531 19.9513 92.4203 18.7084C92.6979 17.1397 94.1338 16.0778 97.2471 14.6298C98.2366 13.9782 99.5518 13.8696 100.722 13.9299C105.211 15.4624 105.054 15.4262 109.109 19.4807L114.756 27.5413C121.393 33.4541 126.509 41.3699 129.502 51.3854C130.334 52.6403 130.009 54.2331 128.524 55.6088C121.031 61.3043 112.475 64.7072 98.3452 64.9968C93.5305 68.1583 90.7672 72.985 88.933 79.296C88.4141 83.9055 87.666 88.4064 85.687 92.2799C80.9448 97.9513 75.0079 101.499 67.8402 102.862V12.7836H67.8281Z" fill="#E0AC7E"/>
<path fill-rule="evenodd" clip-rule="evenodd" d="M79.275 30.0455C79.637 25.2791 81.254 20.2835 80.0955 15.8549C77.3926 9.5319 64.5897 6.55139 58.4476 7.67361C54.5983 14.1414 56.1911 22.1176 56.9031 29.4904L79.2871 30.0455H79.275Z" fill="#6E4823"/>
<path fill-rule="evenodd" clip-rule="evenodd" d="M68.0312 29.7786V8.2876C73.2803 9.51842 78.4932 12.1007 80.1102 15.8776C81.2686 20.3062 79.6516 25.3018 79.2896 30.0682L68.0312 29.7907V29.7786Z" fill="#59301D"/>
<path fill-rule="evenodd" clip-rule="evenodd" d="M61.9256 17.0675C59.8983 16.6693 57.9556 18.7448 57.5936 20.7841C57.2557 22.6545 57.0264 24.561 56.942 26.4797C56.8937 26.4797 57.1833 26.4676 56.773 26.4676C56.3628 26.4676 55.0354 26.7693 55.0957 28.5431C55.144 29.8705 56.3024 33.7318 57.8228 33.1044C60.019 39.005 62.9875 42.3355 67.8383 43.506C67.9228 43.3491 67.959 43.4698 68.0314 43.4215V17.6829C66.0766 17.6829 64.1217 17.4899 61.9376 17.0675H61.9256Z" fill="#F2C196"/>
<path fill-rule="evenodd" clip-rule="evenodd" d="M73.934 17.0675C75.9612 16.6693 77.9039 18.7448 78.2659 20.7841C78.6038 22.6545 78.8331 24.561 78.9176 26.4797C78.9658 26.4797 78.6762 26.4676 79.0865 26.4676C79.4968 26.4676 80.8241 26.7693 80.7638 28.5431C80.7155 29.8705 79.5571 33.7318 78.0367 33.1044C75.8043 39.0895 72.7997 42.3717 67.8281 43.506V17.6829C69.783 17.6829 71.7378 17.4899 73.9219 17.0675H73.934Z" fill="#EBB688"/>
<path fill-rule="evenodd" clip-rule="evenodd" d="M37.8125 64.397C42.953 68.1498 44.8957 71.4923 46.211 75.3054C47.1884 71.9025 48.202 70.7321 44.7992 66.6776L37.8246 64.409L37.8125 64.397Z" fill="#E0AC7E"/>
<path fill-rule="evenodd" clip-rule="evenodd" d="M48.0202 69.5733C47.8512 69.3682 47.8874 69.0545 48.1046 68.8976C48.3098 68.7287 48.6235 68.7649 48.7924 68.9821C50.3973 71.0093 51.8815 72.8555 54.0777 73.6037C56.2739 74.3397 59.194 73.9777 62.1263 73.1934C62.3797 73.121 63.5019 72.8435 63.8639 73.8691C64.069 74.8707 62.6331 75.2448 62.3676 75.3172C58.9889 76.198 55.7671 75.7878 53.5588 75.1844C50.156 73.6037 48.8166 71.311 48.0322 69.5975L48.0202 69.5733Z" fill="#E0AC7E"/>
<path fill-rule="evenodd" clip-rule="evenodd" d="M87.711 69.5733C87.88 69.3682 87.8438 69.0545 87.6266 68.8976C87.4214 68.7287 87.1077 68.7649 86.9508 68.9821C85.3459 71.0093 83.8617 72.8555 81.6656 73.6037C79.4694 74.3397 76.5492 73.9777 73.617 73.1934C73.3636 73.121 72.2414 72.8435 71.8794 73.8691C71.6742 74.8707 73.1102 75.2448 73.3756 75.3172C76.7544 76.198 79.9762 75.7878 82.1844 75.1844C85.5873 73.6037 86.9267 71.311 87.711 69.5975V69.5733Z" fill="#D49E6F"/>
<path fill-rule="evenodd" clip-rule="evenodd" d="M48.4777 39.6959V50.8353H41.7463V39.6959H37.7148L41.4157 33.2952L45.1074 26.8853L48.8083 33.2952L52.5091 39.6959H48.4777Z" fill="#7088C8"/>
<path fill-rule="evenodd" clip-rule="evenodd" d="M48.4796 39.6959V50.8353H45.1094V26.8853L48.8102 33.2952L52.5111 39.6959H48.4796Z" fill="#3959B3"/>
</g>
<defs>
<clipPath id="clip0_891_5482">
<rect width="80" height="80" rx="40" fill="white"/>
</clipPath>
</defs>
</svg>
