<svg width="80" height="80" viewBox="0 0 80 80" fill="none" xmlns="http://www.w3.org/2000/svg">
<g clip-path="url(#clip0_1171_3315)">
<rect width="80" height="80" rx="40" fill="#B9C5EA"/>
<g clip-path="url(#clip1_1171_3315)">
<g style="mix-blend-mode:multiply" opacity="0.1">
<path d="M60.4597 86.2205C60.4597 92.3561 51.1711 97.3316 39.7201 97.3316C28.269 97.3316 18.9805 92.3561 18.9805 86.2205C18.9805 80.0848 28.269 75.1094 39.7201 75.1094C51.1711 75.1094 60.4597 80.0848 60.4597 86.2205Z" fill="#161C22"/>
</g>
<path d="M57.0382 37.1671C57.1129 37.2132 57.1935 37.2652 57.2682 37.3114C57.0554 37.0978 56.8369 36.8785 56.6241 36.6649C56.7736 36.9189 56.9116 37.0574 57.1244 37.2248C57.228 37.3056 58.1022 37.7212 57.6133 37.4961C57.2625 37.3344 58.0907 37.7385 58.2402 37.7789C58.8096 37.929 59.4825 37.8943 60.0692 37.929C61.392 38.004 62.7263 38.0502 64.0549 38.0502C66.7236 38.0502 69.3922 37.7096 72.0551 37.6C72.5958 37.5769 73.1306 37.5653 73.6713 37.5596C74.1084 37.5596 74.5455 37.5422 74.9826 37.5769C75.5577 37.6173 75.2357 37.6057 75.1149 37.5769C75.1781 37.5884 75.8683 37.802 75.4772 37.6346C76.9208 38.2522 77.2314 39.828 76.6563 41.4037C76.1674 42.7601 74.9826 43.7298 73.723 44.6533C72.2219 45.7616 70.416 45.8943 68.6043 46.0155C66.5395 46.1541 64.4748 46.4773 62.41 46.4196C61.0469 46.3792 59.8909 47.6086 59.8909 48.9477C59.8909 50.408 61.0469 51.3662 62.41 51.4759C63.2037 51.5394 63.8536 51.4932 64.6473 51.3777C64.7968 51.3546 64.9464 51.3373 65.0959 51.3085C65.579 51.2277 64.4115 51.3835 64.9981 51.32C65.1649 51.3027 65.326 51.2796 65.487 51.2623C66.6373 51.1295 67.7933 51.0372 68.9494 50.9333C71.7618 50.6735 74.4017 50.2118 76.6735 48.4282C78.3184 47.1411 79.9001 45.7731 80.8548 43.8626C82.1604 41.2421 82.4537 38.1772 80.7973 35.6375C79.3134 33.3691 76.9783 32.3936 74.3557 32.3359C71.3017 32.2724 68.2189 32.4802 65.1707 32.6649C63.2612 32.7803 61.3345 33.0862 59.4538 33.4153C58.7118 33.548 58.1367 33.675 57.458 34.0213C57.6823 33.9059 58.0964 33.6404 57.3027 34.1021C57.0612 34.2464 56.279 35.1353 56.8081 34.5235C56.7794 34.5581 56.7333 34.5812 56.6988 34.6101C55.8534 35.2912 56.2272 36.6533 57.0267 37.1497L57.0382 37.1671Z" fill="#D5C8B9"/>
<path d="M56.8646 37.4638C56.9393 37.51 57.0199 37.562 57.0946 37.6081C57.4282 37.8159 57.7848 37.3426 57.5087 37.0656C57.2959 36.852 57.0774 36.6327 56.8646 36.4191C56.5942 36.1478 56.1054 36.5057 56.3239 36.8347C56.6633 37.3426 57.0486 37.5793 57.5777 37.8506V37.256C57.8135 37.2387 57.8596 37.2041 57.7043 37.1579C57.3132 36.979 56.9623 37.5331 57.3592 37.7524C58.1184 38.1738 58.8488 38.22 59.7115 38.2546C61.529 38.3296 63.3464 38.4278 65.1696 38.37C68.5112 38.2661 71.9735 37.5793 75.3151 37.9429V37.256C75.2518 37.256 75.1828 37.2445 75.1196 37.2329C74.7285 37.181 74.6652 37.8101 75.0275 37.9083C75.2173 37.9602 75.4014 38.0237 75.5969 38.0353C75.9305 38.0583 76.0685 37.5446 75.7695 37.3946C75.7292 37.3772 75.689 37.3542 75.6487 37.3368C75.5337 37.5331 75.4186 37.7351 75.3036 37.9314C76.9658 38.751 76.7932 40.7366 75.919 42.1103C75.0563 43.4609 73.4286 44.6904 71.9218 45.181C70.3689 45.6889 68.6665 45.6485 67.0618 45.7986C66.1761 45.8794 65.2961 45.9718 64.4104 46.0295C63.6455 46.0757 62.823 45.9891 62.0638 46.093C60.1774 46.3527 58.9581 48.5057 59.8668 50.243C60.8963 52.2171 63.4787 51.9631 65.3134 51.6226C65.555 51.5764 65.6585 51.207 65.4629 51.0454C65.2616 50.8837 64.9971 50.9646 64.7555 51.005C64.3529 51.0742 64.4852 51.6572 64.8475 51.6803C65.4802 51.7207 66.1704 51.536 66.803 51.4725C67.9015 51.3686 69.0058 51.2878 70.1043 51.155C71.6975 50.9588 73.2791 50.6413 74.7572 49.9833C77.7077 48.6673 80.5201 45.9544 81.6589 42.9068C82.7977 39.8708 82.4009 36.3787 79.968 34.093C77.4259 31.6976 73.8888 31.9169 70.645 32.0266C68.2409 32.1132 65.808 32.2055 63.4154 32.471C61.4024 32.6961 59.1421 32.852 57.2902 33.7236C57.4052 33.9198 57.5202 34.1218 57.6353 34.3181C57.7388 34.2604 57.8481 34.2084 57.9458 34.1392C58.3082 33.8852 57.9976 33.3426 57.6007 33.5446C57.1119 33.7928 56.784 34.1161 56.3929 34.497C56.554 34.6586 56.715 34.8202 56.8761 34.9819C56.9336 34.9068 56.9911 34.8376 57.0544 34.7683C57.3477 34.4278 56.9106 34.0064 56.5712 34.2835C55.467 35.1723 55.8351 36.6788 56.8588 37.4523C57.2096 37.7178 57.5547 37.1233 57.2039 36.8578C56.5137 36.3325 56.3469 35.3397 57.0601 34.7683C56.8991 34.6067 56.738 34.4451 56.577 34.2835C56.5137 34.3527 56.4562 34.422 56.3987 34.497C56.1284 34.8318 56.5597 35.2993 56.8818 34.9819C57.2212 34.6529 57.5202 34.3585 57.9516 34.1392C57.8366 33.9429 57.7215 33.7409 57.6065 33.5446C57.5087 33.6139 57.3994 33.6658 57.2959 33.7236C56.9048 33.9371 57.2499 34.5028 57.641 34.3181C58.659 33.839 59.769 33.7005 60.8675 33.5215C62.1559 33.3138 63.4442 33.1348 64.744 33.0367C66.9238 32.8693 69.1208 32.7539 71.3064 32.6962C73.2561 32.6442 75.3266 32.4999 77.1901 33.181C79.1916 33.9083 80.7617 35.5706 81.3483 37.6312C82.6022 42.0295 79.5654 45.9602 76.2066 48.3729C74.5962 49.5273 72.6982 50.093 70.76 50.3873C69.5925 50.5663 68.4077 50.6413 67.2344 50.751C66.4694 50.8202 65.6125 51.0454 64.8475 50.9992C64.8763 51.2243 64.9108 51.4494 64.9396 51.6745C65.1236 51.6399 65.1926 51.7149 64.9798 51.5417C65.0316 51.3513 65.0833 51.1608 65.1293 50.9645C63.9388 51.1839 62.3399 51.4379 61.2529 50.7568C59.677 49.7755 60.0911 47.2647 61.8971 46.8203C62.7483 46.6125 63.7548 46.7625 64.629 46.7048C65.3652 46.6529 66.1013 46.5778 66.8433 46.5086C68.2869 46.37 69.765 46.3585 71.1913 46.0757C73.3654 45.6485 75.735 44.0497 76.7587 42.0295C77.6042 40.3614 77.4661 38.2315 75.6544 37.3368C75.2633 37.1406 74.9125 37.7351 75.3094 37.9314C75.3496 37.9487 75.3899 37.9718 75.4301 37.9891C75.4877 37.7755 75.5452 37.562 75.6027 37.3484C75.4761 37.3426 75.3324 37.2791 75.2116 37.2445C75.1828 37.4696 75.1483 37.6947 75.1196 37.9198C75.1828 37.9314 75.2461 37.9371 75.3151 37.9429C75.758 37.9775 75.7465 37.3022 75.3151 37.256C72.2726 36.927 69.1036 37.4985 66.0611 37.6485C64.4334 37.7293 62.8058 37.7063 61.1781 37.637C60.0451 37.5908 58.7223 37.7293 57.7043 37.1579C57.5892 37.3542 57.4742 37.5562 57.3592 37.7524C57.549 37.839 57.7158 37.9544 57.9228 37.8506C58.1471 37.7351 58.1471 37.3715 57.9228 37.256C57.5145 37.0482 57.1924 36.8924 56.9163 36.4884C56.738 36.6269 56.5597 36.7654 56.3757 36.9039L57.0199 37.5504C57.1579 37.3715 57.2959 37.1925 57.434 37.0078L57.2039 36.8635C56.8301 36.6269 56.485 37.2214 56.8588 37.4581L56.8646 37.4638Z" fill="#D5C8B9"/>
<path d="M54.5012 21.4449C49.5434 20.1231 44.2521 19.5863 39.1276 19.7018C33.3244 19.8287 27.2452 20.6022 21.8101 22.7205C19.1069 23.771 16.3635 25.2544 14.6208 27.6556C12.3835 30.7378 12.9644 34.8648 13.16 38.4435C13.7294 48.6888 15.0464 58.8706 16.6798 68.9889C17.3298 73.0178 17.8761 77.0697 18.6871 81.0697C19.0954 83.0957 19.5728 85.2198 20.6886 86.9918C21.8676 88.8619 23.9094 90.0105 25.8476 90.9514C30.1152 93.0235 34.8888 93.9759 39.6165 93.9759C44.1314 93.9759 48.7095 93.0986 52.7642 91.0611C54.6795 90.0971 56.6407 88.8792 57.837 87.0437C58.855 85.4853 59.3439 83.6383 59.735 81.8374C60.5287 78.1895 61.0175 74.4723 61.6042 70.784C62.4036 65.7162 63.2606 60.6599 63.9392 55.5748C64.6294 50.4146 65.1873 45.2429 65.8487 40.0827C66.1708 37.5834 66.4756 35.0553 66.4986 32.5329C66.4239 25.999 59.9708 22.8937 54.5069 21.4391L54.5012 21.4449Z" fill="#D5C8B9"/>
<path d="M39.7652 43.801C53.4555 43.801 64.5538 38.7566 64.5538 32.534C64.5538 26.3115 53.4555 21.2671 39.7652 21.2671C26.0748 21.2671 14.9766 26.3115 14.9766 32.534C14.9766 38.7566 26.0748 43.801 39.7652 43.801Z" fill="#FFF9F0"/>
<path d="M66.4466 32.3597C66.4466 32.3597 66.4409 32.3539 66.4351 32.3481C66.3834 32.2558 66.2913 32.1865 66.1476 32.1865C56.3644 32.3077 46.5755 32.2558 36.7923 32.2904C30.7591 32.3135 24.7316 32.3308 18.6984 32.3539C17.1225 32.3539 15.5409 32.3655 13.965 32.3712C13.7809 32.3712 13.3668 32.302 13.2 32.4174C12.7572 32.7291 12.9987 34.1086 13.0045 34.5357C13.1655 45.4448 14.7242 56.2616 16.346 67.0321C16.7947 70.0105 17.18 73.0985 18.1635 75.9556C18.6984 77.5198 19.5151 79.1187 20.7401 80.2558C23.15 82.4838 26.5031 83.8575 29.5916 84.7868C34.8944 86.3914 40.6458 86.6916 46.0924 85.6872C51.0904 84.7637 57.2789 82.5646 59.9475 77.8258C60.7297 76.4347 60.9598 74.7839 61.2186 73.2312C61.9548 68.7983 62.5759 64.3424 63.3064 59.9095C64.7097 51.3958 65.6932 42.7839 66.3891 34.1836C66.4179 33.82 66.6997 32.706 66.4409 32.3597H66.4466Z" fill="#EBE8E3"/>
<path d="M16.5031 64.7141C20.6211 70.4861 32.3022 72.893 39.7676 72.7487C47.1984 72.6044 57.85 71.0979 62.1981 64.7141C62.4626 63.0402 62.7675 61.1239 63.1298 58.9363C64.7632 49.1181 66.2758 32.5294 66.1551 32.5352C66.1148 32.5352 13.4203 32.7256 13.3801 32.7199C13.2535 32.7141 13.3801 43.8021 15.0422 55.4673C15.6346 59.6405 16.1005 61.9666 16.5088 64.7141H16.5031Z" fill="#885A25"/>
<path d="M39.7673 72.0287C26.6369 72.0287 18.5676 67.1167 16.0312 63.9883C16.198 65.0042 16.3591 63.7112 16.5086 64.7213C20.6266 70.4933 32.3078 72.9003 39.7731 72.756C47.2039 72.6117 57.8556 71.1052 62.2036 64.7213C62.2956 64.1268 62.3992 64.6463 62.5027 63.9883C60.6105 66.8339 52.9036 72.0287 39.7731 72.0287H39.7673Z" fill="#6D3419"/>
<path d="M66.1897 30.1834C65.1947 26.4893 61.8417 24.192 58.5058 22.7894C54.6409 21.1617 50.4251 20.4287 46.2783 20.0131C39.785 19.3666 33.1881 19.7245 26.8213 21.1964C22.9448 22.091 18.7578 23.4532 15.8246 26.27C14.5593 27.4821 13.593 29.0117 13.2249 30.7375C12.9719 31.9208 13.0351 33.1387 13.0466 34.345C13.0639 36.2959 13.1214 38.2526 13.2882 40.1978C13.455 42.1199 13.6103 44.042 13.7771 45.964C13.7713 46.0506 13.8001 46.1372 13.8806 46.218C17.9583 50.2353 23.9973 52.1574 29.4554 53.3407C35.4599 54.6451 41.6024 54.928 47.6817 54.0045C53.4791 53.1213 59.8402 51.2628 64.1537 47.055C64.4873 46.7317 64.8784 46.4027 65.0452 45.9756C65.3385 45.2252 65.304 44.1055 65.4248 43.2916C65.6606 41.6235 65.8734 39.9438 66.069 38.27C66.368 35.6668 66.8914 32.7635 66.1955 30.1834H66.1897Z" fill="#EBE8E3"/>
<path d="M66.4929 32.5387C66.4181 26.0048 59.965 22.8994 54.5012 21.4449C49.5434 20.1231 44.2521 19.5863 39.1276 19.7018C33.3244 19.8287 27.2452 20.6022 21.8101 22.7205C19.1069 23.771 16.3635 25.2544 14.6208 27.6556C12.3835 30.7378 12.9644 34.8648 13.16 38.4435C13.7294 48.6888 15.0464 58.8706 16.6798 68.9889C17.3298 73.0178 17.8761 77.0697 18.6871 81.0697C19.0954 83.0957 19.5728 85.2198 20.6886 86.9918C21.8676 88.8619 23.9094 90.0105 25.8476 90.9514C30.1152 93.0235 34.8888 93.9759 39.6165 93.9759C44.1314 93.9759 48.7095 93.0986 52.7642 91.0611C54.6795 90.0971 56.6407 88.8792 57.837 87.0437C58.855 85.4853 59.3439 83.6383 59.735 81.8374C60.5287 78.1895 61.0175 74.4723 61.6042 70.784C62.4036 65.7162 63.2606 60.6599 63.9392 55.5748C64.6294 50.4146 65.1873 45.2429 65.8487 40.0827C66.1708 37.5834 66.4756 35.0553 66.4986 32.5329C66.4986 32.0885 65.82 32.0885 65.8142 32.5329C65.7682 37.3756 64.894 42.2414 64.3246 47.0495C63.7437 51.973 63.1283 56.8966 62.3634 61.797C61.6214 66.5647 60.8392 71.3323 60.0685 76.1C59.6487 78.7032 59.2748 81.3699 58.4984 83.898C58.0498 85.3641 57.3826 86.8244 56.2611 87.9038C54.0641 90.0105 50.987 91.315 48.1113 92.1404C43.0961 93.5834 37.6495 93.6585 32.5653 92.5445C29.1662 91.7999 25.6636 90.5185 22.8741 88.3771C21.4823 87.3092 20.6943 85.8085 20.1594 84.152C19.3197 81.5372 18.9344 78.7667 18.4973 76.0654C16.9329 66.4435 15.4088 56.8677 14.5576 47.1476C14.1262 42.2299 13.5741 37.2717 13.7236 32.3309C13.8156 29.3699 15.6043 27.0322 17.9854 25.4276C23.0122 22.0394 29.6665 21.0582 35.5848 20.5791C39.9328 20.227 44.2981 20.3829 48.6175 20.9831C51.7405 21.416 54.875 22.0798 57.814 23.2458C60.4999 24.3136 63.2548 25.9009 64.7502 28.481C65.4749 29.7277 65.8027 31.1072 65.82 32.5445C65.82 32.9889 66.5101 32.9889 66.5044 32.5445L66.4929 32.5387Z" fill="#EBE8E3"/>
<path d="M16.1028 29.397C17.2358 26.892 19.3293 24.8833 21.3883 23.1402C23.1885 21.6799 24.5861 20.5255 26.7659 19.7924C29.2332 18.9613 30.9069 18.436 33.4203 17.7491C37.6591 16.589 47.7873 18.1589 50.3179 18.7996C52.4402 19.3364 54.643 20.0753 56.472 21.3162C58.0248 22.3667 59.3764 23.7174 60.5612 25.1662C61.7058 26.563 62.7525 28.081 63.5002 29.7318C63.8625 30.5284 64.4089 31.7405 64.2019 32.6929C63.9891 38.7188 53.1764 43.5789 39.8676 43.5789C27.8242 43.5789 17.8282 39.6019 15.8727 34.3783C14.9352 33.0854 15.5449 30.6553 16.1085 29.4028L16.1028 29.397Z" fill="#FFF9F0"/>
<path d="M64.2083 32.5379C64.1566 35.4759 61.718 37.6231 59.3886 39.0257C55.9838 41.0747 52.0268 42.1599 48.1389 42.8063C43.2732 43.6086 38.2579 43.6837 33.3692 43.0891C29.211 42.5812 24.9664 41.5942 21.2337 39.6375C18.5306 38.2233 15.3845 35.9145 15.3213 32.5379C15.3155 32.0935 14.6254 32.0935 14.6369 32.5379C14.6886 35.4066 16.7706 37.6 19.0137 39.118C22.5508 41.5076 26.8644 42.7313 31.0284 43.4355C36.2679 44.3244 41.6628 44.3879 46.9253 43.6779C51.2159 43.0949 55.5985 42.004 59.3829 39.828C62.063 38.2868 64.8352 35.8799 64.8927 32.5437C64.8985 32.0993 64.2141 32.0993 64.2083 32.5437V32.5379Z" fill="white"/>
<ellipse cx="45.7499" cy="29.2828" rx="1.38667" ry="0.91954" fill="#FCCD8A"/>
<ellipse cx="42.3994" cy="22.1584" rx="1.04" ry="0.689655" fill="#FCCD8A"/>
<ellipse cx="40.5485" cy="39.6859" rx="0.587571" ry="0.588235" fill="#FCCD8A"/>
<ellipse cx="33.4977" cy="38.5101" rx="0.587571" ry="0.588235" fill="#FCCD8A"/>
<ellipse cx="47.5993" cy="24.9803" rx="0.587571" ry="0.588235" fill="#FCCD8A"/>
<ellipse cx="41.5924" cy="27.9039" rx="0.924444" ry="0.91954" fill="#FCCD8A"/>
<ellipse cx="38.819" cy="28.3639" rx="0.924444" ry="0.91954" fill="#FCCD8A"/>
<ellipse cx="26.7988" cy="26.2951" rx="0.693333" ry="0.689655" fill="#FCCD8A"/>
<ellipse cx="24.0254" cy="29.0529" rx="0.693333" ry="0.689655" fill="#FCCD8A"/>
<ellipse cx="30.959" cy="33.198" rx="0.693333" ry="0.689655" fill="#FCCD8A"/>
<ellipse cx="54.5332" cy="36.6442" rx="0.693333" ry="0.689655" fill="#FCCD8A"/>
<ellipse cx="56.6152" cy="27.674" rx="0.693333" ry="0.689655" fill="#FCCD8A"/>
<ellipse cx="32.5768" cy="23.0782" rx="0.924444" ry="0.91954" fill="#FCCD8A"/>
</g>
<path d="M25.4023 35.7465V34.3065L30.2623 27.8745H25.6423V25.9785H33.2263V27.4185L28.3663 33.8505H33.4663V35.7465H25.4023Z" fill="#CB7705"/>
<path d="M37.5523 35.9145C35.4043 35.9145 33.8923 34.3785 33.8923 32.2305C33.8923 30.0945 35.4043 28.5465 37.5523 28.5465C39.7003 28.5465 41.2123 30.0825 41.2123 32.2305C41.2123 32.4345 41.2003 32.6625 41.1643 32.9145H36.0163C36.1843 33.7305 36.7483 34.1985 37.5523 34.1985C38.1643 34.1985 38.6683 33.9825 38.8483 33.6465H40.9963C40.6363 34.9905 39.2563 35.9145 37.5523 35.9145ZM36.0043 31.5345H39.1243C38.9443 30.6945 38.3923 30.2385 37.5523 30.2385C36.7123 30.2385 36.1843 30.6945 36.0043 31.5345Z" fill="#CB7705"/>
<path d="M42.2271 35.7465V28.7145H44.3631V29.4345C44.7831 28.8705 45.4311 28.5465 46.3311 28.5465C46.7271 28.5465 46.9791 28.5705 47.2551 28.6665L47.2791 30.6705C46.9791 30.5145 46.6071 30.4305 46.1871 30.4305C45.0471 30.4305 44.3631 31.0785 44.3631 32.1465V35.7465H42.2271Z" fill="#CB7705"/>
<path d="M51.1716 28.5465C53.3436 28.5465 54.9036 30.0945 54.9036 32.2305C54.9036 34.3665 53.3436 35.9145 51.1716 35.9145C48.9996 35.9145 47.4396 34.3665 47.4396 32.2305C47.4396 30.0945 48.9996 28.5465 51.1716 28.5465ZM51.1716 30.3705C50.1636 30.3705 49.5036 31.1505 49.5036 32.2305C49.5036 33.3105 50.1636 34.0905 51.1716 34.0905C52.1796 34.0905 52.8396 33.3105 52.8396 32.2305C52.8396 31.1505 52.1796 30.3705 51.1716 30.3705Z" fill="#CB7705"/>
</g>
<defs>
<clipPath id="clip0_1171_3315">
<rect width="80" height="80" rx="40" fill="white"/>
</clipPath>
<clipPath id="clip1_1171_3315">
<rect width="69.3333" height="80" fill="white" transform="translate(12.9336 17.3335)"/>
</clipPath>
</defs>
</svg>
