<svg width="80" height="80" viewBox="0 0 80 80" fill="none" xmlns="http://www.w3.org/2000/svg">
<g clip-path="url(#clip0_891_5431)">
<rect width="80" height="80" rx="40" fill="#D1F3B1"/>
<path d="M23.7052 66.9149C25.3773 62.9508 26.7579 58.8643 27.8302 54.6967C28.5414 51.9335 28.6661 49.2021 27.7905 46.4824C27.0656 44.2342 26.3951 44.167 25.375 43.2982C23.4692 41.679 20.6157 41.2255 19.1859 39.1747C18.3278 37.9475 18.1651 36.3819 18.0517 34.8904C17.8679 32.4297 17.7574 29.9625 17.7236 27.4947C17.6976 25.6364 17.724 23.7189 18.4552 22.0061C18.9796 20.7797 19.842 19.7204 20.3754 18.4962C21.1444 16.7254 21.3269 14.484 22.9451 13.4358C23.8197 12.8675 25.0031 12.8207 25.9248 13.3094C27.7161 14.2647 28.0205 16.6514 29.0037 18.4278C29.8292 19.9223 31.1922 21.0287 32.3375 22.296C33.4827 23.5632 34.471 25.1781 34.2536 26.8728C34.1018 28.0519 33.3776 29.1731 33.5868 30.343C33.6914 30.9279 34.0238 31.4502 34.1864 32.0227C34.4041 32.7855 34.3176 33.5999 34.1568 34.3749C33.7239 36.4726 32.7654 38.4565 31.3947 40.1023C30.5465 41.122 29.5306 42.032 28.9653 43.2295C30.7581 51.7464 28.8727 61.0121 24.1801 68.3351C23.7984 68.1097 23.8773 67.327 23.7126 66.9143L23.7052 66.9149Z" fill="#A5CE58"/>
<path d="M24.0994 14.9185L24.0641 18.4992C24.0478 19.6917 24.0287 20.886 23.9374 22.082C23.8408 24.4948 22.8417 26.7895 23.1924 29.1323C23.3231 30.3002 23.5937 31.4632 23.8294 32.6323C24.0724 33.8008 24.3221 34.9612 24.6112 36.1168C25.1889 38.4206 25.9073 40.6959 26.9615 42.8267L26.7438 42.9372C26.1882 41.8758 25.7128 40.769 25.3066 39.6428C24.9061 38.5132 24.5757 37.3597 24.2776 36.202C23.9794 35.0443 23.7217 33.8771 23.4685 32.711C23.2273 31.5454 22.9375 30.3825 22.8063 29.1762C22.7416 28.5745 22.7248 27.9627 22.7734 27.357C22.8204 26.7485 22.9262 26.1541 23.0445 25.5675C23.1628 24.9809 23.2918 24.3992 23.3898 23.8173C23.4879 23.2354 23.5559 22.6487 23.6059 22.0577C23.7058 20.8756 23.734 19.6836 23.7638 18.4943L23.8765 14.9202L24.0983 14.923L24.0994 14.9185Z" fill="#609731"/>
<path d="M28.5345 23.5406C28.2959 24.2707 27.7913 24.8821 27.2308 25.3772C26.6663 25.8786 26.0381 26.2761 25.4588 26.7093C25.1661 26.9239 24.8813 27.1453 24.6221 27.3895C24.3696 27.6257 24.1566 27.9073 23.9647 28.2107C23.7756 28.5124 23.6149 28.8352 23.4904 29.1667C23.3614 29.4972 23.271 29.8464 23.2584 30.1903L23.0164 30.1922C23.0049 29.407 23.2927 28.6815 23.6619 28.0258C23.8502 27.6976 24.0781 27.3836 24.3618 27.1166C24.6354 26.8519 24.928 26.6181 25.2274 26.3954C25.827 25.9575 26.4502 25.5708 27.0004 25.1091C27.5496 24.652 28.0459 24.1152 28.3237 23.4615L28.5328 23.5379L28.5345 23.5406Z" fill="#609731"/>
<path d="M24.3492 36.1843C24.185 35.5085 23.8284 34.8967 23.4003 34.3443C22.9694 33.7937 22.4729 33.2872 21.9635 32.7848C21.458 32.2761 20.9501 31.7573 20.5209 31.1592C20.31 30.8598 20.1169 30.5456 19.9603 30.209C19.811 29.8718 19.6954 29.5139 19.6412 29.1492L19.8794 29.1033C20.0363 29.7798 20.3901 30.3933 20.8109 30.9463C21.2334 31.5021 21.7327 32.0069 22.2393 32.511C22.7392 33.0231 23.2527 33.5385 23.679 34.1383C24.1076 34.729 24.4525 35.4098 24.5672 36.1431L24.351 36.1871L24.3492 36.1843Z" fill="#609731"/>
<path d="M23.4948 23.3496C23.5849 22.6103 23.3107 21.8938 22.9374 21.2421C22.756 20.9091 22.5448 20.5906 22.3358 20.263C22.1307 19.9291 21.9295 19.589 21.7777 19.2224L21.9954 19.1119C22.1981 19.4356 22.4177 19.749 22.639 20.0651C22.8602 20.3813 23.0856 20.7105 23.2784 21.0557C23.4673 21.4072 23.6345 21.7799 23.724 22.177C23.7697 22.3769 23.7923 22.5833 23.7984 22.7882C23.7945 22.9954 23.7697 23.2001 23.7131 23.3971L23.4965 23.3524L23.4948 23.3496Z" fill="#609731"/>
<path d="M24.8288 38.0082C24.743 37.3847 24.7581 36.7494 24.8585 36.1274C24.9498 35.5032 25.1401 34.8956 25.3933 34.3149C25.659 33.7421 26.0271 33.1913 26.5021 32.7643C26.9557 32.3465 27.4408 31.9673 27.6188 31.4213L27.8531 31.4822C27.7862 31.8131 27.6065 32.1051 27.4038 32.3533C27.1966 32.6004 26.9687 32.8138 26.7544 33.0305C26.3193 33.4408 25.9998 33.9385 25.7444 34.4779C25.2462 35.5646 25.0135 36.7819 25.0515 37.9874L24.8288 38.0082Z" fill="#609731"/>
<path d="M57.7063 29.6874C59.4963 29.4842 61.4972 29.5302 62.7991 30.7321C63.9421 31.7882 64.2468 33.4907 64.12 35.0563C63.9457 37.2231 63.0868 39.281 62.2404 41.2965C61.6063 42.8029 60.9461 44.3485 59.7947 45.5156C57.9123 47.4218 55.0857 47.9797 52.7785 49.3391C50.6469 50.5946 48.8523 52.5936 46.4404 53.0977C45.0859 53.3811 43.7278 53.1373 42.3708 53.0899C41.6996 53.0656 40.9995 53.1325 40.4109 52.9724C35.1594 56.6585 30.5945 61.2675 26.4471 66.1727C26.2238 66.4375 25.9892 66.7091 25.6736 66.8489C25.358 66.9887 24.9349 66.9472 24.7371 66.663C25.4526 65.5278 27.1346 63.71 28.0242 62.7075C31.5426 58.7452 36.889 54.0888 37.972 52.7665C38.3696 52.2827 38.7659 51.8846 39.106 51.4516C38.9041 50.4318 39.1773 49.1548 39.2254 48.1901C39.2892 46.8487 39.3553 45.4671 39.9398 44.2192C41.0769 41.7972 43.8123 40.5379 45.4355 38.4046C46.2922 37.2793 46.817 35.9406 47.6185 34.7758C49.8249 31.5808 53.8598 30.1183 57.7046 29.6845L57.7063 29.6874Z" fill="#64A40C"/>
<path d="M61.6452 32.8031C60.6859 33.4157 59.7966 34.1359 58.9609 34.9121C58.1235 35.6855 57.3335 36.5109 56.5646 37.3581C55.028 39.0479 53.5678 40.8183 51.9555 42.4542C51.1485 43.2707 50.2936 44.0471 49.3724 44.7406C48.9123 45.085 48.4318 45.415 47.9424 45.7118C47.4548 46.0114 46.9682 46.3065 46.5245 46.6525C46.0746 46.9946 45.7016 47.4054 45.3624 47.8649C45.0232 48.3245 44.653 48.7838 44.2205 49.1731C43.3617 49.9557 42.3162 50.5285 41.1948 50.8271L41.149 50.6582C42.2369 50.3492 43.2452 49.7723 44.0668 49.0047C44.4853 48.624 44.8338 48.1858 45.174 47.7217C45.5098 47.2565 45.9106 46.8094 46.3745 46.4586C46.8316 46.0967 47.3283 45.7993 47.8097 45.4958C48.2973 45.1962 48.7611 44.8765 49.2138 44.5327C50.1193 43.845 50.955 43.0689 51.7598 42.2614C53.3723 40.6447 54.8394 38.8855 56.3897 37.1989C57.9388 35.5168 59.5878 33.8778 61.5597 32.6702L61.6424 32.8049L61.6452 32.8031Z" fill="#89B542"/>
<path d="M59.6406 41.2033C58.995 41.2019 58.3516 41.2417 57.7112 41.2989C57.0697 41.3606 56.4295 41.4371 55.7919 41.5428C55.1537 41.6412 54.5219 41.7627 53.8879 41.8933C53.2557 42.0267 52.6258 42.1702 51.9983 42.3238L51.9497 42.1566C52.5705 41.9607 53.1978 41.7879 53.8305 41.6427C54.4659 41.4957 55.1033 41.3708 55.7472 41.2689C57.0345 41.077 58.34 40.9589 59.6445 41.0463L59.6378 41.205L59.6406 41.2033Z" fill="#89B542"/>
<path d="M52.8394 34.349C52.2522 36.1203 51.7419 37.9099 51.3364 39.7319C51.1178 40.639 50.8987 41.5581 50.5551 42.4377C50.2143 43.3156 49.7349 44.1627 49.0628 44.8345L48.9385 44.7138C49.5597 44.0346 49.9981 43.2088 50.3182 42.3475C50.6394 41.4816 50.8552 40.5762 51.071 39.6707C51.2851 38.7625 51.5139 37.853 51.7851 36.956C52.0517 36.0579 52.3581 35.1742 52.6933 34.2997L52.8428 34.3547L52.8394 34.349Z" fill="#89B542"/>
<path d="M46.3189 46.6371C46.3853 46.4687 46.5334 46.3391 46.6947 46.2748C46.8542 46.2077 47.0249 46.184 47.1868 46.1773C47.5213 46.1689 47.8285 46.2352 48.1421 46.2744C48.7643 46.3636 49.379 46.4845 49.9985 46.5754C51.2274 46.7787 52.4741 46.8977 53.695 46.6732L53.7335 46.8428C53.1168 47.0014 52.4747 47.0558 51.8414 47.0429C51.2064 47.0273 50.5775 46.9461 49.9546 46.8496L48.103 46.5187C47.7943 46.4687 47.4838 46.3968 47.1908 46.3912C46.9007 46.384 46.5815 46.4487 46.4635 46.7028L46.3189 46.6371Z" fill="#89B542"/>
<path d="M43.3671 49.6099C43.9008 49.1275 44.3436 48.554 44.6809 47.9217C45.0182 47.2894 45.2314 46.6059 45.3415 45.8929C45.4652 45.1831 45.5165 44.456 45.6254 43.7283C45.7286 43.0041 45.9135 42.2684 46.2681 41.6139L46.4213 41.6936C46.1181 42.3436 45.9689 43.0497 45.8797 43.7653C45.7877 44.4827 45.7381 45.2126 45.6146 45.9415C45.4894 46.6676 45.2682 47.3947 44.8967 48.0404C44.5313 48.6899 44.0445 49.2672 43.4706 49.728L43.3682 49.6054L43.3671 49.6099Z" fill="#89B542"/>
<path d="M56.9651 21.9412C56.7309 19.8824 56.1625 17.6502 54.4825 16.499C53.0054 15.4897 51.0202 15.5886 49.3 16.1315C46.9174 16.8842 44.8363 18.3791 42.7945 19.8499C41.2722 20.9474 39.7109 22.0882 38.702 23.6819C37.0534 26.2829 37.1585 29.5958 36.228 32.5363C35.3706 35.2502 33.5943 37.7752 33.6546 40.6132C33.6867 42.2049 34.3099 43.6653 34.7112 45.1732C34.9113 45.9198 35.0171 46.7204 35.3449 47.3421C32.5713 54.1817 28.5871 60.4899 24.1607 66.4051C23.9227 66.7213 23.6758 67.0546 23.6022 67.4438C23.5285 67.8329 23.6832 68.2983 24.0521 68.4464C25.1388 67.3499 26.7399 64.9983 27.6352 63.7411C31.1657 58.7744 35.0036 51.5745 36.2038 50.0218C36.6456 49.4529 36.9889 48.9058 37.3869 48.41C38.5845 48.3738 39.942 47.7369 41.0086 47.4371C42.4959 47.018 44.0238 46.5894 45.2715 45.6104C47.6878 43.7124 48.3938 40.3186 50.3655 37.948C51.4047 36.699 52.7703 35.7673 53.8654 34.5652C56.8764 31.2662 57.4723 26.3673 56.9651 21.9412Z" fill="#A5CE58"/>
<path d="M23.785 66.925C25.8522 63.5915 27.6756 60.1063 29.2365 56.508C30.2701 54.1186 30.7704 51.6781 30.367 49.105C30.0322 46.9766 29.438 46.8199 28.6419 45.8947C27.1547 44.1652 24.6505 43.3502 23.6508 41.3019C23.0556 40.0754 23.1273 38.6402 23.2383 37.2813C23.4237 35.0382 23.6745 32.8012 23.9927 30.5731C24.2322 28.8957 24.531 27.1702 25.4311 25.7323C26.0789 24.7006 27.0042 23.8693 27.6583 22.8415C28.603 21.3569 29.0851 19.3642 30.6911 18.6481C31.5582 18.2623 32.6339 18.3859 33.3918 18.9597C34.8695 20.0769 34.8065 22.2679 35.4395 24.0083C35.9713 25.4708 37.0435 26.6631 37.8934 27.9649C38.7451 29.2695 39.4053 30.8657 38.9679 32.3594C38.665 33.3995 37.8511 34.3053 37.8725 35.3896C37.8819 35.9326 38.1076 36.4508 38.1756 36.9887C38.2652 37.7065 38.0672 38.4272 37.815 39.1038C37.1262 40.9297 35.9808 42.584 34.5136 43.8718C33.606 44.669 32.5604 45.3423 31.8801 46.3399C32.2845 54.2683 29.271 62.3451 24.004 68.2743C23.6903 68.015 23.8746 67.3221 23.7839 66.9295L23.785 66.925Z" fill="#64A40C"/>
<path d="M31.5222 20.1451L30.9751 23.364C30.7915 24.4351 30.6007 25.5068 30.3471 26.5707C29.9176 28.7243 28.6882 30.6504 28.668 32.823C28.6177 33.8973 28.6984 34.9838 28.7481 36.0701C28.8023 37.1575 28.8621 38.2414 28.9586 39.3221C29.1543 41.4818 29.4809 43.6345 30.1338 45.7027L29.9702 45.7569C29.6237 44.7216 29.3559 43.6572 29.1495 42.5861C28.9532 41.5126 28.8167 40.4295 28.7122 39.342C28.6095 38.2574 28.5434 37.1696 28.4819 36.0829C28.4322 34.9967 28.3368 33.9114 28.3891 32.8089C28.4175 32.2582 28.4859 31.7099 28.6143 31.1711C28.7427 30.6324 28.9216 30.1129 29.1101 29.6029C29.2969 29.0901 29.4962 28.5851 29.6684 28.0736C29.8405 27.5621 29.9838 27.0413 30.1135 26.5172C30.3712 25.4662 30.5665 24.3956 30.7591 23.3266L31.3623 20.1235L31.5211 20.1496L31.5222 20.1451Z" fill="#89B542"/>
<path d="M34.3107 28.5329C33.9867 29.1492 33.449 29.6187 32.8769 29.9818C32.2991 30.3483 31.6774 30.6182 31.09 30.925C30.7931 31.0764 30.506 31.2374 30.2371 31.4219C29.9739 31.6029 29.7383 31.8288 29.5237 32.0766C29.3092 32.3243 29.1186 32.5921 28.962 32.8777C28.7992 33.1593 28.6693 33.4632 28.6113 33.7771L28.4378 33.7523C28.5418 33.0546 28.9048 32.4452 29.3306 31.9131C29.5467 31.649 29.7951 31.3998 30.0863 31.2015C30.3674 31.0056 30.6658 30.8378 30.9665 30.6801C31.5686 30.372 32.1837 30.1101 32.7459 29.7686C33.3071 29.4315 33.8329 29.0119 34.1738 28.4546L34.3107 28.5329Z" fill="#89B542"/>
<path d="M28.7612 39.3294C28.7153 38.6891 28.4818 38.0829 28.1755 37.5214C27.8674 36.9571 27.4903 36.4314 27.1032 35.9079C26.7199 35.3783 26.3387 34.8396 26.0354 34.2453C25.7338 33.6539 25.5195 32.9972 25.5195 32.3248L25.6932 32.3185C25.7329 32.955 25.9608 33.5646 26.2643 34.1278C26.5679 34.6911 26.9439 35.2213 27.3282 35.7465C27.7087 36.2779 28.0927 36.8149 28.396 37.4091C28.7004 37.9988 28.9129 38.6527 28.9203 39.3245L28.7612 39.3294Z" fill="#89B542"/>
<path d="M29.8192 27.6498C30.0214 26.9923 29.8744 26.2943 29.6331 25.6503C29.4031 24.9994 29.0408 24.3719 28.861 23.6708L29.0246 23.6167C29.2839 24.265 29.6387 24.874 29.8922 25.5568C30.0122 25.8966 30.1115 26.253 30.1364 26.6202C30.1658 26.9886 30.118 27.3696 29.966 27.7064L29.8192 27.6498Z" fill="#89B542"/>
<path d="M28.9443 41.0427C28.9635 40.4707 29.0673 39.9045 29.247 39.3613C29.4176 38.8159 29.6749 38.2985 29.984 37.8149C30.3027 37.3409 30.7087 36.9021 31.1905 36.5868C31.6549 36.2744 32.1518 35.9962 32.3886 35.5145L32.5468 35.5835C32.437 35.8635 32.2375 36.0981 32.0196 36.29C31.8016 36.4819 31.5612 36.6373 31.3379 36.8015C30.8819 37.1087 30.519 37.5171 30.212 37.9724C29.9049 38.4277 29.662 38.9247 29.4759 39.4448C29.288 39.9621 29.1568 40.5026 29.0991 41.0559L28.9387 41.0462L28.9443 41.0427Z" fill="#89B542"/>
<path d="M52.646 18.4104C51.8075 20.935 50.398 23.2153 48.9123 25.3839C47.4244 27.5616 45.8307 29.6614 44.4398 31.8839C43.7444 32.9951 43.0892 34.1279 42.5544 35.3183C42.2878 35.9149 42.0466 36.5152 41.8402 37.1405C41.6275 37.7619 41.4171 38.3935 41.1309 39.0022C40.9892 39.3056 40.8249 39.6037 40.6356 39.8861C40.4462 40.1686 40.2313 40.4282 40.0184 40.6787C39.5883 41.1787 39.1847 41.6779 38.8698 42.2462C38.2207 43.3637 37.8334 44.6373 37.7641 45.9319L37.5225 45.9219C37.5659 44.5852 37.9368 43.2599 38.5916 42.0886C38.9136 41.5005 39.3377 40.9656 39.7622 40.469C40.1896 39.9708 40.5501 39.4517 40.8156 38.8597C41.0863 38.276 41.29 37.6524 41.5009 37.0282C41.7057 36.4 41.9494 35.7788 42.2164 35.1704C42.7567 33.9574 43.4065 32.7969 44.1131 31.6788C45.5327 29.4465 47.1434 27.3556 48.6388 25.1964C49.3888 24.1174 50.1075 23.0189 50.761 21.8832C51.4161 20.7504 51.9945 19.5681 52.4342 18.3358L52.6443 18.4076L52.646 18.4104Z" fill="#609731"/>
<path d="M43.766 22.7048C43.9872 23.4229 44.151 24.1609 44.2737 24.9009C44.4008 25.642 44.4739 26.3893 44.5351 27.1362C44.5862 27.8854 44.6108 28.6354 44.6071 29.3835C44.6034 30.1315 44.5705 30.8822 44.5075 31.628L44.2642 31.6152C44.2696 30.8699 44.2648 30.127 44.2482 29.3837C44.2316 28.6404 44.2049 27.8994 44.1489 27.1609C44.1029 26.4201 44.0249 25.6836 43.9322 24.9484C43.8322 24.2137 43.7147 23.4821 43.5522 22.7589L43.7671 22.7003L43.766 22.7048Z" fill="#609731"/>
<path d="M53.095 28.7931C52.2044 29.3982 51.2949 29.9724 50.3567 30.5063C49.4247 31.0441 48.4606 31.5359 47.4998 32.0141C46.5401 32.4878 45.5804 32.9614 44.6952 33.5439C43.8128 34.1246 43.0011 34.8204 42.3977 35.6857L42.1926 35.5528C42.4826 35.0887 42.8334 34.6606 43.2219 34.2751C43.6139 33.8952 44.0447 33.5532 44.4916 33.2439C45.3916 32.6291 46.3637 32.144 47.3245 31.6658C48.2939 31.2016 49.2422 30.7156 50.1841 30.2066C51.1242 29.6947 52.0523 29.1632 52.9694 28.6075L53.0866 28.7983L53.095 28.7931Z" fill="#609731"/>
<path d="M40.792 38.942C41.0336 38.751 41.0223 38.387 40.9381 38.0677C40.855 37.7439 40.6963 37.4164 40.5578 37.0841C40.2724 36.4248 39.9824 35.7643 39.7048 35.0925C39.4373 34.4183 39.1821 33.7326 39.0044 33.0225C38.8268 32.3124 38.7296 31.5761 38.7492 30.8414L38.9913 30.8395C39.0284 31.5471 39.1607 32.2464 39.3521 32.9287C39.5436 33.611 39.7947 34.2837 40.0654 34.9443C40.325 35.6118 40.6194 36.2734 40.8796 36.9482C41.0041 37.2891 41.151 37.6162 41.232 37.9993C41.2662 38.1869 41.2808 38.3866 41.2469 38.5891C41.213 38.7915 41.1023 38.9948 40.9271 39.1179L40.7948 38.9403L40.792 38.942Z" fill="#609731"/>
<path d="M38.1742 43.0789C38.5422 42.308 39.061 41.6067 39.694 41.0285C40.3218 40.4418 41.085 40 41.8685 39.6732C42.6567 39.3475 43.4609 39.1046 44.2393 38.8196C45.0195 38.5374 45.769 38.1928 46.4175 37.6901L46.5742 37.8759C45.9304 38.4492 45.1532 38.8493 44.3677 39.1542C43.58 39.4681 42.7803 39.7121 42.018 40.0296C41.2517 40.3343 40.5435 40.7462 39.9247 41.2847C39.3071 41.8188 38.7786 42.4603 38.3706 43.1786L38.1725 43.0761L38.1742 43.0789Z" fill="#609731"/>
<g clip-path="url(#clip1_891_5431)">
<path d="M37.4483 57.8343C37.4483 57.8343 34.8345 52.728 38.4513 46.9559C42.0638 41.1837 49.8329 39.6564 54.9287 43.3062C60.0245 46.9559 60.8023 51.5295 60.4708 55.612C60.1393 59.6946 56.3865 63.0738 52.9227 64.4346C49.4589 65.7955 40.6188 66.8609 37.4483 57.8343Z" fill="#D61D10"/>
<path d="M44.6033 51.0536C44.6033 51.0536 43.1668 48.4942 42.2573 49.5471C41.3521 50.6 42.8821 51.3366 44.6033 51.0536Z" fill="#FDC21E"/>
<path d="M44.3394 53.6174C44.3394 53.6174 41.7256 52.2066 41.5344 53.5716C41.3431 54.9366 43.0389 54.7535 44.3394 53.6174Z" fill="#FDC21E"/>
<path d="M44.5802 56.0972C44.5802 56.0972 41.5967 56.1346 42.1152 57.4122C42.6337 58.6899 44.0192 57.716 44.5802 56.0972Z" fill="#FDC21E"/>
<path d="M46.4173 57.7241C46.4173 57.7241 43.7738 59.085 44.8321 59.9922C45.8903 60.8994 46.6681 59.4137 46.4173 57.7241Z" fill="#FDC21E"/>
<path d="M48.6628 57.8999C48.6628 57.8999 47.2985 60.5009 48.6968 60.6466C50.0951 60.7964 49.8613 59.1401 48.6628 57.8999Z" fill="#FDC21E"/>
<path d="M52.9805 55.3894C52.9805 55.3894 54.5615 57.8697 55.4072 56.771C56.253 55.6724 54.6847 55.019 52.9805 55.3894Z" fill="#FDC21E"/>
<path d="M53.0938 52.817C53.0938 52.817 55.784 54.0821 55.8988 52.7129C56.0135 51.3438 54.3305 51.6143 53.0938 52.817Z" fill="#FDC21E"/>
<path d="M52.7148 50.3477C52.7148 50.3477 55.6941 50.1521 55.0991 48.9036C54.5084 47.6551 53.1823 48.7038 52.7148 50.3477Z" fill="#FDC21E"/>
<path d="M50.7895 48.8265C50.7895 48.8265 53.3523 47.3283 52.2431 46.4794C51.138 45.6304 50.441 47.1535 50.7895 48.8265Z" fill="#FDC21E"/>
<path d="M48.537 48.776C48.537 48.776 49.7525 46.1084 48.35 46.0335C46.9475 45.9627 47.2705 47.5982 48.537 48.776Z" fill="#FDC21E"/>
<path d="M48.5081 56.7669C50.4305 56.7669 51.9889 55.2409 51.9889 53.3586C51.9889 51.4762 50.4305 49.9502 48.5081 49.9502C46.5857 49.9502 45.0273 51.4762 45.0273 53.3586C45.0273 55.2409 46.5857 56.7669 48.5081 56.7669Z" fill="#E2481E"/>
<path d="M58.1148 49.9499C57.5495 47.8441 55.6455 44.4607 51.9905 43.4869C48.3354 42.5131 42.9931 44.1236 40.7831 46.7537C38.5731 49.3839 39.1383 50.4867 38.3988 52.58C37.6636 54.6733 39.0831 58.0109 39.0831 58.0109C40.5493 60.9532 41.6883 60.795 43.8559 62.3639C46.0234 63.9329 48.9262 63.8496 51.6037 63.0839C54.2812 62.3223 56.5508 59.9461 57.677 57.9069C58.8033 55.8677 58.6715 52.0556 58.1105 49.9499H58.1148ZM56.7718 56.1756C55.6115 58.993 52.917 59.9461 51.608 61.2486C50.3032 62.5554 49.7082 62.0643 47.8467 61.8937C45.9851 61.7231 43.8176 61.0863 42.0539 59.2802C40.2901 57.4741 39.9628 55.7428 40.2646 52.2221C40.5663 48.7014 42.7721 47.0908 42.7721 47.0908C42.7721 47.0908 45.0714 45.7758 47.1497 44.9268C49.2279 44.0778 52.22 44.6313 54.4895 47.0908C56.7633 49.5503 57.9278 53.3582 56.7633 56.1756H56.7718Z" fill="#E2481E"/>
<path d="M42.4314 47.4131C42.4314 47.4131 43.3792 48.1123 44.5777 49.6812C45.7762 51.2501 46.1502 53.1187 47.4295 54.1341C48.7087 55.1496 49.954 56.8433 50.6978 57.9087C51.4415 58.9741 51.5435 59.3777 51.9898 60.2767C52.436 61.1756 52.4828 62.1078 53.0905 61.8539C53.694 61.6 54.8331 60.5638 55.1731 60.2767C55.5131 59.9895 53.983 59.8147 52.9715 57.9087C51.96 56.0027 50.6978 54.6585 50.6978 54.6585C50.6978 54.6585 44.7732 47.6046 44.5989 46.7972C44.4247 45.9899 43.7362 45.4072 43.7362 45.4072C43.7362 45.4072 41.5857 46.6515 42.4314 47.4173V47.4131Z" fill="#E2481E"/>
</g>
</g>
<defs>
<clipPath id="clip0_891_5431">
<rect width="80" height="80" rx="40" fill="white"/>
</clipPath>
<clipPath id="clip1_891_5431">
<rect width="24" height="24" fill="white" transform="translate(36.5352 41.3335)"/>
</clipPath>
</defs>
</svg>
