<svg width="80" height="120" viewBox="0 0 80 120" fill="none" xmlns="http://www.w3.org/2000/svg">
<path d="M50.6222 51.9718C51.8015 49.5688 52.9432 47.1017 54.6171 44.9964C54.9605 44.5638 55.9818 43.2683 56.5472 43.3303C57.4559 43.4298 57.6194 43.993 57.7817 44.763C58.4276 47.8109 58.6727 51.5624 58.8671 54.555C58.9311 55.5496 58.9753 56.5442 59.0062 57.5399C56.6455 55.3151 54.2737 53.857 51.3521 52.4442C51.1147 52.3291 50.8099 52.057 50.6211 51.9718H50.6222Z" fill="#01A06A"/>
<path d="M42.9066 51.6332C41.0869 51.9164 36.011 54.1158 34.4144 55.1413C34.156 55.3073 33.9551 55.6281 33.6172 55.6757C33.8568 55.0528 33.9385 53.8425 34.1096 53.1134C34.4332 51.7316 34.8671 50.3708 35.279 49.0156C35.3022 48.9382 35.3585 48.7943 35.3971 48.6715C35.8586 47.1813 36.297 45.5019 36.8899 44.0659C37.2168 43.2738 37.4674 42.7084 38.395 43.1609C39.286 43.5957 41.0439 46.5828 41.4557 47.5597C42.0133 48.8851 42.2242 50.3565 42.9066 51.6321V51.6332Z" fill="#01A06A"/>
<path d="M35.2799 49.0159C35.2125 48.881 35.2622 48.7371 35.398 48.6719C35.3604 48.7947 35.3041 48.9396 35.2799 49.0159Z" fill="#82D0B6"/>
<path d="M49.6728 71.2004C49.8959 71.0909 52.2919 71.6618 52.7237 71.768C54.2629 72.1463 56.0019 72.5756 57.5113 73.0225C57.815 73.1121 58.8088 73.4109 59.0075 73.5536C59.2063 73.6963 59.1875 74.1123 58.9512 74.2129C58.7513 74.2981 57.8514 73.891 57.5533 73.8091C55.8474 73.3445 54.1293 72.8865 52.4189 72.4329C51.6316 72.2238 50.5009 72.0976 49.7788 71.841C49.431 71.7182 49.367 71.3498 49.6728 71.2004Z" fill="#FF5D00"/>
<path d="M45.3549 64.01C45.5272 63.8916 45.504 63.7434 45.8529 63.8009C46.5541 63.917 46.9438 64.3032 46.9935 65.0101C47.009 65.2303 46.9218 66.3067 46.8191 66.4594C46.7871 66.507 46.6501 66.6984 46.6104 66.7736C46.1135 67.7051 45.0999 67.7538 44.8172 66.6508C44.6173 65.8719 44.9596 64.9127 45.2843 64.2158C45.3141 64.1505 45.3262 64.0753 45.3549 64.0089V64.01Z" fill="#414141"/>
<path d="M42.0702 67.0525C42.8486 67.1897 43.8711 67.7318 43.3764 68.6688C43.0462 69.295 41.2619 69.2397 40.6922 69.024C40.4603 68.9355 40.1356 68.7064 39.9877 68.5051C39.2269 67.4696 41.3271 66.9208 42.0713 67.0525H42.0702Z" fill="#414141"/>
<path d="M40.0065 64.5422C40.0684 63.791 39.7625 63.2378 38.9388 63.2256C38.7124 63.2223 38.7224 63.3606 38.6528 63.4016L38.5137 63.5841C38.4475 63.7888 38.3459 63.9271 38.2564 64.1107C38.3282 64.2789 38.2045 64.6417 38.0444 64.7302C38.0124 64.8951 38.0146 65.0865 37.9484 65.2358L37.9704 65.3974C37.9771 65.4184 37.8678 65.6872 37.8611 65.8233C37.8346 66.4318 38.1085 66.8389 38.7257 66.8821C39.4324 66.9318 39.959 65.1097 40.0065 64.5422Z" fill="#404141"/>
<path d="M56.897 65.4443C57.4601 65.5118 57.3066 66.1668 56.8252 66.2387L50.4972 67.6891C50.2101 67.7698 49.9561 67.4059 50.124 67.1614C50.3978 66.762 56.0435 65.7641 56.897 65.4443Z" fill="#FF5D00"/>
<path d="M60.6282 70.0947C61.7401 67.5292 61.9013 65.1594 61.2664 62.4755C60.9484 61.1313 59.9933 58.4717 59.005 57.5402C56.6443 55.3153 54.2726 53.8572 51.3509 52.4444C51.1135 52.3294 50.8087 52.0572 50.6199 51.972C50.3384 51.8459 48.1852 51.5892 47.7634 51.5693C46.974 51.5317 46.2055 51.6888 45.4679 51.6711C44.6342 51.6512 43.7652 51.4996 42.904 51.6335C41.0832 51.9167 36.0084 54.1161 34.4118 55.1416C34.1534 55.3076 33.9524 55.6284 33.6145 55.676C33.4931 55.9924 33.2358 56.0521 33.0161 56.2657C30.5361 58.6653 28.606 61.3503 27.3406 64.5996C25.363 63.4745 23.4208 62.2221 21.3925 61.1877C21.0811 61.0284 19.4469 60.1909 19.2294 60.3513C19.1532 60.4077 19.0836 60.618 19.0836 60.7164C19.0836 61.0207 19.7218 61.1125 19.9361 61.2143C22.2802 62.3283 24.5051 63.8894 26.7952 65.1251C26.8813 65.1716 26.9332 65.2358 26.9741 65.3243C27.1231 65.6473 26.7808 66.5235 26.7046 66.9461C26.6019 67.5225 26.5291 68.1056 26.4805 68.6875C25.8898 68.6831 25.2902 68.6974 24.6994 68.7328C22.8765 68.8424 20.8779 68.9431 19.0748 69.1588C18.6961 69.2041 17.8823 69.1964 17.8635 69.6777C17.8447 70.1611 18.9478 69.8447 19.2846 69.8215C21.6552 69.6599 24.0314 69.4995 26.4065 69.4365C26.4959 70.0029 26.4893 70.6125 26.5666 71.1955C26.995 74.4304 28.6712 77.0137 31.3234 78.8878C34.5686 81.1823 38.4784 81.6204 42.3397 81.5895M43.3754 68.6698C43.0453 69.296 41.261 69.2407 40.6912 69.0249C40.4593 68.9364 40.1347 68.7074 39.9867 68.5061C39.226 67.4705 41.3261 66.9218 42.0703 67.0534C42.8488 67.1906 43.8712 67.7327 43.3765 68.6698H43.3754ZM46.8216 66.4593C46.7896 66.5069 46.6526 66.6983 46.6129 66.7735C46.116 67.7051 45.1024 67.7538 44.8197 66.6507C44.6198 65.8719 44.9621 64.9127 45.2868 64.2157C45.3166 64.1504 45.3287 64.0752 45.3574 64.0088C45.5297 63.8905 45.5065 63.7422 45.8554 63.7997C46.5566 63.9159 46.9463 64.302 46.996 65.009C47.0115 65.2291 46.9243 66.3056 46.8227 66.4582L46.8216 66.4593ZM50.1253 67.1619C50.3991 66.7625 56.0448 65.7646 56.8983 65.4448C57.4614 65.5123 57.3079 66.1673 56.8265 66.2392L50.4985 67.6896C50.2114 67.7703 49.9574 67.4064 50.1253 67.1619ZM58.9531 74.2125C58.7533 74.2977 57.8534 73.8905 57.5553 73.8087C55.8493 73.344 54.1312 72.886 52.4208 72.4324C51.6336 72.2233 50.5029 72.0972 49.7807 71.8405C49.4329 71.7177 49.3689 71.3493 49.6748 71.2C49.8978 71.0904 52.2939 71.6613 52.7256 71.7675C54.2648 72.1459 56.0039 72.5751 57.5133 73.0221C57.8169 73.1117 58.8107 73.4104 59.0094 73.5531C59.2016 73.6914 59.1894 74.1118 58.9531 74.2125Z" fill="#FF8E55"/>
<path d="M38.3784 63.384C38.5506 63.2656 38.5274 63.1174 38.8764 63.1749C39.5775 63.2911 39.9673 63.6772 40.017 64.3841C40.0324 64.6043 39.9452 65.6807 39.8425 65.8334C39.8105 65.881 39.6736 66.0724 39.6338 66.1476C39.1369 67.0791 38.1233 67.1278 37.8406 66.0248C37.6408 65.2459 37.9831 64.2868 38.3077 63.5898C38.3375 63.5245 38.3497 63.4493 38.3784 63.3829V63.384Z" fill="#414141"/>
<path d="M49.8273 57.2878C54.7465 57.1652 59.7033 56.9996 64.6247 56.7754C65.7898 56.7224 67.3637 56.5512 68.4715 56.6407C70.2207 56.7809 69.7126 57.4181 69.8129 58.7622C70.0521 61.9936 70.0785 66.5524 69.7953 69.7827C69.7445 70.3625 69.7523 71.0462 69.1008 71.1345C68.3161 71.2416 68.1055 70.8043 67.9303 71.6304C66.4875 78.4267 66.8733 86.7382 65.9529 93.7798C65.469 97.4816 64.1706 101.002 63.4475 104.616C63.1609 106.049 63.1224 107.529 62.8622 108.906C62.7895 109.292 62.687 109.836 62.2869 109.998C53.5352 110.88 44.692 110.163 35.9248 110.421C33.0778 110.013 29.9364 110.182 27.1258 109.739C23.5093 109.168 22.6606 105.575 21.7116 102.459C19.7397 95.9918 17.9023 89.1447 16.1751 82.5968C15.4664 79.911 14.859 77.1953 14.2043 74.4973C13.241 74.5227 12.1409 74.568 11.8753 73.4294C11.5314 71.2063 10.9329 69.0185 10.5427 66.8087C10.3818 65.8964 9.91114 63.5563 10.0147 62.7711C10.0434 62.5513 10.6915 61.3751 10.88 61.1973C11.8753 60.2575 17.4283 59.3828 19.042 59.1078C22.4743 58.5214 25.9849 58.0333 29.4614 57.8036C36.2401 57.3552 43.0375 57.4601 49.8295 57.29L49.8273 57.2878ZM59.6625 70.1472C59.528 69.9109 58.8677 69.849 58.5999 69.8556C53.1141 69.9959 47.2139 70.8672 41.6917 71.2737C37.7744 71.5619 33.8229 71.5917 29.9089 71.9175C27.6449 72.1064 25.3864 72.5393 23.1169 72.6851C22.3366 72.7359 19.5678 72.3074 19.5986 73.3963C19.6218 74.2146 20.6623 73.8446 21.0635 73.8358C24.1156 73.774 26.7896 73.4095 29.781 73.2008C39.1213 72.5481 48.52 72.2267 57.8328 71.2737C58.1513 71.2416 59.2899 71.1544 59.4354 71.0826C59.6999 70.9534 59.7936 70.378 59.6614 70.1461L59.6625 70.1472Z" fill="#3F3F3F"/>
<path d="M59.6646 70.1474C59.7957 70.3782 59.7031 70.9547 59.4386 71.0839C59.292 71.1546 58.1534 71.2418 57.836 71.2749C48.5232 72.228 39.1245 72.5494 29.7842 73.2021C26.7928 73.4108 24.1199 73.7741 21.0667 73.8371C20.6666 73.8448 19.6261 74.2148 19.6018 73.3976C19.5699 72.3086 22.3398 72.7371 23.1201 72.6863C25.3896 72.5406 27.6481 72.1076 29.9121 71.9188C33.8261 71.593 37.7776 71.5632 41.6949 71.2749C47.2171 70.8685 53.1173 69.9972 58.6031 69.8569C58.8709 69.8503 59.5312 69.911 59.6657 70.1485L59.6646 70.1474Z" fill="#2A2A2A"/>
<path opacity="0.7" d="M41.1639 93.3229C40.736 93.3231 40.3585 93.2771 40.0313 93.1849C39.7124 93.0844 39.4607 92.8915 39.276 92.6063C39.0914 92.3127 38.9989 91.8807 38.9987 91.3102C38.9985 90.8404 39.0865 90.4083 39.2625 90.014C39.4469 89.6112 39.7237 89.2336 40.0927 88.8811C40.4617 88.5286 40.923 88.1929 41.4766 87.8739C41.9379 87.6053 42.3489 87.3492 42.7095 87.1058C43.0786 86.854 43.3679 86.6064 43.5776 86.363C43.7956 86.1197 43.9046 85.8679 43.9045 85.6079C43.9044 85.3394 43.8288 85.1297 43.6778 84.9787C43.5351 84.8194 43.3253 84.7104 43.0484 84.6518C42.78 84.5931 42.4569 84.5639 42.0794 84.564C41.8277 84.5641 41.5299 84.5978 41.186 84.665C40.842 84.7239 40.5065 84.8079 40.1793 84.9171C39.8522 85.0179 39.5922 85.1312 39.3992 85.2571C39.005 85.4502 38.6401 85.6097 38.3046 85.7357C37.9774 85.8617 37.6251 85.9247 37.2476 85.9248C36.9204 85.925 36.6309 85.837 36.3792 85.6609C36.1274 85.4848 36.0015 85.1493 36.0013 84.6543C36.0012 84.3187 36.0934 84.0041 36.2778 83.7104C36.4623 83.4083 36.7097 83.1272 37.02 82.867C37.4561 82.4809 37.9719 82.1493 38.5675 81.8723C39.163 81.5868 39.7838 81.3727 40.4297 81.2298C41.084 81.0786 41.7048 81.0028 42.2921 81.0026C43.1814 81.0023 44.0036 81.0943 44.7587 81.2786C45.5222 81.4629 46.185 81.7437 46.7473 82.121C47.3095 82.49 47.7459 82.9596 48.0565 83.53C48.3671 84.092 48.5226 84.7547 48.5229 85.5181C48.5231 86.1389 48.3932 86.6927 48.1333 87.1794C47.8818 87.6661 47.5254 88.0898 47.0641 88.4508C46.6112 88.8117 46.0912 89.1265 45.504 89.3951C45.1601 89.563 44.8204 89.7435 44.4849 89.9366C44.1578 90.1213 43.8768 90.3395 43.642 90.5913C43.4072 90.8431 43.2479 91.1409 43.1641 91.4849C43.005 92.1058 42.7996 92.5673 42.548 92.8694C42.3048 93.1715 41.8434 93.3227 41.1639 93.3229ZM40.6118 97.9289C40.0078 97.9291 39.5254 97.7951 39.1645 97.5268C38.8037 97.2668 38.6232 96.8684 38.623 96.3315C38.6228 95.7358 38.8281 95.2827 39.2391 94.9721C39.6585 94.6532 40.1198 94.4936 40.6232 94.4935C41.0175 94.4933 41.3909 94.5435 41.7432 94.6441C42.0956 94.7362 42.3851 94.9039 42.6117 95.1471C42.8467 95.3903 42.9643 95.7384 42.9645 96.1915C42.9646 96.6948 42.7802 97.1102 42.4112 97.4375C42.0422 97.7648 41.4424 97.9286 40.6118 97.9289Z" fill="white"/>
</svg>
