<svg width="22" height="22" viewBox="0 0 22 22" fill="none" xmlns="http://www.w3.org/2000/svg">
<path d="M10.8004 2.0249C9.28537 2.02457 7.79611 2.41648 6.47753 3.16247C5.15895 3.90846 4.05596 4.98313 3.27594 6.28187C2.49591 7.58061 2.06542 9.05918 2.02636 10.5737C1.98729 12.0881 2.341 13.5869 3.05304 14.9242L2.09538 17.7971C2.01606 18.035 2.00455 18.2902 2.06214 18.5343C2.11973 18.7783 2.24415 19.0015 2.42145 19.1788C2.59875 19.3561 2.82193 19.4805 3.06597 19.5381C3.31001 19.5957 3.56527 19.5842 3.80313 19.5049L6.6761 18.5472C7.85294 19.1732 9.15691 19.5228 10.489 19.5695C11.8212 19.6162 13.1464 19.3589 14.3642 18.817C15.5821 18.2751 16.6604 17.4628 17.5175 16.442C18.3745 15.4211 18.9877 14.2183 19.3105 12.9251C19.6333 11.6318 19.6573 10.282 19.3806 8.97811C19.1038 7.67421 18.5337 6.45049 17.7134 5.39983C16.8931 4.34918 15.8442 3.4992 14.6464 2.91443C13.4486 2.32966 12.1333 2.02545 10.8004 2.0249ZM7.08785 11.8124C6.8876 11.8124 6.69184 11.753 6.52534 11.6418C6.35883 11.5305 6.22906 11.3724 6.15242 11.1874C6.07579 11.0024 6.05574 10.7988 6.09481 10.6024C6.13387 10.406 6.23031 10.2256 6.37191 10.084C6.51351 9.94236 6.69392 9.84592 6.89032 9.80686C7.08673 9.76779 7.29031 9.78784 7.47532 9.86447C7.66033 9.94111 7.81846 10.0709 7.92972 10.2374C8.04097 10.4039 8.10035 10.5996 8.10035 10.7999C8.10035 11.0684 7.99368 11.326 7.8038 11.5158C7.61392 11.7057 7.35638 11.8124 7.08785 11.8124ZM10.8004 11.8124C10.6001 11.8124 10.4043 11.753 10.2378 11.6418C10.0713 11.5305 9.94156 11.3724 9.86492 11.1874C9.78829 11.0024 9.76824 10.7988 9.80731 10.6024C9.84637 10.406 9.94281 10.2256 10.0844 10.084C10.226 9.94236 10.4064 9.84592 10.6028 9.80686C10.7992 9.76779 11.0028 9.78784 11.1878 9.86447C11.3728 9.94111 11.531 10.0709 11.6422 10.2374C11.7535 10.4039 11.8129 10.5996 11.8129 10.7999C11.8129 11.0684 11.7062 11.326 11.5163 11.5158C11.3264 11.7057 11.0689 11.8124 10.8004 11.8124ZM14.5129 11.8124C14.3126 11.8124 14.1168 11.753 13.9503 11.6418C13.7838 11.5305 13.6541 11.3724 13.5774 11.1874C13.5008 11.0024 13.4807 10.7988 13.5198 10.6024C13.5589 10.406 13.6553 10.2256 13.7969 10.084C13.9385 9.94236 14.1189 9.84592 14.3153 9.80686C14.5117 9.76779 14.7153 9.78784 14.9003 9.86447C15.0853 9.94111 15.2435 10.0709 15.3547 10.2374C15.466 10.4039 15.5254 10.5996 15.5254 10.7999C15.5254 11.0684 15.4187 11.326 15.2288 11.5158C15.0389 11.7057 14.7814 11.8124 14.5129 11.8124Z" fill="#A6A6A6"/>
</svg>
