<svg width="336" height="200" viewBox="0 0 336 200" fill="none" xmlns="http://www.w3.org/2000/svg">
<g clip-path="url(#clip0_889_13774)">
<rect width="335" height="200" transform="translate(0.400391)" fill="#FFF7F2"/>
<g clip-path="url(#clip1_889_13774)">
<path d="M255.676 200.335C249.874 203.692 249.874 209.14 255.676 212.497C261.477 215.854 270.882 215.854 276.684 212.497C282.486 209.14 282.486 203.692 276.684 200.335C270.882 196.978 261.477 196.978 255.676 200.335Z" fill="#FFBDA7"/>
<path d="M266.841 161.097C268.518 157.09 272.286 148.788 275.178 145.004C279.34 139.557 287.15 139.697 287.15 139.697L300.698 159.969C296.478 161.371 297.126 166.295 289.539 168.965C287.512 169.678 285.993 169.736 285.459 171.481C284.799 173.641 284.176 176.858 283.559 180.088C282.098 187.784 281.011 206.878 281.011 206.878L251.469 205.209C251.469 205.209 260.143 177.081 266.834 161.103L266.841 161.097Z" fill="#FFBDA7"/>
<path d="M287.214 169.169C287.824 169.162 288.447 169.194 289.044 169.124C287.265 169.691 285.95 169.876 285.46 171.475C284.819 173.577 284.209 176.693 283.605 179.84C283.853 177.381 284.005 174.915 284.062 172.443C284.075 171.965 284.291 171.437 283.865 171.08C283.643 170.889 283.351 170.806 283.084 170.698C282.277 170.379 281.559 169.838 281.031 169.15C283.147 169.863 285.098 169.2 287.214 169.169Z" fill="#F0997A"/>
<path d="M281.139 139.888C284.863 137.499 290.105 133.466 294.35 133.944C298.595 134.428 299.409 135.569 299.409 135.569L293.581 149.323L281.133 139.888H281.139Z" fill="#FFBDA7"/>
<path d="M293.384 172.138C292.037 172.316 290.798 171.36 290.627 170.01L278.025 73.2362L282.906 72.5991L295.507 169.373C295.685 170.723 294.732 171.966 293.384 172.138Z" fill="#37474F"/>
<path d="M264.686 68.2478C260.327 70.7706 257.633 76.1795 257.633 83.8755C257.633 99.2675 268.417 117.992 281.71 125.688C288.357 129.536 294.381 129.899 298.734 127.376C301.378 125.847 300.469 126.369 303.119 124.84C307.478 122.317 310.173 116.908 310.173 109.212C310.173 93.8141 299.389 75.0965 286.095 67.4004C279.448 63.5524 273.424 63.1893 269.071 65.7122C266.428 67.2412 267.336 66.7188 264.686 68.2478Z" fill="#FF5D00"/>
<path d="M281.71 125.688C288.357 129.536 294.381 129.899 298.734 127.376C303.094 124.853 305.788 119.444 305.788 111.748C305.788 96.3497 295.004 77.6321 281.71 69.9361C275.063 66.0881 269.039 65.7249 264.686 68.2478C260.334 70.7707 257.633 76.1795 257.633 83.8755C257.633 99.2739 268.417 117.992 281.71 125.688Z" fill="#FF9E66"/>
<path d="M300.139 135.925C299.3 135.186 298.124 134.747 297.101 134.447C297.101 134.447 296.307 140.952 296.3 141.003C296.199 141.831 296.186 142.691 295.729 143.405L297.273 145.596C298.95 147.979 300.628 150.362 302.299 152.738C302.935 153.643 303.57 154.547 304.206 155.452C304.295 155.579 304.377 155.726 304.479 155.841L305.076 156.656C305.076 156.656 306.76 151.19 305.68 149.578C305.54 149.374 305.381 149.177 305.273 148.954C304.866 148.119 305.273 147.093 305.019 146.202C304.79 145.399 304.072 144.845 303.64 144.131C303.31 143.589 303.214 143.022 303.182 142.398C303.157 141.857 302.909 141.36 302.585 140.92C302.223 140.436 301.734 140.041 301.467 139.499C301.136 138.824 301.327 138.117 301.149 137.429C300.996 136.843 300.596 136.314 300.151 135.919L300.139 135.925Z" fill="#FFBDA7"/>
<path d="M268.913 160.523C270.705 153.133 273.374 147.036 276.24 143.59C279.767 139.347 284.374 138.531 288.67 138.085C291.663 137.773 294.471 136.613 297.432 136.225C298.233 136.123 298.729 136.486 298.843 137.282C299.002 138.353 298.742 139.48 298.125 140.379C297.401 141.443 296.206 142.105 295.069 142.698C293.817 143.347 292.508 143.863 291.192 144.367C285.556 146.495 292.705 151.598 287.303 159.969C286.484 164.868 268.9 160.523 268.9 160.523H268.913Z" fill="#FFBDA7"/>
<path d="M276.247 143.583C279.093 140.041 283.707 138.518 288.072 137.926C290.284 137.709 292.387 137.072 294.554 136.518C297.395 135.849 299.828 134.963 299.028 139.13C298.03 142.532 293.753 143.5 290.894 144.768C288.447 145.698 289.165 148.291 289.445 150.349C290.023 153.681 289.299 157.223 287.316 159.963C292.292 152.209 285.683 146.59 290.678 144.297C292.743 143.462 294.815 142.697 296.638 141.442C297.522 140.831 298.195 139.99 298.456 138.971C298.729 137.786 298.831 136.085 297.102 136.55C294.078 137.002 291.205 138.168 288.117 138.365C283.777 138.862 279.246 140.226 276.24 143.583H276.247Z" fill="#F0997A"/>
<path d="M288.562 154.242C287.819 159.434 283.199 160.708 279.869 161.071C279.869 161.071 285.131 161.855 288.156 159.51L290.202 166.811L288.562 154.248V154.242Z" fill="#F0997A"/>
<path d="M295.73 143.398C295.488 143.156 295.151 143.156 294.783 143.309C294.446 143.443 293.347 143.691 293.086 143.946C292.501 144.513 291.98 145.137 291.383 145.685C290.5 146.494 289.636 147.393 288.612 148.011C287.481 148.692 286.712 149.036 285.944 150.17C285.403 150.967 285.232 152.171 285.886 152.955C286.306 153.458 287.005 153.713 287.647 153.598C287.354 154.159 287.202 154.796 287.278 155.42C287.361 156.044 287.691 156.65 288.225 156.981C288.778 157.325 289.458 157.357 290.112 157.344C290.023 157.937 290.233 158.567 290.646 158.994C291.396 159.765 292.571 159.65 293.537 159.497C293.175 160.243 293.531 161.256 294.274 161.613C294.7 161.816 295.189 161.823 295.66 161.804C297.096 161.746 298.653 161.574 299.981 161.026C301.22 160.517 302.459 160.3 303.52 159.395C303.908 159.058 304.156 158.816 304.41 158.37C304.537 158.147 304.855 157.408 305.071 156.662C304.41 155.726 303.749 154.789 303.088 153.853C301.601 151.75 300.121 149.648 298.634 147.546C298.005 146.654 297.375 145.762 296.746 144.87C296.537 144.57 296.321 144.271 296.111 143.965C296.009 143.825 295.927 143.679 295.831 143.538C295.8 143.487 295.761 143.443 295.723 143.405L295.73 143.398Z" fill="#FFBDA7"/>
<path d="M287.646 153.585C289.127 153.388 290.519 152.802 291.872 152.209C293.918 151.234 295.901 150.26 297.661 148.781C298.195 148.151 298.418 147.45 298.703 146.724C299.205 145.322 299.638 143.889 299.86 142.417C299.631 143.124 299.383 143.819 299.11 144.507C298.576 145.806 298.112 147.284 297.255 148.393C294.401 150.457 290.976 152.394 287.646 153.585Z" fill="#F0997A"/>
<path d="M290.111 157.337C293.416 156.79 296.529 155.299 299.332 153.483C299.923 153.088 300.285 152.438 300.628 151.846C301.257 150.661 301.855 149.425 302.058 148.087C301.842 148.718 301.543 149.31 301.226 149.89C300.596 150.954 299.974 152.279 299.001 153.018C298.48 153.387 297.896 153.706 297.324 154.031C294.998 155.28 292.647 156.528 290.118 157.337H290.111Z" fill="#F0997A"/>
<path d="M293.334 159.606C296.124 159.172 298.831 158.077 301.201 156.529C302.345 155.305 303.457 153.815 303.857 152.171C303.667 152.7 303.349 153.165 303.025 153.617C302.383 154.458 301.678 155.433 300.909 156.14C298.564 157.593 295.958 158.72 293.34 159.599L293.334 159.606Z" fill="#F0997A"/>
<path d="M295.621 145.838C295.767 145.845 295.901 145.94 296.022 146.023C296.142 146.106 296.257 146.195 296.371 146.284C296.593 146.469 296.778 146.686 296.943 146.928C297.108 147.17 297.242 147.425 297.343 147.699C297.439 147.954 297.54 148.247 297.54 148.521C297.54 148.603 297.47 148.699 297.4 148.737C297.305 148.788 297.223 148.82 297.121 148.763C297.032 148.712 297.026 148.622 297.006 148.527C296.987 148.393 296.956 148.266 296.918 148.138C296.841 147.871 296.733 147.609 296.6 147.367C296.454 147.087 296.263 146.826 296.06 146.577C295.977 146.475 295.888 146.386 295.793 146.297C295.704 146.214 295.596 146.131 295.545 146.023C295.52 145.972 295.532 145.845 295.615 145.851L295.621 145.838Z" fill="#F0997A"/>
<path d="M295.431 147.291C296.105 147.641 296.613 148.412 296.715 149.164C296.74 149.374 296.365 149.591 296.315 149.33C296.245 148.967 296.143 148.616 295.959 148.298C295.876 148.151 295.794 148.011 295.692 147.877C295.584 147.743 295.469 147.61 295.349 147.482C295.298 147.425 295.336 147.24 295.431 147.291Z" fill="#F0997A"/>
<path d="M298.513 150.26C298.64 150.291 298.742 150.4 298.837 150.489C298.932 150.578 299.021 150.68 299.104 150.776C299.269 150.973 299.403 151.196 299.504 151.432C299.612 151.674 299.689 151.916 299.733 152.177C299.778 152.413 299.822 152.693 299.778 152.935C299.765 153.005 299.689 153.082 299.619 153.101C299.523 153.126 299.447 153.146 299.371 153.076C299.301 153.018 299.307 152.935 299.307 152.853C299.307 152.731 299.307 152.61 299.295 152.489C299.269 152.241 299.218 151.992 299.142 151.757C299.053 151.483 298.932 151.222 298.793 150.973C298.736 150.871 298.672 150.776 298.602 150.68C298.539 150.591 298.456 150.502 298.43 150.393C298.418 150.342 298.45 150.234 298.519 150.253L298.513 150.26Z" fill="#F0997A"/>
<path d="M298.113 151.508C298.653 151.929 298.977 152.693 298.945 153.375C298.939 153.566 298.57 153.693 298.564 153.451C298.564 153.12 298.526 152.795 298.418 152.483C298.367 152.343 298.323 152.203 298.246 152.069C298.17 151.935 298.094 151.795 298.005 151.668C297.967 151.61 298.037 151.457 298.113 151.515V151.508Z" fill="#F0997A"/>
<path d="M300.54 154.343C300.622 154.369 300.686 154.445 300.749 154.509C300.807 154.573 300.864 154.643 300.915 154.713C301.016 154.853 301.092 155.006 301.156 155.165C301.22 155.331 301.258 155.496 301.283 155.668C301.302 155.828 301.321 156.013 301.283 156.172C301.27 156.216 301.22 156.267 301.169 156.28C301.105 156.293 301.054 156.306 301.003 156.255C300.959 156.21 300.965 156.159 300.972 156.102C300.972 156.019 300.978 155.942 300.972 155.86C300.965 155.694 300.94 155.528 300.895 155.363C300.851 155.178 300.775 155 300.692 154.828C300.66 154.757 300.622 154.694 300.578 154.624C300.533 154.554 300.489 154.503 300.47 154.426C300.463 154.394 300.489 154.324 300.533 154.337L300.54 154.343Z" fill="#F0997A"/>
<path d="M300.229 155.159C300.572 155.458 300.757 155.981 300.712 156.433C300.699 156.56 300.452 156.63 300.458 156.471C300.471 156.248 300.458 156.032 300.394 155.821C300.369 155.726 300.337 155.63 300.299 155.541C300.255 155.446 300.204 155.356 300.153 155.261C300.134 155.223 300.178 155.121 300.229 155.159Z" fill="#F0997A"/>
<path d="M303.33 158.032C303.412 158.128 303.501 158.229 303.571 158.338C303.641 158.44 303.698 158.554 303.755 158.669C303.781 158.72 303.806 158.777 303.825 158.828C303.838 158.86 303.844 158.892 303.857 158.918C303.876 158.962 303.901 159 303.921 159.045C303.933 159.083 303.978 159.096 304.01 159.077C304.054 159.051 304.067 159 304.067 158.956C304.067 158.905 304.079 158.854 304.073 158.803C304.073 158.752 304.06 158.707 304.048 158.663C304.029 158.593 304.003 158.516 303.978 158.446C303.927 158.319 303.844 158.204 303.762 158.102C303.673 157.994 303.571 157.905 303.45 157.828C303.336 157.758 303.202 157.72 303.075 157.688C303.037 157.675 303.056 157.752 303.075 157.764C303.177 157.841 303.26 157.93 303.342 158.026L303.33 158.032ZM302.72 158.714C302.789 158.758 302.847 158.822 302.91 158.873C302.974 158.924 303.025 158.981 303.075 159.045C303.107 159.083 303.133 159.121 303.158 159.16C303.177 159.191 303.209 159.223 303.228 159.255C303.279 159.332 303.31 159.408 303.355 159.485C303.374 159.523 303.419 159.504 303.419 159.459C303.419 159.351 303.387 159.242 303.342 159.141C303.323 159.09 303.304 159.039 303.272 158.994C303.247 158.956 303.222 158.924 303.19 158.892C303.126 158.822 303.056 158.765 302.986 158.714C302.91 158.656 302.821 158.631 302.732 158.605C302.681 158.593 302.694 158.688 302.72 158.707V158.714Z" fill="#F0997A"/>
<path d="M293.087 143.94C291.854 145.272 290.646 146.628 289.21 147.743C288.251 148.451 287.101 148.909 286.37 149.871C285.15 151.177 285.518 153.624 287.609 153.375L288.022 153.299C287.749 153.808 287.488 154.375 287.475 154.955C287.437 156.72 288.829 157.236 290.367 157.109L290.329 157.357C290.221 158.071 290.596 158.848 291.25 159.16C292.013 159.536 293.01 159.364 293.881 159.23L293.716 159.561C293.322 160.37 293.9 161.524 294.866 161.594C296.861 161.753 298.907 161.364 300.776 160.638C301.742 160.332 302.733 160.033 303.527 159.377C302.765 160.071 301.773 160.421 300.826 160.772C299.422 161.396 297.922 161.81 296.378 161.899C295.616 161.938 294.745 162.097 294.033 161.657C293.309 161.192 292.998 160.198 293.366 159.396L293.57 159.67C291.809 160.097 289.687 159.479 289.903 157.293L290.119 157.542C287.622 157.803 286.319 155.656 287.463 153.477L287.685 153.777C285.213 154.07 284.597 151.184 286.103 149.642C286.885 148.667 288.086 148.221 289.07 147.54C290.519 146.476 291.803 145.182 293.087 143.927V143.94Z" fill="#F0997A"/>
<path d="M236.871 119.145C238.517 117.087 239.242 105.104 238.759 102.549C238.276 99.9941 238.149 96.7259 238.314 93.9864C238.479 91.2469 237.551 88.724 236.318 88.3163C235.079 87.9086 234.056 88.0169 233.688 89.8644C233.313 91.712 233.033 93.757 231.044 97.3757C229.055 101.001 226.901 104.728 228.655 109.506C230.409 114.284 236.871 119.145 236.871 119.145Z" fill="#F28F8F"/>
<path d="M241.721 137.467C243.049 137.174 243.888 135.856 243.596 134.53L220.008 26.729L215.197 27.7866L238.786 135.588C239.078 136.92 240.393 137.761 241.715 137.467H241.721Z" fill="#37474F"/>
<path d="M230.861 17.4976C235.811 18.3895 240.176 22.5624 242.782 29.8061C247.986 44.2871 244.18 65.5658 234.273 77.3264C229.316 83.2067 223.782 85.5958 218.825 84.7039C215.819 84.1624 216.849 84.3471 213.843 83.8056C208.893 82.9137 204.527 78.7408 201.922 71.4971C196.717 57.0097 200.524 35.7374 210.431 23.9768C215.387 18.0964 220.922 15.7074 225.879 16.5993C228.884 17.1408 227.855 16.9561 230.861 17.4976Z" fill="#FF5D00"/>
<path d="M234.273 77.3202C229.317 83.2005 223.782 85.5896 218.825 84.6977C213.875 83.8058 209.51 79.6328 206.904 72.3892C201.7 57.9082 205.506 36.6295 215.413 24.8688C220.37 18.9885 225.904 16.5995 230.861 17.4914C235.811 18.3833 240.177 22.5562 242.782 29.7999C247.987 44.2809 244.18 65.5596 234.273 77.3202Z" fill="#FF9E66"/>
<path d="M249.365 105.205C248.666 104.492 247.674 105.301 247.674 105.301C247.674 105.301 247.693 104.906 247.293 104.231C246.893 103.555 246.295 103.033 246.295 103.033C246.295 103.033 246.893 102.702 247.426 102.109C247.954 101.517 247.547 100.032 247.147 99.3568C246.746 98.6815 244.402 98.4776 243.315 98.758C242.228 99.0319 238.86 99.7327 237.945 100.109C237.03 100.484 230.93 103.982 230.93 103.982C230.93 103.982 235.245 100.618 237.056 99.4842C238.873 98.3502 242.724 98.0699 244.173 97.0506C245.825 95.8847 246.067 94.0945 244.573 93.4064C243.08 92.7184 237.513 93.3045 235.785 93.795C234.056 94.292 232.055 95.0883 229.462 96.9168C226.869 98.7452 223.775 100.663 223.215 101.841C222.523 103.294 223.031 105.957 223.292 107.403C223.546 108.811 224.169 113.927 224.486 116.788C224.747 119.138 222.942 126.236 221.563 131.88C220.184 137.525 205.9 209 205.9 209L235.785 207C235.785 207 238.873 131.619 240.265 130.09C242.222 127.937 243.569 125.248 243.601 122.069C243.633 117.947 242.965 116.399 245.425 113.462C246.766 111.863 248.043 110.799 248.996 109.117C249.949 107.435 250.07 105.912 249.371 105.199L249.365 105.205Z" fill="#FFA8A7"/>
<path d="M247.421 102.109C247.649 101.848 247.694 101.427 247.649 100.969C247.649 100.981 247.313 101.599 245.959 102.358C244.593 103.128 240.456 104.454 238.334 105.925C236.211 107.397 234.057 109.276 232.85 109.499C233.739 109.474 236.249 108.117 238.797 106.48C241.346 104.842 246.29 103.027 246.29 103.027C246.29 103.027 246.887 102.695 247.421 102.103V102.109Z" fill="#F28F8F"/>
<path d="M245.565 107.594C244.879 108.276 241.225 110.703 239.91 111.627C238.594 112.551 236.307 113.882 236.307 113.882C236.307 113.882 238.27 113.233 239.535 112.417C240.799 111.602 244.453 109.168 245.724 108.047C246.989 106.925 247.453 106.033 247.669 105.301C247.669 105.301 247.688 104.906 247.287 104.23C247.427 105.575 246.245 106.906 245.565 107.594Z" fill="#F28F8F"/>
<path d="M190.16 214.313C190.16 214.313 184.72 169.022 184.136 163.225C183.551 157.427 182.433 152.381 181.327 149.661C180.603 147.871 179.719 146.138 179.02 144.348C178.131 142.073 177.641 139.627 177.565 137.187C177.54 136.378 177.349 135.352 176.326 135.346C175.335 135.346 174.331 136.365 173.841 137.136C173.269 138.041 172.996 139.105 172.863 140.168C172.685 141.646 172.812 143.061 172.895 144.52C172.945 145.386 173.053 146.769 172.31 147.393C171.922 147.712 171.344 147.495 170.918 147.234C169.285 146.234 168.084 144.418 167.067 142.793C166.076 141.213 165.123 139.461 163.706 137.951C162.746 136.926 160.007 138.659 158.857 139.601C157.745 140.519 157.014 142.01 156.284 143.22C154.949 145.424 153.481 147.578 152.655 150.018C149.885 158.236 155.566 161.403 160.656 166.257C163.21 168.691 165.364 169.844 164.964 177.145C164.634 183.248 163 214.249 163 214.249L190.147 214.3L190.16 214.313Z" fill="#B16668"/>
<path d="M152.662 150.031C152.535 150.413 152.42 150.802 152.325 151.184C152.325 151.203 152.319 151.222 152.312 151.235C152.128 151.987 152.007 152.745 151.956 153.497C151.651 159.046 156.023 161.938 160.192 165.811C160.148 165.537 160.103 165.264 160.071 164.983C159.932 163.722 159.671 162.441 160.262 161.282C160.548 160.727 160.936 160.364 161.577 160.282C161.781 160.256 161.997 160.262 162.175 160.358C162.613 160.594 162.664 161.467 162.747 161.9C162.848 162.441 162.861 162.996 163.013 163.531C163.471 165.155 166.566 165.964 167.627 164.454C167.83 164.168 167.907 163.805 167.97 163.454C168.116 162.632 168.212 161.798 168.256 160.957C168.281 160.428 168.294 159.867 168.574 159.415C169.552 157.791 171.643 160.237 172.584 160.747C173.219 161.091 173.886 161.371 174.572 161.588C174.935 161.696 175.297 161.791 175.665 161.861C175.907 161.906 176.396 161.881 176.593 162.002C174.007 160.422 172.259 158.708 171.128 155.892C170.95 155.44 170.378 154.242 170.207 153.783C169.908 153 170.582 152.758 170.887 152.324C171.726 151.133 170.703 150.024 170.112 149.145C169.362 148.03 168.618 146.922 167.849 145.813C168.186 145.718 168.574 145.609 168.93 145.425C168.237 144.596 167.627 143.666 167.08 142.793C166.96 142.596 166.833 142.398 166.712 142.195C166.464 141.793 166.216 141.379 165.956 140.965C165.829 140.761 165.695 140.551 165.562 140.347C165.199 139.799 164.818 139.258 164.392 138.729C164.291 138.608 164.189 138.48 164.081 138.359C163.96 138.219 163.846 138.085 163.719 137.952C163.668 137.894 163.604 137.85 163.541 137.811C163.535 137.811 163.528 137.799 163.516 137.792C162.423 137.143 159.944 138.722 158.87 139.608C158.451 139.952 158.089 140.373 157.758 140.838C157.58 141.086 157.415 141.347 157.25 141.608C156.913 142.156 156.602 142.717 156.29 143.227C155.896 143.883 155.49 144.533 155.089 145.189C154.651 145.909 154.219 146.635 153.825 147.381C153.374 148.234 152.973 149.107 152.668 150.024L152.662 150.031Z" fill="#9A4A4D"/>
<path d="M166.38 165.091C167.74 165.091 168.839 163.989 168.839 162.626L168.858 94.2407H163.933L163.914 162.626C163.914 163.989 165.013 165.091 166.373 165.091H166.38Z" fill="#37474F"/>
<path d="M185.609 68.528C189.968 71.0509 192.663 76.4598 192.663 84.1558C192.663 99.5478 181.879 118.272 168.585 125.968C161.938 129.816 155.914 130.179 151.561 127.656C148.918 126.127 149.827 126.649 147.177 125.12C142.817 122.598 140.123 117.189 140.123 109.493C140.123 94.0943 150.907 75.3767 164.201 67.6807C170.847 63.8327 176.872 63.4696 181.225 65.9924C183.868 67.5214 182.959 66.999 185.609 68.528Z" fill="#FF5D00"/>
<path d="M168.579 125.968C161.933 129.816 155.908 130.179 151.556 127.656C147.196 125.133 144.502 119.724 144.502 112.028C144.502 96.63 155.286 77.9124 168.579 70.2164C175.226 66.3684 181.251 66.0052 185.603 68.5281C189.963 71.0509 192.657 76.4598 192.657 84.1558C192.657 99.5542 181.873 118.272 168.579 125.968Z" fill="#FF9E66"/>
<path d="M156.517 137.709C156.517 134.715 156.841 134.549 158.328 134.09C159.815 133.632 162.713 133.199 165.236 135.129C166.932 136.429 168.705 137.652 169.271 138.76C169.836 139.869 167.72 141.207 165.102 140.085C160.972 138.327 160.298 139.308 160.298 139.308C160.298 139.308 164.105 140.933 165.471 141.806C166.843 142.678 168.794 145.036 170.122 146.354C171.45 147.673 170.357 149.826 167.339 148.667C167.339 148.667 169.017 150.336 169.773 151.088C171.476 152.783 171.4 154.28 169.029 154.388C168.464 154.414 167.733 154.388 166.818 153.789C166.818 153.789 168.87 155.261 168.426 155.981C167.142 158.026 165.509 157.631 160.501 155.853C155.729 154.159 153.734 155.605 152.812 157.777C152.812 157.777 151.522 155.127 151.211 153.528C150.919 151.999 150.646 150.763 152.279 149.47C152.279 149.47 149.991 147.89 150.855 146.386C151.719 144.889 153.55 143.781 153.55 143.781C153.55 143.781 152.692 142.169 153.969 140.563C155.246 138.951 156.555 138.697 156.555 138.697L156.53 137.709H156.517Z" fill="#B16668"/>
<path d="M167.339 148.667C166.602 147.947 165.954 147.202 165.039 146.596C164.067 146.023 163.044 145.857 162.072 145.628C160.089 145.227 158.087 144.895 156.041 144.832C157.947 145.59 159.905 146.08 161.881 146.507C162.866 146.717 163.876 146.864 164.715 147.214C165.547 147.628 166.424 148.24 167.346 148.667H167.339Z" fill="#9A4A4D"/>
<path d="M166.817 153.789C166.144 152.916 165.203 152.209 164.174 151.763C163.157 151.292 162.083 150.992 161.015 150.725C158.874 150.234 156.713 149.897 154.502 149.865C156.586 150.597 158.702 151.094 160.806 151.604C162.915 152.12 164.987 152.534 166.817 153.796V153.789Z" fill="#9A4A4D"/>
<path d="M106.494 111.512C105.369 111.245 104.677 110.589 103.742 109.996C102.891 109.448 102.033 109.168 101.385 108.32C100.781 107.524 100.419 106.581 100.044 105.657C99.2943 103.823 98.4555 102.02 97.534 100.261C97.0447 99.3248 95.0113 97.0377 95.9136 96.1012C97.1146 94.8525 99.2625 95.05 100.686 96.0374C102.109 97.0249 102.999 98.5922 103.889 100.083C104.778 101.574 105.789 103.096 107.333 103.886C108.527 104.498 109.989 104.638 110.968 105.556C112.2 106.709 112.181 108.856 111.101 110.155C110.021 111.455 108.133 111.914 106.494 111.519V111.512Z" fill="#F0997A"/>
<path d="M97.7257 137.525C96.3976 137.232 95.5588 135.913 95.8511 134.588L119.439 26.7861L124.25 27.8437L100.662 135.645C100.369 136.977 99.0538 137.818 97.732 137.525H97.7257Z" fill="#37474F"/>
<path d="M108.585 17.5547C103.635 18.4466 99.2693 22.6196 96.6639 29.8632C91.4595 44.3442 95.2659 65.6229 105.173 77.3836C110.129 83.2639 115.664 85.6529 120.621 84.761C123.626 84.2195 122.597 84.4043 125.603 83.8627C130.553 82.9708 134.919 78.7979 137.524 71.5542C142.728 57.0669 138.922 35.7945 129.015 24.0339C124.059 18.1536 118.524 15.7645 113.567 16.6564C110.561 17.1979 111.591 17.0132 108.585 17.5547Z" fill="#FF5D00"/>
<path d="M105.173 77.3774C110.129 83.2577 115.664 85.6467 120.621 84.7548C125.571 83.8629 129.937 79.69 132.542 72.4463C137.746 57.9653 133.94 36.6866 124.033 24.926C119.077 19.0457 113.542 16.6566 108.585 17.5485C103.629 18.4404 99.2693 22.6134 96.6639 29.857C91.4595 44.338 95.2659 65.6167 105.173 77.3774Z" fill="#FF9E66"/>
<path d="M134.124 170.984C134.124 170.984 124.967 123.936 122.857 115.035C121.091 107.588 120.658 105.798 117.608 101.631C115.143 98.2609 112.385 95.2157 111.19 93.3681C110.002 91.5206 106.113 88.3925 103.399 85.4045C100.661 82.6141 99.7137 86.5576 100.654 88.8512C101.874 91.8391 103.425 93.6038 104.829 95.5915C106.157 97.4709 106.793 99.4395 107.79 101.44C106.202 101.115 102.179 100.733 100.565 100.892C99.2689 101.02 97.801 101.128 96.9813 102.37C96.4221 103.217 96.4729 104.288 96.5619 105.212C96.5619 105.212 95.6659 105.549 95.202 106.135C94.7254 106.734 94.4903 107.664 94.9097 108.913C95.2465 109.913 96.0789 110.799 96.0789 110.799C95.2528 111.073 94.5411 111.837 94.3632 112.462C93.7531 114.583 94.522 117.584 94.7508 118.023C94.8906 118.285 96.2124 120.228 96.5873 120.801C97.1338 121.629 97.4706 122.381 98.0806 122.706C98.7987 123.088 100.228 121.661 100.286 120.578C100.406 119.412 100.095 117.813 99.9044 117.106C100.959 117.45 101.658 117.711 102.827 117.788C102.827 119.17 102.122 122.445 102.936 125.675C104.092 130.281 107.79 132.097 108.4 134.314C110.396 141.57 107.79 202 107.79 202L110.625 244.515L131.9 208.5L136.9 202L134.124 170.984Z" fill="#FFBDA7"/>
<path d="M100.26 118.501C100.159 117.922 100.108 117.469 99.9109 117.1C99.9109 117.1 99.4534 117.259 98.4748 117.062C98.1253 116.991 97.7948 116.749 97.4453 116.526C97.6042 116.915 97.8774 117.259 98.246 117.514C98.4303 117.635 98.6336 117.756 98.8624 117.807C99.0085 117.839 99.1483 117.858 99.3009 117.858C99.5296 118.317 99.7647 118.629 99.9109 119.043C100.114 119.502 100.197 120.011 100.292 120.578C100.419 119.877 100.356 119.1 100.26 118.508V118.501Z" fill="#F0997A"/>
<path d="M107.249 100.287C107.421 100.669 107.593 101.057 107.79 101.44C108.438 101.593 110.954 102.287 111.901 102.982C111.278 101.695 109.073 100.815 107.249 100.287ZM107.466 105.199C106.22 104.778 104.911 104.67 103.646 104.549C102.369 104.453 101.086 104.402 99.8083 104.453C98.531 104.511 97.546 104.695 96.5611 105.218C98.0608 104.925 98.7915 104.842 100.056 104.912C101.505 104.995 102.401 105.014 103.666 105.128C104.936 105.23 106.106 105.473 107.319 105.746C107.929 105.874 108.527 106.059 109.111 106.288C109.696 106.505 110.281 106.759 110.77 107.174C109.95 106.154 108.686 105.619 107.472 105.199H107.466ZM101.492 109.442C99.2681 109.429 97.1584 109.817 96.0781 110.799C98.2069 110.117 99.7384 110.06 102.515 110.117C103.685 110.136 106.608 110.117 109.455 111.251C108.609 110.372 107.364 110.085 106.245 109.76C105.095 109.454 102.681 109.448 101.492 109.442Z" fill="#F0997A"/>
<path d="M86.8451 202.164C92.0304 205.164 92.0304 210.032 86.8451 213.039C81.6597 216.046 73.2462 216.039 68.0609 213.039C62.8755 210.038 62.8755 205.171 68.0609 202.164C73.2462 199.156 81.6597 199.163 86.8451 202.164Z" fill="#C8856A"/>
<path d="M78.4705 176.521C76.7929 172.513 73.0247 164.212 70.1333 160.428C65.9711 154.981 58.1613 155.121 58.1613 155.121L44.6133 175.393C48.8327 176.795 48.1846 181.719 55.7719 184.389C57.7991 185.102 59.3178 185.16 59.8516 186.905C60.5125 189.065 61.1352 192.282 61.7516 195.512C63.2132 203.208 64.2363 208.324 64.2363 208.324L90.3727 205.801C90.3727 205.801 85.1683 192.512 78.4769 176.527L78.4705 176.521Z" fill="#C8856A"/>
<path d="M58.0977 184.592C57.4877 184.586 56.8649 184.618 56.2676 184.548C58.0469 185.115 59.3623 185.3 59.8516 186.899C60.4934 189.001 61.1034 192.116 61.7071 195.264C61.4593 192.805 61.3068 190.339 61.2496 187.867C61.2369 187.389 61.0208 186.86 61.4466 186.504C61.669 186.313 61.9613 186.23 62.2282 186.121C63.0352 185.803 63.7533 185.261 64.2807 184.573C62.1646 185.287 60.2138 184.624 58.0977 184.592Z" fill="#AF6152"/>
<path d="M64.1718 155.312C60.448 152.923 55.2055 148.89 50.9606 149.368C46.7157 149.852 45.9023 150.993 45.9023 150.993L51.7295 164.747L64.1781 155.312H64.1718Z" fill="#C8856A"/>
<path d="M51.9348 187.568C53.282 187.746 54.5211 186.791 54.6927 185.44L67.2939 88.6664L62.4135 88.0293L49.8124 184.803C49.6345 186.153 50.5876 187.396 51.9348 187.568Z" fill="#37474F"/>
<path d="M80.6248 83.6716C84.9841 86.1945 87.6784 91.6033 87.6784 99.2993C87.6784 114.691 76.8947 133.415 63.6009 141.111C56.954 144.959 50.9298 145.323 46.5769 142.8C43.9334 141.271 44.8421 141.793 42.1923 140.264C37.833 137.741 35.1387 132.332 35.1387 124.636C35.1387 109.238 45.9224 90.5203 59.2162 82.8243C65.8631 78.9763 71.8873 78.6131 76.2402 81.136C78.8837 82.665 77.975 82.1426 80.6248 83.6716Z" fill="#FF5D00"/>
<path d="M63.601 141.118C56.9541 144.966 50.9299 145.329 46.577 142.806C42.2178 140.283 39.5234 134.874 39.5234 127.178C39.5234 111.78 50.3072 93.0623 63.601 85.3663C70.2479 81.5183 76.272 81.1551 80.6249 83.678C84.9842 86.2008 87.6785 91.6097 87.6785 99.3057C87.6785 114.704 76.8948 133.422 63.601 141.118Z" fill="#FF9E66"/>
<path d="M45.1719 151.356C46.0107 150.617 47.1863 150.177 48.2158 149.878C48.2158 149.878 49.0101 156.383 49.0164 156.434C49.1181 157.262 49.1308 158.122 49.5884 158.835C49.0736 159.568 48.5589 160.294 48.0442 161.027C46.3666 163.41 44.689 165.792 43.0177 168.169C42.3822 169.073 41.7468 169.978 41.1113 170.883C41.0224 171.01 40.9398 171.157 40.8381 171.271L40.2407 172.087C40.2407 172.087 38.5568 166.621 39.6371 165.009C39.7769 164.805 39.9357 164.607 40.0438 164.384C40.4505 163.55 40.0438 162.524 40.2979 161.632C40.5267 160.829 41.2448 160.275 41.6769 159.562C42.0073 159.02 42.1026 158.453 42.1344 157.829C42.1598 157.287 42.4077 156.784 42.7317 156.351C43.094 155.867 43.5833 155.472 43.8502 154.93C44.1806 154.255 43.99 153.548 44.1679 152.859C44.3204 152.273 44.7207 151.745 45.1656 151.35L45.1719 151.356Z" fill="#C8856A"/>
<path d="M76.3976 175.948C74.6056 168.557 71.9366 162.46 69.0707 159.014C65.5439 154.771 60.9368 153.955 56.6411 153.509C53.6481 153.197 50.8394 152.038 47.8782 151.649C47.0775 151.547 46.5818 151.91 46.4674 152.707C46.3086 153.777 46.5691 154.905 47.1855 155.803C47.9099 156.867 49.1046 157.529 50.2421 158.122C51.4939 158.772 52.803 159.288 54.1184 159.791C59.7549 161.919 52.606 167.022 58.0074 175.393C58.8271 180.293 76.4103 175.948 76.4103 175.948H76.3976Z" fill="#C8856A"/>
<path d="M69.0647 159.014C66.059 155.656 61.5281 154.293 57.188 153.796C54.9511 153.649 52.7652 153 50.63 152.471C49.6006 152.248 48.4885 151.929 47.4527 151.929C47.0016 151.974 46.7728 152.343 46.7283 152.859C46.5377 154.452 47.332 155.988 48.6728 156.88C50.4966 158.135 52.5682 158.893 54.6334 159.734C55.1545 159.982 55.6692 160.307 56.0568 160.791C57.1562 162.269 56.4381 164.238 56.2475 165.843C55.6057 169.131 56.1903 172.565 58.0014 175.4C52.6762 167.927 58.9355 162.142 54.4237 160.205C51.5642 158.931 47.2939 157.969 46.2898 154.567C45.4892 150.413 47.9103 151.28 50.7635 151.955C52.9304 152.509 55.0338 153.153 57.2452 153.363C61.6108 153.949 66.2242 155.472 69.071 159.02L69.0647 159.014Z" fill="#AF6152"/>
<path d="M56.7508 169.666C57.4943 174.858 62.1141 176.132 65.4439 176.496C65.4439 176.496 60.1823 177.279 57.1575 174.935L55.1113 182.236L56.7508 169.672V169.666Z" fill="#AF6152"/>
<path d="M49.5815 158.823C49.823 158.58 50.1597 158.58 50.5283 158.733C50.8651 158.867 51.9645 159.116 52.225 159.37C52.8096 159.937 53.3307 160.562 53.928 161.11C54.8113 161.919 55.6755 162.817 56.6986 163.435C57.8297 164.117 58.5986 164.461 59.3675 165.595C59.9077 166.391 60.0793 167.595 59.4247 168.379C59.0053 168.882 58.3063 169.137 57.6645 169.022C57.9568 169.583 58.1093 170.22 58.0331 170.844C57.9505 171.469 57.62 172.074 57.0863 172.405C56.5334 172.749 55.8535 172.781 55.1989 172.768C55.2879 173.361 55.0782 173.992 54.6652 174.418C53.9153 175.189 52.7397 175.075 51.7738 174.922C52.136 175.667 51.7802 176.68 51.0367 177.037C50.6109 177.241 50.1216 177.247 49.6514 177.228C48.2152 177.171 46.6584 176.999 45.3303 176.451C44.0911 175.941 42.852 175.724 41.7908 174.82C41.4031 174.482 41.1553 174.24 40.9011 173.794C40.774 173.571 40.4563 172.832 40.2402 172.087C40.9011 171.15 41.562 170.214 42.2229 169.277C43.7098 167.175 45.1905 165.072 46.6774 162.964C47.3065 162.072 47.9356 161.18 48.5647 160.288C48.7744 159.988 48.9905 159.689 49.2002 159.383C49.3019 159.243 49.3845 159.097 49.4798 158.956C49.5116 158.905 49.5497 158.861 49.5878 158.823H49.5815Z" fill="#C8856A"/>
<path d="M57.6647 169.009C56.1841 168.812 54.7924 168.226 53.4389 167.633C51.3927 166.659 49.4101 165.684 47.6499 164.206C47.1161 163.575 46.8937 162.874 46.6077 162.148C46.1057 160.746 45.6736 159.313 45.4512 157.841C45.6799 158.548 45.9278 159.243 46.201 159.931C46.7348 161.231 47.1987 162.709 48.0566 163.817C50.9098 165.881 54.3349 167.818 57.6647 169.009Z" fill="#AF6152"/>
<path d="M55.1986 172.762C51.8942 172.214 48.7804 170.723 45.9781 168.907C45.3871 168.512 45.0249 167.863 44.6817 167.27C44.0526 166.085 43.4553 164.849 43.252 163.511C43.468 164.142 43.7667 164.734 44.0844 165.314C44.7135 166.378 45.3363 167.703 46.3085 168.442C46.8296 168.812 47.4142 169.13 47.9861 169.455C50.3119 170.704 52.6631 171.953 55.1922 172.762H55.1986Z" fill="#AF6152"/>
<path d="M51.9763 175.036C49.1867 174.603 46.4796 173.507 44.1093 171.959C42.9655 170.736 41.8535 169.245 41.4531 167.602C41.6438 168.13 41.9615 168.595 42.2856 169.048C42.9274 169.889 43.6328 170.863 44.4017 171.571C46.7465 173.023 49.3519 174.151 51.97 175.03L51.9763 175.036Z" fill="#AF6152"/>
<path d="M49.6886 161.263C49.5425 161.269 49.409 161.365 49.2883 161.447C49.1675 161.53 49.0532 161.619 48.9388 161.709C48.7164 161.893 48.5321 162.11 48.3669 162.352C48.2016 162.594 48.0682 162.849 47.9665 163.123C47.8712 163.378 47.7695 163.671 47.7695 163.945C47.7695 164.028 47.8394 164.123 47.9093 164.161C48.0047 164.212 48.0873 164.244 48.1889 164.187C48.2779 164.136 48.2843 164.047 48.3033 163.951C48.3224 163.817 48.3542 163.69 48.3923 163.563C48.4685 163.295 48.5766 163.034 48.71 162.792C48.8562 162.511 49.0468 162.25 49.2502 162.002C49.3328 161.9 49.4217 161.811 49.517 161.721C49.606 161.639 49.714 161.556 49.7649 161.447C49.7903 161.396 49.7776 161.269 49.695 161.275L49.6886 161.263Z" fill="#AF6152"/>
<path d="M49.8786 162.715C49.205 163.066 48.6967 163.837 48.595 164.588C48.5696 164.799 48.9445 165.015 48.9953 164.754C49.0652 164.391 49.1669 164.04 49.3512 163.722C49.4338 163.575 49.5164 163.435 49.6181 163.301C49.7261 163.168 49.8405 163.034 49.9612 162.906C50.0121 162.849 49.9739 162.664 49.8786 162.715Z" fill="#AF6152"/>
<path d="M46.7986 165.684C46.6715 165.716 46.5698 165.824 46.4745 165.913C46.3792 166.002 46.2902 166.104 46.2076 166.2C46.0424 166.397 45.909 166.62 45.8073 166.856C45.6993 167.098 45.623 167.34 45.5785 167.602C45.534 167.837 45.4896 168.118 45.5341 168.36C45.5468 168.43 45.623 168.506 45.6929 168.525C45.7882 168.551 45.8645 168.57 45.9407 168.5C46.0106 168.442 46.0043 168.36 46.0043 168.277C46.0043 168.156 46.0043 168.035 46.017 167.914C46.0424 167.665 46.0933 167.417 46.1695 167.181C46.2585 166.907 46.3792 166.646 46.519 166.397C46.5762 166.296 46.6397 166.2 46.7096 166.104C46.7732 166.015 46.8558 165.926 46.8812 165.818C46.8939 165.767 46.8622 165.658 46.7923 165.678L46.7986 165.684Z" fill="#AF6152"/>
<path d="M47.1998 166.939C46.6597 167.359 46.3356 168.124 46.3674 168.806C46.3737 168.997 46.7423 169.124 46.7486 168.882C46.7486 168.551 46.7868 168.226 46.8948 167.914C46.9456 167.773 46.9901 167.633 47.0664 167.5C47.1426 167.366 47.2189 167.226 47.3079 167.098C47.346 167.041 47.2761 166.888 47.1998 166.945V166.939Z" fill="#AF6152"/>
<path d="M44.7714 169.768C44.6887 169.793 44.6252 169.87 44.5617 169.933C44.5045 169.997 44.4473 170.067 44.3964 170.137C44.2948 170.277 44.2185 170.43 44.155 170.59C44.0914 170.755 44.0533 170.921 44.0279 171.093C44.0088 171.252 43.9897 171.437 44.0279 171.596C44.0406 171.641 44.0914 171.692 44.1423 171.704C44.2058 171.717 44.2566 171.73 44.3075 171.679C44.352 171.634 44.3456 171.583 44.3392 171.526C44.3392 171.443 44.3329 171.367 44.3392 171.284C44.3456 171.118 44.371 170.953 44.4155 170.787C44.46 170.602 44.5362 170.424 44.6188 170.252C44.6506 170.182 44.6887 170.118 44.7332 170.048C44.7714 169.984 44.8222 169.927 44.8413 169.85C44.8476 169.819 44.8222 169.749 44.7777 169.761L44.7714 169.768Z" fill="#AF6152"/>
<path d="M45.0833 170.589C44.7401 170.889 44.5558 171.411 44.6003 171.864C44.613 171.991 44.8608 172.061 44.8545 171.902C44.8418 171.679 44.8545 171.462 44.918 171.252C44.9435 171.156 44.9752 171.061 45.0134 170.972C45.0578 170.876 45.1087 170.787 45.1595 170.691C45.1786 170.653 45.1341 170.551 45.0833 170.589Z" fill="#AF6152"/>
<path d="M42.2477 173.201C42.2477 173.201 42.2858 173.112 42.2477 173.125C42.1206 173.157 41.9871 173.201 41.8727 173.265C41.752 173.335 41.6503 173.431 41.5614 173.539C41.4724 173.641 41.3962 173.755 41.3453 173.883C41.3199 173.953 41.2945 174.023 41.2754 174.1C41.2627 174.144 41.2564 174.195 41.25 174.24C41.25 174.291 41.2564 174.342 41.2564 174.393C41.2564 174.437 41.2691 174.488 41.3135 174.514C41.3453 174.533 41.3898 174.514 41.4025 174.482C41.4216 174.437 41.447 174.399 41.4661 174.354C41.4788 174.323 41.4851 174.291 41.4978 174.265C41.5169 174.208 41.5423 174.157 41.5677 174.106C41.6249 173.991 41.6821 173.877 41.752 173.775C41.8219 173.666 41.9109 173.564 41.9935 173.469C42.0761 173.373 42.1587 173.284 42.2604 173.208L42.2477 173.201ZM42.5781 174.042C42.4891 174.068 42.4002 174.093 42.3239 174.15C42.2477 174.201 42.1778 174.265 42.1206 174.329C42.0888 174.361 42.0634 174.393 42.038 174.431C42.0062 174.475 41.9871 174.526 41.9681 174.577C41.9299 174.679 41.8982 174.788 41.8918 174.896C41.8918 174.934 41.9299 174.96 41.9554 174.921C41.9998 174.845 42.0316 174.762 42.0825 174.692C42.1079 174.66 42.1333 174.628 42.1524 174.596C42.1778 174.558 42.2032 174.52 42.235 174.482C42.2858 174.418 42.343 174.361 42.4002 174.31C42.4637 174.259 42.5209 174.195 42.5908 174.15C42.6162 174.131 42.6289 174.036 42.5781 174.049V174.042Z" fill="#AF6152"/>
<path d="M52.2257 159.364C53.5094 160.619 54.793 161.913 56.2419 162.977C57.2268 163.665 58.4342 164.104 59.2094 165.079C60.7155 166.621 60.1054 169.5 57.6271 169.214L57.8496 168.914C58.9934 171.093 57.6971 173.24 55.1933 172.979L55.4094 172.73C55.6255 174.916 53.503 175.534 51.7428 175.107L51.9461 174.833C52.3147 175.635 52.0097 176.629 51.2789 177.094C50.5672 177.528 49.6966 177.375 48.9341 177.336C47.3899 177.254 45.8902 176.833 44.4859 176.209C43.539 175.858 42.5414 175.508 41.7852 174.814C42.5795 175.476 43.5708 175.769 44.5367 176.075C46.4049 176.801 48.4511 177.19 50.4465 177.031C51.4124 176.961 51.9906 175.814 51.5966 174.998L51.4314 174.667C52.302 174.801 53.2933 174.973 54.0622 174.597C54.7167 174.285 55.098 173.508 54.9836 172.794L54.9455 172.546C56.4833 172.673 57.875 172.151 57.8369 170.392C57.8241 169.812 57.57 169.245 57.2904 168.736L57.7034 168.812C59.7941 169.061 60.1626 166.608 58.9426 165.308C58.2118 164.346 57.0616 163.888 56.102 163.18C54.6659 162.066 53.4585 160.702 52.2257 159.377V159.364Z" fill="#AF6152"/>
<path d="M56.656 59.6663C56.5289 59.437 56.4971 59.1949 56.5734 58.9273C56.6496 58.6661 56.7958 58.4686 57.0245 58.3412L60.9644 56.1241C61.1931 55.9967 61.441 55.9648 61.6952 56.0413C61.9557 56.1177 62.1527 56.2643 62.2798 56.5L64.0527 59.6663C64.1798 59.8957 64.2116 60.1441 64.1353 60.4053C64.0654 60.6665 63.9129 60.864 63.6841 60.9914L59.7443 63.2085C59.5155 63.3359 59.2741 63.3678 59.0072 63.2913C58.7466 63.2213 58.556 63.0683 58.4225 62.839L56.6496 59.6727L56.656 59.6663ZM47.0923 42.5796C46.9652 42.3503 46.9334 42.1082 47.0097 41.847C47.0796 41.5858 47.2321 41.3883 47.4609 41.2609L51.4007 39.0438C51.6295 38.9164 51.8773 38.8845 52.1315 38.961C52.392 39.0311 52.589 39.184 52.7161 39.4133L60.2844 52.9259C60.4115 53.1553 60.4433 53.4037 60.367 53.6586C60.2971 53.9198 60.1446 54.1173 59.9159 54.2447L55.976 56.4618C55.7473 56.5892 55.5058 56.621 55.2452 56.5446C54.9847 56.4745 54.7877 56.3216 54.6606 56.0922L47.0923 42.5796Z" fill="#FFBE99"/>
<path d="M65.4256 50.1036C65.343 49.8551 65.3621 49.6067 65.4828 49.3646C65.6036 49.1225 65.7942 48.9632 66.042 48.8804L70.3377 47.466C70.5856 47.3832 70.8334 47.4023 71.0749 47.5234C71.3163 47.6444 71.4816 47.8356 71.5642 48.084L72.6953 51.537C72.7779 51.7855 72.7588 52.034 72.6317 52.2761C72.511 52.5181 72.3267 52.6774 72.0725 52.7602L67.7768 54.1746C67.529 54.2574 67.2812 54.2383 67.0397 54.1172C66.7982 53.9962 66.6394 53.8114 66.5568 53.5566L65.4256 50.1036ZM59.3316 31.4815C59.249 31.2331 59.268 30.9846 59.3888 30.7425C59.5095 30.5004 59.7002 30.3348 59.948 30.2583L64.2437 28.844C64.4915 28.7612 64.7393 28.7803 64.9808 28.9077C65.2223 29.0288 65.3875 29.2199 65.4638 29.4683L70.2806 44.1914C70.3632 44.4399 70.3441 44.6883 70.217 44.9304C70.0963 45.1725 69.912 45.3318 69.6578 45.4146L65.3621 46.829C65.1143 46.9118 64.8664 46.8927 64.625 46.7716C64.3835 46.6506 64.2246 46.4658 64.142 46.211L59.3252 31.4879L59.3316 31.4815Z" fill="#FF9E66"/>
<path d="M277.504 49.0397C277.377 49.269 277.18 49.4219 276.919 49.492C276.659 49.5684 276.411 49.5366 276.182 49.4092L272.242 47.1921C272.013 47.0647 271.861 46.8672 271.791 46.606C271.715 46.3448 271.746 46.1027 271.874 45.867L273.646 42.7006C273.774 42.4713 273.971 42.3184 274.231 42.2419C274.492 42.1719 274.733 42.1973 274.962 42.3248L278.902 44.5418C279.131 44.6692 279.283 44.8667 279.353 45.1279C279.429 45.3891 279.397 45.6376 279.27 45.867L277.497 49.0333L277.504 49.0397ZM281.278 42.2993C281.151 42.5286 280.954 42.6815 280.694 42.7516C280.433 42.8217 280.192 42.7962 279.963 42.6688L276.023 40.4517C275.794 40.3243 275.642 40.1268 275.572 39.8656C275.496 39.6044 275.527 39.3623 275.655 39.133L283.223 25.6203C283.35 25.391 283.547 25.2381 283.807 25.168C284.068 25.0916 284.309 25.1234 284.538 25.2508L288.478 27.4679C288.707 27.5953 288.859 27.7928 288.929 28.054C288.999 28.3152 288.974 28.5573 288.847 28.7867L281.278 42.2993Z" fill="#FFDFCC"/>
<path d="M269.382 39.7571C269.299 40.0056 269.141 40.1967 268.899 40.3177C268.658 40.4388 268.41 40.4579 268.162 40.3751L263.866 38.9607C263.618 38.8779 263.428 38.7186 263.307 38.4766C263.186 38.2345 263.161 37.9924 263.243 37.7375L264.375 34.2845C264.457 34.0361 264.616 33.8449 264.864 33.7239C265.105 33.6028 265.347 33.5837 265.601 33.6665L269.897 35.0809C270.145 35.1637 270.329 35.323 270.456 35.5651C270.577 35.8072 270.596 36.0556 270.513 36.3041L269.382 39.7571ZM271.784 32.4115C271.701 32.66 271.543 32.8511 271.301 32.9721C271.06 33.0932 270.812 33.1123 270.564 33.0295L266.268 31.6151C266.02 31.5323 265.83 31.373 265.709 31.1309C265.588 30.8888 265.569 30.6404 265.645 30.3919L270.462 15.6688C270.545 15.4204 270.704 15.2356 270.945 15.1082C271.187 14.9872 271.428 14.968 271.682 15.0445L275.978 16.4588C276.226 16.5416 276.41 16.7009 276.537 16.943C276.658 17.1851 276.677 17.4336 276.594 17.682L271.778 32.4051L271.784 32.4115Z" fill="#FFBE99"/>
<path d="M107.325 38.5794C107.26 38.2075 107.24 37.8406 107.267 37.5057C107.293 37.1709 107.366 36.8766 107.479 36.6444C109.168 33.1511 113.218 34.0442 117.112 38.771C121.005 43.4979 123.479 50.5263 122.995 55.4829C122.964 55.8144 122.887 56.1035 122.77 56.329C122.652 56.5545 122.498 56.7106 122.318 56.7858C122.138 56.8609 121.937 56.8533 121.73 56.7634C121.523 56.6735 121.315 56.5036 121.121 56.2663L108.155 40.5239C107.96 40.2891 107.785 39.9925 107.641 39.6559C107.498 39.3194 107.39 38.9515 107.325 38.5794ZM121.352 64.199L117.552 61.9532L115.001 56.5031C114.87 56.2236 114.698 56.0142 114.519 55.9182L111.06 54.0562L108.512 48.625C108.387 48.3577 108.223 48.154 108.053 48.0529L103.989 45.6447C103.813 45.5601 103.647 45.5944 103.524 45.7407C103.402 45.887 103.332 46.1344 103.33 46.4326C103.327 46.7307 103.392 47.0574 103.511 47.3463C103.629 47.6351 103.793 47.8645 103.969 47.9879L105.19 48.7145L105.026 49.3533C104.698 50.6295 104.725 52.2685 105.102 53.9097C105.478 55.5508 106.173 57.0597 107.033 58.1044L114.82 67.5581C115.68 68.6028 116.636 69.0978 117.476 68.934C118.317 68.7703 118.973 67.9614 119.301 66.6851L119.6 65.5218L121.33 66.547C121.425 66.6135 121.52 66.6471 121.61 66.6458C121.7 66.6445 121.782 66.6083 121.853 66.5394C121.923 66.4706 121.979 66.3705 122.018 66.2455C122.057 66.1205 122.078 65.9731 122.08 65.8125C122.081 65.6519 122.063 65.4815 122.026 65.3118C121.99 65.1421 121.936 64.9768 121.867 64.826C121.799 64.6752 121.718 64.5422 121.629 64.4352C121.54 64.3282 121.445 64.2494 121.35 64.2038L121.352 64.199ZM105.213 42.0032L122.083 62.4863C122.256 62.6952 122.447 62.7942 122.615 62.7615C122.783 62.7287 122.914 62.5669 122.98 62.3117C123.045 62.0564 123.04 61.7287 122.965 61.4004C122.889 61.0722 122.75 60.7704 122.578 60.5615L105.707 40.0784C105.535 39.8695 105.344 39.7705 105.176 39.8032C105.008 39.836 104.877 39.9978 104.811 40.253C104.746 40.5083 104.751 40.8361 104.826 41.1643C104.902 41.4925 105.041 41.7943 105.213 42.0032Z" fill="white"/>
<path d="M177.868 86.4434L177.043 87.1707C176.779 84.4696 175.722 82.6742 174.079 82.1366C172.435 81.599 170.325 82.3581 168.16 84.2648C165.996 86.1716 163.934 89.0885 162.379 92.4434C160.825 95.7984 159.889 99.3493 159.756 102.4L158.931 103.127C158.721 103.311 158.523 103.599 158.38 103.927C158.236 104.255 158.159 104.596 158.166 104.875C158.226 107.376 158.798 109.376 159.821 110.659C160.843 111.941 162.276 112.458 163.965 112.153L163.977 112.643C163.989 113.201 164.168 113.591 164.473 113.725C164.778 113.859 165.184 113.727 165.603 113.358L171.915 107.797C172.334 107.428 172.73 106.853 173.017 106.197C173.304 105.542 173.458 104.86 173.445 104.301L173.434 103.812C175.071 101.186 176.425 98.2141 177.349 95.216C178.274 92.2178 178.735 89.3079 178.681 86.8011C178.675 86.5218 178.586 86.3273 178.433 86.2602C178.281 86.1931 178.078 86.259 177.868 86.4434ZM172.742 84.5465C172.928 84.5846 173.106 84.6403 173.276 84.7137C171.198 87.5501 169.509 91.1056 168.557 94.6435L165.648 97.2069C166.099 94.9279 166.97 92.5316 168.143 90.3454C169.316 88.1592 170.733 86.2897 172.201 84.9924C172.382 84.8334 172.562 84.6862 172.742 84.5465ZM170.384 93.0369C171.297 90.2791 172.713 87.6203 174.366 85.5592C174.938 86.2618 175.31 87.2896 175.456 88.5688L170.384 93.0369ZM168.208 86.3624C168.841 85.8052 169.474 85.3637 170.09 85.0497C168.614 86.8518 167.273 89.0595 166.203 91.4501C165.133 93.8408 164.371 96.3299 163.994 98.6667L161.343 101.002C161.486 98.514 162.265 95.647 163.531 92.9472C164.797 90.2473 166.462 87.9035 168.208 86.3624Z" fill="white"/>
<path d="M233.186 36.3321L230.512 38.9251C231.189 39.7586 231.534 41.1551 231.496 42.898C231.457 44.6409 231.036 46.6327 230.298 48.5645C229.668 50.2359 228.824 52.0595 227.88 53.9015C227.821 54.0158 227.748 54.1098 227.674 54.1685C227.6 54.2272 227.529 54.2471 227.472 54.2251L224.33 53.0188C224.261 52.9925 224.182 52.9961 224.098 53.0292C224.013 53.0623 223.924 53.1244 223.836 53.2116C223.748 53.2989 223.663 53.4096 223.586 53.5372C223.509 53.6648 223.442 53.8067 223.388 53.9544C223.284 54.2478 223.24 54.5435 223.263 54.7797C223.287 55.0159 223.376 55.1744 223.513 55.2221L226.208 56.2566C226.248 56.272 226.28 56.3076 226.301 56.3605C226.322 56.4134 226.331 56.4821 226.328 56.5611C226.325 56.64 226.31 56.727 226.284 56.8148C226.257 56.9026 226.221 56.9888 226.177 57.0664C223.082 62.5849 219.683 67.5597 219.188 68.2767C218.955 68.6721 218.685 68.9872 218.415 69.1795C218.145 69.3717 217.888 69.4317 217.678 69.3513C217.469 69.271 217.318 69.0541 217.245 68.7302C217.172 68.4063 217.181 67.991 217.271 67.5406C217.425 66.328 218.924 54.9167 221.522 47.1385C221.548 47.0614 221.581 46.9866 221.62 46.9188C221.659 46.851 221.703 46.7917 221.748 46.7447C221.794 46.6977 221.84 46.664 221.884 46.6458C221.928 46.6276 221.969 46.6253 222.005 46.6389L225.797 48.096C225.867 48.1229 225.948 48.1184 226.036 48.0828C226.123 48.0472 226.214 47.9813 226.304 47.8892C226.394 47.7971 226.481 47.6807 226.558 47.5474C226.636 47.4141 226.703 47.2666 226.755 47.1143C226.85 46.8284 226.889 46.5439 226.863 46.3177C226.837 46.0915 226.749 45.9401 226.616 45.8938L222.886 44.4618C222.848 44.4474 222.818 44.4149 222.797 44.3668C222.776 44.3187 222.765 44.2561 222.765 44.1837C222.765 44.1112 222.776 44.0307 222.798 43.9479C222.819 43.8652 222.85 43.7824 222.888 43.7054C223.65 42.1669 224.569 40.8293 225.542 39.8426C226.515 38.8558 227.504 38.259 228.397 38.1189L228.135 34.394C228.125 34.2687 228.135 34.1268 228.163 33.977C228.19 33.8272 228.235 33.6728 228.295 33.5232C228.355 33.3737 228.428 33.2323 228.51 33.1078C228.592 32.9834 228.681 32.8785 228.771 32.7998C228.942 32.6561 229.107 32.6124 229.233 32.6776C229.36 32.7428 229.438 32.9119 229.452 33.151L229.681 36.3971L231.631 31.2887C231.686 31.1446 231.754 31.0069 231.831 30.8836C231.907 30.7603 231.991 30.6538 232.077 30.57C232.164 30.4863 232.251 30.4271 232.334 30.3957C232.417 30.3643 232.494 30.3614 232.561 30.3872C232.628 30.4129 232.684 30.4668 232.724 30.5457C232.765 30.6246 232.791 30.7271 232.799 30.8472C232.808 30.9673 232.799 31.1027 232.774 31.2457C232.749 31.3887 232.707 31.5365 232.652 31.6806L230.701 36.7887L233.034 34.5262C233.203 34.3577 233.374 34.284 233.511 34.32C233.649 34.356 233.743 34.4991 233.774 34.7203C233.789 34.8396 233.785 34.9772 233.763 35.1246C233.741 35.272 233.701 35.4261 233.646 35.5772C233.591 35.7284 233.522 35.8734 233.442 36.0032C233.363 36.1331 233.276 36.245 233.186 36.3321Z" fill="white"/>
<path d="M288.578 99.4821L280.927 94.5906L280.779 93.4631C281.48 93.7061 282.06 93.6168 282.43 93.209C282.799 92.8013 282.937 92.0981 282.822 91.2098C282.362 87.7019 279.259 83.6618 279.128 83.4917C278.974 83.2925 278.802 83.1289 278.634 83.0215C278.466 82.9142 278.309 82.8679 278.184 82.8884C278.077 82.9063 275.561 83.3539 276.02 86.8618C276.137 87.7511 276.501 88.7748 277.055 89.7727C277.608 90.7705 278.32 91.6861 279.079 92.3761L279.227 93.5036L271.576 88.6121C270.899 88.1797 270.292 88.0818 269.887 88.3399C269.483 88.598 269.314 89.191 269.419 89.9885L269.801 92.9113C269.945 94.0053 270.382 95.26 271.049 96.4917L271.712 101.557C271.816 102.354 272.185 103.291 272.737 104.161C273.289 105.03 273.979 105.762 274.656 106.194L289.958 115.977C290.635 116.41 291.242 116.508 291.646 116.249C292.051 115.991 292.219 115.398 292.115 114.601L291.452 109.536C291.888 109.009 292.047 108.135 291.905 107.042L291.522 104.119C291.418 103.322 291.049 102.385 290.497 101.516C289.945 100.646 289.255 99.9146 288.578 99.4821ZM277.721 87.9488C277.498 86.2487 278.382 85.5637 278.933 85.3036C279.658 86.379 280.899 88.4227 281.121 90.1228C281.191 90.6544 281.078 91.0498 280.809 91.2218C280.539 91.3939 280.134 91.3286 279.683 91.0403C279.232 90.752 278.772 90.2644 278.404 89.6846C278.036 89.1048 277.79 88.4804 277.721 87.9488ZM290.205 105.955C290.422 107.615 289.492 108.29 288.131 107.46C287.791 107.254 287.443 106.968 287.106 106.619C286.769 106.27 286.451 105.865 286.17 105.428C285.888 104.992 285.65 104.532 285.469 104.077C285.288 103.622 285.167 103.18 285.115 102.778C285.08 102.512 284.957 102.2 284.773 101.91C284.589 101.62 284.359 101.377 284.133 101.232C283.908 101.088 283.705 101.056 283.571 101.142C283.436 101.228 283.38 101.425 283.414 101.691C283.519 102.489 283.35 103.082 282.946 103.34C282.541 103.598 281.934 103.5 281.258 103.068C280.581 102.635 279.891 101.904 279.339 101.034C278.787 100.164 278.418 99.2277 278.314 98.4302C278.279 98.1644 278.156 97.8522 277.972 97.5624C277.788 97.2725 277.558 97.0286 277.332 96.8845C277.107 96.7403 276.904 96.7077 276.77 96.7937C276.635 96.8798 276.578 97.0774 276.613 97.3433C276.666 97.7455 276.65 98.0999 276.566 98.3855C276.482 98.6712 276.331 98.8823 276.123 99.0063C275.915 99.1303 275.654 99.1648 275.356 99.1076C275.057 99.0504 274.727 98.9027 274.384 98.6734C273.012 97.7546 271.719 95.6583 271.501 93.9983L271.119 91.0755C271.084 90.8096 271.14 90.612 271.275 90.5259C271.41 90.4399 271.612 90.4725 271.838 90.6167L288.841 101.487C289.066 101.631 289.296 101.875 289.48 102.165C289.664 102.454 289.787 102.767 289.822 103.032L290.205 105.955Z" fill="white"/>
<path d="M64.9945 112.655C65.0264 112.371 65.128 112.047 65.2863 111.724C65.4446 111.4 65.6526 111.092 65.884 110.838C66.1153 110.584 66.3597 110.395 66.5861 110.295C66.8125 110.196 67.0108 110.19 67.1559 110.279C67.301 110.368 67.3865 110.548 67.4014 110.795C67.4164 111.043 67.3602 111.347 67.2399 111.669C67.1196 111.991 66.9407 112.317 66.7257 112.606C66.5107 112.895 66.2694 113.133 66.0322 113.291C65.7142 113.502 65.4261 113.554 65.2315 113.435C65.0369 113.316 64.9516 113.035 64.9945 112.655ZM76.1416 99.0523C76.0696 99.6897 75.8468 100.415 75.4995 101.143C75.1521 101.871 74.6947 102.571 74.181 103.161C73.7704 105.67 72.6153 108.533 70.9489 111.172C69.2824 113.81 67.2286 116.029 65.2018 117.38L62.0038 119.507C61.6858 119.718 61.3637 120.072 61.1085 120.49C60.8533 120.909 60.6859 121.357 60.6431 121.738C60.6003 122.118 60.6855 122.399 60.8802 122.518C61.0748 122.637 61.3628 122.585 61.6809 122.374L67.2774 118.652C67.4894 118.511 67.6814 118.477 67.8112 118.556C67.9409 118.636 67.9978 118.823 67.9692 119.076C67.9407 119.33 67.829 119.629 67.6589 119.908C67.4888 120.187 67.2741 120.423 67.0621 120.564L62.265 123.754L62.0497 125.665L65.2477 123.539C65.4598 123.398 65.6518 123.363 65.7815 123.443C65.9113 123.522 65.9681 123.709 65.9396 123.963C65.911 124.216 65.7994 124.515 65.6293 124.794C65.4592 125.073 65.2445 125.309 65.0324 125.45L59.4359 129.172C57.3155 130.582 55.3954 130.927 54.0979 130.132C52.8004 129.337 52.2319 127.466 52.5175 124.931C52.803 122.396 53.9192 119.405 55.6204 116.615C57.3217 113.826 59.4687 111.466 61.5891 110.056L73.1818 102.347C73.4999 102.135 73.822 101.781 74.0771 101.363C74.3323 100.945 74.4998 100.496 74.5426 100.116C74.5854 99.7354 74.5001 99.4548 74.3055 99.3355C74.1109 99.2162 73.8229 99.268 73.5048 99.4795L65.11 105.062C64.4739 105.485 63.8979 105.589 63.5086 105.35C63.1194 105.112 62.9489 104.55 63.0345 103.79C63.0631 103.536 63.1747 103.237 63.3448 102.958C63.5149 102.679 63.7296 102.443 63.9417 102.302C64.1537 102.161 64.3457 102.127 64.4755 102.206C64.6052 102.286 64.6621 102.473 64.6335 102.727C64.605 102.98 64.6618 103.167 64.7916 103.247C64.9213 103.326 65.1133 103.292 65.3254 103.151L73.7201 97.568C74.4623 97.0744 75.1343 96.9535 75.5884 97.2319C76.0425 97.5103 76.2415 98.1651 76.1416 99.0523ZM59.0787 123.905C59.0292 123.844 58.9617 123.808 58.8801 123.801C58.7985 123.794 58.7044 123.815 58.6032 123.863C58.5019 123.912 58.3955 123.986 58.2901 124.082C58.1846 124.179 58.0821 124.295 57.9884 124.425L56.3054 126.76C56.1263 127.02 55.9948 127.311 55.9382 127.574C55.8816 127.837 55.9043 128.051 56.0015 128.172C56.0988 128.292 56.2631 128.31 56.4602 128.221C56.6573 128.132 56.8721 127.944 57.0598 127.695L58.7429 125.36C58.9315 125.098 59.0727 124.798 59.1357 124.526C59.1986 124.253 59.1781 124.03 59.0787 123.905ZM59.4082 119.749L55.7801 120.219C55.6904 120.227 55.5897 120.264 55.4838 120.328C55.378 120.392 55.2692 120.482 55.1638 120.592C55.0585 120.702 54.9587 120.83 54.8705 120.969C54.7822 121.108 54.7072 121.254 54.6499 121.4C54.5926 121.545 54.5542 121.687 54.5369 121.817C54.5196 121.946 54.5238 122.061 54.5492 122.154C54.5746 122.247 54.6208 122.317 54.6849 122.359C54.749 122.401 54.8299 122.414 54.9226 122.399L58.5505 121.93C58.6404 121.918 58.7405 121.878 58.8451 121.812C58.9496 121.747 59.0566 121.656 59.1599 121.546C59.2632 121.437 59.3608 121.31 59.447 121.173C59.5333 121.036 59.6066 120.892 59.6627 120.748C59.7757 120.46 59.8123 120.193 59.7646 120.006C59.7169 119.819 59.5887 119.726 59.4082 119.749ZM72.5168 104.557L63.7723 110.373L63.0187 117.063L65.4172 115.468C66.9748 114.43 68.5547 112.75 69.8615 110.742C71.1682 108.734 72.1122 106.535 72.5168 104.557Z" fill="white"/>
</g>
</g>
<defs>
<clipPath id="clip0_889_13774">
<rect width="335" height="200" fill="white" transform="translate(0.400391)"/>
</clipPath>
<clipPath id="clip1_889_13774">
<rect width="281" height="253" fill="white" transform="translate(29.4004 15)"/>
</clipPath>
</defs>
</svg>
