<svg width="26" height="43" viewBox="0 0 26 43" fill="none" xmlns="http://www.w3.org/2000/svg">
<path d="M13.1496 20.67C15.7981 20.603 18.4514 20.6623 21.1018 20.5676C21.8075 20.5427 22.5284 20.4221 23.235 20.4068C23.4998 20.401 24.2035 20.3407 24.2953 20.6547C24.2733 20.984 24.3489 21.3161 24.3613 21.633C24.4082 22.8343 24.4043 24.564 24.3001 25.7509C24.2791 25.9864 24.2829 26.264 24.0171 26.3003C23.6977 26.3444 23.6117 26.1663 23.5409 26.5023C22.9586 29.2428 23.104 32.6103 22.7359 35.4561C22.4834 37.4069 21.8036 39.2869 21.4986 41.2617C21.4642 41.4818 21.5187 42.0073 21.2462 42.104C18.6082 42.3548 15.9339 42.2935 13.2796 42.2744C11.2679 42.26 8.97507 42.2993 6.98056 42.0054C5.99287 41.8599 5.74714 41.5326 5.33982 40.6739C5.03099 40.0249 4.81872 39.3214 4.61698 38.6312C3.87597 36.0898 3.15504 33.5206 2.48 30.961C2.1922 29.8689 1.94456 28.7642 1.6778 27.6673C1.28578 27.6778 0.838305 27.696 0.730261 27.2327C0.555287 25.9663 0.122154 24.6759 0.0150656 23.4086C-0.0203116 22.9874 -0.0174431 22.6208 0.29904 22.2848C0.655681 21.9058 2.68939 21.5755 3.28985 21.4693C5.95079 20.9964 8.64042 20.8097 11.3281 20.7226C11.9315 20.7025 12.5625 20.6853 13.1525 20.67H13.1496ZM19.6026 25.7997C17.3824 25.882 15.0858 26.1941 12.8618 26.3578C11.2679 26.4755 9.65967 26.487 8.06674 26.6201C7.14502 26.6966 6.22616 26.8728 5.30253 26.9321C4.98318 26.9522 3.8578 26.778 3.87118 27.2212C3.88075 27.5533 4.30432 27.4031 4.46686 27.4002C5.70985 27.3743 6.79698 27.2269 8.01415 27.1417C11.8148 26.8766 15.6403 26.7445 19.4295 26.3578C19.6255 26.3377 20.1246 26.3348 20.1753 26.1654C20.3073 25.7251 19.878 25.7902 19.6016 25.8007L19.6026 25.7997Z" fill="#3F3F3F"/>
<path d="M11.3253 20.7223L10.9887 17.9024C10.9466 17.8344 10.7391 17.9081 10.5938 17.8832C9.30684 17.6602 6.75108 16.1928 5.72227 15.3466C3.95436 13.8935 1.72847 10.1441 1.99905 7.81329C2.09371 6.99774 2.42932 7.30309 3.01065 7.3634C6.30838 7.70799 8.51421 9.74783 10.0823 12.5467C10.5269 13.3393 11.004 14.241 11.1685 15.1389L11.2469 15.0872C11.4897 13.2867 11.9018 11.4708 12.7279 9.84738C12.3082 9.57936 11.8511 9.37834 11.4333 9.10745C9.73807 8.0076 8.0696 5.66912 7.52364 3.73267C7.2521 2.76971 6.95187 1.27836 7.10581 0.296259C7.17752 -0.163205 7.85734 0.0301522 8.1786 0.102901C11.4916 0.861017 14.2157 5.29772 14.0359 8.58864C13.9786 9.63679 13.5913 10.593 13.3073 11.5895C13.728 11.2181 14.0445 10.7462 14.4528 10.3624C15.5839 9.29889 17.218 8.20479 18.6617 7.63525C20.2738 7.00061 23.4262 6.4617 25.1128 6.78907C25.4637 6.85703 25.2754 7.51559 25.2199 7.78074C24.5793 10.8314 22.7473 13.7787 19.8579 15.0939C17.7343 16.0607 16.6653 16.1296 14.3907 15.539C13.7558 15.3744 13.1352 15.1121 12.5252 14.8766C12.4793 16.8226 12.6285 18.7935 13.1505 20.6687C12.5606 20.684 11.9286 20.7013 11.3262 20.7214L11.3253 20.7223ZM13.2796 11.6422V11.6948C13.3131 11.6776 13.3131 11.6603 13.2796 11.6422Z" fill="#4CD9A1"/>
<path d="M19.6056 25.7993C19.8819 25.7888 20.3121 25.7247 20.1792 26.164C20.1276 26.3344 19.6295 26.3373 19.4334 26.3564C15.6433 26.7432 11.8187 26.8752 8.01806 27.1404C6.8009 27.2256 5.71376 27.373 4.47078 27.3988C4.30824 27.4017 3.88466 27.553 3.8751 27.2198C3.86267 26.7776 4.98805 26.9518 5.30645 26.9308C6.23008 26.8714 7.14893 26.6953 8.07065 26.6187C9.66359 26.4866 11.2718 26.4742 12.8657 26.3564C15.0897 26.1928 17.3863 25.8817 19.6065 25.7984L19.6056 25.7993Z" fill="#2A2A2A"/>
<path d="M13.2812 11.6416C13.3152 11.6591 13.3152 11.6766 13.2812 11.6951V11.6416Z" fill="#FEFEFE"/>
</svg>
