<svg width="26" height="31" viewBox="0 0 26 31" fill="none" xmlns="http://www.w3.org/2000/svg">
<path d="M16.8076 7.69672C18.8838 7.64511 20.9748 7.57464 23.0519 7.48134C23.5437 7.4595 24.2079 7.38704 24.6749 7.42476C25.4126 7.48332 25.1984 7.7523 25.2411 8.31906C25.3422 9.68185 25.3531 11.6034 25.2331 12.9662C25.2113 13.2104 25.2153 13.4982 24.9396 13.536C24.6085 13.5816 24.5193 13.397 24.4459 13.7454C23.8371 16.6109 23.9997 20.1157 23.6111 23.0844C23.4068 24.6457 22.8586 26.1296 22.5542 27.6532C22.4332 28.2576 22.4174 28.881 22.3073 29.4616C22.2766 29.6244 22.2329 29.8537 22.0644 29.9222C18.3712 30.2944 14.6393 29.9916 10.9401 30.0998C9.73846 29.9281 8.41286 29.9996 7.22707 29.812C5.7012 29.5718 5.34328 28.0562 4.94173 26.742C4.10989 24.0154 3.33456 21.1281 2.60583 18.3668C2.3074 17.2342 2.05061 16.0888 1.77399 14.9514C1.36749 14.9623 0.903484 14.9811 0.791448 14.5007C0.646694 13.5638 0.39387 12.6407 0.229286 11.7087C0.160875 11.3235 -0.037419 10.3379 0.0062056 10.0064C0.0181032 9.9141 0.291748 9.41782 0.371066 9.34239C0.791448 8.94636 3.13429 8.57712 3.81543 8.46099C5.26396 8.21385 6.74521 8.00739 8.21259 7.91111C11.073 7.72253 13.9413 7.7662 16.8076 7.69474V7.69672ZM20.9579 13.1191C20.9014 13.0188 20.6228 12.993 20.5098 12.996C18.1947 13.0556 15.7051 13.4228 13.3742 13.5935C11.7214 13.7156 10.0537 13.7275 8.40196 13.8655C7.44618 13.9449 6.49338 14.1275 5.53562 14.1891C5.20646 14.2099 4.03751 14.0293 4.0514 14.4888C4.06131 14.8332 4.50053 14.6774 4.66908 14.6744C5.957 14.6486 7.08529 14.4948 8.34743 14.4064C12.2885 14.1315 16.2554 13.9955 20.1846 13.5935C20.3184 13.5796 20.7993 13.5429 20.8607 13.5131C20.9728 13.4585 21.0114 13.2154 20.9559 13.1181L20.9579 13.1191Z" fill="#3F3F3F"/>
<path d="M16.8052 7.69524C13.9388 7.76671 11.0705 7.72304 8.21014 7.91163C7.6103 7.02725 7.10366 6.08531 6.83101 5.04411C6.50481 3.79845 6.52563 2.7245 6.76755 1.46295C6.82902 1.14235 6.97477 0.167657 7.37235 0.168649C7.85123 0.400909 8.34399 0.57163 8.79015 0.865428C9.93034 1.61779 10.9585 3.01135 11.5167 4.25006C11.6585 4.5647 11.7457 4.94188 11.8806 5.23865C11.9995 5.50168 12.0303 5.01533 12.0749 4.88133C12.8631 2.4833 15.3606 0.511084 17.8214 0.0822969C18.3737 -0.0139816 18.6959 -0.156911 18.7534 0.523987C18.805 1.12846 18.7881 2.07834 18.7534 2.69273C18.6533 4.46545 17.7927 6.25901 16.8052 7.69524Z" fill="#AFE3CD"/>
<path d="M20.9593 13.1184C21.0148 13.2157 20.9752 13.4589 20.8641 13.5134C20.8027 13.5432 20.3218 13.5799 20.188 13.5938C16.2578 13.9958 12.2919 14.1318 8.35082 14.4067C7.08869 14.4951 5.9604 14.6479 4.67248 14.6747C4.50393 14.6777 4.06471 14.8345 4.05479 14.4891C4.0419 14.0296 5.20985 14.2102 5.53902 14.1894C6.49678 14.1278 7.44958 13.9452 8.40536 13.8658C10.0571 13.7288 11.7248 13.7159 13.3776 13.5938C15.7075 13.4221 18.1981 13.0549 20.5132 12.9963C20.6262 12.9933 20.9048 13.0191 20.9613 13.1194L20.9593 13.1184Z" fill="#2A2A2A"/>
</svg>
