<svg width="38" height="35" viewBox="0 0 38 35" fill="none" xmlns="http://www.w3.org/2000/svg">
<path d="M20.2628 0.504905C24.2858 0.399216 28.3294 0.411122 32.3583 0.265242C33.3875 0.228027 34.4401 0.0464222 35.4693 0.0196278C35.8939 0.00771922 37.1017 -0.10839 37.2481 0.400703C37.2144 0.912772 37.3301 1.42931 37.3491 1.92203C37.4208 3.78423 37.415 6.486 37.2554 8.32587C37.2232 8.69206 37.229 9.12375 36.8221 9.18032C36.3331 9.24879 36.2013 8.97192 36.093 9.49441C35.1999 13.7636 35.4239 18.99 34.8603 23.4185C34.4738 26.4523 33.4329 29.3758 32.9659 32.4467C32.8312 33.3295 33.1255 33.7269 32.0275 33.846C28.385 34.242 24.1629 34.0514 20.4604 34.0231C17.3553 33.9993 13.8124 34.0648 10.7351 33.6034C10.1597 33.517 9.61954 33.392 9.16863 33.005C8.34586 32.3009 7.61533 30.0606 7.29325 28.9873C6.06642 24.8952 4.92011 20.5679 3.84408 16.4267C3.40195 14.7282 3.02424 13.0104 2.61578 11.3045C2.04629 11.3134 1.37577 11.3611 1.18399 10.6912C0.954142 9.26814 0.580825 7.85995 0.334873 6.44283C0.217754 5.76701 -0.0179452 4.59253 0.00108677 3.94946C0.0113347 3.58923 0.507625 2.88662 0.838488 2.70502C1.75934 2.20039 3.91873 1.87886 5.01673 1.67939C9.11299 0.936589 13.2488 0.638876 17.3904 0.504905C18.345 0.473645 19.3083 0.53021 20.2643 0.504905H20.2628ZM30.0642 8.4003C26.6648 8.52832 23.1483 9.0136 19.7431 9.26814C17.3026 9.44975 14.8401 9.47059 12.4011 9.67601C10.9898 9.7951 9.58294 10.069 8.16872 10.1613C7.67974 10.1925 5.95662 9.92163 5.97711 10.6108C5.99175 11.1274 6.64031 10.8937 6.88919 10.8892C8.79238 10.849 10.4569 10.6198 12.3206 10.4873C18.14 10.075 23.9974 9.86953 29.7993 9.26814C30.0994 9.23688 30.8636 9.23242 30.9412 8.96894C31.1432 8.28419 30.4859 8.38542 30.0628 8.40179L30.0642 8.4003Z" fill="#3F3F3F"/>
<path d="M20.2758 24.8033C19.9104 24.8377 19.5842 24.8294 19.2972 24.7784C19.0166 24.7198 18.7859 24.5785 18.6049 24.3545C18.4232 24.1236 18.3089 23.7693 18.2622 23.2918C18.2236 22.8985 18.2635 22.5298 18.3816 22.1856C18.5062 21.8337 18.7117 21.4954 18.9981 21.1708C19.2845 20.8462 19.6511 20.5282 20.0978 20.2169C20.4699 19.9551 20.8 19.7079 21.0882 19.4753C21.3828 19.2349 21.6097 19.0045 21.7689 18.784C21.9352 18.5628 22.0077 18.3434 21.9864 18.1257C21.9644 17.901 21.8827 17.7315 21.7414 17.6172C21.6065 17.4952 21.4184 17.4208 21.1772 17.3939C20.9431 17.3663 20.6648 17.3677 20.3424 17.398C20.1274 17.4182 19.8758 17.4702 19.5876 17.554C19.2986 17.6308 19.0189 17.728 18.7484 17.8456C18.4772 17.9562 18.2644 18.0719 18.1099 18.1927C17.789 18.3859 17.4903 18.5486 17.2141 18.6809C16.9449 18.8126 16.6492 18.8935 16.3267 18.9239C16.0473 18.9502 15.7929 18.8997 15.5635 18.7724C15.3341 18.6452 15.1991 18.3744 15.1585 17.9601C15.131 17.6792 15.184 17.4084 15.3176 17.1478C15.4505 16.8801 15.6388 16.625 15.8826 16.3824C16.2236 16.0243 16.637 15.7054 17.1231 15.4259C17.6084 15.1392 18.1211 14.9103 18.6611 14.739C19.2076 14.56 19.7316 14.4469 20.2332 14.3998C20.9927 14.3283 21.7024 14.3395 22.3624 14.4333C23.0295 14.5265 23.6186 14.7085 24.1296 14.9793C24.6399 15.2432 25.051 15.6014 25.3629 16.054C25.6741 16.4995 25.861 17.0419 25.9236 17.6809C25.9745 18.2006 25.9088 18.6745 25.7266 19.1027C25.5515 19.5302 25.2817 19.9135 24.9172 20.2525C24.5599 20.5909 24.1414 20.896 23.6619 21.1679C23.3818 21.336 23.1064 21.5143 22.8357 21.7028C22.5714 21.8836 22.3492 22.0887 22.1692 22.3183C21.9892 22.5478 21.8775 22.8099 21.834 23.1046C21.7488 23.6371 21.6111 24.0398 21.4209 24.3129C21.2379 24.5852 20.8562 24.7487 20.2758 24.8033ZM20.1805 28.7031C19.6646 28.7517 19.2416 28.6781 18.9115 28.4823C18.5821 28.2936 18.3953 27.9745 18.3513 27.5251C18.3025 27.0265 18.4409 26.6308 18.7665 26.3379C19.0987 26.0373 19.4797 25.8668 19.9096 25.8264C20.2463 25.7947 20.5693 25.8069 20.8785 25.8628C21.187 25.9118 21.4479 26.029 21.6613 26.2144C21.8819 26.3992 22.0108 26.6812 22.0479 27.0604C22.0892 27.4818 21.9656 27.8442 21.6771 28.1477C21.3887 28.4513 20.8898 28.6364 20.1805 28.7031Z" fill="white"/>
<path d="M30.5299 8.3994C30.9595 8.38282 31.6285 8.28184 31.4219 8.97366C31.3416 9.24195 30.567 9.24647 30.2622 9.27662C24.3689 9.88554 18.4221 10.0935 12.5124 10.511C10.6198 10.6452 8.92942 10.8773 6.9967 10.918C6.74396 10.9225 6.08534 11.1607 6.07047 10.6361C6.05114 9.9398 7.80101 10.2141 8.29608 10.181C9.73225 10.0875 11.1595 9.81018 12.5942 9.6896C15.071 9.4816 17.5717 9.46201 20.05 9.27662C23.5081 9.01888 27.0792 8.52903 30.5313 8.3979L30.5299 8.3994Z" fill="#2A2A2A"/>
</svg>
