<svg width="48" height="48" viewBox="0 0 48 48" fill="none" xmlns="http://www.w3.org/2000/svg">
<rect width="48" height="48" rx="24" fill="#FFF3EC"/>
<path d="M34.9989 34.7138C34.9989 34.9506 34.9048 35.1777 34.7374 35.3451C34.5699 35.5126 34.3428 35.6067 34.106 35.6067H14.4632C14.2264 35.6067 13.9993 35.5126 13.8318 35.3451C13.6644 35.1777 13.5703 34.9506 13.5703 34.7138C13.5703 34.477 13.6644 34.2499 13.8318 34.0825C13.9993 33.915 14.2264 33.8209 14.4632 33.8209H34.106C34.3428 33.8209 34.5699 33.915 34.7374 34.0825C34.9048 34.2499 34.9989 34.477 34.9989 34.7138ZM33.2132 23.9995H26.9152L28.6685 15.8198C28.7802 15.2992 28.774 14.7601 28.6504 14.2422C28.5269 13.7242 28.289 13.2404 27.9544 12.8263C27.6197 12.4121 27.1966 12.078 26.7161 11.8484C26.2357 11.6189 25.71 11.4997 25.1775 11.4995H23.3917C22.8592 11.4997 22.3335 11.6189 21.853 11.8484C21.3726 12.078 20.9495 12.4121 20.6148 12.8263C20.2802 13.2404 20.0423 13.7242 19.9188 14.2422C19.7952 14.7601 19.789 15.2992 19.9007 15.8198L21.654 23.9995H15.356C14.8824 23.9995 14.4282 24.1876 14.0933 24.5225C13.7584 24.8574 13.5703 25.3116 13.5703 25.7852V30.2495C13.5703 30.7231 13.7584 31.1773 14.0933 31.5122C14.4282 31.8471 14.8824 32.0352 15.356 32.0352H33.2132C33.6868 32.0352 34.141 31.8471 34.4759 31.5122C34.8107 31.1773 34.9989 30.7231 34.9989 30.2495V25.7852C34.9989 25.3116 34.8107 24.8574 34.4759 24.5225C34.141 24.1876 33.6868 23.9995 33.2132 23.9995Z" fill="#FF5D00"/>
</svg>
