<svg width="36" height="36" viewBox="0 0 36 36" fill="none" xmlns="http://www.w3.org/2000/svg">
<path d="M22.1065 17.8532L14.7206 14.1132C14.5214 14.0136 14.2891 14.1575 14.2891 14.3788V21.6429C14.2891 21.8587 14.5159 22.0026 14.7151 21.9085L22.0954 18.3898C22.3167 18.2847 22.3223 17.9694 22.101 17.8587L22.1065 17.8532Z" fill="#F2F2F2"/>
<path d="M25.2725 0H10.722C4.80775 0 0 4.81328 0 10.722V25.2725C0 31.1867 4.80775 36 10.722 36H25.2725C31.1867 36 36 31.1867 36 25.2725V10.722C36 4.81328 31.1867 0 25.2725 0ZM31.5021 21.9474C31.5021 25.0456 28.9903 27.5574 25.8921 27.5574H10.1079C7.00968 27.5574 4.49793 25.0456 4.49793 21.9474V14.0581C4.49793 10.9599 7.00968 8.44813 10.1079 8.44813H25.8921C28.9903 8.44813 31.5021 10.9599 31.5021 14.0581V21.9474Z" fill="#F2F2F2"/>
</svg>
