<svg width="48" height="48" viewBox="0 0 48 48" fill="none" xmlns="http://www.w3.org/2000/svg">
<rect width="48" height="48" rx="24" fill="#FFF3EC"/>
<path d="M34.0849 14.186C34.0721 13.9675 33.9796 13.7614 33.8249 13.6067C33.6702 13.4519 33.464 13.3594 33.2456 13.3467C24.7489 12.8478 17.9431 15.4058 15.0413 20.2049C14.0355 21.8466 13.5398 23.75 13.6172 25.6737C13.6677 26.9039 13.918 28.1176 14.3583 29.2674C14.3842 29.3382 14.4275 29.4013 14.4843 29.4507C14.5411 29.5002 14.6096 29.5345 14.6832 29.5505C14.7568 29.5664 14.8333 29.5634 14.9055 29.5419C14.9777 29.5203 15.0432 29.4808 15.096 29.427L24.5826 19.7953C24.6656 19.7124 24.7641 19.6466 24.8725 19.6017C24.9808 19.5568 25.097 19.5337 25.2143 19.5337C25.3316 19.5337 25.4478 19.5568 25.5562 19.6017C25.6646 19.6466 25.7631 19.7124 25.846 19.7953C25.929 19.8783 25.9948 19.9768 26.0397 20.0852C26.0846 20.1935 26.1077 20.3097 26.1077 20.427C26.1077 20.5443 26.0846 20.6605 26.0397 20.7689C25.9948 20.8773 25.929 20.9758 25.846 21.0587L15.4788 31.5822L13.8951 33.1659C13.7304 33.3262 13.6321 33.5427 13.6197 33.7722C13.6073 34.0017 13.6817 34.2275 13.8282 34.4047C13.9084 34.4976 14.0069 34.5729 14.1175 34.6261C14.2281 34.6792 14.3485 34.7089 14.4712 34.7134C14.5938 34.7179 14.7161 34.6971 14.8303 34.6522C14.9445 34.6074 15.0483 34.5395 15.1351 34.4527L17.009 32.5788C18.5871 33.3422 20.1797 33.7585 21.759 33.8143C21.8832 33.8188 22.0071 33.821 22.1306 33.821C23.9291 33.8256 25.6934 33.3302 27.2266 32.3902C32.0257 29.4884 34.5849 22.6837 34.0849 14.186Z" fill="#FF5D00"/>
</svg>
