<svg width="381" height="344" viewBox="0 0 381 344" fill="none" xmlns="http://www.w3.org/2000/svg">
<g filter="url(#filter0_d_1699_65703)">
<path d="M93.1256 281.974C93.5608 275.361 99.2746 270.353 105.888 270.788L361.335 287.597C367.948 288.032 372.957 293.746 372.521 300.359L370.946 324.307C370.51 330.921 364.797 335.929 358.184 335.494L102.736 318.684C96.1228 318.249 91.1146 312.536 91.5498 305.922L93.1256 281.974Z" fill="white"/>
<path d="M182.129 293.571L181.534 302.616L180.019 302.517L180.292 298.369L177.918 298.213L178.001 296.958L180.375 297.114L180.614 293.472L182.129 293.571ZM178.261 294.249C178.048 297.495 175.732 299.796 172.096 300.694L171.535 299.437C174.251 298.766 176.107 297.313 176.529 295.381L172.464 295.114L172.545 293.872L178.261 294.249ZM181.729 304.438L181.648 305.665L173.299 305.116L173.558 301.173L175.1 301.275L174.921 303.99L181.729 304.438Z" fill="#404040"/>
<path d="M193.603 294.313L193.405 297.314L195.124 297.427L195.043 298.669L193.324 298.555L193.127 301.543L191.613 301.443L192.089 294.213L193.603 294.313ZM190.137 294.934C189.923 298.181 187.658 300.334 183.947 301.131L183.427 299.864C186.274 299.284 188.031 297.885 188.419 296.054L184.258 295.78L184.339 294.553L190.137 294.934ZM189.134 301.431C191.63 301.595 193.191 302.657 193.091 304.171C192.99 305.713 191.305 306.534 188.809 306.37C186.326 306.206 184.736 305.17 184.851 303.629C184.937 302.114 186.651 301.268 189.134 301.431ZM189.056 302.618C187.432 302.511 186.392 302.909 186.352 303.728C186.285 304.532 187.263 305.076 188.887 305.183C190.51 305.29 191.551 304.878 191.604 304.074C191.658 303.255 190.679 302.725 189.056 302.618Z" fill="#404040"/>
<path d="M200.431 296.529C200.324 298.153 201.233 299.747 203.157 300.49L202.328 301.642C200.934 301.07 199.979 300.069 199.513 298.826C198.861 300.084 197.763 301.047 196.271 301.449L195.585 300.211C197.622 299.66 198.752 298.104 198.862 296.426L198.939 295.253L200.508 295.356L200.431 296.529ZM205.7 303.083L205.411 307.476L203.883 307.375L204.092 304.197L197.202 303.743L197.282 302.529L205.7 303.083ZM206.222 295.143L205.736 302.524L204.208 302.423L204.694 295.042L206.222 295.143Z" fill="#404040"/>
<path d="M216.475 297.16L216.264 300.366L217.696 300.461L217.981 296.136L219.427 296.231L218.669 307.745L217.223 307.65L217.616 301.688L216.183 301.594L215.961 304.978L211.118 304.659L211.632 296.842L216.475 297.16ZM212.972 298.136L212.615 303.552L214.621 303.684L214.977 298.268L212.972 298.136ZM221.979 296.18L221.167 308.513L219.708 308.417L220.519 296.084L221.979 296.18Z" fill="#404040"/>
<path d="M233.108 300.913L233.027 302.141L224.46 301.577L224.764 296.952L226.279 297.052L226.055 300.449L233.108 300.913ZM234.21 303.74L234.129 304.967L231.428 304.79L231.14 309.169L229.612 309.068L229.9 304.689L227.117 304.506L226.829 308.885L225.315 308.785L225.603 304.406L222.888 304.228L222.969 303L234.21 303.74Z" fill="#404040"/>
<path d="M249.127 297.966L248.645 305.292L247.131 305.193L247.329 302.178L245.228 302.039L245.31 300.798L247.411 300.936L247.613 297.867L249.127 297.966ZM244.45 305.331C247.069 305.504 248.609 306.468 248.511 307.955C248.413 309.442 246.761 310.197 244.141 310.024C241.536 309.853 239.996 308.888 240.107 307.402C240.192 305.914 241.844 305.16 244.45 305.331ZM244.374 306.491C242.655 306.378 241.659 306.723 241.608 307.501C241.558 308.265 242.499 308.738 244.218 308.851C245.937 308.964 246.947 308.62 246.997 307.856C247.048 307.078 246.093 306.604 244.374 306.491ZM243.19 299.699C243.091 301.2 243.988 302.78 245.855 303.547L245.012 304.697C243.672 304.143 242.758 303.137 242.303 301.943C241.67 303.223 240.571 304.206 239.07 304.635L238.358 303.382C240.381 302.83 241.541 301.235 241.648 299.612L241.654 299.516L239.089 299.347L239.17 298.12L245.827 298.558L245.747 299.785L243.196 299.618L243.19 299.699Z" fill="#404040"/>
<path d="M261.51 308.427L261.428 309.668L250.16 308.927L250.242 307.685L255.098 308.005L255.256 305.604L251.641 305.366L252.061 298.981L253.575 299.081L253.443 301.1L259.159 301.476L259.292 299.457L260.806 299.557L260.386 305.942L256.757 305.703L256.599 308.104L261.51 308.427ZM253.236 304.238L258.952 304.614L259.079 302.69L253.363 302.314L253.236 304.238Z" fill="#404040"/>
<path d="M272.707 300.683L272.169 308.854L266.303 308.468L266.841 300.297L272.707 300.683ZM268.263 301.582L267.883 307.353L270.776 307.543L271.155 301.772L268.263 301.582ZM276.521 299.769L275.709 312.115L274.181 312.015L274.993 299.668L276.521 299.769Z" fill="#404040"/>
<path d="M288.595 300.563L287.782 312.91L286.254 312.809L287.067 300.463L288.595 300.563ZM280.438 301.041L280.235 304.124L283.223 304.32L283.426 301.237L284.927 301.336L284.372 309.767L278.369 309.372L278.924 300.941L280.438 301.041ZM279.965 308.23L282.953 308.427L283.145 305.507L280.157 305.311L279.965 308.23Z" fill="#404040"/>
<path d="M292.865 302.091L292.256 309.053L290.715 308.951L291.01 301.969L292.865 302.091ZM291.294 312.017C290.707 311.979 290.261 311.47 290.3 310.883C290.337 310.31 290.846 309.864 291.433 309.903C291.992 309.94 292.452 310.449 292.414 311.022C292.376 311.609 291.853 312.054 291.294 312.017Z" fill="#404040"/>
<path d="M32.0674 253.395C31.3463 246.807 36.1024 240.882 42.6904 240.161L297.171 212.306C303.759 211.585 309.684 216.341 310.405 222.929L313.016 246.786C313.737 253.374 308.981 259.3 302.393 260.021L47.9133 287.876C41.3252 288.597 35.3999 283.841 34.6788 277.253L32.0674 253.395Z" fill="white"/>
<path d="M101.493 253.695C101.67 255.312 102.843 256.724 104.867 257.121L104.25 258.399C102.778 258.079 101.663 257.259 100.988 256.115C100.566 257.468 99.6517 258.607 98.2518 259.262L97.3613 258.163C99.2712 257.266 100.113 255.537 99.9305 253.866L99.8026 252.697L101.365 252.526L101.493 253.695ZM107.821 259.232L108.3 263.608L106.778 263.775L106.431 260.608L99.568 261.36L99.4356 260.15L107.821 259.232ZM106.955 251.323L107.76 258.675L106.238 258.842L105.433 251.489L106.955 251.323Z" fill="#404040"/>
<path d="M118.453 250.064L118.783 253.081L120.482 252.895L120.617 254.132L118.919 254.318L119.238 257.24L117.716 257.406L116.931 250.231L118.453 250.064ZM115.254 257.91C117.769 257.635 119.457 258.357 119.637 259.878C119.793 261.429 118.301 262.5 115.787 262.775C113.246 263.053 111.53 262.333 111.361 260.784C111.194 259.262 112.713 258.188 115.254 257.91ZM115.387 259.119C113.702 259.304 112.756 259.834 112.855 260.62C112.93 261.424 113.969 261.75 115.655 261.566C117.313 261.384 118.257 260.841 118.169 260.039C118.083 259.251 117.045 258.938 115.387 259.119ZM114.824 251.341L114.958 252.565L110.949 253.003L111.287 256.089C113.637 255.824 114.941 255.613 116.355 255.149L116.637 256.342C115.084 256.856 113.636 257.069 110.918 257.367L109.926 257.475L109.32 251.944L114.824 251.341Z" fill="#404040"/>
<path d="M131.378 248.649L132.723 260.935L131.268 261.094L129.924 248.808L131.378 248.649ZM128.874 249.143L130.129 260.614L128.689 260.772L128.049 254.928L126.88 255.056C126.999 257.463 126.135 259.057 124.612 259.21C123.009 259.399 121.777 257.815 121.481 255.11C121.185 252.406 122.048 250.619 123.652 250.444C125.14 250.281 126.305 251.556 126.733 253.834L127.915 253.704L127.433 249.301L128.874 249.143ZM123.808 251.871C123.032 251.942 122.657 253.042 122.881 254.957C123.077 256.875 123.681 257.868 124.454 257.769C125.271 257.694 125.646 256.594 125.436 254.677C125.226 252.761 124.622 251.768 123.808 251.871Z" fill="#404040"/>
<path d="M137.667 250.945C137.917 253.229 139.249 255.352 141.3 255.994L140.522 257.303C139.055 256.776 137.933 255.579 137.235 254.032C136.883 255.783 136.038 257.299 134.703 258.174L133.618 257.055C135.513 255.899 136.369 253.412 136.131 251.113L135.917 249.156L137.453 248.988L137.667 250.945ZM143.107 247.365L144.453 259.665L142.958 259.829L142.18 252.721L139.598 253.003L139.464 251.78L142.046 251.498L141.612 247.529L143.107 247.365Z" fill="#404040"/>
<path d="M158.425 245.702L159.411 254.713L157.902 254.878L157.45 250.747L155.085 251.006L154.949 249.755L157.313 249.496L156.916 245.868L158.425 245.702ZM154.734 247.042C155.088 250.276 153.207 252.944 149.783 254.46L149.012 253.321C151.57 252.188 153.145 250.434 153.225 248.458L149.175 248.902L149.04 247.665L154.734 247.042ZM159.92 256.473L160.054 257.696L151.736 258.606L151.306 254.679L152.842 254.511L153.138 257.215L159.92 256.473Z" fill="#404040"/>
<path d="M169.853 244.438L170.18 247.428L171.893 247.24L172.028 248.477L170.316 248.665L170.641 251.641L169.133 251.806L168.344 244.603L169.853 244.438ZM166.548 245.652C166.902 248.887 165.045 251.401 161.529 252.831L160.797 251.673C163.5 250.607 164.987 248.925 165.051 247.054L160.905 247.508L160.772 246.285L166.548 245.652ZM166.689 252.225C169.176 251.953 170.898 252.727 171.063 254.235C171.231 255.771 169.715 256.872 167.228 257.145C164.754 257.415 163.009 256.671 162.854 255.134C162.675 253.627 164.216 252.496 166.689 252.225ZM166.819 253.407C165.201 253.584 164.246 254.156 164.349 254.97C164.423 255.774 165.481 256.139 167.098 255.962C168.716 255.785 169.669 255.199 169.582 254.398C169.492 253.582 168.436 253.23 166.819 253.407Z" fill="#404040"/>
<path d="M176.963 245.434C177.14 247.051 178.312 248.463 180.336 248.861L179.719 250.138C178.247 249.818 177.133 248.998 176.457 247.855C176.035 249.208 175.121 250.346 173.721 251.001L172.83 249.902C174.74 249.005 175.583 247.277 175.4 245.605L175.272 244.436L176.835 244.265L176.963 245.434ZM183.29 250.972L183.769 255.348L182.247 255.514L181.9 252.348L175.037 253.099L174.905 251.889L183.29 250.972ZM182.424 243.062L183.229 250.414L181.707 250.581L180.902 243.228L182.424 243.062Z" fill="#404040"/>
<path d="M198.094 241.347L199.439 253.633L197.999 253.79L196.654 241.504L198.094 241.347ZM195.619 241.851L196.873 253.308L195.446 253.464L194.769 247.281L193.002 247.474L192.869 246.251L194.635 246.058L194.192 242.007L195.619 241.851ZM191.68 245.446C191.908 247.525 192.883 249.523 194.746 250.337L193.971 251.549C192.762 250.994 191.88 249.908 191.305 248.554C191.036 250.117 190.396 251.493 189.314 252.348L188.266 251.321C189.929 250.052 190.46 247.739 190.226 245.605L190.137 244.789L188.003 245.023L187.869 243.8L193.441 243.19L193.575 244.413L191.591 244.63L191.68 245.446Z" fill="#404040"/>
<path d="M205.921 248.261C208.586 247.983 210.363 248.641 210.536 250.094C210.679 251.522 209.087 252.563 206.423 252.854C203.773 253.144 201.981 252.474 201.824 251.047C201.665 249.593 203.272 248.564 205.921 248.261ZM206.046 249.402C204.279 249.596 203.251 250.134 203.347 250.88C203.412 251.602 204.529 251.879 206.295 251.686C208.076 251.491 209.106 250.979 209.041 250.257C208.946 249.511 207.826 249.207 206.046 249.402ZM209.425 240.698L209.537 241.717C209.642 242.682 209.755 243.715 209.554 245.016L208.044 245.044C208.219 243.814 208.145 242.949 208.047 242.059L201.048 242.825L200.917 241.629L209.425 240.698ZM211.33 245.537L211.464 246.76L200.32 247.98L200.186 246.757L204.508 246.284L204.264 244.055L205.759 243.891L206.003 246.12L211.33 245.537Z" fill="#404040"/>
<path d="M226.874 245.431L227.005 246.627L222.112 247.162L222.543 251.104L221.049 251.267L220.617 247.326L215.779 247.855L215.648 246.66L226.874 245.431ZM217.773 239.688L217.938 241.196L223.429 240.595L223.264 239.087L224.786 238.92L225.375 244.302L216.867 245.233L216.278 239.851L217.773 239.688ZM218.228 243.846L223.719 243.245L223.56 241.791L218.069 242.392L218.228 243.846Z" fill="#404040"/>
<path d="M237.152 237.553L237.283 238.749L233.736 239.137C234.034 240.163 235.647 240.956 238.004 240.939L237.576 242.182C235.342 242.186 233.593 241.477 232.79 240.299C232.261 241.623 230.728 242.691 228.538 243.172L227.879 242.047C230.156 241.557 231.539 240.43 231.629 239.368L228.109 239.753L227.978 238.557L237.152 237.553ZM238.768 243.015L238.9 244.224L227.701 245.45L227.569 244.241L232.407 243.711L232.221 242.012L233.716 241.849L233.902 243.547L238.768 243.015ZM237.636 245.367L238.078 249.403L236.569 249.568L236.26 246.741L229.179 247.517L229.047 246.307L237.636 245.367Z" fill="#404040"/>
<path d="M241.896 244.708C241.721 242.98 242.152 242.397 242.95 241.773C243.494 241.342 243.879 240.832 243.804 240.153C243.721 239.392 243.083 238.967 242.336 239.048C241.656 239.123 241.051 239.629 241.11 240.544L239.411 240.73C239.253 238.904 240.523 237.816 242.194 237.633C244.029 237.433 245.405 238.314 245.582 239.931C245.702 241.032 245.224 241.813 244.399 242.44C243.662 243.002 243.388 243.513 243.486 244.534L243.5 244.656L241.909 244.83L241.896 244.708ZM243.081 247.742C242.496 247.806 241.969 247.382 241.905 246.798C241.842 246.227 242.266 245.699 242.85 245.635C243.407 245.574 243.949 245.996 244.011 246.567C244.075 247.151 243.638 247.681 243.081 247.742Z" fill="#404040"/>
<path d="M60.7727 168.958C61.327 162.354 67.1301 157.449 73.7343 158.004L328.837 179.415C335.441 179.97 340.346 185.773 339.792 192.377L337.784 216.293C337.23 222.897 331.427 227.801 324.823 227.247L69.7197 205.835C63.1155 205.281 58.2111 199.478 58.7654 192.874L60.7727 168.958Z" fill="white"/>
<path d="M133.255 180.431L132.221 192.747L130.777 192.626L131.81 180.31L133.255 180.431ZM130.728 180.452L129.764 191.937L128.334 191.817L128.854 185.618L127.083 185.469L127.186 184.243L128.957 184.392L129.298 180.332L130.728 180.452ZM126.174 183.225C125.999 185.31 126.573 187.457 128.246 188.613L127.253 189.655C126.173 188.878 125.515 187.643 125.21 186.204C124.647 187.686 123.755 188.915 122.529 189.546L121.697 188.338C123.572 187.411 124.536 185.242 124.716 183.103L124.785 182.286L122.646 182.106L122.749 180.88L128.334 181.349L128.231 182.575L126.242 182.408L126.174 183.225Z" fill="#404040"/>
<path d="M144.425 181.382L144.1 185.251L145.817 185.395L145.712 186.649L143.995 186.505L143.653 190.578L142.141 190.451L142.913 181.255L144.425 181.382ZM141.913 182.543L141.811 183.756L134.509 183.143L134.61 181.93L137.512 182.174L137.628 180.798L139.14 180.925L139.025 182.301L141.913 182.543ZM138.118 183.953C139.889 184.102 141.036 185.145 140.931 186.563C140.799 187.965 139.495 188.789 137.724 188.64C135.939 188.49 134.777 187.46 134.895 186.056C135.014 184.64 136.333 183.804 138.118 183.953ZM138.019 185.125C137.079 185.046 136.43 185.431 136.367 186.18C136.305 186.916 136.881 187.403 137.823 187.468C138.761 187.561 139.425 187.178 139.487 186.442C139.549 185.693 138.959 185.204 138.019 185.125ZM144.006 192.254L143.904 193.48L135.525 192.777L135.826 189.194L137.338 189.321L137.14 191.678L144.006 192.254Z" fill="#404040"/>
<path d="M151.115 184.056C150.99 185.555 151.857 187.151 153.711 187.951L152.85 189.059C151.511 188.494 150.616 187.479 150.174 186.282C149.528 187.525 148.412 188.474 146.914 188.835L146.238 187.571C148.254 187.095 149.44 185.549 149.575 183.941L149.589 183.777L147.027 183.562L147.129 182.35L153.777 182.908L153.676 184.12L151.128 183.907L151.115 184.056ZM156.417 190.36L156.049 194.747L154.537 194.62L154.803 191.446L147.923 190.868L148.025 189.656L156.417 190.36ZM157.083 182.431L156.467 189.774L154.954 189.647L155.21 186.595L153.112 186.419L153.216 185.18L155.314 185.356L155.571 182.304L157.083 182.431Z" fill="#404040"/>
<path d="M169.084 183.452L168.338 192.348L166.812 192.22L167.559 183.324L169.084 183.452ZM168.516 194.311L168.413 195.538L159.925 194.825L160.266 190.765L161.792 190.893L161.554 193.727L168.516 194.311ZM162.3 183.692C164.167 183.849 165.502 185.264 165.353 187.049C165.199 188.874 163.649 190.02 161.782 189.864C159.902 189.706 158.564 188.317 158.718 186.492C158.867 184.707 160.42 183.534 162.3 183.692ZM162.189 185.013C161.14 184.925 160.278 185.553 160.203 186.617C160.098 187.705 160.844 188.454 161.893 188.542C162.915 188.628 163.776 188.014 163.868 186.924C163.957 185.861 163.211 185.099 162.189 185.013Z" fill="#404040"/>
<path d="M178.122 184.965C180.071 185.129 181.398 186.475 181.265 188.22C181.124 189.738 179.962 190.758 178.392 190.901L178.242 192.699C179.343 192.737 180.461 192.735 181.523 192.673L181.554 193.773C178.745 194.059 175.786 193.838 173.62 193.656L173.533 192.4C174.473 192.479 175.57 192.571 176.725 192.627L176.88 190.774C175.356 190.379 174.367 189.171 174.494 187.651C174.641 185.908 176.188 184.803 178.122 184.965ZM178.013 186.273C176.936 186.183 176.08 186.742 175.993 187.777C175.907 188.799 176.656 189.52 177.732 189.611C178.822 189.702 179.695 189.117 179.78 188.095C179.867 187.06 179.103 186.364 178.013 186.273ZM184.453 184.728L183.419 197.058L181.906 196.931L182.941 184.601L184.453 184.728Z" fill="#404040"/>
<path d="M190.696 187.022C190.559 188.643 191.44 190.254 193.35 191.031L192.5 192.167C191.116 191.571 190.18 190.553 189.736 189.301C189.062 190.548 187.947 191.49 186.447 191.865L185.784 190.616C187.83 190.102 188.988 188.566 189.129 186.89L189.227 185.719L190.794 185.85L190.696 187.022ZM195.845 193.669L195.477 198.056L193.951 197.928L194.217 194.754L187.337 194.176L187.439 192.964L195.845 193.669ZM196.511 185.74L195.892 193.111L194.366 192.983L194.985 185.612L196.511 185.74Z" fill="#404040"/>
<path d="M211.374 186.988L211.028 191.116L212.69 191.255L212.585 192.509L210.923 192.369L210.567 196.606L209.055 196.479L209.862 186.861L211.374 186.988ZM210.9 197.869L210.797 199.095L202.269 198.379L202.528 195.287L204.04 195.414L203.884 197.28L210.9 197.869ZM200.91 193.312C201.83 193.39 202.9 193.472 204.021 193.519L204.086 192.742C202.731 192.464 201.922 191.717 202.005 190.729C202.107 189.516 203.352 188.907 205.135 189.071C206.935 189.208 208.047 190.015 207.945 191.227C207.863 192.208 206.962 192.805 205.599 192.869L205.539 193.577C206.593 193.611 207.657 193.604 208.657 193.537L208.69 194.61C206.047 194.882 203.102 194.662 200.974 194.511L200.91 193.312ZM208.804 187.856L208.712 188.959L201.641 188.366L201.734 187.262L204.527 187.497L204.62 186.38L206.133 186.507L206.039 187.624L208.804 187.856ZM205.05 190.093C204.096 190.013 203.497 190.278 203.463 190.851C203.405 191.381 203.951 191.743 204.904 191.823C205.858 191.903 206.457 191.638 206.501 191.106C206.549 190.534 206.003 190.173 205.05 190.093Z" fill="#404040"/>
<path d="M223.989 188.06L223.385 195.254L221.873 195.127L221.987 193.764L219.058 193.518L219.161 192.292L222.09 192.538L222.201 191.217L219.395 190.981C218.447 192.877 216.54 194.096 213.794 194.613L213.281 193.363C216.229 192.821 217.884 191.492 218.283 189.68L214.277 189.344L214.38 188.118L220.034 188.593C219.998 189.022 219.93 189.428 219.822 189.81L222.302 190.018L222.477 187.933L223.989 188.06ZM219.3 195.048C221.793 195.257 223.377 196.337 223.25 197.849C223.123 199.361 221.382 200.162 218.889 199.953C216.368 199.741 214.785 198.661 214.912 197.149C215.039 195.637 216.78 194.836 219.3 195.048ZM219.201 196.233C217.539 196.094 216.493 196.459 216.424 197.276C216.357 198.08 217.327 198.614 218.989 198.754C220.61 198.89 221.67 198.526 221.737 197.722C221.806 196.905 220.822 196.369 219.201 196.233Z" fill="#404040"/>
<path d="M236.361 189.085L235.327 201.401L233.869 201.279L234.903 188.962L236.361 189.085ZM233.808 189.09L232.843 200.589L231.399 200.468L231.891 194.609L230.719 194.511C230.375 196.897 229.222 198.295 227.697 198.154C226.088 198.032 225.182 196.241 225.41 193.53C225.637 190.819 226.827 189.231 228.434 189.366C229.926 189.491 230.825 190.966 230.808 193.284L231.994 193.383L232.364 188.969L233.808 189.09ZM228.314 190.797C227.539 190.718 226.96 191.726 226.813 193.648C226.638 195.568 227.04 196.658 227.818 196.71C228.634 196.792 229.213 195.784 229.374 193.863C229.535 191.942 229.133 190.852 228.314 190.797Z" fill="#404040"/>
<path d="M244.042 189.922L243.961 190.889L249.274 191.335L249.356 190.368L250.854 190.493L250.51 194.594L242.199 193.897L242.544 189.796L244.042 189.922ZM243.793 192.892L249.106 193.338L249.182 192.438L243.868 191.992L243.793 192.892ZM251.904 195.479L251.8 196.719L246.922 196.31L246.846 197.223L250.32 197.514L250.069 200.498L243.067 199.91L242.995 200.768L250.338 201.385L250.241 202.543L241.412 201.802L241.671 198.723L248.674 199.311L248.741 198.507L241.725 197.918L241.819 196.801L245.333 197.096L245.41 196.183L240.574 195.777L240.678 194.537L251.904 195.479Z" fill="#404040"/>
<path d="M263.472 191.36L262.709 200.461L261.196 200.334L261.466 197.119L259.722 196.973L259.828 195.719L261.571 195.866L261.67 194.694L259.926 194.548L260.029 193.321L261.773 193.468L261.96 191.233L263.472 191.36ZM259.961 191.999L259.86 193.211L258.77 193.12L258.44 197.043C258.906 197.055 259.358 197.059 259.798 197.048L259.774 198.157C257.412 198.343 254.67 198.154 252.708 197.989L252.65 196.722L254.041 196.825L254.383 192.751L253.307 192.661L253.408 191.449L259.961 191.999ZM262.876 202.231L262.773 203.458L254.367 202.752L254.675 199.074L256.201 199.202L255.995 201.654L262.876 202.231ZM255.513 196.935L256.976 197.003L257.312 192.997L255.854 192.875L255.513 196.935Z" fill="#404040"/>
<path d="M274.93 192.322L274.668 195.442L276.385 195.586L276.279 196.853L274.562 196.709L274.307 199.747L272.795 199.62L273.418 192.195L274.93 192.322ZM274.258 200.333L273.909 204.488L265.953 203.82L266.301 199.665L274.258 200.333ZM267.699 200.99L267.554 202.72L272.513 203.136L272.659 201.406L267.699 200.99ZM272.433 193.306L272.331 194.519L265.029 193.906L265.13 192.693L268.032 192.937L268.139 191.67L269.651 191.797L269.545 193.064L272.433 193.306ZM268.642 194.662C270.427 194.812 271.564 195.813 271.468 197.122C271.343 198.442 270.056 199.226 268.272 199.076C266.473 198.925 265.321 197.937 265.432 196.615C265.542 195.307 266.844 194.511 268.642 194.662ZM268.546 195.806C267.606 195.727 266.96 196.071 266.904 196.738C266.847 197.42 267.427 197.866 268.367 197.945C269.307 198.024 269.967 197.682 270.024 197C270.08 196.333 269.486 195.885 268.546 195.806Z" fill="#404040"/>
<path d="M33.0072 145.935C32.3192 139.343 37.1051 133.442 43.6967 132.754L298.314 106.18C304.905 105.492 310.807 110.277 311.494 116.869L313.986 140.739C314.674 147.331 309.888 153.232 303.296 153.92L48.6794 180.495C42.0878 181.183 36.1865 176.397 35.4986 169.805L33.0072 145.935Z" fill="white"/>
<path d="M81.5432 148.059C81.7121 149.677 82.8773 151.095 84.8993 151.503L84.2763 152.777C82.8056 152.45 81.6953 151.624 81.0258 150.477C80.5963 151.828 79.6768 152.962 78.2736 153.61L77.3887 152.506C79.303 151.619 80.154 149.895 79.9794 148.222L79.8574 147.053L81.4211 146.889L81.5432 148.059ZM87.8429 153.628L88.2999 158.007L86.7769 158.166L86.4462 154.998L79.5792 155.714L79.4529 154.504L87.8429 153.628ZM87.0169 145.714L87.7847 153.071L86.2617 153.23L85.4939 145.873L87.0169 145.714Z" fill="#404040"/>
<path d="M98.5208 144.514L98.8359 147.532L100.536 147.355L100.665 148.592L98.965 148.77L99.2702 151.693L97.7472 151.852L96.9978 144.673L98.5208 144.514ZM95.2829 152.343C97.7985 152.081 99.4831 152.812 99.6557 154.334C99.8039 155.885 98.3066 156.949 95.791 157.211C93.2481 157.477 91.5363 156.748 91.3745 155.198C91.2155 153.675 92.74 152.609 95.2829 152.343ZM95.4092 153.553C93.723 153.729 92.7744 154.255 92.8703 155.042C92.9404 155.846 93.9785 156.177 95.6646 156.001C97.3236 155.828 98.2708 155.289 98.1871 154.487C98.1048 153.698 97.0681 153.38 95.4092 153.553ZM94.8858 145.773L95.0135 146.997L91.0021 147.415L91.3243 150.502C93.676 150.25 94.9811 150.045 96.3974 149.588L96.6733 150.782C95.1178 151.288 93.6685 151.495 90.9489 151.778L89.9562 151.882L89.3786 146.348L94.8858 145.773Z" fill="#404040"/>
<path d="M110.592 144.01C110.909 147.18 109.06 149.613 105.589 150.993L104.854 149.874C107.528 148.831 109.01 147.227 109.102 145.402L105.104 145.82L104.976 144.596L110.592 144.01ZM114.445 142.865L115.168 149.787L113.659 149.944L113.379 147.265L111.013 147.512L110.884 146.275L113.25 146.028L112.936 143.023L114.445 142.865ZM115.219 150.276L115.71 154.981L107.619 155.826L107.128 151.121L115.219 150.276ZM108.735 152.163L108.977 154.474L114.089 153.941L113.848 151.629L108.735 152.163Z" fill="#404040"/>
<path d="M120.252 144.5C120.395 145.873 121.299 147.154 122.984 147.624L122.288 148.865C121.162 148.543 120.324 147.819 119.785 146.872C119.439 148.035 118.734 149.057 117.618 149.682L116.693 148.597C118.301 147.673 118.928 146.04 118.797 144.652L118.641 143.156L120.096 143.004L120.252 144.5ZM126.697 141.587L127.474 149.025L126.032 149.175L125.706 146.048L124.482 146.175L124.801 149.235L123.387 149.382L122.639 142.216L124.053 142.069L124.351 144.924L125.575 144.797L125.256 141.737L126.697 141.587ZM127.535 149.609L127.979 153.866L126.469 154.023L126.152 150.977L119.244 151.698L119.117 150.488L127.535 149.609Z" fill="#404040"/>
<path d="M136.482 143.535C136.704 145.793 138.122 147.927 140.211 148.575L139.439 149.879C137.957 149.374 136.781 148.177 136.049 146.631C135.665 148.424 134.759 149.948 133.337 150.805L132.28 149.637C134.241 148.538 135.192 146.061 134.945 143.695L134.741 141.737L136.277 141.576L136.482 143.535ZM141.749 140.002L143.033 152.308L141.51 152.467L140.226 140.161L141.749 140.002Z" fill="#404040"/>
<path d="M153.651 139.983C154.025 143.697 153.248 147.049 148.911 149.756L147.987 148.671C149.994 147.417 151.184 146.048 151.785 144.494L147.906 145.256L147.581 143.984L152.133 143.221C152.244 142.632 152.282 142.009 152.269 141.364L147.986 141.811L147.858 140.588L153.651 139.983ZM157.128 138.397L158.411 150.689L156.888 150.848L155.605 138.556L157.128 138.397Z" fill="#404040"/>
<path d="M169.273 137.143L170.553 149.408L169.016 149.569L168.722 146.754L166.112 147.026L165.992 145.884L168.603 145.612L167.736 137.303L169.273 137.143ZM159.502 144.541C161.813 144.3 164.885 143.965 167.512 143.32L167.723 144.425C166.615 144.74 165.465 144.977 164.336 145.164L164.803 149.637L163.28 149.796L162.822 145.404C161.751 145.55 160.732 145.663 159.821 145.759L159.502 144.541ZM162.937 138.34C164.745 138.152 166.171 139.034 166.324 140.502C166.48 141.998 165.264 143.115 163.455 143.304C161.606 143.497 160.198 142.654 160.042 141.158C159.889 139.689 161.088 138.533 162.937 138.34ZM163.058 139.496C162.024 139.604 161.386 140.207 161.47 141.009C161.556 141.838 162.301 142.256 163.334 142.148C164.313 142.046 164.969 141.482 164.883 140.653C164.799 139.851 164.037 139.394 163.058 139.496Z" fill="#404040"/>
<path d="M181.513 141.68L181.639 142.89L173.018 143.79L172.402 137.889L180.928 136.999L181.056 138.223L174.026 138.956L174.388 142.424L181.513 141.68ZM183.151 145.262L183.282 146.513L172.05 147.685L171.919 146.434L183.151 145.262Z" fill="#404040"/>
<path d="M190.97 137.064C191.14 138.696 192.285 140.185 194.257 140.639L193.551 141.908C192.173 141.543 191.121 140.684 190.485 139.534C190.088 140.936 189.2 142.108 187.815 142.796L186.888 141.683C188.79 140.811 189.619 139.006 189.445 137.209L189.299 135.809L190.822 135.65L190.97 137.064ZM196.564 134.295L197.516 143.419L196.007 143.576L195.466 138.396L193.018 138.651L192.889 137.414L195.337 137.158L195.055 134.452L196.564 134.295ZM197.964 145.077L198.092 146.3L189.715 147.175L189.308 143.272L190.845 143.112L191.124 145.79L197.964 145.077Z" fill="#404040"/>
<path d="M203.682 134.404L203.808 135.614L200.436 135.966L200.561 137.163L203.811 136.824L203.932 137.979L200.682 138.319L200.816 139.61C202.318 139.44 203.351 139.27 204.525 138.921L204.816 140.128C203.403 140.55 202.21 140.716 200.306 140.914L199.491 141L198.855 134.908L203.682 134.404ZM208.816 133.016L209.596 140.495L208.155 140.645L207.821 137.45L206.543 137.583L206.867 140.683L205.453 140.831L204.706 133.678L206.12 133.531L206.417 136.373L207.695 136.239L207.374 133.166L208.816 133.016ZM209.653 141.039L210.097 145.295L208.588 145.452L208.271 142.42L201.364 143.141L201.236 141.917L209.653 141.039Z" fill="#404040"/>
<path d="M214.411 133.284C216.354 133.068 217.911 134.156 218.106 135.895C218.276 137.651 216.976 139.024 215.031 139.226C213.1 139.428 211.531 138.355 211.348 136.6C211.166 134.86 212.479 133.472 214.411 133.284ZM214.547 134.59C213.473 134.702 212.737 135.424 212.844 136.444C212.952 137.478 213.819 138.02 214.893 137.907C215.981 137.794 216.732 137.083 216.624 136.05C216.518 135.03 215.635 134.476 214.547 134.59ZM220.577 131.775L221.861 144.081L220.352 144.238L219.067 131.932L220.577 131.775ZM211.279 141.336C213.495 141.105 216.565 140.757 219.177 140.1L219.415 141.188C216.71 142.007 213.76 142.328 211.598 142.554L211.279 141.336Z" fill="#404040"/>
<path d="M229.128 131.789C230.794 131.615 232.169 132.874 232.621 135.095L234.96 134.851L234.487 130.323L235.983 130.167L237.268 142.473L235.772 142.629L235.088 136.075L232.762 136.317C232.847 138.707 231.748 140.3 230.035 140.478C228.186 140.671 226.706 139.135 226.426 136.456C226.149 133.805 227.279 131.982 229.128 131.789ZM229.27 133.149C228.25 133.256 227.672 134.429 227.881 136.304C228.065 138.196 228.873 139.225 229.893 139.119C230.913 139.012 231.478 137.84 231.294 135.948C231.085 134.073 230.29 133.043 229.27 133.149Z" fill="#404040"/>
<path d="M248.004 128.912L249.288 141.218L247.779 141.376L247.252 136.331L245.009 136.565L244.879 135.328L247.123 135.093L246.903 132.986L244.7 133.216L244.571 131.978L246.774 131.748L246.494 129.07L248.004 128.912ZM243.709 130.432L244.188 135.029L240.245 135.44L240.517 138.051C242.141 137.868 243.548 137.652 245.175 137.235L245.426 138.46C243.567 138.956 242.008 139.16 240.104 139.359L239.152 139.458L238.626 134.413L242.583 134L242.353 131.797L238.355 132.215L238.229 131.004L243.709 130.432Z" fill="#404040"/>
<path d="M255.353 128.337C258.073 128.054 259.865 128.76 260.033 130.241C260.171 131.697 258.562 132.745 255.841 133.015C253.15 133.31 251.319 132.621 251.167 131.166C251.012 129.684 252.661 128.618 255.353 128.337ZM255.475 129.507C253.68 129.694 252.65 130.228 252.744 131.002C252.809 131.751 253.926 132.047 255.721 131.859C257.515 131.672 258.547 131.152 258.469 130.404C258.388 129.629 257.27 129.32 255.475 129.507ZM260.425 135.712L260.857 139.846L252.331 140.736L251.899 136.602L255.421 136.234L255.298 135.051L250.457 135.557L250.33 134.346L261.535 133.177L261.661 134.387L256.793 134.895L256.917 136.078L260.425 135.712ZM253.52 137.642L253.699 139.356L259.26 138.775L259.081 137.062L253.52 137.642Z" fill="#404040"/>
<path d="M264.701 135.321C264.534 133.592 264.968 133.011 265.769 132.391C266.316 131.963 266.703 131.455 266.632 130.775C266.552 130.014 265.917 129.585 265.169 129.664C264.489 129.735 263.881 130.238 263.936 131.153L262.236 131.33C262.087 129.504 263.362 128.422 265.035 128.248C266.87 128.056 268.241 128.944 268.41 130.562C268.525 131.664 268.043 132.443 267.214 133.065C266.475 133.623 266.199 134.133 266.292 135.155L266.304 135.277L264.713 135.443L264.701 135.321ZM265.87 138.36C265.285 138.421 264.76 137.995 264.699 137.41C264.639 136.839 265.065 136.314 265.65 136.253C266.208 136.194 266.747 136.619 266.806 137.19C266.867 137.775 266.428 138.302 265.87 138.36Z" fill="#404040"/>
<path d="M7.89052 52.8534C8.92385 46.307 15.0684 41.8378 21.6148 42.8712L274.484 82.786C281.03 83.8193 285.499 89.9639 284.466 96.5102L280.724 120.217C279.691 126.763 273.546 131.232 267 130.199L14.1307 90.2841C7.58438 89.2508 3.11518 83.1062 4.14851 76.5599L7.89052 52.8534Z" fill="white"/>
<path d="M64.4484 68.2677C66.0959 68.5278 67.1007 70.0982 66.965 72.3606L69.2946 72.7283L70.0044 68.2312L71.4899 68.4657L69.5608 80.6874L68.0752 80.4529L69.1027 73.9437L66.7867 73.5781C66.2526 75.9091 64.781 77.1647 63.0862 76.8972C61.2496 76.6073 60.2096 74.7338 60.6353 72.0812C61.0442 69.4467 62.6117 67.9778 64.4484 68.2677ZM62.0803 72.3093C61.7772 74.1853 62.2943 75.3812 63.2994 75.5467C64.3133 75.6999 65.1669 74.7204 65.4699 72.8443C65.7574 70.9796 65.248 69.7781 64.2352 69.6182C63.2291 69.4594 62.3677 70.4445 62.0803 72.3093Z" fill="#404040"/>
<path d="M82.6067 77.5701L82.4256 78.718L73.499 77.309L73.6802 76.1611L77.4074 76.7494L77.5716 75.7096L79.0706 75.9462L78.9065 76.986L82.6067 77.5701ZM72.5485 74.4738L73.3628 69.315L76.5229 69.8138L76.3375 70.9887L74.6494 70.7222L74.2071 73.5245C74.792 73.5891 75.3891 73.6211 76.0654 73.5894L75.988 74.7814C74.8859 74.8358 74.0678 74.7136 73.1157 74.5633L72.5485 74.4738ZM74.0513 79.5969C74.2173 78.502 75.6455 78.0907 77.8738 78.4425C80.1021 78.7942 81.3275 79.6243 81.1548 80.7182C80.9757 81.8526 79.5574 82.2446 77.3281 81.8996C75.1009 81.5412 73.8655 80.7302 74.0513 79.5969ZM76.3163 75.0685L77.1306 69.9097L80.5473 70.449L80.3619 71.6239L78.4307 71.3191L77.9873 74.1281C78.9291 74.256 79.5599 74.2933 80.308 74.2453L80.2419 75.4529C79.2636 75.513 78.4703 75.4085 76.9511 75.1687L76.3163 75.0685ZM75.6449 79.8484C75.5703 80.3211 76.243 80.6626 77.4922 80.8598C78.7346 81.0559 79.4596 80.935 79.5477 80.4645C79.6046 80.0167 78.951 79.6852 77.7096 79.4823C76.4594 79.2919 75.7152 79.4028 75.6449 79.8484ZM79.6491 73.4215L79.8302 72.2736L81.6804 72.5657L82.0641 70.1348L83.5361 70.3672L82.5086 76.8764L81.0366 76.6441L81.4992 73.7136L79.6491 73.4215Z" fill="#404040"/>
<path d="M95.6903 72.2857L93.7633 84.4939L92.3318 84.2679L94.2588 72.0597L95.6903 72.2857ZM83.7106 79.17C86.4716 78.0764 87.9346 76.3488 88.5521 73.9272L85.257 73.407L85.4489 72.1916L90.2295 72.9462C90.043 74.1279 89.7196 75.2118 89.2257 76.1927L90.9205 76.4602L91.6325 71.9497L93.0505 72.1735L91.262 83.5039L89.844 83.2801L90.7308 77.6621L88.5431 77.3168C87.6134 78.6026 86.2726 79.6436 84.393 80.3712L83.7106 79.17Z" fill="#404040"/>
<path d="M106.593 74.7679C106.089 77.9134 103.668 79.7942 99.9595 80.2262L99.5373 78.9553C102.389 78.6443 104.236 77.4686 104.794 75.7296L100.824 75.1029L101.015 73.8875L106.593 74.7679ZM100.676 85.419L101.414 80.7464L109.449 82.0147L108.712 86.6874L100.676 85.419ZM102.336 84.4629L107.414 85.2645L107.776 82.9687L102.698 82.1672L102.336 84.4629ZM106.097 78.2606L106.291 77.0317L108.641 77.4026L109.112 74.4181L110.611 74.6547L109.526 81.5286L108.027 81.292L108.447 78.6315L106.097 78.2606Z" fill="#404040"/>
<path d="M115.8 77.7299C115.592 79.095 116.135 80.5648 117.635 81.4521L116.643 82.4721C115.638 81.8705 115.008 80.9544 114.729 79.9138C114.104 80.9363 113.16 81.7423 111.92 82.0587L111.306 80.7715C113.104 80.3009 114.131 78.8783 114.355 77.5019L114.59 76.0163L116.035 76.2444L115.8 77.7299ZM112.972 84.4255L113.161 83.2236L121.521 84.5431L120.854 88.7701L119.355 88.5334L119.832 85.5084L112.972 84.4255ZM117.572 83.2554L118.695 76.1384L120.1 76.3601L119.652 79.1961L120.867 79.3879L121.347 76.3494L122.779 76.5753L121.613 83.9624L120.181 83.7364L120.671 80.6304L119.456 80.4385L118.976 83.4771L117.572 83.2554Z" fill="#404040"/>
<path d="M133.854 78.3098L133.087 83.1715L134.964 83.4678L134.768 84.7102L132.891 84.4139L131.927 90.518L130.442 90.2835L132.369 78.0753L133.854 78.3098ZM123.74 79.869L123.929 78.6671L126.819 79.1233L127.088 77.4217L128.587 77.6583L128.318 79.3599L131.127 79.8033L130.938 81.0052L123.74 79.869ZM123.727 83.6318C123.98 81.9416 125.479 80.9532 127.26 81.2413C129.017 81.5117 130.131 82.9126 129.872 84.6017C129.599 86.282 128.11 87.2579 126.354 86.9808C124.572 86.6994 123.448 85.311 123.727 83.6318ZM125.159 83.8577C124.995 84.8493 125.59 85.5938 126.55 85.7384C127.488 85.8933 128.27 85.3662 128.44 84.3757C128.583 83.381 128.005 82.6184 127.066 82.4702C126.107 82.3189 125.308 82.8641 125.159 83.8577Z" fill="#404040"/>
<path d="M145.585 83.7047L145.397 84.8931L136.943 83.5587L137.606 79.3587L139.091 79.5932L138.616 82.6048L145.585 83.7047ZM135.087 85.937L135.274 84.7486L146.429 86.5094L146.241 87.6978L135.087 85.937ZM135.686 90.8206L136.253 87.2284L137.752 87.465L137.377 89.8418L144.521 90.9695L144.329 92.1849L135.686 90.8206Z" fill="#404040"/>
<path d="M152.254 84.7713C151.938 86.77 152.781 89.0621 154.622 90.1972L153.611 91.2555C152.265 90.3995 151.413 88.957 151.098 87.3155C150.273 88.9016 148.978 90.1366 147.446 90.587L146.768 89.2756C148.833 88.6881 150.394 86.6023 150.728 84.5304L150.89 83.504L148.202 83.0798L148.398 81.8374L155.286 82.9246L155.09 84.167L152.416 83.7449L152.254 84.7713ZM154.912 94.1462L156.839 81.9379L158.352 82.1767L156.425 94.3849L154.912 94.1462Z" fill="#404040"/>
<path d="M173.086 94.2327L172.892 95.4617L161.737 93.7009L161.931 92.472L166.739 93.2309L167.159 90.5704L163.58 90.0055L164.509 84.1175L173.152 85.4818L172.223 91.3698L168.644 90.8049L168.224 93.4653L173.086 94.2327ZM165.237 89.063L170.923 89.9604L171.477 86.4492L165.792 85.5518L165.237 89.063Z" fill="#404040"/>
<path d="M185.031 96.1598L184.837 97.3887L173.682 95.628L173.876 94.399L185.031 96.1598ZM176.35 87.1491L176.541 85.9337L185.076 87.2809L184.456 91.2108L177.447 90.1044L177.196 91.698L184.488 92.8491L184.3 94.0375L175.509 92.6498L176.138 88.6659L183.16 89.7744L183.399 88.2618L176.35 87.1491Z" fill="#404040"/>
<path d="M196.673 91.7689L196.485 92.9573L188.031 91.6228L188.694 87.4229L190.18 87.6574L189.704 90.6689L196.673 91.7689ZM186.175 94.0012L186.362 92.8127L197.517 94.5735L197.33 95.7619L186.175 94.0012ZM186.774 98.8848L187.341 95.2926L188.84 95.5292L188.465 97.906L195.609 99.0337L195.417 100.249L186.774 98.8848Z" fill="#404040"/>
<path d="M212.787 90.783L211.662 97.9135L210.163 97.6768L210.376 96.3264L207.472 95.8681L207.664 94.6526L210.568 95.111L210.774 93.801L207.986 93.3608C206.91 95.1772 204.913 96.2531 202.142 96.577L201.722 95.2926C204.7 94.9737 206.455 93.7628 206.971 91.9827L203.008 91.357L203.2 90.1416L208.804 91.0263C208.737 91.4517 208.639 91.8515 208.511 92.2257L210.962 92.6126L211.288 90.5464L212.787 90.783ZM203.073 99.1876C203.309 97.6885 205.096 97.0225 207.602 97.4111C210.073 97.808 211.574 98.9931 211.338 100.492C211.101 101.991 209.305 102.67 206.835 102.273C204.329 101.884 202.836 100.687 203.073 99.1876ZM204.572 99.4242C204.445 100.228 205.382 100.825 207.023 101.084C208.636 101.339 209.705 101.058 209.839 100.256C209.961 99.4374 209.031 98.8408 207.417 98.586C205.776 98.327 204.701 98.6071 204.572 99.4242Z" fill="#404040"/>
<path d="M224.574 99.6749L224.378 100.917L219.516 100.15L218.871 104.242L217.385 104.007L218.031 99.9154L213.223 99.1565L213.419 97.9141L224.574 99.6749ZM215.178 94.3993C215.436 92.7236 217.386 91.9449 219.987 92.3485C222.585 92.7656 224.214 94.1092 223.956 95.7849C223.688 97.4381 221.726 98.208 219.128 97.7909C216.527 97.3873 214.91 96.0525 215.178 94.3993ZM216.718 94.6423C216.561 95.5933 217.593 96.3307 219.315 96.6025C221.044 96.8753 222.253 96.4918 222.403 95.5397C222.555 94.5809 221.523 93.8368 219.795 93.5639C218.073 93.2921 216.862 93.6824 216.718 94.6423Z" fill="#404040"/>
<path d="M228.787 94.5543L227.55 101.432L226.024 101.191L226.951 94.2644L228.787 94.5543ZM225.435 103.077C225.518 102.509 226.071 102.119 226.653 102.204C227.212 102.299 227.618 102.84 227.528 103.408C227.437 103.988 226.883 104.385 226.322 104.297C225.742 104.205 225.337 103.657 225.435 103.077Z" fill="#404040"/>
<path d="M95.7795 26.4467C95.4222 19.8289 100.497 14.1746 107.115 13.8173L362.743 0.0177609C369.361 -0.339487 375.015 4.73568 375.372 11.3535L376.666 35.3186C377.023 41.9363 371.948 47.5907 365.33 47.948L109.703 61.7475C103.085 62.1048 97.4304 57.0296 97.0732 50.4118L95.7795 26.4467Z" fill="white"/>
<path d="M142.781 28.5465L143.27 37.5978L141.754 37.6796L141.53 33.5294L139.155 33.6576L139.087 32.4017L141.463 32.2734L141.266 28.6283L142.781 28.5465ZM132.963 35.6349C135.573 34.652 137.243 32.9804 137.431 31.0124L133.369 31.2316L133.302 29.9893L139.022 29.6805C139.198 32.9365 137.179 35.4826 133.671 36.8153L132.963 35.6349ZM135.392 41.0626L135.179 37.1172L136.722 37.0339L136.869 39.7507L143.681 39.3829L143.747 40.6116L135.392 41.0626Z" fill="#404040"/>
<path d="M154.262 27.9131L154.424 30.9165L156.144 30.8237L156.211 32.066L154.491 32.1589L154.652 35.1486L153.137 35.2304L152.746 27.9949L154.262 27.9131ZM144.821 34.6388C147.572 33.7235 149.156 32.1251 149.316 30.2612L145.159 30.4857L145.092 29.257L150.894 28.9438C151.076 32.1857 149.085 34.6072 145.488 35.835L144.821 34.6388ZM146.685 38.2076C146.589 36.6861 148.189 35.6481 150.674 35.514C153.179 35.3788 154.848 36.2403 154.93 37.7625C155.013 39.2983 153.446 40.3276 150.941 40.456C148.457 40.597 146.754 39.7442 146.685 38.2076ZM148.186 38.1265C148.223 38.9324 149.245 39.3564 150.877 39.2683C152.501 39.1806 153.479 38.6486 153.442 37.8428C153.392 37.0309 152.363 36.614 150.738 36.7017C149.107 36.7898 148.136 37.3146 148.186 38.1265Z" fill="#404040"/>
<path d="M161.306 29.2991C161.387 30.924 162.493 32.3978 164.485 32.9064L163.799 34.1483C162.354 33.7539 161.286 32.8668 160.661 31.6889C160.178 33.0156 159.196 34.1024 157.762 34.6795L156.934 33.5331C158.89 32.7497 159.833 31.0558 159.736 29.3838L159.672 28.2098L161.242 28.125L161.306 29.2991ZM158.961 36.8466L158.895 35.6316L167.319 35.1768L167.556 39.5728L166.027 39.6553L165.855 36.4744L158.961 36.8466ZM165.759 34.6997L165.361 27.3139L166.89 27.2314L167.289 34.6171L165.759 34.6997Z" fill="#404040"/>
<path d="M172.738 27.7782C174.697 27.6657 176.19 28.8242 176.298 30.5709C176.379 32.3259 175.019 33.6316 173.06 33.7442C171.121 33.842 169.601 32.6918 169.513 30.9372C169.412 29.1901 170.799 27.8761 172.738 27.7782ZM169.207 35.6637C171.432 35.5435 174.509 35.35 177.158 34.8237L177.34 35.9229C174.604 36.5977 171.643 36.7781 169.465 36.8957L169.207 35.6637ZM171.015 30.8561C171.064 31.8872 171.91 32.4781 172.989 32.4199C174.081 32.361 174.859 31.6823 174.81 30.6512C174.748 29.6277 173.908 29.0295 172.809 29.0888C171.731 29.1471 170.953 29.8326 171.015 30.8561ZM178.123 39.016L177.456 26.661L178.972 26.5792L179.639 38.9342L178.123 39.016Z" fill="#404040"/>
<path d="M189.392 27.3584L189.565 30.5666L190.999 30.4893L190.765 26.1616L192.212 26.0835L192.834 37.6058L191.387 37.6839L191.065 31.7179L189.632 31.7953L189.815 35.181L184.968 35.4426L184.546 27.6201L189.392 27.3584ZM186.323 34.1646L188.33 34.0563L188.037 28.6365L186.03 28.7448L186.323 34.1646ZM193.945 38.1482L193.279 25.8068L194.74 25.728L195.406 38.0694L193.945 38.1482Z" fill="#404040"/>
<path d="M206.354 29.099L206.421 30.3276L197.847 30.7905L197.598 26.1624L199.113 26.0806L199.296 29.48L206.354 29.099ZM196.603 33.6097L196.537 32.381L207.786 31.7737L207.852 33.0024L205.149 33.1483L205.386 37.5306L203.857 37.6132L203.62 33.2309L200.835 33.3812L201.072 37.7635L199.556 37.8453L199.32 33.463L196.603 33.6097Z" fill="#404040"/>
<path d="M217.921 24.4766L218.181 29.2957L220.01 29.197L220.079 30.4666L218.25 30.5654L218.586 36.7907L217.07 36.8725L216.406 24.5584L217.921 24.4766ZM208.67 33.9441C211.592 32.2802 213.104 30.1038 213.253 27.2753L208.993 27.5052L208.925 26.2492L214.727 25.936C214.916 29.561 213.587 32.8298 209.593 35.0717L208.67 33.9441Z" fill="#404040"/>
<path d="M233.389 23.6552L233.599 27.5324L235.319 27.4395L235.387 28.6955L233.667 28.7884L233.887 32.8703L232.372 32.9521L231.874 23.737L233.389 23.6552ZM223.808 26.7602L223.743 25.5452L226.651 25.3882L226.576 24.0093L228.092 23.9275L228.166 25.3064L231.06 25.1501L231.126 26.3652L223.808 26.7602ZM224.591 29.5932C224.515 28.1734 225.699 27.1647 227.494 27.0678C229.276 26.9716 230.556 27.8473 230.639 29.2667C230.709 30.6801 229.53 31.6679 227.748 31.7641C225.953 31.861 224.668 31.0062 224.591 29.5932ZM226.137 36.164L225.943 32.5735L227.459 32.4917L227.586 34.8535L234.467 34.482L234.533 35.7107L226.137 36.164ZM226.066 29.5136C226.099 30.258 226.75 30.6473 227.685 30.59C228.62 30.5464 229.232 30.0889 229.192 29.3448C229.151 28.594 228.493 28.1914 227.558 28.2419C226.623 28.2924 226.018 28.7631 226.066 29.5136Z" fill="#404040"/>
<path d="M246.071 22.9569L246.467 30.288L244.952 30.3699L244.789 27.3528L242.686 27.4663L242.619 26.2239L244.722 26.1104L244.556 23.0387L246.071 22.9569ZM236.025 29.6195C237.975 28.8296 238.93 27.1145 238.842 25.4831L238.836 25.3876L236.27 25.5261L236.204 24.2974L242.866 23.9378L242.932 25.1665L240.379 25.3043L240.384 25.3862C240.465 26.8879 241.543 28.3495 243.489 28.888L242.789 30.1306C241.392 29.7405 240.372 28.8508 239.763 27.7199C239.295 29.0596 238.322 30.1801 236.882 30.7781L236.025 29.6195ZM238.242 33.402C238.149 31.9214 239.706 30.968 242.307 30.8276C244.921 30.6864 246.565 31.4671 246.652 32.948C246.725 34.4296 245.174 35.3759 242.56 35.5238C239.959 35.6574 238.309 34.8839 238.242 33.402ZM239.744 33.3209C239.778 34.0858 240.784 34.4491 242.497 34.3498C244.224 34.2634 245.178 33.7943 245.136 33.0298C245.095 32.2584 244.096 31.8948 242.369 31.988C240.656 32.0805 239.695 32.5499 239.744 33.3209Z" fill="#404040"/>
<path d="M252.466 24.734C252.547 26.2425 253.625 27.6973 255.571 28.2357L254.87 29.4511C253.467 29.075 252.44 28.1925 251.838 27.0612C251.369 28.3804 250.401 29.4733 248.96 30.044L248.117 28.8846C250.047 28.13 251.01 26.435 250.924 24.8309L250.915 24.6671L248.348 24.8056L248.283 23.5906L254.945 23.231L255.01 24.446L252.457 24.5838L252.466 24.734ZM250.238 31.9192L250.173 30.7041L258.582 30.2502L258.82 34.6461L257.304 34.7279L257.133 31.547L250.238 31.9192ZM254.768 26.8004L254.701 25.558L256.803 25.4446L256.638 22.3865L258.153 22.3047L258.551 29.6631L257.035 29.7449L256.87 26.6869L254.768 26.8004Z" fill="#404040"/>
<path d="M270.167 21.6562L270.834 34.0112L269.305 34.0938L268.638 21.7387L270.167 21.6562ZM260.581 27.445C260.43 24.7832 261.697 23.0171 263.567 22.9161C265.417 22.8162 266.874 24.4354 267.024 27.0972C267.162 29.7801 265.888 31.5399 264.038 31.6397C262.168 31.7407 260.718 30.128 260.581 27.445ZM262.041 27.3662C262.144 29.2638 262.92 30.3241 263.965 30.2745C265.002 30.2117 265.652 29.0744 265.55 27.1768C265.448 25.2928 264.679 24.2253 263.641 24.2813C262.597 24.3377 261.94 25.4822 262.041 27.3662Z" fill="#404040"/>
<path d="M281.648 21.0364L281.904 25.7736L283.802 25.6712L283.87 26.9408L281.973 27.0432L282.315 33.3914L280.814 33.4725L280.147 21.1174L281.648 21.0364ZM272.599 23.8388L272.533 22.6101L278.212 22.3035L278.463 26.9589L274.313 27.1829L274.446 29.6403C276.404 29.5209 277.922 29.3568 279.626 28.9636L279.828 30.1849C277.942 30.629 276.268 30.8016 274.022 30.9228L273.012 30.9773L272.746 26.049L276.882 25.8256L276.763 23.614L272.599 23.8388Z" fill="#404040"/>
<path d="M294.247 23.8614L294.312 25.0627L285.766 25.5241L285.536 21.2783L287.038 21.1973L287.202 24.2416L294.247 23.8614ZM284.447 28.2378L284.382 27.0364L295.659 26.4277L295.724 27.629L284.447 28.2378ZM286.054 32.8884L285.857 29.257L287.373 29.1752L287.503 31.5779L294.724 31.1881L294.791 32.4167L286.054 32.8884Z" fill="#404040"/>
<path d="M303.438 22.1603C303.517 23.491 304.367 24.7937 306.018 25.3207L305.276 26.5246C304.154 26.1676 303.347 25.417 302.852 24.4854C302.46 25.6087 301.706 26.5941 300.558 27.149L299.676 26.0328C301.336 25.1902 302.044 23.6047 301.977 22.2392L301.895 20.7102L303.355 20.6313L303.438 22.1603ZM302.164 30.006C302.08 28.5866 303.673 27.6517 306.274 27.5113C308.854 27.3721 310.545 28.1297 310.628 29.5491C310.698 30.9761 309.099 31.9182 306.519 32.0575C303.918 32.1979 302.234 31.433 302.164 30.006ZM303.679 29.9242C303.712 30.655 304.743 30.9964 306.456 30.897C308.143 30.8128 309.132 30.3624 309.099 29.6317C309.053 28.9085 308.021 28.5671 306.335 28.6581C304.622 28.7506 303.633 29.201 303.679 29.9242ZM306.31 26.9206L305.935 19.9718L307.355 19.8951L307.51 22.7757L308.739 22.7094L308.571 19.5967L310.018 19.5186L310.426 27.0818L308.979 27.1599L308.806 23.9517L307.577 24.018L307.73 26.844L306.31 26.9206Z" fill="#404040"/>
<path d="M321.28 18.8969L321.441 21.8731L323.161 21.7802L323.23 23.0498L321.509 23.1427L321.669 26.0915L320.153 26.1733L319.765 18.9787L321.28 18.8969ZM311.746 25.3949C314.586 24.4954 316.151 22.9322 316.314 21.1229L312.143 21.3481L312.077 20.1194L317.879 19.8062C318.047 23.0421 316.065 25.3877 312.436 26.5215L311.746 25.3949ZM313.544 28.269L313.478 27.054L321.697 26.6103L321.946 31.2383L320.431 31.3201L320.247 27.9071L313.544 28.269Z" fill="#404040"/>
<path d="M326.154 26.753C326.074 25.0117 326.537 24.4527 327.368 23.8807C327.928 23.4739 328.354 22.9923 328.31 22.31C328.276 21.5452 327.649 21.0861 326.905 21.1263C326.229 21.1628 325.597 21.635 325.599 22.5523L323.892 22.6444C323.841 20.8056 325.156 19.7968 326.842 19.7057C328.685 19.6062 330.003 20.562 330.097 22.1862C330.151 23.2992 329.637 24.0526 328.778 24.6261C328.012 25.1535 327.71 25.6422 327.751 26.6668L327.758 26.7897L326.161 26.8759L326.154 26.753ZM326.048 28.8399C326.01 28.2669 326.469 27.7698 327.056 27.7312C327.623 27.7075 328.133 28.1523 328.164 28.7257C328.196 29.3127 327.737 29.8167 327.17 29.8473C326.583 29.879 326.073 29.4273 326.048 28.8399Z" fill="#404040"/>
</g>
<defs>
<filter id="filter0_d_1699_65703" x="0" y="0" width="380.684" height="343.52" filterUnits="userSpaceOnUse" color-interpolation-filters="sRGB">
<feFlood flood-opacity="0" result="BackgroundImageFix"/>
<feColorMatrix in="SourceAlpha" type="matrix" values="0 0 0 0 0 0 0 0 0 0 0 0 0 0 0 0 0 0 127 0" result="hardAlpha"/>
<feOffset dy="4"/>
<feGaussianBlur stdDeviation="2"/>
<feComposite in2="hardAlpha" operator="out"/>
<feColorMatrix type="matrix" values="0 0 0 0 0 0 0 0 0 0 0 0 0 0 0 0 0 0 0.25 0"/>
<feBlend mode="normal" in2="BackgroundImageFix" result="effect1_dropShadow_1699_65703"/>
<feBlend mode="normal" in="SourceGraphic" in2="effect1_dropShadow_1699_65703" result="shape"/>
</filter>
</defs>
</svg>
