<svg width="138" height="164" viewBox="0 0 138 164" fill="none" xmlns="http://www.w3.org/2000/svg">
<g filter="url(#filter0_d_894_30828)">
<g clip-path="url(#clip0_894_30828)">
<rect x="27.1953" y="2.69385" width="109.904" height="141.448" rx="9.29705" transform="rotate(10 27.1953 2.69385)" fill="white"/>
<g clip-path="url(#clip1_894_30828)">
<path d="M83.4953 40.6006L65.9729 37.5109L61.0277 32.2349C60.5351 31.7091 59.8856 31.3569 59.1763 31.2309L48.2231 29.2995C47.3517 29.1459 46.4549 29.3447 45.7301 29.8522C45.0053 30.3597 44.5118 31.1344 44.3582 32.0058L39.4338 59.9331C39.2802 60.8045 39.479 61.7012 39.9865 62.426C40.494 63.1508 41.2687 63.6443 42.1401 63.798L67.3294 68.2395C68.1521 68.3835 75.5667 62.9517 76.2509 62.4726C76.9351 61.9935 84.1095 56.3298 83.2083 61.4409L86.2015 44.4655C86.3551 43.5941 86.1563 42.6973 85.6488 41.9725C85.1413 41.2477 84.3666 40.7542 83.4953 40.6006Z" fill="#FF9E66"/>
<path d="M98.4755 61.3089L92.7833 60.3052L90.7245 55.6144C90.6142 55.3632 90.4436 55.1431 90.2279 54.9736C90.0122 54.8041 89.758 54.6904 89.4878 54.6426L76.3456 52.3253C76.0754 52.2778 75.7976 52.2977 75.5369 52.3832C75.2763 52.4687 75.0407 52.6172 74.8511 52.8155L71.3101 56.5189L65.6199 55.5156C64.3128 55.2851 62.9677 55.5833 61.8805 56.3446C60.7933 57.1059 60.053 58.2679 59.8225 59.5749L55.7672 82.5739C55.5367 83.881 55.8349 85.2261 56.5962 86.3133C57.3575 87.4005 58.5195 88.1408 59.8266 88.3712L92.6822 94.1646C93.9893 94.395 95.3344 94.0968 96.4216 93.3356C97.5088 92.5743 98.2491 91.4123 98.4795 90.1052L102.535 67.1063C102.765 65.7992 102.467 64.4541 101.706 63.3669C100.945 62.2797 99.7826 61.5394 98.4755 61.3089ZM86.6884 75.3222C86.4306 76.7843 85.745 78.1371 84.7183 79.2096C83.6917 80.282 82.3701 81.026 80.9206 81.3473C79.4711 81.6687 77.9589 81.553 76.5752 81.0149C75.1915 80.4768 73.9984 79.5404 73.1469 78.3243C72.2953 77.1081 71.8235 75.6668 71.7911 74.1825C71.7587 72.6981 72.1672 71.2376 72.9649 69.9854C73.7626 68.7333 74.9137 67.7458 76.2726 67.1479C77.6316 66.5499 79.1373 66.3684 80.5994 66.6262C82.56 66.9719 84.303 68.0823 85.4449 69.7131C86.5868 71.3439 87.0341 73.3616 86.6884 75.3222Z" fill="#FF5D00"/>
</g>
<path d="M43.7042 120.688L43.3596 112.768L40.3269 120.093L38.5143 119.773L43.225 108.639L44.8827 108.931L45.5168 121.008L43.7042 120.688ZM49.7533 113.56L51.0237 113.784L50.7259 115.473L49.4556 115.249L48.341 121.57L46.6369 121.269L48.7048 109.541L50.4089 109.842L49.7533 113.56ZM53.095 120.842L59.0905 121.9L60.8907 111.69L62.6414 111.999L60.5734 123.727L51.1851 122.071L51.9226 117.888L53.5648 118.178L53.095 120.842ZM56.1694 112.647L52.4203 111.986L52.7153 110.312L59.3151 111.476L59.02 113.149L56.6846 114.255L58.6076 116.032L58.2525 118.046L55.1491 114.991L51.5926 116.68L51.9723 114.526L56.1694 112.647ZM71.2352 122.108L67.5635 121.461L66.9653 124.854L65.0442 124.515L65.6425 121.122L62.8383 120.628L63.1279 118.985L71.5248 120.466L72.7049 113.773L74.533 114.096L72.465 125.823L70.6369 125.501L71.2352 122.108ZM69.2619 119.62L67.3718 119.286L67.9366 117.533L64.2029 116.875L64.457 115.434L68.392 116.128L68.8156 114.813L64.5087 114.053L64.7928 112.442L71.0053 113.537L70.7239 115.133L69.2619 119.62ZM82.6027 117.212L76.5297 116.141L76.8193 114.499L86.2386 116.16L85.9491 117.802L82.5429 119.182L85.2607 121.706L84.911 123.689L80.7204 119.915L75.4917 122.028L75.8413 120.045L82.6027 117.212ZM85.1073 126.2L84.7904 127.997L74.1317 126.117L74.4486 124.32L85.1073 126.2Z" fill="#FF5D00"/>
</g>
</g>
<defs>
<filter id="filter0_d_894_30828" x="-1.36719" y="-1.30615" width="140.797" height="166.384" filterUnits="userSpaceOnUse" color-interpolation-filters="sRGB">
<feFlood flood-opacity="0" result="BackgroundImageFix"/>
<feColorMatrix in="SourceAlpha" type="matrix" values="0 0 0 0 0 0 0 0 0 0 0 0 0 0 0 0 0 0 127 0" result="hardAlpha"/>
<feOffset/>
<feGaussianBlur stdDeviation="2"/>
<feComposite in2="hardAlpha" operator="out"/>
<feColorMatrix type="matrix" values="0 0 0 0 0.5375 0 0 0 0 0.196029 0 0 0 0 0 0 0 0 0.35 0"/>
<feBlend mode="normal" in2="BackgroundImageFix" result="effect1_dropShadow_894_30828"/>
<feBlend mode="normal" in="SourceGraphic" in2="effect1_dropShadow_894_30828" result="shape"/>
</filter>
<clipPath id="clip0_894_30828">
<rect x="27.1953" y="2.69385" width="109.904" height="141.448" rx="9.29705" transform="rotate(10 27.1953 2.69385)" fill="white"/>
</clipPath>
<clipPath id="clip1_894_30828">
<rect width="88.9666" height="57.0299" fill="white" transform="translate(33.6133 26.5835) rotate(10)"/>
</clipPath>
</defs>
</svg>
