<svg width="80" height="120" viewBox="0 0 80 120" fill="none" xmlns="http://www.w3.org/2000/svg">
<g clip-path="url(#clip0_889_14492)">
<path d="M22.8184 73.0462C27.4607 76.4977 20.595 67.5412 22.8184 73.0462C18.3816 69.7482 15.3501 69.0064 15.1222 62.4568C14.8955 55.9409 20.1483 52.3096 23.5158 47.4833C28.3957 40.4904 22.0327 36.4379 15.6017 36.2518C14.7324 36.2267 11.8221 36.0752 11.5843 37.1678C11.3781 38.1103 12.6615 37.2064 12.9826 37.1299C15.5259 36.5223 20.2532 37.6798 22.2574 39.2147C27.7827 43.4457 20.9177 48.9726 18.0357 52.679C14.9155 56.6922 13.5067 60.7611 14.5638 65.6693C15.584 70.4023 20.5295 72.3336 23.933 75.0714" fill="#DBF2E8"/>
<path d="M35.8898 70.6768C36.4213 69.9553 37.0126 69.2824 37.5575 68.5713L37.5369 68.4475C37.1856 68.0098 36.8344 67.5681 36.5078 67.1119C35.6477 65.9106 34.7124 64.6555 34.1953 63.2684C34.3622 63.2426 36.6922 61.614 36.9992 61.3787C37.3515 61.1093 37.8902 60.6634 38.1828 60.3424C38.3805 60.4766 38.5824 60.3517 38.773 60.3424C42.5482 60.1721 46.3019 59.8377 50.0895 59.9482C51.3699 60.6717 52.0487 61.7502 52.6266 63.061C52.8202 63.5017 53.3322 64.7092 53.4032 65.1241C53.4403 65.3388 53.3857 65.6515 53.4012 65.8858C53.5413 68.0449 53.428 70.5343 53.1138 72.6821C52.8336 74.5925 52.2877 76.6485 51.2699 78.2895C50.5829 77.7063 49.4271 78.1821 49.3602 79.077C48.4413 78.7663 47.6121 78.0521 46.888 77.4184C46.5769 77.1459 46.2596 76.7692 45.9341 76.5174C45.8775 76.474 45.863 76.408 45.7652 76.4338M38.7225 69.6302C38.5907 69.6746 38.6072 69.9099 38.6854 69.9946C39.5579 70.8254 40.3717 71.7202 41.2421 72.5531C41.4255 72.7286 41.6067 72.9319 41.7747 73.0888C42.0136 73.3117 43.7452 74.8588 43.8832 74.8609C44.0089 74.8619 44.116 74.7133 44.0542 74.5791C44.0326 74.5327 43.8328 74.352 43.773 74.2953C42.2217 72.8122 40.6168 71.392 39.08 69.8821C38.9687 69.7727 38.9337 69.5611 38.7225 69.6313V69.6302Z" fill="#DBF2E8"/>
<path d="M38.1836 60.3419C37.891 60.6629 37.3513 61.1088 37 61.3781C36.6931 61.6134 34.363 63.2411 34.1961 63.2679C33.8202 63.3267 33.575 63.3938 33.197 63.4764C29.4073 64.3082 25.4569 63.5125 23.4596 59.9301C21.28 56.0216 22.9075 52.1048 25.9112 49.2572C28.9149 46.4097 34.8163 44.6211 38.3227 47.4036C42.718 50.891 41.5921 56.6037 38.1836 60.3419Z" fill="#00A06A"/>
<path d="M50.089 59.9478C50.194 59.8931 50.1343 59.7506 50.1199 59.6639C49.6543 56.8629 49.8696 54.3869 51.2797 51.8851C55.0921 45.1218 63.5449 46.7071 65.225 54.1515C66.7938 61.0996 60.7225 69.6494 53.5202 65.0897C53.4316 65.0329 53.3914 64.9297 53.4027 65.1237C53.3306 64.7088 52.8197 63.5013 52.626 63.0606C52.0482 61.7498 51.3693 60.6713 50.089 59.9478Z" fill="#00A06A"/>
<path d="M51.2698 78.2908C51.3934 78.3961 51.5479 78.6324 51.5819 78.7945C51.9456 80.5005 49.2292 80.8277 49.3601 79.0793C49.427 78.1845 50.5828 77.7087 51.2698 78.2919V78.2908Z" fill="#414141"/>
<path d="M44.3847 64.3603C44.4928 64.3283 44.5711 64.3644 44.671 64.3892C45.5909 64.6255 45.8639 65.9486 45.013 66.4554C43.9932 67.0633 43.5029 65.4316 44.0633 64.6606C44.1086 64.5987 44.3249 64.3778 44.3847 64.3603Z" fill="#414141"/>
<path d="M44.1954 74.5124C44.1717 74.4608 44.1161 74.401 43.9255 74.2235L43.8812 74.1811C43.224 73.5536 42.5473 72.9271 41.8921 72.3213C40.999 71.4946 40.0751 70.64 39.1892 69.77C39.1696 69.7504 39.149 69.7194 39.1284 69.6864C39.0625 69.5842 38.9389 69.3953 38.6752 69.4831C38.5814 69.514 38.5124 69.5935 38.4856 69.6988C38.4506 69.8371 38.4877 70.0053 38.5814 70.1064C39.0233 70.5275 39.4591 70.9734 39.8793 71.4038C40.2873 71.8218 40.7086 72.2532 41.1381 72.664C41.2236 72.7455 41.3101 72.8353 41.3946 72.922C41.4914 73.0221 41.5821 73.116 41.6727 73.2007C41.6923 73.2182 43.6402 75.0109 43.8843 75.014H43.8874C43.9997 75.014 44.1058 74.9542 44.1707 74.853C44.2376 74.7498 44.2469 74.6218 44.1964 74.5124H44.1954Z" fill="#A1E7CA"/>
<path d="M49.1617 64.1937C50.4019 63.9924 50.3246 66.2898 49.173 66.071C48.353 65.9152 48.4427 64.3103 49.1617 64.1937Z" fill="#414141"/>
<path d="M48.7609 57.2986C53.6801 57.176 58.6368 57.0103 63.5583 56.7861C64.7234 56.7331 66.2973 56.5619 67.4051 56.6514C69.1543 56.7917 68.6462 57.4289 68.7465 58.7729C68.9857 62.0043 69.0121 66.5632 68.7288 69.7935C68.6781 70.3733 68.6859 71.0569 68.0344 71.1452C67.2496 71.2524 67.0391 70.815 66.8639 71.6411C65.4211 78.4374 65.8069 86.749 64.8865 93.7905C64.4026 97.4924 63.1042 101.013 62.3811 104.627C62.0945 106.06 62.056 107.54 61.7958 108.917C61.7231 109.303 61.6206 109.847 61.2205 110.008C52.4688 110.891 43.6256 110.174 34.8584 110.431C32.0114 110.024 28.87 110.193 26.0594 109.75C22.4429 109.179 21.5942 105.585 20.6452 102.47C18.6733 96.0026 16.8359 89.1554 15.1087 82.6076C14.4 79.9217 13.7926 77.2061 13.1379 74.5081C12.1746 74.5335 11.0745 74.5788 10.8089 73.4401C10.465 71.217 9.86648 69.0293 9.47629 66.8194C9.31536 65.9072 8.84473 63.567 8.94834 62.7818C8.977 62.562 9.6251 61.3859 9.81358 61.2081C10.8089 60.2682 16.3619 59.3936 17.9756 59.1186C21.4079 58.5322 24.9185 58.044 28.395 57.8143C35.1737 57.3659 41.9711 57.4709 48.7631 57.3008L48.7609 57.2986ZM58.5961 70.1579C58.4616 69.9216 57.8013 69.8598 57.5335 69.8664C52.0477 70.0066 46.1475 70.878 40.6253 71.2844C36.708 71.5726 32.7565 71.6025 28.8425 71.9282C26.5785 72.1171 24.32 72.55 22.0505 72.6958C21.2702 72.7466 18.5014 72.3181 18.5322 73.407C18.5554 74.2254 19.5959 73.8554 19.9971 73.8466C23.0492 73.7847 25.7232 73.4203 28.7146 73.2115C38.0549 72.5588 47.4536 72.2375 56.7663 71.2844C57.0849 71.2524 58.2235 71.1651 58.369 71.0933C58.6335 70.9641 58.7272 70.3887 58.595 70.1568L58.5961 70.1579Z" fill="#3F3F3F"/>
<path d="M58.5982 70.1581C58.7293 70.3889 58.6367 70.9654 58.3722 71.0946C58.2256 71.1653 57.087 71.2526 56.7696 71.2857C47.4568 72.2388 38.0581 72.5601 28.7178 73.2128C25.7264 73.4216 23.0535 73.7849 20.0003 73.8478C19.6002 73.8556 18.5597 74.2255 18.5354 73.4083C18.5035 72.3194 21.2734 72.7479 22.0537 72.6971C24.3232 72.5513 26.5817 72.1184 28.8457 71.9295C32.7597 71.6037 36.7112 71.5739 40.6285 71.2857C46.1507 70.8793 52.0509 70.0079 57.5367 69.8677C57.8045 69.861 58.4648 69.9218 58.5993 70.1592L58.5982 70.1581Z" fill="#2A2A2A"/>
<path opacity="0.7" d="M40.0975 93.3337C39.6696 93.3338 39.2921 93.2878 38.9649 93.1957C38.646 93.0951 38.3943 92.9022 38.2096 92.6171C38.0249 92.3235 37.9325 91.8915 37.9323 91.321C37.9321 90.8512 38.0201 90.4191 38.1961 90.0247C38.3805 89.622 38.6572 89.2443 39.0263 88.8918C39.3953 88.5394 39.8566 88.2036 40.4102 87.8846C40.8715 87.616 41.2825 87.36 41.6431 87.1165C42.0122 86.8647 42.3015 86.6171 42.5112 86.3738C42.7292 86.1304 42.8382 85.8787 42.8381 85.6186C42.838 85.3501 42.7624 85.1404 42.6114 84.9895C42.4687 84.8301 42.2589 84.7211 41.982 84.6625C41.7135 84.6039 41.3905 84.5746 41.013 84.5748C40.7613 84.5749 40.4635 84.6085 40.1196 84.6758C39.7756 84.7346 39.4401 84.8186 39.1129 84.9278C38.7858 85.0286 38.5257 85.1419 38.3328 85.2679C37.9386 85.461 37.5737 85.6205 37.2382 85.7464C36.911 85.8724 36.5587 85.9355 36.1812 85.9356C35.854 85.9357 35.5645 85.8477 35.3128 85.6716C35.061 85.4955 34.9351 85.16 34.9349 84.665C34.9348 84.3295 35.0269 84.0148 35.2114 83.7211C35.3959 83.419 35.6433 83.1379 35.9536 82.8777C36.3897 82.4916 36.9055 82.1601 37.5011 81.883C38.0966 81.5976 38.7174 81.3834 39.3633 81.2406C40.0176 81.0893 40.6384 81.0136 41.2257 81.0134C42.115 81.0131 42.9372 81.1051 43.6923 81.2893C44.4558 81.4736 45.1186 81.7545 45.6809 82.1318C46.2431 82.5007 46.6795 82.9704 46.9901 83.5407C47.3007 84.1027 47.4562 84.7654 47.4564 85.5289C47.4567 86.1497 47.3268 86.7034 47.0669 87.1901C46.8154 87.6768 46.459 88.1006 45.9977 88.4615C45.5448 88.8224 45.0248 89.1372 44.4376 89.4059C44.0937 89.5738 43.754 89.7543 43.4185 89.9473C43.0914 90.132 42.8104 90.3503 42.5756 90.602C42.3408 90.8538 42.1815 91.1517 42.0977 91.4957C41.9385 92.1165 41.7332 92.578 41.4816 92.8802C41.2384 93.1823 40.777 93.3334 40.0975 93.3337ZM39.5454 97.9397C38.9414 97.9399 38.459 97.8058 38.0981 97.5375C37.7373 97.2776 37.5568 96.8791 37.5566 96.3422C37.5564 95.7465 37.7617 95.2934 38.1727 94.9829C38.5921 94.6639 39.0534 94.5044 39.5568 94.5042C39.9511 94.5041 40.3244 94.5543 40.6768 94.6548C41.0292 94.747 41.3187 94.9146 41.5453 95.1579C41.7803 95.4011 41.8979 95.7492 41.8981 96.2022C41.8982 96.7056 41.7138 97.1209 41.3448 97.4482C40.9758 97.7756 40.376 97.9394 39.5454 97.9397Z" fill="white"/>
</g>
<defs>
<clipPath id="clip0_889_14492">
<rect width="80" height="120" fill="white"/>
</clipPath>
</defs>
</svg>
